<?xml version="1.0" encoding="UTF-8"?>
<svg xmlns="http://www.w3.org/2000/svg" viewBox="0 0 100 100" preserveAspectRatio="none">
	<style>
		* { vector-effect: non-scaling-stroke }
		.rolling-line { fill: none; stroke-width: 1.5; stroke-linecap: round; stroke-linejoin: round;}

		.cases rect { fill: #ffdad8; }
		.cases.faded .rolling-line { stroke: #fca9a9; }
		.cases.normal .rolling-line { stroke: #cf1111; }
		.cases.normal .rolling-area { fill: rgba(207, 17, 17, 0.2); }

		.deaths rect { fill: rgba(85, 85, 85, 0.1); }
		.deaths.faded .rolling-line { stroke: #bbb; }
		.deaths.normal .rolling-line { stroke: #555; }
		.deaths.normal .rolling-area { fill: rgba(85, 85, 85, 0.3); }
	</style>

	<g class="cases normal">
		<g>
			
				<rect
					x="0"
					y="97"
					width="0.18328611898016997"
					height="0"
				/>
			
				<rect
					x="0.28328611898017"
					y="97"
					width="0.18328611898016997"
					height="0"
				/>
			
				<rect
					x="0.56657223796034"
					y="97"
					width="0.18328611898016997"
					height="0"
				/>
			
				<rect
					x="0.8498583569405099"
					y="97"
					width="0.18328611898016997"
					height="0"
				/>
			
				<rect
					x="1.13314447592068"
					y="97"
					width="0.18328611898016997"
					height="0"
				/>
			
				<rect
					x="1.41643059490085"
					y="97"
					width="0.18328611898016997"
					height="0"
				/>
			
				<rect
					x="1.6997167138810199"
					y="97"
					width="0.18328611898016997"
					height="0"
				/>
			
				<rect
					x="1.9830028328611897"
					y="97"
					width="0.18328611898016997"
					height="0"
				/>
			
				<rect
					x="2.26628895184136"
					y="97"
					width="0.18328611898016997"
					height="0"
				/>
			
				<rect
					x="2.54957507082153"
					y="97"
					width="0.18328611898016997"
					height="0"
				/>
			
				<rect
					x="2.8328611898017"
					y="97"
					width="0.18328611898016997"
					height="0"
				/>
			
				<rect
					x="3.1161473087818696"
					y="97"
					width="0.18328611898016997"
					height="0"
				/>
			
				<rect
					x="3.3994334277620397"
					y="97"
					width="0.18328611898016997"
					height="0"
				/>
			
				<rect
					x="3.68271954674221"
					y="97"
					width="0.18328611898016997"
					height="0"
				/>
			
				<rect
					x="3.9660056657223794"
					y="97"
					width="0.18328611898016997"
					height="0"
				/>
			
				<rect
					x="4.2492917847025495"
					y="97"
					width="0.18328611898016997"
					height="0"
				/>
			
				<rect
					x="4.53257790368272"
					y="97"
					width="0.18328611898016997"
					height="0"
				/>
			
				<rect
					x="4.81586402266289"
					y="97"
					width="0.18328611898016997"
					height="0"
				/>
			
				<rect
					x="5.09915014164306"
					y="97"
					width="0.18328611898016997"
					height="0"
				/>
			
				<rect
					x="5.38243626062323"
					y="97"
					width="0.18328611898016997"
					height="0"
				/>
			
				<rect
					x="5.6657223796034"
					y="97"
					width="0.18328611898016997"
					height="0"
				/>
			
				<rect
					x="5.949008498583569"
					y="97"
					width="0.18328611898016997"
					height="0"
				/>
			
				<rect
					x="6.232294617563739"
					y="97"
					width="0.18328611898016997"
					height="0"
				/>
			
				<rect
					x="6.515580736543909"
					y="97"
					width="0.18328611898016997"
					height="0"
				/>
			
				<rect
					x="6.798866855524079"
					y="97"
					width="0.18328611898016997"
					height="0"
				/>
			
				<rect
					x="7.0821529745042495"
					y="97"
					width="0.18328611898016997"
					height="0"
				/>
			
				<rect
					x="7.36543909348442"
					y="97"
					width="0.18328611898016997"
					height="0"
				/>
			
				<rect
					x="7.64872521246459"
					y="97"
					width="0.18328611898016997"
					height="0"
				/>
			
				<rect
					x="7.932011331444759"
					y="97"
					width="0.18328611898016997"
					height="0"
				/>
			
				<rect
					x="8.215297450424929"
					y="97"
					width="0.18328611898016997"
					height="0"
				/>
			
				<rect
					x="8.498583569405099"
					y="97"
					width="0.18328611898016997"
					height="0"
				/>
			
				<rect
					x="8.78186968838527"
					y="97"
					width="0.18328611898016997"
					height="0"
				/>
			
				<rect
					x="9.06515580736544"
					y="97"
					width="0.18328611898016997"
					height="0"
				/>
			
				<rect
					x="9.34844192634561"
					y="97"
					width="0.18328611898016997"
					height="0"
				/>
			
				<rect
					x="9.63172804532578"
					y="97"
					width="0.18328611898016997"
					height="0"
				/>
			
				<rect
					x="9.91501416430595"
					y="96.9981536009083"
					width="0.18328611898016997"
					height="0.0018463990917041428"
				/>
			
				<rect
					x="10.19830028328612"
					y="97"
					width="0.18328611898016997"
					height="0"
				/>
			
				<rect
					x="10.48158640226629"
					y="97"
					width="0.18328611898016997"
					height="0"
				/>
			
				<rect
					x="10.76487252124646"
					y="96.9981536009083"
					width="0.18328611898016997"
					height="0.0018463990917041428"
				/>
			
				<rect
					x="11.04815864022663"
					y="97"
					width="0.18328611898016997"
					height="0"
				/>
			
				<rect
					x="11.3314447592068"
					y="97"
					width="0.18328611898016997"
					height="0"
				/>
			
				<rect
					x="11.614730878186968"
					y="97"
					width="0.18328611898016997"
					height="0"
				/>
			
				<rect
					x="11.898016997167138"
					y="96.9981536009083"
					width="0.18328611898016997"
					height="0.0018463990917041428"
				/>
			
				<rect
					x="12.181303116147308"
					y="96.99261440363317"
					width="0.18328611898016997"
					height="0.007385596366830782"
				/>
			
				<rect
					x="12.464589235127479"
					y="96.98892160544975"
					width="0.18328611898016997"
					height="0.011078394550253279"
				/>
			
				<rect
					x="12.747875354107649"
					y="96.98892160544975"
					width="0.18328611898016997"
					height="0.011078394550253279"
				/>
			
				<rect
					x="13.031161473087819"
					y="96.98892160544975"
					width="0.18328611898016997"
					height="0.011078394550253279"
				/>
			
				<rect
					x="13.314447592067989"
					y="97"
					width="0.18328611898016997"
					height="0"
				/>
			
				<rect
					x="13.597733711048159"
					y="96.98338240817462"
					width="0.18328611898016997"
					height="0.016617591825379918"
				/>
			
				<rect
					x="13.881019830028329"
					y="96.96676481634924"
					width="0.18328611898016997"
					height="0.033235183650759836"
				/>
			
				<rect
					x="14.164305949008499"
					y="96.95384002270727"
					width="0.18328611898016997"
					height="0.04615997729273147"
				/>
			
				<rect
					x="14.44759206798867"
					y="96.9612256190741"
					width="0.18328611898016997"
					height="0.03877438092590069"
				/>
			
				<rect
					x="14.73087818696884"
					y="96.95753282089069"
					width="0.18328611898016997"
					height="0.04246717910930897"
				/>
			
				<rect
					x="15.01416430594901"
					y="96.85413447175497"
					width="0.18328611898016997"
					height="0.1458655282450252"
				/>
			
				<rect
					x="15.29745042492918"
					y="96.93722243088189"
					width="0.18328611898016997"
					height="0.06277756911811139"
				/>
			
				<rect
					x="15.58073654390935"
					y="96.89475525177257"
					width="0.18328611898016997"
					height="0.10524474822743457"
				/>
			
				<rect
					x="15.864022662889518"
					y="96.74704332443584"
					width="0.18328611898016997"
					height="0.2529566755641639"
				/>
			
				<rect
					x="16.14730878186969"
					y="96.6436449753001"
					width="0.18328611898016997"
					height="0.35635502469989433"
				/>
			
				<rect
					x="16.430594900849858"
					y="96.47746905704628"
					width="0.18328611898016997"
					height="0.5225309429537219"
				/>
			
				<rect
					x="16.71388101983003"
					y="96.58640660345712"
					width="0.18328611898016997"
					height="0.4135933965428791"
				/>
			
				<rect
					x="16.997167138810198"
					y="96.22820517966552"
					width="0.18328611898016997"
					height="0.7717948203344775"
				/>
			
				<rect
					x="17.28045325779037"
					y="96.36299231336031"
					width="0.18328611898016997"
					height="0.6370076866396914"
				/>
			
				<rect
					x="17.56373937677054"
					y="96.42761628157012"
					width="0.18328611898016997"
					height="0.5723837184298759"
				/>
			
				<rect
					x="17.84702549575071"
					y="96.57163541072345"
					width="0.18328611898016997"
					height="0.42836458927655485"
				/>
			
				<rect
					x="18.13031161473088"
					y="96.11003563779613"
					width="0.18328611898016997"
					height="0.8899643622038695"
				/>
			
				<rect
					x="18.413597733711047"
					y="96.07310765596195"
					width="0.18328611898016997"
					height="0.9268923440380519"
				/>
			
				<rect
					x="18.69688385269122"
					y="96.1026500414293"
					width="0.18328611898016997"
					height="0.8973499585707003"
				/>
			
				<rect
					x="18.980169971671387"
					y="96.34822112062663"
					width="0.18328611898016997"
					height="0.6517788793733672"
				/>
			
				<rect
					x="19.26345609065156"
					y="96.40361309337791"
					width="0.18328611898016997"
					height="0.5963869066220866"
				/>
			
				<rect
					x="19.546742209631727"
					y="94.89879783363486"
					width="0.18328611898016997"
					height="2.101202166365141"
				/>
			
				<rect
					x="19.8300283286119"
					y="94.93757221456075"
					width="0.18328611898016997"
					height="2.0624277854392545"
				/>
			
				<rect
					x="20.113314447592067"
					y="95.01327457732083"
					width="0.18328611898016997"
					height="1.9867254226791715"
				/>
			
				<rect
					x="20.39660056657224"
					y="94.88402664090118"
					width="0.18328611898016997"
					height="2.115973359098817"
				/>
			
				<rect
					x="20.679886685552407"
					y="94.74370030993127"
					width="0.18328611898016997"
					height="2.2562996900687295"
				/>
			
				<rect
					x="20.96317280453258"
					y="95.42686797386371"
					width="0.18328611898016997"
					height="1.5731320261362924"
				/>
			
				<rect
					x="21.246458923512748"
					y="95.29023444107722"
					width="0.18328611898016997"
					height="1.7097655589227827"
				/>
			
				<rect
					x="21.52974504249292"
					y="93.9331311086709"
					width="0.18328611898016997"
					height="3.0668688913290936"
				/>
			
				<rect
					x="21.813031161473088"
					y="92.91945800732252"
					width="0.18328611898016997"
					height="4.080541992677482"
				/>
			
				<rect
					x="22.09631728045326"
					y="93.43644975300111"
					width="0.18328611898016997"
					height="3.5635502469988865"
				/>
			
				<rect
					x="22.379603399433428"
					y="93.7115632176658"
					width="0.18328611898016997"
					height="3.288436782334202"
				/>
			
				<rect
					x="22.6628895184136"
					y="94.9892713891286"
					width="0.18328611898016997"
					height="2.0107286108713964"
				/>
			
				<rect
					x="22.946175637393768"
					y="94.33749250975524"
					width="0.18328611898016997"
					height="2.6625074902447636"
				/>
			
				<rect
					x="23.229461756373937"
					y="94.67169074535461"
					width="0.18328611898016997"
					height="2.32830925464539"
				/>
			
				<rect
					x="23.51274787535411"
					y="93.61739686398862"
					width="0.18328611898016997"
					height="3.382603136011383"
				/>
			
				<rect
					x="23.796033994334277"
					y="91.35371157755306"
					width="0.18328611898016997"
					height="5.646288422446943"
				/>
			
				<rect
					x="24.07932011331445"
					y="93.113329911952"
					width="0.18328611898016997"
					height="3.8866700880480067"
				/>
			
				<rect
					x="24.362606232294617"
					y="90.98627815830292"
					width="0.18328611898016997"
					height="6.013721841697077"
				/>
			
				<rect
					x="24.64589235127479"
					y="91.61405384948407"
					width="0.18328611898016997"
					height="5.3859461505159345"
				/>
			
				<rect
					x="24.929178470254957"
					y="93.20564986653746"
					width="0.18328611898016997"
					height="3.794350133462544"
				/>
			
				<rect
					x="25.21246458923513"
					y="93.14287229741934"
					width="0.18328611898016997"
					height="3.857127702580655"
				/>
			
				<rect
					x="25.495750708215297"
					y="92.68681172176716"
					width="0.18328611898016997"
					height="4.313188278232843"
				/>
			
				<rect
					x="25.77903682719547"
					y="91.27062361842614"
					width="0.18328611898016997"
					height="5.729376381573857"
				/>
			
				<rect
					x="26.062322946175637"
					y="90.88841900644232"
					width="0.18328611898016997"
					height="6.111580993557681"
				/>
			
				<rect
					x="26.34560906515581"
					y="90.53206398174244"
					width="0.18328611898016997"
					height="6.467936018257561"
				/>
			
				<rect
					x="26.628895184135978"
					y="85.31414014857205"
					width="0.18328611898016997"
					height="11.68585985142795"
				/>
			
				<rect
					x="26.91218130311615"
					y="90.0279970297058"
					width="0.18328611898016997"
					height="6.972002970294199"
				/>
			
				<rect
					x="27.195467422096318"
					y="88.97554954743153"
					width="0.18328611898016997"
					height="8.024450452568473"
				/>
			
				<rect
					x="27.478753541076486"
					y="86.31119565809506"
					width="0.18328611898016997"
					height="10.688804341904941"
				/>
			
				<rect
					x="27.762039660056658"
					y="85.09072585847522"
					width="0.18328611898016997"
					height="11.909274141524776"
				/>
			
				<rect
					x="28.045325779036826"
					y="83.14831401399708"
					width="0.18328611898016997"
					height="13.85168598600292"
				/>
			
				<rect
					x="28.328611898016998"
					y="87.74030855507803"
					width="0.18328611898016997"
					height="9.25969144492197"
				/>
			
				<rect
					x="28.611898016997166"
					y="87.95633724880801"
					width="0.18328611898016997"
					height="9.043662751191988"
				/>
			
				<rect
					x="28.89518413597734"
					y="88.273917892582"
					width="0.18328611898016997"
					height="8.726082107417994"
				/>
			
				<rect
					x="29.178470254957507"
					y="85.10918984939232"
					width="0.18328611898016997"
					height="11.890810150607678"
				/>
			
				<rect
					x="29.46175637393768"
					y="82.80673018203086"
					width="0.18328611898016997"
					height="14.193269817969139"
				/>
			
				<rect
					x="29.745042492917847"
					y="77.32107848056263"
					width="0.18328611898016997"
					height="19.678921519437367"
				/>
			
				<rect
					x="30.02832861189802"
					y="80.08329152175969"
					width="0.18328611898016997"
					height="16.91670847824031"
				/>
			
				<rect
					x="30.311614730878187"
					y="76.46619570110124"
					width="0.18328611898016997"
					height="20.533804298898758"
				/>
			
				<rect
					x="30.59490084985836"
					y="80.07405952630116"
					width="0.18328611898016997"
					height="16.925940473698844"
				/>
			
				<rect
					x="30.878186968838527"
					y="84.7436028292339"
					width="0.18328611898016997"
					height="12.256397170766107"
				/>
			
				<rect
					x="31.1614730878187"
					y="86.6010803154934"
					width="0.18328611898016997"
					height="10.398919684506595"
				/>
			
				<rect
					x="31.444759206798867"
					y="79.90603720895561"
					width="0.18328611898016997"
					height="17.09396279104439"
				/>
			
				<rect
					x="31.728045325779036"
					y="75.97874634089"
					width="0.18328611898016997"
					height="21.021253659110002"
				/>
			
				<rect
					x="32.01133144475921"
					y="71.25381106520598"
					width="0.18328611898016997"
					height="25.74618893479402"
				/>
			
				<rect
					x="32.29461756373938"
					y="68.74086190138968"
					width="0.18328611898016997"
					height="28.259138098610322"
				/>
			
				<rect
					x="32.577903682719544"
					y="69.45357195078945"
					width="0.18328611898016997"
					height="27.546428049210547"
				/>
			
				<rect
					x="32.861189801699716"
					y="82.34328401001184"
					width="0.18328611898016997"
					height="14.656715989988157"
				/>
			
				<rect
					x="33.14447592067989"
					y="72.73831593494023"
					width="0.18328611898016997"
					height="24.261684065059768"
				/>
			
				<rect
					x="33.42776203966006"
					y="64.8578846115251"
					width="0.18328611898016997"
					height="32.142115388474906"
				/>
			
				<rect
					x="33.711048158640224"
					y="60.16249172130842"
					width="0.18328611898016997"
					height="36.83750827869158"
				/>
			
				<rect
					x="33.994334277620396"
					y="62.82684561064489"
					width="0.18328611898016997"
					height="34.17315438935511"
				/>
			
				<rect
					x="34.27762039660057"
					y="58.58935969517212"
					width="0.18328611898016997"
					height="38.41064030482788"
				/>
			
				<rect
					x="34.56090651558074"
					y="66.51964379406343"
					width="0.18328611898016997"
					height="30.480356205936573"
				/>
			
				<rect
					x="34.844192634560905"
					y="67.80289116280136"
					width="0.18328611898016997"
					height="29.19710883719864"
				/>
			
				<rect
					x="35.12747875354108"
					y="75.4211338151938"
					width="0.18328611898016997"
					height="21.578866184806202"
				/>
			
				<rect
					x="35.41076487252125"
					y="66.85938122693793"
					width="0.18328611898016997"
					height="30.140618773062073"
				/>
			
				<rect
					x="35.69405099150142"
					y="58.96602510988081"
					width="0.18328611898016997"
					height="38.03397489011919"
				/>
			
				<rect
					x="35.977337110481585"
					y="48.2236751943163"
					width="0.18328611898016997"
					height="48.7763248056837"
				/>
			
				<rect
					x="36.26062322946176"
					y="47.28016525845286"
					width="0.18328611898016997"
					height="49.71983474154714"
				/>
			
				<rect
					x="36.54390934844193"
					y="35.562916622465856"
					width="0.18328611898016997"
					height="61.437083377534144"
				/>
			
				<rect
					x="36.827195467422094"
					y="66.70243730414265"
					width="0.18328611898016997"
					height="30.29756269585735"
				/>
			
				<rect
					x="37.110481586402265"
					y="75.58546333435592"
					width="0.18328611898016997"
					height="21.41453666564408"
				/>
			
				<rect
					x="37.39376770538244"
					y="43.572595882300654"
					width="0.18328611898016997"
					height="53.427404117699346"
				/>
			
				<rect
					x="37.67705382436261"
					y="44.132054807088565"
					width="0.18328611898016997"
					height="52.867945192911435"
				/>
			
				<rect
					x="37.960339943342774"
					y="39.900108088890924"
					width="0.18328611898016997"
					height="57.099891911109076"
				/>
			
				<rect
					x="38.243626062322946"
					y="32.051065550034835"
					width="0.18328611898016997"
					height="64.94893444996517"
				/>
			
				<rect
					x="38.52691218130312"
					y="55.03319504454007"
					width="0.18328611898016997"
					height="41.96680495545993"
				/>
			
				<rect
					x="38.81019830028329"
					y="62.08090037759435"
					width="0.18328611898016997"
					height="34.91909962240565"
				/>
			
				<rect
					x="39.093484419263454"
					y="68.09646861838314"
					width="0.18328611898016997"
					height="28.903531381616858"
				/>
			
				<rect
					x="39.376770538243626"
					y="37.74720674795792"
					width="0.18328611898016997"
					height="59.25279325204208"
				/>
			
				<rect
					x="39.6600566572238"
					y="36.2294666945729"
					width="0.18328611898016997"
					height="60.7705333054271"
				/>
			
				<rect
					x="39.94334277620397"
					y="40.84731082293778"
					width="0.18328611898016997"
					height="56.15268917706222"
				/>
			
				<rect
					x="40.226628895184135"
					y="49.02685879920983"
					width="0.18328611898016997"
					height="47.97314120079017"
				/>
			
				<rect
					x="40.50991501416431"
					y="56.92575411354208"
					width="0.18328611898016997"
					height="40.07424588645792"
				/>
			
				<rect
					x="40.79320113314448"
					y="65.40811154085445"
					width="0.18328611898016997"
					height="31.59188845914555"
				/>
			
				<rect
					x="41.07648725212464"
					y="58.87739795347877"
					width="0.18328611898016997"
					height="38.12260204652123"
				/>
			
				<rect
					x="41.359773371104815"
					y="32.527436515695825"
					width="0.18328611898016997"
					height="64.47256348430417"
				/>
			
				<rect
					x="41.64305949008499"
					y="37.56810603606212"
					width="0.18328611898016997"
					height="59.43189396393788"
				/>
			
				<rect
					x="41.92634560906516"
					y="54.96672467723854"
					width="0.18328611898016997"
					height="42.03327532276146"
				/>
			
				<rect
					x="42.20963172804532"
					y="-4.129124652008258"
					width="0.18328611898016997"
					height="101.12912465200826"
				/>
			
				<rect
					x="42.492917847025495"
					y="32.99272908680656"
					width="0.18328611898016997"
					height="64.00727091319344"
				/>
			
				<rect
					x="42.77620396600567"
					y="64.76371825784791"
					width="0.18328611898016997"
					height="32.23628174215209"
				/>
			
				<rect
					x="43.05949008498584"
					y="57.427974666486996"
					width="0.18328611898016997"
					height="39.572025333513004"
				/>
			
				<rect
					x="43.342776203966004"
					y="24.18540541935336"
					width="0.18328611898016997"
					height="72.81459458064664"
				/>
			
				<rect
					x="43.626062322946176"
					y="18.11259880672158"
					width="0.18328611898016997"
					height="78.88740119327842"
				/>
			
				<rect
					x="43.90934844192635"
					y="24.098624662043022"
					width="0.18328611898016997"
					height="72.90137533795698"
				/>
			
				<rect
					x="44.19263456090652"
					y="10.47773856250376"
					width="0.18328611898016997"
					height="86.52226143749624"
				/>
			
				<rect
					x="44.475920679886684"
					y="25.557279944493345"
					width="0.18328611898016997"
					height="71.44272005550665"
				/>
			
				<rect
					x="44.759206798866856"
					y="40.72914128106839"
					width="0.18328611898016997"
					height="56.27085871893161"
				/>
			
				<rect
					x="45.04249291784703"
					y="52.59040904620871"
					width="0.18328611898016997"
					height="44.40959095379129"
				/>
			
				<rect
					x="45.3257790368272"
					y="34.50677634200816"
					width="0.18328611898016997"
					height="62.49322365799184"
				/>
			
				<rect
					x="45.609065155807365"
					y="10.751005628076726"
					width="0.18328611898016997"
					height="86.24899437192327"
				/>
			
				<rect
					x="45.892351274787536"
					y="8.178971693325721"
					width="0.18328611898016997"
					height="88.82102830667428"
				/>
			
				<rect
					x="46.17563739376771"
					y="19.03949115075963"
					width="0.18328611898016997"
					height="77.96050884924037"
				/>
			
				<rect
					x="46.45892351274787"
					y="26.97900724510947"
					width="0.18328611898016997"
					height="70.02099275489053"
				/>
			
				<rect
					x="46.742209631728045"
					y="48.89945726188189"
					width="0.18328611898016997"
					height="48.10054273811811"
				/>
			
				<rect
					x="47.02549575070822"
					y="59.64919277381324"
					width="0.18328611898016997"
					height="37.35080722618676"
				/>
			
				<rect
					x="47.30878186968839"
					y="13.348889150111674"
					width="0.18328611898016997"
					height="83.65111084988833"
				/>
			
				<rect
					x="47.59206798866855"
					y="14.704146083426267"
					width="0.18328611898016997"
					height="82.29585391657373"
				/>
			
				<rect
					x="47.875354107648725"
					y="18.308317110442758"
					width="0.18328611898016997"
					height="78.69168288955724"
				/>
			
				<rect
					x="48.1586402266289"
					y="13.823413716680946"
					width="0.18328611898016997"
					height="83.17658628331905"
				/>
			
				<rect
					x="48.44192634560907"
					y="24.947968244229287"
					width="0.18328611898016997"
					height="72.05203175577071"
				/>
			
				<rect
					x="48.725212464589234"
					y="51.1520641537672"
					width="0.18328611898016997"
					height="45.8479358462328"
				/>
			
				<rect
					x="49.008498583569406"
					y="59.54394802558581"
					width="0.18328611898016997"
					height="37.45605197441419"
				/>
			
				<rect
					x="49.29178470254958"
					y="19.715273218325223"
					width="0.18328611898016997"
					height="77.28472678167478"
				/>
			
				<rect
					x="49.57507082152975"
					y="23.284362662599236"
					width="0.18328611898016997"
					height="73.71563733740076"
				/>
			
				<rect
					x="49.858356940509914"
					y="13.167942039124156"
					width="0.18328611898016997"
					height="83.83205796087584"
				/>
			
				<rect
					x="50.141643059490086"
					y="33.89561824265239"
					width="0.18328611898016997"
					height="63.10438175734761"
				/>
			
				<rect
					x="50.42492917847026"
					y="44.3185411153512"
					width="0.18328611898016997"
					height="52.6814588846488"
				/>
			
				<rect
					x="50.70821529745042"
					y="53.556075771172665"
					width="0.18328611898016997"
					height="43.443924228827335"
				/>
			
				<rect
					x="50.991501416430594"
					y="59.59749359924538"
					width="0.18328611898016997"
					height="37.40250640075462"
				/>
			
				<rect
					x="51.274787535410766"
					y="21.28286604718639"
					width="0.18328611898016997"
					height="75.71713395281361"
				/>
			
				<rect
					x="51.55807365439094"
					y="-28.296642363390845"
					width="0.18328611898016997"
					height="125.29664236339084"
				/>
			
				<rect
					x="51.8413597733711"
					y="-13.711935937979348"
					width="0.18328611898016997"
					height="110.71193593797935"
				/>
			
				<rect
					x="52.124645892351275"
					y="-6.197091634722625"
					width="0.18328611898016997"
					height="103.19709163472263"
				/>
			
				<rect
					x="52.40793201133145"
					y="2.562225656346129"
					width="0.18328611898016997"
					height="94.43777434365387"
				/>
			
				<rect
					x="52.69121813031162"
					y="51.61920312396964"
					width="0.18328611898016997"
					height="45.38079687603036"
				/>
			
				<rect
					x="52.97450424929178"
					y="54.00844354864143"
					width="0.18328611898016997"
					height="42.99155645135857"
				/>
			
				<rect
					x="53.257790368271955"
					y="21.637374672794564"
					width="0.18328611898016997"
					height="75.36262532720544"
				/>
			
				<rect
					x="53.54107648725213"
					y="-30.5381708607259"
					width="0.18328611898016997"
					height="127.5381708607259"
				/>
			
				<rect
					x="53.8243626062323"
					y="-9.790184267188863"
					width="0.18328611898016997"
					height="106.79018426718886"
				/>
			
				<rect
					x="54.107648725212464"
					y="0.2800763789934848"
					width="0.18328611898016997"
					height="96.71992362100652"
				/>
			
				<rect
					x="54.390934844192635"
					y="13.188252429132959"
					width="0.18328611898016997"
					height="83.81174757086704"
				/>
			
				<rect
					x="54.67422096317281"
					y="49.36290343390092"
					width="0.18328611898016997"
					height="47.63709656609908"
				/>
			
				<rect
					x="54.95750708215297"
					y="66.2740727148661"
					width="0.18328611898016997"
					height="30.725927285133906"
				/>
			
				<rect
					x="55.240793201133144"
					y="1.7202676705267095"
					width="0.18328611898016997"
					height="95.27973232947329"
				/>
			
				<rect
					x="55.524079320113316"
					y="-8.525400889368015"
					width="0.18328611898016997"
					height="105.52540088936802"
				/>
			
				<rect
					x="55.80736543909349"
					y="-1.1158013343387267"
					width="0.18328611898016997"
					height="98.11580133433873"
				/>
			
				<rect
					x="56.09065155807365"
					y="4.255373623443532"
					width="0.18328611898016997"
					height="92.74462637655647"
				/>
			
				<rect
					x="56.373937677053824"
					y="4.735437387287945"
					width="0.18328611898016997"
					height="92.26456261271206"
				/>
			
				<rect
					x="56.657223796033996"
					y="54.51435689976977"
					width="0.18328611898016997"
					height="42.48564310023023"
				/>
			
				<rect
					x="56.94050991501417"
					y="56.29059282599409"
					width="0.18328611898016997"
					height="40.70940717400591"
				/>
			
				<rect
					x="57.22379603399433"
					y="0.6918233764446455"
					width="0.18328611898016997"
					height="96.30817662355535"
				/>
			
				<rect
					x="57.507082152974505"
					y="-4.83814190322461"
					width="0.18328611898016997"
					height="101.83814190322461"
				/>
			
				<rect
					x="57.79036827195468"
					y="-13.951967819901554"
					width="0.18328611898016997"
					height="110.95196781990155"
				/>
			
				<rect
					x="58.07365439093485"
					y="3.4909643994758994"
					width="0.18328611898016997"
					height="93.5090356005241"
				/>
			
				<rect
					x="58.35694050991501"
					y="20.234111363095522"
					width="0.18328611898016997"
					height="76.76588863690448"
				/>
			
				<rect
					x="58.640226628895185"
					y="54.34633458242423"
					width="0.18328611898016997"
					height="42.65366541757577"
				/>
			
				<rect
					x="58.92351274787536"
					y="61.22971039631638"
					width="0.18328611898016997"
					height="35.77028960368362"
				/>
			
				<rect
					x="59.20679886685552"
					y="8.7716658017644"
					width="0.18328611898016997"
					height="88.2283341982356"
				/>
			
				<rect
					x="59.49008498583569"
					y="5.976217576916568"
					width="0.18328611898016997"
					height="91.02378242308343"
				/>
			
				<rect
					x="59.773371104815865"
					y="13.3156539664609"
					width="0.18328611898016997"
					height="83.6843460335391"
				/>
			
				<rect
					x="60.05665722379604"
					y="40.952555571165206"
					width="0.18328611898016997"
					height="56.047444428834794"
				/>
			
				<rect
					x="60.3399433427762"
					y="4.620960643601961"
					width="0.18328611898016997"
					height="92.37903935639804"
				/>
			
				<rect
					x="60.623229461756374"
					y="53.75548687307726"
					width="0.18328611898016997"
					height="43.24451312692274"
				/>
			
				<rect
					x="60.906515580736546"
					y="65.46719631178914"
					width="0.18328611898016997"
					height="31.532803688210862"
				/>
			
				<rect
					x="61.18980169971672"
					y="9.971825211375418"
					width="0.18328611898016997"
					height="87.02817478862458"
				/>
			
				<rect
					x="61.47308781869688"
					y="9.921972435899264"
					width="0.18328611898016997"
					height="87.07802756410074"
				/>
			
				<rect
					x="61.756373937677054"
					y="15.324536178240578"
					width="0.18328611898016997"
					height="81.67546382175942"
				/>
			
				<rect
					x="62.039660056657226"
					y="16.844122630717308"
					width="0.18328611898016997"
					height="80.15587736928269"
				/>
			
				<rect
					x="62.3229461756374"
					y="20.651397557821824"
					width="0.18328611898016997"
					height="76.34860244217818"
				/>
			
				<rect
					x="62.60623229461756"
					y="67.16588347616167"
					width="0.18328611898016997"
					height="29.834116523838333"
				/>
			
				<rect
					x="62.889518413597735"
					y="12.137651345950388"
					width="0.18328611898016997"
					height="84.86234865404961"
				/>
			
				<rect
					x="63.172804532577906"
					y="18.234461146774393"
					width="0.18328611898016997"
					height="78.7655388532256"
				/>
			
				<rect
					x="63.45609065155807"
					y="10.34110502971727"
					width="0.18328611898016997"
					height="86.65889497028273"
				/>
			
				<rect
					x="63.73937677053824"
					y="16.177572558610265"
					width="0.18328611898016997"
					height="80.82242744138973"
				/>
			
				<rect
					x="64.02266288951841"
					y="4.379082362588051"
					width="0.18328611898016997"
					height="92.62091763741195"
				/>
			
				<rect
					x="64.30594900849859"
					y="39.39419473776258"
					width="0.18328611898016997"
					height="57.60580526223742"
				/>
			
				<rect
					x="64.58923512747876"
					y="70.18843878928973"
					width="0.18328611898016997"
					height="26.811561210710266"
				/>
			
				<rect
					x="64.87252124645893"
					y="78.0319421308707"
					width="0.18328611898016997"
					height="18.968057869129296"
				/>
			
				<rect
					x="65.15580736543909"
					y="70.63526736948339"
					width="0.18328611898016997"
					height="26.364732630516613"
				/>
			
				<rect
					x="65.43909348441926"
					y="30.8693701313409"
					width="0.18328611898016997"
					height="66.1306298686591"
				/>
			
				<rect
					x="65.72237960339943"
					y="22.115592037547273"
					width="0.18328611898016997"
					height="74.88440796245273"
				/>
			
				<rect
					x="66.0056657223796"
					y="16.279124508654277"
					width="0.18328611898016997"
					height="80.72087549134572"
				/>
			
				<rect
					x="66.28895184135978"
					y="35.10316324863025"
					width="0.18328611898016997"
					height="61.89683675136975"
				/>
			
				<rect
					x="66.57223796033995"
					y="69.73237821363755"
					width="0.18328611898016997"
					height="27.267621786362454"
				/>
			
				<rect
					x="66.85552407932012"
					y="69.01782176514607"
					width="0.18328611898016997"
					height="27.982178234853933"
				/>
			
				<rect
					x="67.13881019830029"
					y="29.32393409158024"
					width="0.18328611898016997"
					height="67.67606590841976"
				/>
			
				<rect
					x="67.42209631728045"
					y="29.015585443264797"
					width="0.18328611898016997"
					height="67.9844145567352"
				/>
			
				<rect
					x="67.70538243626062"
					y="29.970173773678482"
					width="0.18328611898016997"
					height="67.02982622632152"
				/>
			
				<rect
					x="67.98866855524079"
					y="23.518855347246316"
					width="0.18328611898016997"
					height="73.48114465275368"
				/>
			
				<rect
					x="68.27195467422096"
					y="35.96358522536677"
					width="0.18328611898016997"
					height="61.03641477463323"
				/>
			
				<rect
					x="68.55524079320114"
					y="66.73936528597683"
					width="0.18328611898016997"
					height="30.26063471402317"
				/>
			
				<rect
					x="68.83852691218131"
					y="72.18624260651916"
					width="0.18328611898016997"
					height="24.81375739348084"
				/>
			
				<rect
					x="69.12181303116148"
					y="35.07916006043803"
					width="0.18328611898016997"
					height="61.92083993956197"
				/>
			
				<rect
					x="69.40509915014164"
					y="35.54999182882389"
					width="0.18328611898016997"
					height="61.45000817117611"
				/>
			
				<rect
					x="69.68838526912181"
					y="36.406721007376994"
					width="0.18328611898016997"
					height="60.593278992623006"
				/>
			
				<rect
					x="69.97167138810198"
					y="38.07955858446559"
					width="0.18328611898016997"
					height="58.92044141553441"
				/>
			
				<rect
					x="70.25495750708215"
					y="44.60288657547443"
					width="0.18328611898016997"
					height="52.39711342452557"
				/>
			
				<rect
					x="70.53824362606233"
					y="70.56325780490673"
					width="0.18328611898016997"
					height="26.436742195093274"
				/>
			
				<rect
					x="70.8215297450425"
					y="72.7106199485646"
					width="0.18328611898016997"
					height="24.2893800514354"
				/>
			
				<rect
					x="71.10481586402267"
					y="37.808137917984325"
					width="0.18328611898016997"
					height="59.191862082015675"
				/>
			
				<rect
					x="71.38810198300284"
					y="35.30626714871827"
					width="0.18328611898016997"
					height="61.69373285128173"
				/>
			
				<rect
					x="71.671388101983"
					y="30.23974804106804"
					width="0.18328611898016997"
					height="66.76025195893196"
				/>
			
				<rect
					x="71.95467422096317"
					y="35.2730319650675"
					width="0.18328611898016997"
					height="61.7269680349325"
				/>
			
				<rect
					x="72.23796033994334"
					y="48.42123989712919"
					width="0.18328611898016997"
					height="48.57876010287081"
				/>
			
				<rect
					x="72.52124645892351"
					y="81.38684928050644"
					width="0.18328611898016997"
					height="15.61315071949356"
				/>
			
				<rect
					x="72.80453257790369"
					y="74.9429164504411"
					width="0.18328611898016997"
					height="22.057083549558897"
				/>
			
				<rect
					x="73.08781869688386"
					y="19.624799662831464"
					width="0.18328611898016997"
					height="77.37520033716854"
				/>
			
				<rect
					x="73.37110481586403"
					y="38.740569459297504"
					width="0.18328611898016997"
					height="58.259430540702496"
				/>
			
				<rect
					x="73.65439093484419"
					y="45.76242520506785"
					width="0.18328611898016997"
					height="51.23757479493215"
				/>
			
				<rect
					x="73.93767705382436"
					y="46.32742332713088"
					width="0.18328611898016997"
					height="50.67257667286912"
				/>
			
				<rect
					x="74.22096317280453"
					y="47.61067069586882"
					width="0.18328611898016997"
					height="49.38932930413118"
				/>
			
				<rect
					x="74.5042492917847"
					y="74.21174241012423"
					width="0.18328611898016997"
					height="22.78825758987577"
				/>
			
				<rect
					x="74.78753541076487"
					y="81.4367020559826"
					width="0.18328611898016997"
					height="15.563297944017407"
				/>
			
				<rect
					x="75.07082152974505"
					y="78.1298012827313"
					width="0.18328611898016997"
					height="18.870198717268707"
				/>
			
				<rect
					x="75.35410764872522"
					y="46.71332073729812"
					width="0.18328611898016997"
					height="50.28667926270188"
				/>
			
				<rect
					x="75.63739376770539"
					y="44.33515870717658"
					width="0.18328611898016997"
					height="52.66484129282342"
				/>
			
				<rect
					x="75.92067988668555"
					y="39.92041847889973"
					width="0.18328611898016997"
					height="57.07958152110027"
				/>
			
				<rect
					x="76.20396600566572"
					y="52.57194505529162"
					width="0.18328611898016997"
					height="44.42805494470838"
				/>
			
				<rect
					x="76.48725212464589"
					y="76.72284517484883"
					width="0.18328611898016997"
					height="20.27715482515117"
				/>
			
				<rect
					x="76.77053824362606"
					y="68.59684277223636"
					width="0.18328611898016997"
					height="28.403157227763643"
				/>
			
				<rect
					x="77.05382436260624"
					y="54.11368829686886"
					width="0.18328611898016997"
					height="42.88631170313114"
				/>
			
				<rect
					x="77.33711048158641"
					y="51.17606734195942"
					width="0.18328611898016997"
					height="45.82393265804058"
				/>
			
				<rect
					x="77.62039660056658"
					y="51.102211378291045"
					width="0.18328611898016997"
					height="45.897788621708955"
				/>
			
				<rect
					x="77.90368271954674"
					y="41.56002087233755"
					width="0.18328611898016997"
					height="55.43997912766245"
				/>
			
				<rect
					x="78.18696883852691"
					y="47.185998904775694"
					width="0.18328611898016997"
					height="49.814001095224306"
				/>
			
				<rect
					x="78.47025495750708"
					y="72.08653705556686"
					width="0.18328611898016997"
					height="24.913462944433135"
				/>
			
				<rect
					x="78.75354107648725"
					y="67.96352788378007"
					width="0.18328611898016997"
					height="29.036472116219926"
				/>
			
				<rect
					x="79.03682719546742"
					y="42.00131025525607"
					width="0.18328611898016997"
					height="54.99868974474393"
				/>
			
				<rect
					x="79.3201133144476"
					y="44.1394404034554"
					width="0.18328611898016997"
					height="52.8605595965446"
				/>
			
				<rect
					x="79.60339943342777"
					y="48.79790531183788"
					width="0.18328611898016997"
					height="48.20209468816212"
				/>
			
				<rect
					x="79.88668555240794"
					y="55.85853543853412"
					width="0.18328611898016997"
					height="41.14146456146588"
				/>
			
				<rect
					x="80.1699716713881"
					y="62.016276409384524"
					width="0.18328611898016997"
					height="34.983723590615476"
				/>
			
				<rect
					x="80.45325779036827"
					y="78.3513691737364"
					width="0.18328611898016997"
					height="18.6486308262636"
				/>
			
				<rect
					x="80.73654390934844"
					y="81.30376132137953"
					width="0.18328611898016997"
					height="15.696238678620475"
				/>
			
				<rect
					x="81.01983002832861"
					y="75.13309555688716"
					width="0.18328611898016997"
					height="21.866904443112844"
				/>
			
				<rect
					x="81.30311614730878"
					y="52.73073537717862"
					width="0.18328611898016997"
					height="44.26926462282138"
				/>
			
				<rect
					x="81.58640226628896"
					y="55.836378649433605"
					width="0.18328611898016997"
					height="41.163621350566395"
				/>
			
				<rect
					x="81.86968838526913"
					y="62.17322033217981"
					width="0.18328611898016997"
					height="34.82677966782019"
				/>
			
				<rect
					x="82.15297450424929"
					y="55.67758832754661"
					width="0.18328611898016997"
					height="41.32241167245339"
				/>
			
				<rect
					x="82.43626062322946"
					y="77.51310398610039"
					width="0.18328611898016997"
					height="19.48689601389961"
				/>
			
				<rect
					x="82.71954674220963"
					y="76.84286111580994"
					width="0.18328611898016997"
					height="20.15713888419006"
				/>
			
				<rect
					x="83.0028328611898"
					y="52.736274574453745"
					width="0.18328611898016997"
					height="44.263725425546255"
				/>
			
				<rect
					x="83.28611898016997"
					y="7.163452192885629"
					width="0.18328611898016997"
					height="89.83654780711437"
				/>
			
				<rect
					x="83.56940509915015"
					y="34.36645001103825"
					width="0.18328611898016997"
					height="62.63354998896175"
				/>
			
				<rect
					x="83.85269121813032"
					y="43.325178404011616"
					width="0.18328611898016997"
					height="53.674821595988384"
				/>
			
				<rect
					x="84.13597733711049"
					y="26.26998999389312"
					width="0.18328611898016997"
					height="70.73001000610688"
				/>
			
				<rect
					x="84.41926345609065"
					y="70.90299523778123"
					width="0.18328611898016997"
					height="26.097004762218774"
				/>
			
				<rect
					x="84.70254957507082"
					y="72.3117977447554"
					width="0.18328611898016997"
					height="24.688202255244605"
				/>
			
				<rect
					x="84.98583569405099"
					y="31.833190457213135"
					width="0.18328611898016997"
					height="65.16680954278686"
				/>
			
				<rect
					x="85.26912181303116"
					y="34.054408564539386"
					width="0.18328611898016997"
					height="62.945591435460614"
				/>
			
				<rect
					x="85.55240793201133"
					y="30.681037423986552"
					width="0.18328611898016997"
					height="66.31896257601345"
				/>
			
				<rect
					x="85.8356940509915"
					y="26.103814075639278"
					width="0.18328611898016997"
					height="70.89618592436072"
				/>
			
				<rect
					x="86.11898016997168"
					y="36.7667688302603"
					width="0.18328611898016997"
					height="60.2332311697397"
				/>
			
				<rect
					x="86.40226628895184"
					y="62.629280907832"
					width="0.18328611898016997"
					height="34.370719092168"
				/>
			
				<rect
					x="86.68555240793201"
					y="67.07540992066791"
					width="0.18328611898016997"
					height="29.92459007933209"
				/>
			
				<rect
					x="86.96883852691218"
					y="39.576988247841804"
					width="0.18328611898016997"
					height="57.423011752158196"
				/>
			
				<rect
					x="87.25212464589235"
					y="8.561176305309544"
					width="0.18328611898016997"
					height="88.43882369469046"
				/>
			
				<rect
					x="87.53541076487252"
					y="27.549544564447643"
					width="0.18328611898016997"
					height="69.45045543555236"
				/>
			
				<rect
					x="87.8186968838527"
					y="33.982398999962726"
					width="0.18328611898016997"
					height="63.017601000037274"
				/>
			
				<rect
					x="88.10198300283287"
					y="1.1312663602714537"
					width="0.18328611898016997"
					height="95.86873363972855"
				/>
			
				<rect
					x="88.38526912181304"
					y="51.82230702405766"
					width="0.18328611898016997"
					height="45.17769297594234"
				/>
			
				<rect
					x="88.6685552407932"
					y="57.97081599944952"
					width="0.18328611898016997"
					height="39.02918400055048"
				/>
			
				<rect
					x="88.95184135977337"
					y="3.0016686401729373"
					width="0.18328611898016997"
					height="93.99833135982706"
				/>
			
				<rect
					x="89.23512747875354"
					y="4.933002090100828"
					width="0.18328611898016997"
					height="92.06699790989917"
				/>
			
				<rect
					x="89.51841359773371"
					y="3.8787082087348352"
					width="0.18328611898016997"
					height="93.12129179126516"
				/>
			
				<rect
					x="89.80169971671388"
					y="10.433424984302732"
					width="0.18328611898016997"
					height="86.56657501569727"
				/>
			
				<rect
					x="90.08498583569406"
					y="17.218941646334287"
					width="0.18328611898016997"
					height="79.78105835366571"
				/>
			
				<rect
					x="90.36827195467423"
					y="48.3233807452686"
					width="0.18328611898016997"
					height="48.6766192547314"
				/>
			
				<rect
					x="90.6515580736544"
					y="59.38700410279053"
					width="0.18328611898016997"
					height="37.61299589720947"
				/>
			
				<rect
					x="90.93484419263456"
					y="2.671163202756972"
					width="0.18328611898016997"
					height="94.32883679724303"
				/>
			
				<rect
					x="91.21813031161473"
					y="-1.6955706491354334"
					width="0.18328611898016997"
					height="98.69557064913543"
				/>
			
				<rect
					x="91.5014164305949"
					y="-1.4998523454142543"
					width="0.18328611898016997"
					height="98.49985234541425"
				/>
			
				<rect
					x="91.78470254957507"
					y="-3.495809763551975"
					width="0.18328611898016997"
					height="100.49580976355197"
				/>
			
				<rect
					x="92.06798866855524"
					y="15.943079873963185"
					width="0.18328611898016997"
					height="81.05692012603681"
				/>
			
				<rect
					x="92.35127478753542"
					y="56.70233982344525"
					width="0.18328611898016997"
					height="40.29766017655475"
				/>
			
				<rect
					x="92.63456090651559"
					y="50.483667682568445"
					width="0.18328611898016997"
					height="46.516332317431555"
				/>
			
				<rect
					x="92.91784702549575"
					y="17.80978935568126"
					width="0.18328611898016997"
					height="79.19021064431874"
				/>
			
				<rect
					x="93.20113314447592"
					y="-33.30776949828979"
					width="0.18328611898016997"
					height="130.3077694982898"
				/>
			
				<rect
					x="93.48441926345609"
					y="-31.92666297769125"
					width="0.18328611898016997"
					height="128.92666297769125"
				/>
			
				<rect
					x="93.76770538243626"
					y="-0.01719387477172063"
					width="0.18328611898016997"
					height="97.01719387477172"
				/>
			
				<rect
					x="94.05099150141643"
					y="4.353232775304122"
					width="0.18328611898016997"
					height="92.64676722469588"
				/>
			
				<rect
					x="94.3342776203966"
					y="50.01837511145771"
					width="0.18328611898016997"
					height="46.98162488854229"
				/>
			
				<rect
					x="94.61756373937678"
					y="50.804941124525854"
					width="0.18328611898016997"
					height="46.195058875474146"
				/>
			
				<rect
					x="94.90084985835695"
					y="-4.924922660534946"
					width="0.18328611898016997"
					height="101.92492266053495"
				/>
			
				<rect
					x="95.1841359773371"
					y="10.780548013544077"
					width="0.18328611898016997"
					height="86.21945198645592"
				/>
			
				<rect
					x="95.46742209631728"
					y="-10.881406130389038"
					width="0.18328611898016997"
					height="107.88140613038904"
				/>
			
				<rect
					x="95.75070821529745"
					y="51.550886357576395"
					width="0.18328611898016997"
					height="45.449113642423605"
				/>
			
				<rect
					x="96.03399433427762"
					y="65.15700126438199"
					width="0.18328611898016997"
					height="31.84299873561801"
				/>
			
				<rect
					x="96.3172804532578"
					y="62.88039118430446"
					width="0.18328611898016997"
					height="34.11960881569554"
				/>
			
				<rect
					x="96.60056657223797"
					y="59.060191463557985"
					width="0.18328611898016997"
					height="37.939808536442015"
				/>
			
				<rect
					x="96.88385269121814"
					y="-11.416861866984732"
					width="0.18328611898016997"
					height="108.41686186698473"
				/>
			
				<rect
					x="97.1671388101983"
					y="-5.750263054528986"
					width="0.18328611898016997"
					height="102.75026305452899"
				/>
			
				<rect
					x="97.45042492917847"
					y="-7.825615633610198"
					width="0.18328611898016997"
					height="104.8256156336102"
				/>
			
				<rect
					x="97.73371104815864"
					y="51.569350348493494"
					width="0.18328611898016997"
					height="45.430649651506506"
				/>
			
				<rect
					x="98.01699716713881"
					y="67.77704157551743"
					width="0.18328611898016997"
					height="29.22295842448257"
				/>
			
				<rect
					x="98.30028328611898"
					y="64.98159335066961"
					width="0.18328611898016997"
					height="32.01840664933039"
				/>
			
				<rect
					x="98.58356940509915"
					y="60.06093977126441"
					width="0.18328611898016997"
					height="36.93906022873559"
				/>
			
				<rect
					x="98.86685552407933"
					y="-7.594815747146541"
					width="0.18328611898016997"
					height="104.59481574714654"
				/>
			
				<rect
					x="99.1501416430595"
					y="-20.117094387118797"
					width="0.18328611898016997"
					height="117.1170943871188"
				/>
			
				<rect
					x="99.43342776203966"
					y="-65.19323541301713"
					width="0.18328611898016997"
					height="162.19323541301713"
				/>
			
				<rect
					x="99.71671388101983"
					y="0.9226232629083029"
					width="0.18328611898016997"
					height="96.0773767370917"
				/>
			
		</g>

		<path class="rolling-area" d="M0,97L0,97L0.28328611898017,97L0.56657223796034,97L0.8498583569405099,97L1.13314447592068,97L1.41643059490085,97L1.6997167138810199,97L1.9830028328611897,97L2.26628895184136,97L2.54957507082153,97L2.8328611898017,97L3.1161473087818696,97L3.3994334277620397,97L3.68271954674221,97L3.9660056657223794,97L4.2492917847025495,97L4.53257790368272,97L4.81586402266289,97L5.09915014164306,97L5.38243626062323,97L5.6657223796034,97L5.949008498583569,97L6.232294617563739,97L6.515580736543909,97L6.798866855524079,97L7.0821529745042495,97L7.36543909348442,97L7.64872521246459,97L7.932011331444759,97L8.215297450424929,97L8.498583569405099,97L8.78186968838527,97L9.06515580736544,97L9.34844192634561,97L9.63172804532578,97L9.91501416430595,96.99973622870118L10.19830028328612,96.99973622870118L10.48158640226629,96.99973622870118L10.76487252124646,96.99947245740236L11.04815864022663,96.99947245740236L11.3314447592068,96.99947245740236L11.614730878186968,96.99947245740236L11.898016997167138,96.99947245740236L12.181303116147308,96.9984173722071L12.464589235127479,96.99683474441422L12.747875354107649,96.99551588792013L13.031161473087819,96.99393326012724L13.314447592067989,96.99393326012724L13.597733711048159,96.9915593184379L13.881019830028329,96.98707520635803L14.164305949008499,96.9815360090829L14.44759206798867,96.97757943960067L14.73087818696884,96.97309532752081L15.01416430594901,96.95384002270727L15.29745042492918,96.94487179854754L15.58073654390935,96.93221077620439L15.864022662889518,96.90082199164533L16.14730878186969,96.8565084134443L16.430594900849858,96.78740033315462L16.71388101983003,96.73438230209268L16.997167138810198,96.64496383179419L17.28045325779037,96.56293095786253L17.56373937677054,96.49619681926218L17.84702549575071,96.47113854587471L18.13031161473088,96.39490864051699L18.413597733711047,96.33714272607638L18.69688385269122,96.26803464578668L18.980169971671387,96.2851797802097L19.26345609065156,96.29098274878365L19.546742209631727,96.07258011336431L19.8300283286119,95.8391425139125L20.113314447592067,95.68246236241603L20.39660056657224,95.51259364597878L20.679886685552407,95.31845797005049L20.96317280453258,95.1868360919415L21.246458923512748,95.02778199875569L21.52974504249292,94.88982960947513L21.813031161473088,94.60152757986967L22.09631728045326,94.37626689068114L22.379603399433428,94.20877211593321L22.6628895184136,94.2438536986757L22.946175637393768,94.08822863237448L23.229461756373937,93.99986524727126L23.51274787535411,93.95476035517379L23.796033994334277,93.73108229377814L24.07932011331445,93.68492231648543L24.362606232294617,93.29559587943358L24.64589235127479,92.81342194519864L24.929178470254957,92.65173013902468L25.21246458923513,92.43332750360535L25.495750708215297,92.30038676900229L25.77903682719547,92.28851706055558L26.062322946175637,91.97067264548278L26.34560906515581,91.90578490597413L26.628895184135978,91.00579723441527L26.91218130311615,90.5518468291536L27.195467422096318,89.95651500772678L27.478753541076486,89.04571271291648L27.762039660056658,88.16287017578064L28.045325779036826,87.0571408911456L28.328611898016998,86.65831868733639L28.611898016997166,87.03577541594153L28.89518413597734,86.78519268206671L29.178470254957507,86.23285558234682L29.46175637393768,85.7322176571948L29.745042492917847,84.6222680317787L30.02832861189802,84.1844076757448L30.311614730878187,82.57382012517668L30.59490084985836,81.44778045053285L30.878186968838527,80.9434497271974L31.1614730878187,81.15657693664042L31.444759206798867,80.7421922262011L31.728045325779036,80.55043049196215L32.01133144475921,79.2890761410259L32.29461756373938,78.18545702678139L32.577903682719544,76.668244515994L32.861189801699716,76.3253418275337L33.14447592067989,74.34494691602612L33.42776203966006,72.19521083067889L33.711048158640224,69.93574588502437L33.994334277620396,68.73189367722995L34.27762039660057,67.28167907634172L34.56090651558074,66.86254648252373L34.844192634560905,64.7853475043508L35.12747875354108,65.16860720152987L35.41076487252125,65.454535289446L35.69405099150142,65.28361148781347L35.977337110481585,63.19744428548082L36.26062322946176,61.58184508023521L36.54390934844193,57.1594554842927L36.827195467422094,57.0022477901986L37.110481586402265,57.02572343579319L37.39376770538244,53.699039815130725L37.67705382436261,51.579901200446116L37.960339943342774,50.39082018538535L38.243626062322946,48.2152345127542L38.52691218130312,50.9967028587648L38.81019830028329,50.33648329782933L39.093484419263454,49.266626909833214L39.376770538243626,48.434428462069974L39.6600566572238,47.30548730313917L39.94334277620397,47.44080197943157L40.226628895184135,49.86591530074229L40.50991501416431,50.13628088202828L40.79320113314448,50.61159676249401L41.07648725212464,49.29458666750767L41.359773371104815,48.54890520575595L41.64305949008499,48.740139397397265L41.92634560906516,50.75719851944023L42.20963172804532,43.16348659783765L42.492917847025495,39.74448302258972L42.77620396600567,39.65242683930306L43.05949008498584,39.44536636973282L43.342776203966004,38.25364764168389L43.626062322946176,35.47428946606381L43.90934844192635,31.064560892464442L44.19263456090652,33.15125563739474L44.475920679886684,32.08904861706428L44.759206798866856,28.655537620381494L45.04249291784703,27.96445681748459L45.3257790368272,29.43893837786385L45.609065155807365,28.387282209486003L45.892351274787536,26.113046071097827L46.17563739376771,27.33615358370581L46.45892351274787,27.539257483793833L46.742209631728045,28.706445481052896L47.02549575070822,29.714843156424976L47.30878186968839,26.692287843296896L47.59206798866855,27.257022194061122L47.875354107648725,28.704071539363568L48.1586402266289,27.958917620209462L48.44192634560907,27.668769191512297L48.725212464589234,27.990570176067337L49.008498583569406,27.975535212034842L49.29178470254958,28.88501865035107L49.57507082152975,30.1107638759472L49.858356940509914,29.376424580044556L50.141643059490086,32.24388236946905L50.42492917847026,35.011107065343595L50.70821529745042,35.354537296401524L50.991501416430594,35.36218666406718L51.274787535410766,35.58612849676163L51.55807365439094,28.217413493048753L51.8413597733711,24.377430924891115L52.124645892351275,18.649900942408976L52.40793201133145,12.684713019693973L52.69121813031162,12.408016927236389L52.97450424929178,11.60958120572154L53.257790368271955,11.660225295094136L53.54107648725213,11.340006938331982L53.8243626062323,11.900257177016343L54.107648725212464,12.825566893261495L54.390934844192635,14.343570717945326L54.67422096317281,14.021242190792648L54.95750708215297,15.773474928824754L55.240793201133144,12.928173928500769L55.524079320113316,16.07285535298047L55.80736543909349,17.312052914816206L56.09065155807365,17.879952521166203L56.373937677053824,16.672407515188354L56.657223796033996,17.408329438883897L56.94050991501417,15.98211802618789L57.22379603399433,15.835197412747604L57.507082152974505,16.361948696482386L57.79036827195468,14.528210627116252L58.07365439093485,14.41900930940659L58.35694050991501,16.633105591664815L58.640226628895185,16.60910240347259L58.92351274787536,17.314690627804367L59.20679886685552,18.46895383142146L59.49008498583569,20.01386232858448L59.773371104815865,23.909236869493412L60.05665722379604,29.26089275116331L60.3399433427762,27.030442648378525L60.623229461756374,26.946035832757516L60.906515580736546,27.551390963539347L61.18980169971672,27.722842307769497L61.47308781869688,28.286521573338447L61.756373937677054,28.573504746449828L62.039660056657226,25.129442897814428L62.3229461756374,27.41950531413154L62.60623229461756,29.335276257429314L62.889518413597735,21.71676983373807L63.172804532577906,22.897146395937924L63.45609065155807,22.957022480769055L63.73937677053824,23.07888482082187L64.02266288951841,21.298164782517702L64.30594900849859,23.975707236794946L64.58923512747876,24.407500852956105L64.87252124645893,33.82097096508757L65.15580736543909,41.30680042547457L65.43909348441926,44.23940972570652L65.72237960339943,45.08769822269752L66.0056657223796,46.78770424356412L66.28895184135978,46.17469974511664L66.57223796033995,46.10954823430919L66.85552407932012,44.82181675349138L67.13881019830029,38.920197713790934L67.42209631728045,38.65537132978006L67.70538243626062,39.77745443494167L67.98866855524079,40.81170169759767L68.27195467422096,40.934619122845746L68.55524079320114,40.50704584746564L68.83852691218131,40.959677396233225L69.12181303116148,41.78185253464149L69.40509915014164,42.71533916114993L69.68838526912181,43.63484590882114L69.97167138810198,45.71494637128104L70.25495750708215,46.94913227843927L70.53824362606233,47.4954026382864L70.8215297450425,47.57031368715004L71.10481586402267,47.96016766679951L71.38810198300284,47.92534985535585L71.671388101983,47.04435371731171L71.95467422096317,46.64342134311199L72.23796033994334,47.18890038906266L72.52124645892351,48.73512774271977L72.80453257790369,49.054027242987836L73.08781869688386,46.456407492251714L73.37110481586403,46.94702210804875L73.65439093484419,49.16454741719158L73.93767705382436,50.74374618320063L74.22096317280453,50.627950583020585L74.5042492917847,49.602935315823125L74.78753541076487,50.53061897375762L75.07082152974505,58.88847634802902L75.35410764872522,60.02744081631482L75.63739376770539,59.82354560233036L75.92067988668555,58.908259195440195L76.20396600566572,59.617012675357735L76.48725212464589,59.975741641746964L76.77053824362606,58.14147602978322L77.05382436260624,54.71060274608858L77.33711048158641,55.34813797532591L77.62039660056658,56.314859785485126L77.90368271954674,56.54908869883338L78.18696883852691,55.77966782018825L78.47025495750708,55.117338088862255L78.75354107648725,55.026864533368496L79.03682719546742,53.296524813138106L79.3201133144476,52.29129239335182L79.60339943342777,51.96210581242993L79.88668555240794,54.004750750458015L80.1699716713881,56.12336182254499L80.45325779036827,57.01833783942636L80.73654390934844,58.92408547336913L81.01983002832861,63.65719765931643L81.30311614730878,64.88452551270547L81.58640226628896,65.89002170379057L81.86968838526913,66.79211954573995L82.15297450424929,65.88659267690596L82.43626062322946,65.76684050724367L82.71954674220963,65.12956904930516L83.0028328611898,61.93002319467182L83.28611898016997,55.42041131120139L83.56940509915015,52.35327864857348L83.85269121813032,49.66070123026374L84.13597733711049,45.459615754027524L84.41926345609065,44.51531450426764L84.70254957507082,43.86801973697414L84.98583569405099,40.881864863082626L85.26912181303116,44.72343005903316L85.55240793201133,44.19694254659721L85.8356940509915,41.73674764254402L86.11898016997168,43.23628747631075L86.40226628895184,42.05432828631801L86.68555240793201,41.30627288287694L86.96883852691218,42.41252971010961L87.25212464589235,38.770639387362486L87.53541076487252,38.32328326457121L87.8186968838527,39.44879539661741L88.10198300283287,34.358009329476154L88.38526912181304,32.8141559175084L88.6685552407932,31.51349964304862L88.95184135977337,26.288453984810204L89.23512747875354,25.770143382637542L89.51841359773371,22.38859533182142L89.80169971671388,19.024456186727136L90.08498583569406,21.322695513307536L90.36827195467423,20.822848902051973L90.6515580736544,21.02516148824354L90.93484419263456,20.977946425755547L91.21813031161473,20.031007463007498L91.5014164305949,19.262641669557638L91.78470254957507,17.272750991292668L92.06798866855524,17.090485023811098L92.35127478753542,18.287479177836317L92.63456090651559,17.015573974947458L92.91784702549575,19.17823485393663L93.20113314447592,14.662206446914595L93.48441926345609,10.31551921373216L93.76770538243626,10.812464340700771L94.05099150141643,9.156771898035188L94.3342776203966,8.201919796322684L94.61756373937678,8.247816002316597L94.90084985835695,5L95.1841359773371,11.298331073119115L95.46742209631728,14.304796337019425L95.75070821529745,21.6716649416406L96.03399433427762,30.357917582937432L96.3172804532578,32.19534845048696L96.60056657223797,33.37466992749157L96.88385269121814,32.44725004085588L97.1671388101983,30.085705602559727L97.45042492917847,30.522247102099556L97.73371104815864,30.524884815087717L98.01699716713881,30.899176288107057L98.30028328611898,31.199348026159228L98.58356940509915,31.342312070117288L98.86685552407933,31.88831865866561L99.1501416430595,29.835914182581348L99.43342776203966,21.64053992838035L99.71671388101983,14.405293201868176L100,97Z"/>
		<path class="rolling-line" d="M0,97L0.28328611898017,97L0.56657223796034,97L0.8498583569405099,97L1.13314447592068,97L1.41643059490085,97L1.6997167138810199,97L1.9830028328611897,97L2.26628895184136,97L2.54957507082153,97L2.8328611898017,97L3.1161473087818696,97L3.3994334277620397,97L3.68271954674221,97L3.9660056657223794,97L4.2492917847025495,97L4.53257790368272,97L4.81586402266289,97L5.09915014164306,97L5.38243626062323,97L5.6657223796034,97L5.949008498583569,97L6.232294617563739,97L6.515580736543909,97L6.798866855524079,97L7.0821529745042495,97L7.36543909348442,97L7.64872521246459,97L7.932011331444759,97L8.215297450424929,97L8.498583569405099,97L8.78186968838527,97L9.06515580736544,97L9.34844192634561,97L9.63172804532578,97L9.91501416430595,96.99973622870118L10.19830028328612,96.99973622870118L10.48158640226629,96.99973622870118L10.76487252124646,96.99947245740236L11.04815864022663,96.99947245740236L11.3314447592068,96.99947245740236L11.614730878186968,96.99947245740236L11.898016997167138,96.99947245740236L12.181303116147308,96.9984173722071L12.464589235127479,96.99683474441422L12.747875354107649,96.99551588792013L13.031161473087819,96.99393326012724L13.314447592067989,96.99393326012724L13.597733711048159,96.9915593184379L13.881019830028329,96.98707520635803L14.164305949008499,96.9815360090829L14.44759206798867,96.97757943960067L14.73087818696884,96.97309532752081L15.01416430594901,96.95384002270727L15.29745042492918,96.94487179854754L15.58073654390935,96.93221077620439L15.864022662889518,96.90082199164533L16.14730878186969,96.8565084134443L16.430594900849858,96.78740033315462L16.71388101983003,96.73438230209268L16.997167138810198,96.64496383179419L17.28045325779037,96.56293095786253L17.56373937677054,96.49619681926218L17.84702549575071,96.47113854587471L18.13031161473088,96.39490864051699L18.413597733711047,96.33714272607638L18.69688385269122,96.26803464578668L18.980169971671387,96.2851797802097L19.26345609065156,96.29098274878365L19.546742209631727,96.07258011336431L19.8300283286119,95.8391425139125L20.113314447592067,95.68246236241603L20.39660056657224,95.51259364597878L20.679886685552407,95.31845797005049L20.96317280453258,95.1868360919415L21.246458923512748,95.02778199875569L21.52974504249292,94.88982960947513L21.813031161473088,94.60152757986967L22.09631728045326,94.37626689068114L22.379603399433428,94.20877211593321L22.6628895184136,94.2438536986757L22.946175637393768,94.08822863237448L23.229461756373937,93.99986524727126L23.51274787535411,93.95476035517379L23.796033994334277,93.73108229377814L24.07932011331445,93.68492231648543L24.362606232294617,93.29559587943358L24.64589235127479,92.81342194519864L24.929178470254957,92.65173013902468L25.21246458923513,92.43332750360535L25.495750708215297,92.30038676900229L25.77903682719547,92.28851706055558L26.062322946175637,91.97067264548278L26.34560906515581,91.90578490597413L26.628895184135978,91.00579723441527L26.91218130311615,90.5518468291536L27.195467422096318,89.95651500772678L27.478753541076486,89.04571271291648L27.762039660056658,88.16287017578064L28.045325779036826,87.0571408911456L28.328611898016998,86.65831868733639L28.611898016997166,87.03577541594153L28.89518413597734,86.78519268206671L29.178470254957507,86.23285558234682L29.46175637393768,85.7322176571948L29.745042492917847,84.6222680317787L30.02832861189802,84.1844076757448L30.311614730878187,82.57382012517668L30.59490084985836,81.44778045053285L30.878186968838527,80.9434497271974L31.1614730878187,81.15657693664042L31.444759206798867,80.7421922262011L31.728045325779036,80.55043049196215L32.01133144475921,79.2890761410259L32.29461756373938,78.18545702678139L32.577903682719544,76.668244515994L32.861189801699716,76.3253418275337L33.14447592067989,74.34494691602612L33.42776203966006,72.19521083067889L33.711048158640224,69.93574588502437L33.994334277620396,68.73189367722995L34.27762039660057,67.28167907634172L34.56090651558074,66.86254648252373L34.844192634560905,64.7853475043508L35.12747875354108,65.16860720152987L35.41076487252125,65.454535289446L35.69405099150142,65.28361148781347L35.977337110481585,63.19744428548082L36.26062322946176,61.58184508023521L36.54390934844193,57.1594554842927L36.827195467422094,57.0022477901986L37.110481586402265,57.02572343579319L37.39376770538244,53.699039815130725L37.67705382436261,51.579901200446116L37.960339943342774,50.39082018538535L38.243626062322946,48.2152345127542L38.52691218130312,50.9967028587648L38.81019830028329,50.33648329782933L39.093484419263454,49.266626909833214L39.376770538243626,48.434428462069974L39.6600566572238,47.30548730313917L39.94334277620397,47.44080197943157L40.226628895184135,49.86591530074229L40.50991501416431,50.13628088202828L40.79320113314448,50.61159676249401L41.07648725212464,49.29458666750767L41.359773371104815,48.54890520575595L41.64305949008499,48.740139397397265L41.92634560906516,50.75719851944023L42.20963172804532,43.16348659783765L42.492917847025495,39.74448302258972L42.77620396600567,39.65242683930306L43.05949008498584,39.44536636973282L43.342776203966004,38.25364764168389L43.626062322946176,35.47428946606381L43.90934844192635,31.064560892464442L44.19263456090652,33.15125563739474L44.475920679886684,32.08904861706428L44.759206798866856,28.655537620381494L45.04249291784703,27.96445681748459L45.3257790368272,29.43893837786385L45.609065155807365,28.387282209486003L45.892351274787536,26.113046071097827L46.17563739376771,27.33615358370581L46.45892351274787,27.539257483793833L46.742209631728045,28.706445481052896L47.02549575070822,29.714843156424976L47.30878186968839,26.692287843296896L47.59206798866855,27.257022194061122L47.875354107648725,28.704071539363568L48.1586402266289,27.958917620209462L48.44192634560907,27.668769191512297L48.725212464589234,27.990570176067337L49.008498583569406,27.975535212034842L49.29178470254958,28.88501865035107L49.57507082152975,30.1107638759472L49.858356940509914,29.376424580044556L50.141643059490086,32.24388236946905L50.42492917847026,35.011107065343595L50.70821529745042,35.354537296401524L50.991501416430594,35.36218666406718L51.274787535410766,35.58612849676163L51.55807365439094,28.217413493048753L51.8413597733711,24.377430924891115L52.124645892351275,18.649900942408976L52.40793201133145,12.684713019693973L52.69121813031162,12.408016927236389L52.97450424929178,11.60958120572154L53.257790368271955,11.660225295094136L53.54107648725213,11.340006938331982L53.8243626062323,11.900257177016343L54.107648725212464,12.825566893261495L54.390934844192635,14.343570717945326L54.67422096317281,14.021242190792648L54.95750708215297,15.773474928824754L55.240793201133144,12.928173928500769L55.524079320113316,16.07285535298047L55.80736543909349,17.312052914816206L56.09065155807365,17.879952521166203L56.373937677053824,16.672407515188354L56.657223796033996,17.408329438883897L56.94050991501417,15.98211802618789L57.22379603399433,15.835197412747604L57.507082152974505,16.361948696482386L57.79036827195468,14.528210627116252L58.07365439093485,14.41900930940659L58.35694050991501,16.633105591664815L58.640226628895185,16.60910240347259L58.92351274787536,17.314690627804367L59.20679886685552,18.46895383142146L59.49008498583569,20.01386232858448L59.773371104815865,23.909236869493412L60.05665722379604,29.26089275116331L60.3399433427762,27.030442648378525L60.623229461756374,26.946035832757516L60.906515580736546,27.551390963539347L61.18980169971672,27.722842307769497L61.47308781869688,28.286521573338447L61.756373937677054,28.573504746449828L62.039660056657226,25.129442897814428L62.3229461756374,27.41950531413154L62.60623229461756,29.335276257429314L62.889518413597735,21.71676983373807L63.172804532577906,22.897146395937924L63.45609065155807,22.957022480769055L63.73937677053824,23.07888482082187L64.02266288951841,21.298164782517702L64.30594900849859,23.975707236794946L64.58923512747876,24.407500852956105L64.87252124645893,33.82097096508757L65.15580736543909,41.30680042547457L65.43909348441926,44.23940972570652L65.72237960339943,45.08769822269752L66.0056657223796,46.78770424356412L66.28895184135978,46.17469974511664L66.57223796033995,46.10954823430919L66.85552407932012,44.82181675349138L67.13881019830029,38.920197713790934L67.42209631728045,38.65537132978006L67.70538243626062,39.77745443494167L67.98866855524079,40.81170169759767L68.27195467422096,40.934619122845746L68.55524079320114,40.50704584746564L68.83852691218131,40.959677396233225L69.12181303116148,41.78185253464149L69.40509915014164,42.71533916114993L69.68838526912181,43.63484590882114L69.97167138810198,45.71494637128104L70.25495750708215,46.94913227843927L70.53824362606233,47.4954026382864L70.8215297450425,47.57031368715004L71.10481586402267,47.96016766679951L71.38810198300284,47.92534985535585L71.671388101983,47.04435371731171L71.95467422096317,46.64342134311199L72.23796033994334,47.18890038906266L72.52124645892351,48.73512774271977L72.80453257790369,49.054027242987836L73.08781869688386,46.456407492251714L73.37110481586403,46.94702210804875L73.65439093484419,49.16454741719158L73.93767705382436,50.74374618320063L74.22096317280453,50.627950583020585L74.5042492917847,49.602935315823125L74.78753541076487,50.53061897375762L75.07082152974505,58.88847634802902L75.35410764872522,60.02744081631482L75.63739376770539,59.82354560233036L75.92067988668555,58.908259195440195L76.20396600566572,59.617012675357735L76.48725212464589,59.975741641746964L76.77053824362606,58.14147602978322L77.05382436260624,54.71060274608858L77.33711048158641,55.34813797532591L77.62039660056658,56.314859785485126L77.90368271954674,56.54908869883338L78.18696883852691,55.77966782018825L78.47025495750708,55.117338088862255L78.75354107648725,55.026864533368496L79.03682719546742,53.296524813138106L79.3201133144476,52.29129239335182L79.60339943342777,51.96210581242993L79.88668555240794,54.004750750458015L80.1699716713881,56.12336182254499L80.45325779036827,57.01833783942636L80.73654390934844,58.92408547336913L81.01983002832861,63.65719765931643L81.30311614730878,64.88452551270547L81.58640226628896,65.89002170379057L81.86968838526913,66.79211954573995L82.15297450424929,65.88659267690596L82.43626062322946,65.76684050724367L82.71954674220963,65.12956904930516L83.0028328611898,61.93002319467182L83.28611898016997,55.42041131120139L83.56940509915015,52.35327864857348L83.85269121813032,49.66070123026374L84.13597733711049,45.459615754027524L84.41926345609065,44.51531450426764L84.70254957507082,43.86801973697414L84.98583569405099,40.881864863082626L85.26912181303116,44.72343005903316L85.55240793201133,44.19694254659721L85.8356940509915,41.73674764254402L86.11898016997168,43.23628747631075L86.40226628895184,42.05432828631801L86.68555240793201,41.30627288287694L86.96883852691218,42.41252971010961L87.25212464589235,38.770639387362486L87.53541076487252,38.32328326457121L87.8186968838527,39.44879539661741L88.10198300283287,34.358009329476154L88.38526912181304,32.8141559175084L88.6685552407932,31.51349964304862L88.95184135977337,26.288453984810204L89.23512747875354,25.770143382637542L89.51841359773371,22.38859533182142L89.80169971671388,19.024456186727136L90.08498583569406,21.322695513307536L90.36827195467423,20.822848902051973L90.6515580736544,21.02516148824354L90.93484419263456,20.977946425755547L91.21813031161473,20.031007463007498L91.5014164305949,19.262641669557638L91.78470254957507,17.272750991292668L92.06798866855524,17.090485023811098L92.35127478753542,18.287479177836317L92.63456090651559,17.015573974947458L92.91784702549575,19.17823485393663L93.20113314447592,14.662206446914595L93.48441926345609,10.31551921373216L93.76770538243626,10.812464340700771L94.05099150141643,9.156771898035188L94.3342776203966,8.201919796322684L94.61756373937678,8.247816002316597L94.90084985835695,5L95.1841359773371,11.298331073119115L95.46742209631728,14.304796337019425L95.75070821529745,21.6716649416406L96.03399433427762,30.357917582937432L96.3172804532578,32.19534845048696L96.60056657223797,33.37466992749157L96.88385269121814,32.44725004085588L97.1671388101983,30.085705602559727L97.45042492917847,30.522247102099556L97.73371104815864,30.524884815087717L98.01699716713881,30.899176288107057L98.30028328611898,31.199348026159228L98.58356940509915,31.342312070117288L98.86685552407933,31.88831865866561L99.1501416430595,29.835914182581348L99.43342776203966,21.64053992838035L99.71671388101983,14.405293201868176"/>
	</g>

	
</svg>