<?xml version="1.0" encoding="UTF-8"?>
<svg xmlns="http://www.w3.org/2000/svg" viewBox="0 0 100 100" preserveAspectRatio="none">
	<style>
		* { vector-effect: non-scaling-stroke }
		.rolling-line { fill: none; stroke-width: 1.5; stroke-linecap: round; stroke-linejoin: round;}

		.cases rect { fill: #ffdad8; }
		.cases.faded .rolling-line { stroke: #fca9a9; }
		.cases.normal .rolling-line { stroke: #cf1111; }
		.cases.normal .rolling-area { fill: rgba(207, 17, 17, 0.2); }

		.deaths rect { fill: rgba(85, 85, 85, 0.1); }
		.deaths.faded .rolling-line { stroke: #bbb; }
		.deaths.normal .rolling-line { stroke: #555; }
		.deaths.normal .rolling-area { fill: rgba(85, 85, 85, 0.3); }
	</style>

	<g class="cases normal">
		<g>
			
				<rect
					x="0"
					y="97"
					width="0.18328611898016997"
					height="0"
				/>
			
				<rect
					x="0.28328611898017"
					y="97"
					width="0.18328611898016997"
					height="0"
				/>
			
				<rect
					x="0.56657223796034"
					y="97"
					width="0.18328611898016997"
					height="0"
				/>
			
				<rect
					x="0.8498583569405099"
					y="97"
					width="0.18328611898016997"
					height="0"
				/>
			
				<rect
					x="1.13314447592068"
					y="97"
					width="0.18328611898016997"
					height="0"
				/>
			
				<rect
					x="1.41643059490085"
					y="97"
					width="0.18328611898016997"
					height="0"
				/>
			
				<rect
					x="1.6997167138810199"
					y="97"
					width="0.18328611898016997"
					height="0"
				/>
			
				<rect
					x="1.9830028328611897"
					y="97"
					width="0.18328611898016997"
					height="0"
				/>
			
				<rect
					x="2.26628895184136"
					y="97"
					width="0.18328611898016997"
					height="0"
				/>
			
				<rect
					x="2.54957507082153"
					y="97"
					width="0.18328611898016997"
					height="0"
				/>
			
				<rect
					x="2.8328611898017"
					y="97"
					width="0.18328611898016997"
					height="0"
				/>
			
				<rect
					x="3.1161473087818696"
					y="97"
					width="0.18328611898016997"
					height="0"
				/>
			
				<rect
					x="3.3994334277620397"
					y="97"
					width="0.18328611898016997"
					height="0"
				/>
			
				<rect
					x="3.68271954674221"
					y="97"
					width="0.18328611898016997"
					height="0"
				/>
			
				<rect
					x="3.9660056657223794"
					y="97"
					width="0.18328611898016997"
					height="0"
				/>
			
				<rect
					x="4.2492917847025495"
					y="97"
					width="0.18328611898016997"
					height="0"
				/>
			
				<rect
					x="4.53257790368272"
					y="97"
					width="0.18328611898016997"
					height="0"
				/>
			
				<rect
					x="4.81586402266289"
					y="97"
					width="0.18328611898016997"
					height="0"
				/>
			
				<rect
					x="5.09915014164306"
					y="97"
					width="0.18328611898016997"
					height="0"
				/>
			
				<rect
					x="5.38243626062323"
					y="97"
					width="0.18328611898016997"
					height="0"
				/>
			
				<rect
					x="5.6657223796034"
					y="97"
					width="0.18328611898016997"
					height="0"
				/>
			
				<rect
					x="5.949008498583569"
					y="97"
					width="0.18328611898016997"
					height="0"
				/>
			
				<rect
					x="6.232294617563739"
					y="97"
					width="0.18328611898016997"
					height="0"
				/>
			
				<rect
					x="6.515580736543909"
					y="97"
					width="0.18328611898016997"
					height="0"
				/>
			
				<rect
					x="6.798866855524079"
					y="97"
					width="0.18328611898016997"
					height="0"
				/>
			
				<rect
					x="7.0821529745042495"
					y="97"
					width="0.18328611898016997"
					height="0"
				/>
			
				<rect
					x="7.36543909348442"
					y="97"
					width="0.18328611898016997"
					height="0"
				/>
			
				<rect
					x="7.64872521246459"
					y="97"
					width="0.18328611898016997"
					height="0"
				/>
			
				<rect
					x="7.932011331444759"
					y="97"
					width="0.18328611898016997"
					height="0"
				/>
			
				<rect
					x="8.215297450424929"
					y="97"
					width="0.18328611898016997"
					height="0"
				/>
			
				<rect
					x="8.498583569405099"
					y="97"
					width="0.18328611898016997"
					height="0"
				/>
			
				<rect
					x="8.78186968838527"
					y="97"
					width="0.18328611898016997"
					height="0"
				/>
			
				<rect
					x="9.06515580736544"
					y="97"
					width="0.18328611898016997"
					height="0"
				/>
			
				<rect
					x="9.34844192634561"
					y="97"
					width="0.18328611898016997"
					height="0"
				/>
			
				<rect
					x="9.63172804532578"
					y="97"
					width="0.18328611898016997"
					height="0"
				/>
			
				<rect
					x="9.91501416430595"
					y="97"
					width="0.18328611898016997"
					height="0"
				/>
			
				<rect
					x="10.19830028328612"
					y="97"
					width="0.18328611898016997"
					height="0"
				/>
			
				<rect
					x="10.48158640226629"
					y="96.99132005283447"
					width="0.18328611898016997"
					height="0.008679947165532553"
				/>
			
				<rect
					x="10.76487252124646"
					y="96.97396015850339"
					width="0.18328611898016997"
					height="0.02603984149661187"
				/>
			
				<rect
					x="11.04815864022663"
					y="96.99132005283447"
					width="0.18328611898016997"
					height="0.008679947165532553"
				/>
			
				<rect
					x="11.3314447592068"
					y="97"
					width="0.18328611898016997"
					height="0"
				/>
			
				<rect
					x="11.614730878186968"
					y="97"
					width="0.18328611898016997"
					height="0"
				/>
			
				<rect
					x="11.898016997167138"
					y="97"
					width="0.18328611898016997"
					height="0"
				/>
			
				<rect
					x="12.181303116147308"
					y="97"
					width="0.18328611898016997"
					height="0"
				/>
			
				<rect
					x="12.464589235127479"
					y="96.99132005283447"
					width="0.18328611898016997"
					height="0.008679947165532553"
				/>
			
				<rect
					x="12.747875354107649"
					y="97"
					width="0.18328611898016997"
					height="0"
				/>
			
				<rect
					x="13.031161473087819"
					y="96.99132005283447"
					width="0.18328611898016997"
					height="0.008679947165532553"
				/>
			
				<rect
					x="13.314447592067989"
					y="97"
					width="0.18328611898016997"
					height="0"
				/>
			
				<rect
					x="13.597733711048159"
					y="97"
					width="0.18328611898016997"
					height="0"
				/>
			
				<rect
					x="13.881019830028329"
					y="96.99132005283447"
					width="0.18328611898016997"
					height="0.008679947165532553"
				/>
			
				<rect
					x="14.164305949008499"
					y="96.96528021133784"
					width="0.18328611898016997"
					height="0.034719788662158635"
				/>
			
				<rect
					x="14.44759206798867"
					y="97"
					width="0.18328611898016997"
					height="0"
				/>
			
				<rect
					x="14.73087818696884"
					y="97"
					width="0.18328611898016997"
					height="0"
				/>
			
				<rect
					x="15.01416430594901"
					y="96.74828153219937"
					width="0.18328611898016997"
					height="0.2517184678006288"
				/>
			
				<rect
					x="15.29745042492918"
					y="96.6441221662129"
					width="0.18328611898016997"
					height="0.3558778337871047"
				/>
			
				<rect
					x="15.58073654390935"
					y="97"
					width="0.18328611898016997"
					height="0"
				/>
			
				<rect
					x="15.864022662889518"
					y="96.90452058117907"
					width="0.18328611898016997"
					height="0.09547941882092914"
				/>
			
				<rect
					x="16.14730878186969"
					y="96.78300132086153"
					width="0.18328611898016997"
					height="0.21699867913847015"
				/>
			
				<rect
					x="16.430594900849858"
					y="96.6007224303852"
					width="0.18328611898016997"
					height="0.3992775696147959"
				/>
			
				<rect
					x="16.71388101983003"
					y="96.66148206054397"
					width="0.18328611898016997"
					height="0.3385179394560254"
				/>
			
				<rect
					x="16.997167138810198"
					y="96.58336253605412"
					width="0.18328611898016997"
					height="0.4166374639458752"
				/>
			
				<rect
					x="17.28045325779037"
					y="96.43580343423997"
					width="0.18328611898016997"
					height="0.5641965657600281"
				/>
			
				<rect
					x="17.56373937677054"
					y="96.55732269455751"
					width="0.18328611898016997"
					height="0.44267730544248707"
				/>
			
				<rect
					x="17.84702549575071"
					y="96.67016200770952"
					width="0.18328611898016997"
					height="0.3298379922904786"
				/>
			
				<rect
					x="18.13031161473088"
					y="96.39240369841227"
					width="0.18328611898016997"
					height="0.6075963015877335"
				/>
			
				<rect
					x="18.413597733711047"
					y="96.04520581179071"
					width="0.18328611898016997"
					height="0.9547941882092914"
				/>
			
				<rect
					x="18.69688385269122"
					y="95.85424697414885"
					width="0.18328611898016997"
					height="1.1457530258511497"
				/>
			
				<rect
					x="18.980169971671387"
					y="95.8629269213144"
					width="0.18328611898016997"
					height="1.137073078685603"
				/>
			
				<rect
					x="19.26345609065156"
					y="95.74140766099684"
					width="0.18328611898016997"
					height="1.2585923390031581"
				/>
			
				<rect
					x="19.546742209631727"
					y="96.12332533628056"
					width="0.18328611898016997"
					height="0.8766746637194416"
				/>
			
				<rect
					x="19.8300283286119"
					y="95.94972639296978"
					width="0.18328611898016997"
					height="1.0502736070302205"
				/>
			
				<rect
					x="20.113314447592067"
					y="95.58516861201714"
					width="0.18328611898016997"
					height="1.4148313879828578"
				/>
			
				<rect
					x="20.39660056657224"
					y="94.30921637868292"
					width="0.18328611898016997"
					height="2.690783621317081"
				/>
			
				<rect
					x="20.679886685552407"
					y="95.24665067256112"
					width="0.18328611898016997"
					height="1.7533493274388832"
				/>
			
				<rect
					x="20.96317280453258"
					y="94.80397336711863"
					width="0.18328611898016997"
					height="2.1960266328813702"
				/>
			
				<rect
					x="21.246458923512748"
					y="94.43073563900046"
					width="0.18328611898016997"
					height="2.56926436099954"
				/>
			
				<rect
					x="21.52974504249292"
					y="93.9967382807235"
					width="0.18328611898016997"
					height="3.0032617192764945"
				/>
			
				<rect
					x="21.813031161473088"
					y="93.56274092244657"
					width="0.18328611898016997"
					height="3.437259077553435"
				/>
			
				<rect
					x="22.09631728045326"
					y="94.74321373695986"
					width="0.18328611898016997"
					height="2.2567862630401407"
				/>
			
				<rect
					x="22.379603399433428"
					y="93.50198129228778"
					width="0.18328611898016997"
					height="3.4980187077122196"
				/>
			
				<rect
					x="22.6628895184136"
					y="93.74501981292288"
					width="0.18328611898016997"
					height="3.2549801870771233"
				/>
			
				<rect
					x="22.946175637393768"
					y="93.16346335283177"
					width="0.18328611898016997"
					height="3.8365366471682307"
				/>
			
				<rect
					x="23.229461756373937"
					y="93.93597865056473"
					width="0.18328611898016997"
					height="3.064021349435265"
				/>
			
				<rect
					x="23.51274787535411"
					y="93.6582203412675"
					width="0.18328611898016997"
					height="3.3417796587325057"
				/>
			
				<rect
					x="23.796033994334277"
					y="93.11138366983853"
					width="0.18328611898016997"
					height="3.8886163301614687"
				/>
			
				<rect
					x="24.07932011331445"
					y="93.09402377550745"
					width="0.18328611898016997"
					height="3.905976224492548"
				/>
			
				<rect
					x="24.362606232294617"
					y="91.98299053831846"
					width="0.18328611898016997"
					height="5.017009461681539"
				/>
			
				<rect
					x="24.64589235127479"
					y="91.60107286303474"
					width="0.18328611898016997"
					height="5.398927136965256"
				/>
			
				<rect
					x="24.929178470254957"
					y="90.36852036552821"
					width="0.18328611898016997"
					height="6.631479634471788"
				/>
			
				<rect
					x="25.21246458923513"
					y="92.56454699840957"
					width="0.18328611898016997"
					height="4.435453001590432"
				/>
			
				<rect
					x="25.495750708215297"
					y="90.67231851632208"
					width="0.18328611898016997"
					height="6.327681483677921"
				/>
			
				<rect
					x="25.77903682719547"
					y="87.94681510634283"
					width="0.18328611898016997"
					height="9.053184893657175"
				/>
			
				<rect
					x="26.062322946175637"
					y="87.54753753672804"
					width="0.18328611898016997"
					height="9.452462463271956"
				/>
			
				<rect
					x="26.34560906515581"
					y="86.2455454618972"
					width="0.18328611898016997"
					height="10.754454538102806"
				/>
			
				<rect
					x="26.628895184135978"
					y="88.58045124942717"
					width="0.18328611898016997"
					height="8.41954875057283"
				/>
			
				<rect
					x="26.91218130311615"
					y="89.75224411677495"
					width="0.18328611898016997"
					height="7.247755883225054"
				/>
			
				<rect
					x="27.195467422096318"
					y="89.60468501496078"
					width="0.18328611898016997"
					height="7.395314985039221"
				/>
			
				<rect
					x="27.478753541076486"
					y="86.38442461654581"
					width="0.18328611898016997"
					height="10.615575383454185"
				/>
			
				<rect
					x="27.762039660056658"
					y="87.91209531768068"
					width="0.18328611898016997"
					height="9.08790468231932"
				/>
			
				<rect
					x="28.045325779036826"
					y="84.63107528910693"
					width="0.18328611898016997"
					height="12.368924710893069"
				/>
			
				<rect
					x="28.328611898016998"
					y="83.84988004420842"
					width="0.18328611898016997"
					height="13.150119955791581"
				/>
			
				<rect
					x="28.611898016997166"
					y="85.2907512736879"
					width="0.18328611898016997"
					height="11.709248726312097"
				/>
			
				<rect
					x="28.89518413597734"
					y="84.99563307005957"
					width="0.18328611898016997"
					height="12.004366929940431"
				/>
			
				<rect
					x="29.178470254957507"
					y="84.55295576461708"
					width="0.18328611898016997"
					height="12.447044235382918"
				/>
			
				<rect
					x="29.46175637393768"
					y="87.27845917459632"
					width="0.18328611898016997"
					height="9.721540825403679"
				/>
			
				<rect
					x="29.745042492917847"
					y="83.03396501064776"
					width="0.18328611898016997"
					height="13.966034989352238"
				/>
			
				<rect
					x="30.02832861189802"
					y="79.79634471790172"
					width="0.18328611898016997"
					height="17.203655282098282"
				/>
			
				<rect
					x="30.311614730878187"
					y="80.45602070248268"
					width="0.18328611898016997"
					height="16.543979297517325"
				/>
			
				<rect
					x="30.59490084985836"
					y="80.17826239318543"
					width="0.18328611898016997"
					height="16.821737606814565"
				/>
			
				<rect
					x="30.878186968838527"
					y="83.44192252742809"
					width="0.18328611898016997"
					height="13.55807747257191"
				/>
			
				<rect
					x="31.1614730878187"
					y="85.67266894897162"
					width="0.18328611898016997"
					height="11.32733105102838"
				/>
			
				<rect
					x="31.444759206798867"
					y="79.66614551041863"
					width="0.18328611898016997"
					height="17.33385448958137"
				/>
			
				<rect
					x="31.728045325779036"
					y="80.83793837776639"
					width="0.18328611898016997"
					height="16.162061622233608"
				/>
			
				<rect
					x="32.01133144475921"
					y="76.09000727821658"
					width="0.18328611898016997"
					height="20.909992721783425"
				/>
			
				<rect
					x="32.29461756373938"
					y="75.84696875758148"
					width="0.18328611898016997"
					height="21.15303124241852"
				/>
			
				<rect
					x="32.577903682719544"
					y="78.66795158638165"
					width="0.18328611898016997"
					height="18.332048413618352"
				/>
			
				<rect
					x="32.861189801699716"
					y="78.9891096315066"
					width="0.18328611898016997"
					height="18.010890368493406"
				/>
			
				<rect
					x="33.14447592067989"
					y="76.04660754238887"
					width="0.18328611898016997"
					height="20.95339245761113"
				/>
			
				<rect
					x="33.42776203966006"
					y="73.45130333989272"
					width="0.18328611898016997"
					height="23.548696660107282"
				/>
			
				<rect
					x="33.711048158640224"
					y="77.48747877186835"
					width="0.18328611898016997"
					height="19.512521228131646"
				/>
			
				<rect
					x="33.994334277620396"
					y="71.19451707685258"
					width="0.18328611898016997"
					height="25.805482923147423"
				/>
			
				<rect
					x="34.27762039660057"
					y="71.30735639000459"
					width="0.18328611898016997"
					height="25.692643609995415"
				/>
			
				<rect
					x="34.56090651558074"
					y="68.10445588592069"
					width="0.18328611898016997"
					height="28.895544114079314"
				/>
			
				<rect
					x="34.844192634560905"
					y="73.00862603445023"
					width="0.18328611898016997"
					height="23.99137396554977"
				/>
			
				<rect
					x="35.12747875354108"
					y="75.4303312936356"
					width="0.18328611898016997"
					height="21.569668706364396"
				/>
			
				<rect
					x="35.41076487252125"
					y="67.01078254306279"
					width="0.18328611898016997"
					height="29.98921745693721"
				/>
			
				<rect
					x="35.69405099150142"
					y="66.94134296573847"
					width="0.18328611898016997"
					height="30.05865703426153"
				/>
			
				<rect
					x="35.977337110481585"
					y="67.68781842197482"
					width="0.18328611898016997"
					height="29.312181578025175"
				/>
			
				<rect
					x="36.26062322946176"
					y="68.98981049680567"
					width="0.18328611898016997"
					height="28.010189503194326"
				/>
			
				<rect
					x="36.54390934844193"
					y="71.95835242742001"
					width="0.18328611898016997"
					height="25.04164757257999"
				/>
			
				<rect
					x="36.827195467422094"
					y="69.6408065342211"
					width="0.18328611898016997"
					height="27.3591934657789"
				/>
			
				<rect
					x="37.110481586402265"
					y="72.94786640429146"
					width="0.18328611898016997"
					height="24.05213359570854"
				/>
			
				<rect
					x="37.39376770538244"
					y="63.22632557888778"
					width="0.18328611898016997"
					height="33.77367442111222"
				/>
			
				<rect
					x="37.67705382436261"
					y="63.04404668841146"
					width="0.18328611898016997"
					height="33.95595331158854"
				/>
			
				<rect
					x="37.960339943342774"
					y="58.44367469067579"
					width="0.18328611898016997"
					height="38.55632530932421"
				/>
			
				<rect
					x="38.243626062322946"
					y="59.276949618567535"
					width="0.18328611898016997"
					height="37.723050381432465"
				/>
			
				<rect
					x="38.52691218130312"
					y="65.8129498342184"
					width="0.18328611898016997"
					height="31.1870501657816"
				/>
			
				<rect
					x="38.81019830028329"
					y="66.75906407526215"
					width="0.18328611898016997"
					height="30.240935924737855"
				/>
			
				<rect
					x="39.093484419263454"
					y="70.96883845054856"
					width="0.18328611898016997"
					height="26.03116154945144"
				/>
			
				<rect
					x="39.376770538243626"
					y="60.55290185190177"
					width="0.18328611898016997"
					height="36.44709814809823"
				/>
			
				<rect
					x="39.6600566572238"
					y="54.6158179906731"
					width="0.18328611898016997"
					height="42.3841820093269"
				/>
			
				<rect
					x="39.94334277620397"
					y="55.423053077068225"
					width="0.18328611898016997"
					height="41.576946922931775"
				/>
			
				<rect
					x="40.226628895184135"
					y="51.673315901555384"
					width="0.18328611898016997"
					height="45.326684098444616"
				/>
			
				<rect
					x="40.50991501416431"
					y="66.67226460360676"
					width="0.18328611898016997"
					height="30.327735396393237"
				/>
			
				<rect
					x="40.79320113314448"
					y="61.0042591045098"
					width="0.18328611898016997"
					height="35.9957408954902"
				/>
			
				<rect
					x="41.07648725212464"
					y="67.25382106369787"
					width="0.18328611898016997"
					height="29.74617893630213"
				/>
			
				<rect
					x="41.359773371104815"
					y="57.08092298568617"
					width="0.18328611898016997"
					height="39.91907701431383"
				/>
			
				<rect
					x="41.64305949008499"
					y="54.207860473892765"
					width="0.18328611898016997"
					height="42.792139526107235"
				/>
			
				<rect
					x="41.92634560906516"
					y="47.854139148718225"
					width="0.18328611898016997"
					height="49.145860851281775"
				/>
			
				<rect
					x="42.20963172804532"
					y="53.33986575733887"
					width="0.18328611898016997"
					height="43.66013424266113"
				/>
			
				<rect
					x="42.492917847025495"
					y="56.05668922015257"
					width="0.18328611898016997"
					height="40.94331077984743"
				/>
			
				<rect
					x="42.77620396600567"
					y="50.62304229452516"
					width="0.18328611898016997"
					height="46.37695770547484"
				/>
			
				<rect
					x="43.05949008498584"
					y="57.27188182332803"
					width="0.18328611898016997"
					height="39.72811817667197"
				/>
			
				<rect
					x="43.342776203966004"
					y="42.42049222309082"
					width="0.18328611898016997"
					height="54.57950777690918"
				/>
			
				<rect
					x="43.626062322946176"
					y="49.8071272609645"
					width="0.18328611898016997"
					height="47.1928727390355"
				/>
			
				<rect
					x="43.90934844192635"
					y="44.01760250154999"
					width="0.18328611898016997"
					height="52.98239749845001"
				/>
			
				<rect
					x="44.19263456090652"
					y="49.77240747230234"
					width="0.18328611898016997"
					height="47.22759252769766"
				/>
			
				<rect
					x="44.475920679886684"
					y="58.72143299997304"
					width="0.18328611898016997"
					height="38.27856700002696"
				/>
			
				<rect
					x="44.759206798866856"
					y="61.84621397956708"
					width="0.18328611898016997"
					height="35.15378602043292"
				/>
			
				<rect
					x="45.04249291784703"
					y="63.972801035124135"
					width="0.18328611898016997"
					height="33.027198964875865"
				/>
			
				<rect
					x="45.3257790368272"
					y="49.85052699679219"
					width="0.18328611898016997"
					height="47.14947300320781"
				/>
			
				<rect
					x="45.609065155807365"
					y="47.689220152572986"
					width="0.18328611898016997"
					height="49.310779847427014"
				/>
			
				<rect
					x="45.892351274787536"
					y="38.48847615710165"
					width="0.18328611898016997"
					height="58.51152384289835"
				/>
			
				<rect
					x="46.17563739376771"
					y="38.49715610426719"
					width="0.18328611898016997"
					height="58.50284389573281"
				/>
			
				<rect
					x="46.45892351274787"
					y="36.986845297463404"
					width="0.18328611898016997"
					height="60.013154702536596"
				/>
			
				<rect
					x="46.742209631728045"
					y="56.3518074237809"
					width="0.18328611898016997"
					height="40.6481925762191"
				/>
			
				<rect
					x="47.02549575070822"
					y="54.45089899452786"
					width="0.18328611898016997"
					height="42.54910100547214"
				/>
			
				<rect
					x="47.30878186968839"
					y="42.68089063805699"
					width="0.18328611898016997"
					height="54.31910936194301"
				/>
			
				<rect
					x="47.59206798866855"
					y="36.28376957705475"
					width="0.18328611898016997"
					height="60.71623042294525"
				/>
			
				<rect
					x="47.875354107648725"
					y="33.80998463487613"
					width="0.18328611898016997"
					height="63.19001536512387"
				/>
			
				<rect
					x="48.1586402266289"
					y="37.1864840822708"
					width="0.18328611898016997"
					height="59.8135159177292"
				/>
			
				<rect
					x="48.44192634560907"
					y="44.10440197320538"
					width="0.18328611898016997"
					height="52.89559802679462"
				/>
			
				<rect
					x="48.725212464589234"
					y="58.096476804054234"
					width="0.18328611898016997"
					height="38.903523195945766"
				/>
			
				<rect
					x="49.008498583569406"
					y="56.33444752944982"
					width="0.18328611898016997"
					height="40.66555247055018"
				/>
			
				<rect
					x="49.29178470254958"
					y="35.79769253578456"
					width="0.18328611898016997"
					height="61.20230746421544"
				/>
			
				<rect
					x="49.57507082152975"
					y="43.62700487910073"
					width="0.18328611898016997"
					height="53.37299512089927"
				/>
			
				<rect
					x="49.858356940509914"
					y="41.39625845755722"
					width="0.18328611898016997"
					height="55.60374154244278"
				/>
			
				<rect
					x="50.141643059490086"
					y="34.00962341968353"
					width="0.18328611898016997"
					height="62.99037658031647"
				/>
			
				<rect
					x="50.42492917847026"
					y="30.902202334420565"
					width="0.18328611898016997"
					height="66.09779766557944"
				/>
			
				<rect
					x="50.70821529745042"
					y="50.90080060382241"
					width="0.18328611898016997"
					height="46.09919939617759"
				/>
			
				<rect
					x="50.991501416430594"
					y="52.10731325983233"
					width="0.18328611898016997"
					height="44.89268674016767"
				/>
			
				<rect
					x="51.274787535410766"
					y="37.46424239156805"
					width="0.18328611898016997"
					height="59.53575760843195"
				/>
			
				<rect
					x="51.55807365439094"
					y="44.7553980106208"
					width="0.18328611898016997"
					height="52.2446019893792"
				/>
			
				<rect
					x="51.8413597733711"
					y="23.758605817181987"
					width="0.18328611898016997"
					height="73.24139418281801"
				/>
			
				<rect
					x="52.124645892351275"
					y="31.266760115373202"
					width="0.18328611898016997"
					height="65.7332398846268"
				/>
			
				<rect
					x="52.40793201133145"
					y="38.40167668544626"
					width="0.18328611898016997"
					height="58.59832331455374"
				/>
			
				<rect
					x="52.69121813031162"
					y="49.43388953284632"
					width="0.18328611898016997"
					height="47.56611046715368"
				/>
			
				<rect
					x="52.97450424929178"
					y="53.83462274577459"
					width="0.18328611898016997"
					height="43.16537725422541"
				/>
			
				<rect
					x="53.257790368271955"
					y="34.43494083079494"
					width="0.18328611898016997"
					height="62.56505916920506"
				/>
			
				<rect
					x="53.54107648725213"
					y="47.07294390381971"
					width="0.18328611898016997"
					height="49.92705609618029"
				/>
			
				<rect
					x="53.8243626062323"
					y="29.904008410383582"
					width="0.18328611898016997"
					height="67.09599158961642"
				/>
			
				<rect
					x="54.107648725212464"
					y="23.585006873871194"
					width="0.18328611898016997"
					height="73.4149931261288"
				/>
			
				<rect
					x="54.390934844192635"
					y="14.054424886109388"
					width="0.18328611898016997"
					height="82.94557511389061"
				/>
			
				<rect
					x="54.67422096317281"
					y="54.87621640563927"
					width="0.18328611898016997"
					height="42.12378359436073"
				/>
			
				<rect
					x="54.95750708215297"
					y="55.62269186187562"
					width="0.18328611898016997"
					height="41.37730813812438"
				/>
			
				<rect
					x="55.240793201133144"
					y="43.63568482626627"
					width="0.18328611898016997"
					height="53.36431517373373"
				/>
			
				<rect
					x="55.524079320113316"
					y="43.71380435075613"
					width="0.18328611898016997"
					height="53.28619564924387"
				/>
			
				<rect
					x="55.80736543909349"
					y="39.79914817909804"
					width="0.18328611898016997"
					height="57.20085182090196"
				/>
			
				<rect
					x="56.09065155807365"
					y="38.69679488907459"
					width="0.18328611898016997"
					height="58.30320511092541"
				/>
			
				<rect
					x="56.373937677053824"
					y="40.623743159824244"
					width="0.18328611898016997"
					height="56.376256840175756"
				/>
			
				<rect
					x="56.657223796033996"
					y="59.01655120360137"
					width="0.18328611898016997"
					height="37.98344879639863"
				/>
			
				<rect
					x="56.94050991501417"
					y="48.75685365393428"
					width="0.18328611898016997"
					height="48.24314634606572"
				/>
			
				<rect
					x="57.22379603399433"
					y="38.9658732512063"
					width="0.18328611898016997"
					height="58.0341267487937"
				/>
			
				<rect
					x="57.507082152974505"
					y="46.15286950427258"
					width="0.18328611898016997"
					height="50.84713049572742"
				/>
			
				<rect
					x="57.79036827195468"
					y="33.020109442812085"
					width="0.18328611898016997"
					height="63.979890557187915"
				/>
			
				<rect
					x="58.07365439093485"
					y="48.23605682400194"
					width="0.18328611898016997"
					height="48.76394317599806"
				/>
			
				<rect
					x="58.35694050991501"
					y="41.92573523465509"
					width="0.18328611898016997"
					height="55.07426476534491"
				/>
			
				<rect
					x="58.640226628895185"
					y="58.39159500768256"
					width="0.18328611898016997"
					height="38.60840499231744"
				/>
			
				<rect
					x="58.92351274787536"
					y="66.00390867186026"
					width="0.18328611898016997"
					height="30.99609132813974"
				/>
			
				<rect
					x="59.20679886685552"
					y="49.208210906542305"
					width="0.18328611898016997"
					height="47.791789093457695"
				/>
			
				<rect
					x="59.49008498583569"
					y="46.725746017198155"
					width="0.18328611898016997"
					height="50.274253982801845"
				/>
			
				<rect
					x="59.773371104815865"
					y="38.193357953473324"
					width="0.18328611898016997"
					height="58.806642046526676"
				/>
			
				<rect
					x="60.05665722379604"
					y="45.545273202684854"
					width="0.18328611898016997"
					height="51.454726797315146"
				/>
			
				<rect
					x="60.3399433427762"
					y="40.73658247297625"
					width="0.18328611898016997"
					height="56.26341752702375"
				/>
			
				<rect
					x="60.623229461756374"
					y="62.731568590452056"
					width="0.18328611898016997"
					height="34.268431409547944"
				/>
			
				<rect
					x="60.906515580736546"
					y="66.26430708682642"
					width="0.18328611898016997"
					height="30.73569291317358"
				/>
			
				<rect
					x="61.18980169971672"
					y="54.32937973421031"
					width="0.18328611898016997"
					height="42.67062026578969"
				/>
			
				<rect
					x="61.47308781869688"
					y="51.28271827910613"
					width="0.18328611898016997"
					height="45.71728172089387"
				/>
			
				<rect
					x="61.756373937677054"
					y="44.69463838046203"
					width="0.18328611898016997"
					height="52.30536161953797"
				/>
			
				<rect
					x="62.039660056657226"
					y="46.44798770790091"
					width="0.18328611898016997"
					height="50.55201229209909"
				/>
			
				<rect
					x="62.3229461756374"
					y="45.14599563307006"
					width="0.18328611898016997"
					height="51.85400436692994"
				/>
			
				<rect
					x="62.60623229461756"
					y="61.1604981534895"
					width="0.18328611898016997"
					height="35.8395018465105"
				/>
			
				<rect
					x="62.889518413597735"
					y="64.71927649136049"
					width="0.18328611898016997"
					height="32.28072350863951"
				/>
			
				<rect
					x="63.172804532577906"
					y="40.78866215596948"
					width="0.18328611898016997"
					height="56.21133784403052"
				/>
			
				<rect
					x="63.45609065155807"
					y="54.285979998382615"
					width="0.18328611898016997"
					height="42.714020001617385"
				/>
			
				<rect
					x="63.73937677053824"
					y="45.467153678195004"
					width="0.18328611898016997"
					height="51.532846321804996"
				/>
			
				<rect
					x="64.02266288951841"
					y="43.2190473623204"
					width="0.18328611898016997"
					height="53.7809526376796"
				/>
			
				<rect
					x="64.30594900849859"
					y="42.1514138609591"
					width="0.18328611898016997"
					height="54.8485861390409"
				/>
			
				<rect
					x="64.58923512747876"
					y="56.95072377820309"
					width="0.18328611898016997"
					height="40.04927622179691"
				/>
			
				<rect
					x="64.87252124645893"
					y="66.74170418093107"
					width="0.18328611898016997"
					height="30.258295819068934"
				/>
			
				<rect
					x="65.15580736543909"
					y="50.55360271720085"
					width="0.18328611898016997"
					height="46.44639728279915"
				/>
			
				<rect
					x="65.43909348441926"
					y="56.664285521740304"
					width="0.18328611898016997"
					height="40.335714478259696"
				/>
			
				<rect
					x="65.72237960339943"
					y="54.84149661697711"
					width="0.18328611898016997"
					height="42.15850338302289"
				/>
			
				<rect
					x="66.0056657223796"
					y="45.484513572526076"
					width="0.18328611898016997"
					height="51.515486427473924"
				/>
			
				<rect
					x="66.28895184135978"
					y="47.74997978273176"
					width="0.18328611898016997"
					height="49.25002021726824"
				/>
			
				<rect
					x="66.57223796033995"
					y="58.73879289430412"
					width="0.18328611898016997"
					height="38.26120710569588"
				/>
			
				<rect
					x="66.85552407932012"
					y="68.05237620292746"
					width="0.18328611898016997"
					height="28.947623797072538"
				/>
			
				<rect
					x="67.13881019830029"
					y="55.587972073213464"
					width="0.18328611898016997"
					height="41.412027926786536"
				/>
			
				<rect
					x="67.42209631728045"
					y="58.42631479634472"
					width="0.18328611898016997"
					height="38.57368520365528"
				/>
			
				<rect
					x="67.70538243626062"
					y="69.38040811925492"
					width="0.18328611898016997"
					height="27.619591880745077"
				/>
			
				<rect
					x="67.98866855524079"
					y="54.98037577162574"
					width="0.18328611898016997"
					height="42.01962422837426"
				/>
			
				<rect
					x="68.27195467422096"
					y="52.15071299566002"
					width="0.18328611898016997"
					height="44.84928700433998"
				/>
			
				<rect
					x="68.55524079320114"
					y="66.25562713966089"
					width="0.18328611898016997"
					height="30.744372860339112"
				/>
			
				<rect
					x="68.83852691218131"
					y="71.68059411812276"
					width="0.18328611898016997"
					height="25.319405881877245"
				/>
			
				<rect
					x="69.12181303116148"
					y="56.3518074237809"
					width="0.18328611898016997"
					height="40.6481925762191"
				/>
			
				<rect
					x="69.40509915014164"
					y="55.457772865730384"
					width="0.18328611898016997"
					height="41.542227134269616"
				/>
			
				<rect
					x="69.68838526912181"
					y="50.05884572876513"
					width="0.18328611898016997"
					height="46.94115427123487"
				/>
			
				<rect
					x="69.97167138810198"
					y="50.1196053589239"
					width="0.18328611898016997"
					height="46.8803946410761"
				/>
			
				<rect
					x="70.25495750708215"
					y="48.62665444645119"
					width="0.18328611898016997"
					height="48.37334555354881"
				/>
			
				<rect
					x="70.53824362606233"
					y="63.26972531471547"
					width="0.18328611898016997"
					height="33.73027468528453"
				/>
			
				<rect
					x="70.8215297450425"
					y="67.48817963716743"
					width="0.18328611898016997"
					height="29.511820362832566"
				/>
			
				<rect
					x="71.10481586402267"
					y="58.40895490201364"
					width="0.18328611898016997"
					height="38.59104509798636"
				/>
			
				<rect
					x="71.38810198300284"
					y="53.14022697253147"
					width="0.18328611898016997"
					height="43.85977302746853"
				/>
			
				<rect
					x="71.671388101983"
					y="52.74094940291668"
					width="0.18328611898016997"
					height="44.25905059708332"
				/>
			
				<rect
					x="71.95467422096317"
					y="55.55325228455131"
					width="0.18328611898016997"
					height="41.44674771544869"
				/>
			
				<rect
					x="72.23796033994334"
					y="54.78941693398388"
					width="0.18328611898016997"
					height="42.21058306601612"
				/>
			
				<rect
					x="72.52124645892351"
					y="64.78003612151926"
					width="0.18328611898016997"
					height="32.21996387848074"
				/>
			
				<rect
					x="72.80453257790369"
					y="-147.03671455912877"
					width="0.18328611898016997"
					height="244.03671455912877"
				/>
			
				<rect
					x="73.08781869688386"
					y="55.093215084777746"
					width="0.18328611898016997"
					height="41.906784915222254"
				/>
			
				<rect
					x="73.37110481586403"
					y="57.24584198183141"
					width="0.18328611898016997"
					height="39.75415801816859"
				/>
			
				<rect
					x="73.65439093484419"
					y="50.99628002264334"
					width="0.18328611898016997"
					height="46.00371997735666"
				/>
			
				<rect
					x="73.93767705382436"
					y="51.31743806776828"
					width="0.18328611898016997"
					height="45.68256193223172"
				/>
			
				<rect
					x="74.22096317280453"
					y="57.27188182332803"
					width="0.18328611898016997"
					height="39.72811817667197"
				/>
			
				<rect
					x="74.5042492917847"
					y="69.4411677494137"
					width="0.18328611898016997"
					height="27.558832250586306"
				/>
			
				<rect
					x="74.78753541076487"
					y="66.25562713966089"
					width="0.18328611898016997"
					height="30.744372860339112"
				/>
			
				<rect
					x="75.07082152974505"
					y="59.71962692401003"
					width="0.18328611898016997"
					height="37.28037307598997"
				/>
			
				<rect
					x="75.35410764872522"
					y="61.794134296573844"
					width="0.18328611898016997"
					height="35.205865703426156"
				/>
			
				<rect
					x="75.63739376770539"
					y="49.138771329217995"
					width="0.18328611898016997"
					height="47.861228670782005"
				/>
			
				<rect
					x="75.92067988668555"
					y="38.40167668544626"
					width="0.18328611898016997"
					height="58.59832331455374"
				/>
			
				<rect
					x="76.20396600566572"
					y="49.72032778930911"
					width="0.18328611898016997"
					height="47.27967221069089"
				/>
			
				<rect
					x="76.48725212464589"
					y="61.24729762514489"
					width="0.18328611898016997"
					height="35.75270237485511"
				/>
			
				<rect
					x="76.77053824362606"
					y="64.89287543467127"
					width="0.18328611898016997"
					height="32.10712456532873"
				/>
			
				<rect
					x="77.05382436260624"
					y="46.76046580586031"
					width="0.18328611898016997"
					height="50.23953419413969"
				/>
			
				<rect
					x="77.33711048158641"
					y="37.5857616518856"
					width="0.18328611898016997"
					height="59.4142383481144"
				/>
			
				<rect
					x="77.62039660056658"
					y="39.60818934145618"
					width="0.18328611898016997"
					height="57.39181065854382"
				/>
			
				<rect
					x="77.90368271954674"
					y="39.67762891878049"
					width="0.18328611898016997"
					height="57.32237108121951"
				/>
			
				<rect
					x="78.18696883852691"
					y="44.70331832762757"
					width="0.18328611898016997"
					height="52.29668167237243"
				/>
			
				<rect
					x="78.47025495750708"
					y="59.155430358249994"
					width="0.18328611898016997"
					height="37.844569641750006"
				/>
			
				<rect
					x="78.75354107648725"
					y="60.83934010836456"
					width="0.18328611898016997"
					height="36.16065989163544"
				/>
			
				<rect
					x="79.03682719546742"
					y="45.423753942367306"
					width="0.18328611898016997"
					height="51.576246057632694"
				/>
			
				<rect
					x="79.3201133144476"
					y="48.43569560880934"
					width="0.18328611898016997"
					height="48.56430439119066"
				/>
			
				<rect
					x="79.60339943342777"
					y="45.371674259374075"
					width="0.18328611898016997"
					height="51.628325740625925"
				/>
			
				<rect
					x="79.88668555240794"
					y="44.92031700676604"
					width="0.18328611898016997"
					height="52.07968299323396"
				/>
			
				<rect
					x="80.1699716713881"
					y="43.60964498476966"
					width="0.18328611898016997"
					height="53.39035501523034"
				/>
			
				<rect
					x="80.45325779036827"
					y="58.54783405666226"
					width="0.18328611898016997"
					height="38.45216594333774"
				/>
			
				<rect
					x="80.73654390934844"
					y="64.33735881607677"
					width="0.18328611898016997"
					height="32.66264118392323"
				/>
			
				<rect
					x="81.01983002832861"
					y="51.43027738092029"
					width="0.18328611898016997"
					height="45.56972261907971"
				/>
			
				<rect
					x="81.30311614730878"
					y="51.647276060058765"
					width="0.18328611898016997"
					height="45.352723939941235"
				/>
			
				<rect
					x="81.58640226628896"
					y="48.67873412944443"
					width="0.18328611898016997"
					height="48.32126587055557"
				/>
			
				<rect
					x="81.86968838526913"
					y="45.519233361188235"
					width="0.18328611898016997"
					height="51.480766638811765"
				/>
			
				<rect
					x="82.15297450424929"
					y="37.88955980267946"
					width="0.18328611898016997"
					height="59.11044019732054"
				/>
			
				<rect
					x="82.43626062322946"
					y="45.90115103647195"
					width="0.18328611898016997"
					height="51.09884896352805"
				/>
			
				<rect
					x="82.71954674220963"
					y="53.9474620589266"
					width="0.18328611898016997"
					height="43.0525379410734"
				/>
			
				<rect
					x="83.0028328611898"
					y="47.12502358681295"
					width="0.18328611898016997"
					height="49.87497641318705"
				/>
			
				<rect
					x="83.28611898016997"
					y="30.633123972288857"
					width="0.18328611898016997"
					height="66.36687602771114"
				/>
			
				<rect
					x="83.56940509915015"
					y="47.88885893738038"
					width="0.18328611898016997"
					height="49.11114106261962"
				/>
			
				<rect
					x="83.85269121813032"
					y="48.75685365393428"
					width="0.18328611898016997"
					height="48.24314634606572"
				/>
			
				<rect
					x="84.13597733711049"
					y="46.1355096099415"
					width="0.18328611898016997"
					height="50.8644903900585"
				/>
			
				<rect
					x="84.41926345609065"
					y="68.62525271585304"
					width="0.18328611898016997"
					height="28.374747284146963"
				/>
			
				<rect
					x="84.70254957507082"
					y="72.05383184624094"
					width="0.18328611898016997"
					height="24.94616815375906"
				/>
			
				<rect
					x="84.98583569405099"
					y="81.74933283014799"
					width="0.18328611898016997"
					height="15.250667169852008"
				/>
			
				<rect
					x="85.26912181303116"
					y="62.991967005418225"
					width="0.18328611898016997"
					height="34.008032994581775"
				/>
			
				<rect
					x="85.55240793201133"
					y="58.18327627570962"
					width="0.18328611898016997"
					height="38.81672372429038"
				/>
			
				<rect
					x="85.8356940509915"
					y="41.22265951424643"
					width="0.18328611898016997"
					height="55.77734048575357"
				/>
			
				<rect
					x="86.11898016997168"
					y="38.67943499474351"
					width="0.18328611898016997"
					height="58.32056500525649"
				/>
			
				<rect
					x="86.40226628895184"
					y="17.257325390193273"
					width="0.18328611898016997"
					height="79.74267460980673"
				/>
			
				<rect
					x="86.68555240793201"
					y="32.047955360271715"
					width="0.18328611898016997"
					height="64.95204463972829"
				/>
			
				<rect
					x="86.96883852691218"
					y="3.3086502951721144"
					width="0.18328611898016997"
					height="93.69134970482789"
				/>
			
				<rect
					x="87.25212464589235"
					y="7.292746044154512"
					width="0.18328611898016997"
					height="89.70725395584549"
				/>
			
				<rect
					x="87.53541076487252"
					y="26.631668328975394"
					width="0.18328611898016997"
					height="70.3683316710246"
				/>
			
				<rect
					x="87.8186968838527"
					y="-7.862441706876567"
					width="0.18328611898016997"
					height="104.86244170687657"
				/>
			
				<rect
					x="88.10198300283287"
					y="10.13108876728576"
					width="0.18328611898016997"
					height="86.86891123271424"
				/>
			
				<rect
					x="88.38526912181304"
					y="42.16877375529018"
					width="0.18328611898016997"
					height="54.83122624470982"
				/>
			
				<rect
					x="88.6685552407932"
					y="40.20710569587837"
					width="0.18328611898016997"
					height="56.79289430412163"
				/>
			
				<rect
					x="88.95184135977337"
					y="20.451545947111626"
					width="0.18328611898016997"
					height="76.54845405288837"
				/>
			
				<rect
					x="89.23512747875354"
					y="-0.6580855594792041"
					width="0.18328611898016997"
					height="97.6580855594792"
				/>
			
				<rect
					x="89.51841359773371"
					y="1.2601827641049113"
					width="0.18328611898016997"
					height="95.73981723589509"
				/>
			
				<rect
					x="89.80169971671388"
					y="-8.261719276491363"
					width="0.18328611898016997"
					height="105.26171927649136"
				/>
			
				<rect
					x="90.08498583569406"
					y="-3.904385799390795"
					width="0.18328611898016997"
					height="100.9043857993908"
				/>
			
				<rect
					x="90.36827195467423"
					y="32.29099388090681"
					width="0.18328611898016997"
					height="64.70900611909319"
				/>
			
				<rect
					x="90.6515580736544"
					y="41.45701808771599"
					width="0.18328611898016997"
					height="55.54298191228401"
				/>
			
				<rect
					x="90.93484419263456"
					y="1.4685014960778489"
					width="0.18328611898016997"
					height="95.53149850392215"
				/>
			
				<rect
					x="91.21813031161473"
					y="-6.933687360163901"
					width="0.18328611898016997"
					height="103.9336873601639"
				/>
			
				<rect
					x="91.5014164305949"
					y="-6.265331428417397"
					width="0.18328611898016997"
					height="103.2653314284174"
				/>
			
				<rect
					x="91.78470254957507"
					y="-9.355392619349274"
					width="0.18328611898016997"
					height="106.35539261934927"
				/>
			
				<rect
					x="92.06798866855524"
					y="-7.654122974903629"
					width="0.18328611898016997"
					height="104.65412297490363"
				/>
			
				<rect
					x="92.35127478753542"
					y="22.28301479904036"
					width="0.18328611898016997"
					height="74.71698520095964"
				/>
			
				<rect
					x="92.63456090651559"
					y="45.527913308353774"
					width="0.18328611898016997"
					height="51.472086691646226"
				/>
			
				<rect
					x="92.91784702549575"
					y="-0.4584467746718133"
					width="0.18328611898016997"
					height="97.45844677467181"
				/>
			
				<rect
					x="93.20113314447592"
					y="7.622584036444991"
					width="0.18328611898016997"
					height="89.37741596355501"
				/>
			
				<rect
					x="93.48441926345609"
					y="-5.414696606194568"
					width="0.18328611898016997"
					height="102.41469660619457"
				/>
			
				<rect
					x="93.76770538243626"
					y="-9.311992883521583"
					width="0.18328611898016997"
					height="106.31199288352158"
				/>
			
				<rect
					x="94.05099150141643"
					y="-8.279079170822442"
					width="0.18328611898016997"
					height="105.27907917082244"
				/>
			
				<rect
					x="94.3342776203966"
					y="37.36876297274712"
					width="0.18328611898016997"
					height="59.63123702725288"
				/>
			
				<rect
					x="94.61756373937678"
					y="50.38868372105561"
					width="0.18328611898016997"
					height="46.61131627894439"
				/>
			
				<rect
					x="94.90084985835695"
					y="-11.594818988058336"
					width="0.18328611898016997"
					height="108.59481898805834"
				/>
			
				<rect
					x="95.1841359773371"
					y="-4.147424320025877"
					width="0.18328611898016997"
					height="101.14742432002588"
				/>
			
				<rect
					x="95.46742209631728"
					y="-11.369140361754319"
					width="0.18328611898016997"
					height="108.36914036175432"
				/>
			
				<rect
					x="95.75070821529745"
					y="12.986791384748088"
					width="0.18328611898016997"
					height="84.01320861525191"
				/>
			
				<rect
					x="96.03399433427762"
					y="53.82594279860905"
					width="0.18328611898016997"
					height="43.17405720139095"
				/>
			
				<rect
					x="96.3172804532578"
					y="43.036768471844084"
					width="0.18328611898016997"
					height="53.963231528155916"
				/>
			
				<rect
					x="96.60056657223797"
					y="44.9550367954282"
					width="0.18328611898016997"
					height="52.0449632045718"
				/>
			
				<rect
					x="96.88385269121814"
					y="-8.018680755856266"
					width="0.18328611898016997"
					height="105.01868075585627"
				/>
			
				<rect
					x="97.1671388101983"
					y="-10.683424535676735"
					width="0.18328611898016997"
					height="107.68342453567674"
				/>
			
				<rect
					x="97.45042492917847"
					y="-8.539477585788617"
					width="0.18328611898016997"
					height="105.53947758578862"
				/>
			
				<rect
					x="97.73371104815864"
					y="0.7307059870070276"
					width="0.18328611898016997"
					height="96.26929401299297"
				/>
			
				<rect
					x="98.01699716713881"
					y="41.804215974337545"
					width="0.18328611898016997"
					height="55.195784025662455"
				/>
			
				<rect
					x="98.30028328611898"
					y="51.76879532037631"
					width="0.18328611898016997"
					height="45.23120467962369"
				/>
			
				<rect
					x="98.58356940509915"
					y="40.89282152195595"
					width="0.18328611898016997"
					height="56.10717847804405"
				/>
			
				<rect
					x="98.86685552407933"
					y="-0.8316845027899831"
					width="0.18328611898016997"
					height="97.83168450278998"
				/>
			
				<rect
					x="99.1501416430595"
					y="-18.833894924117857"
					width="0.18328611898016997"
					height="115.83389492411786"
				/>
			
				<rect
					x="99.43342776203966"
					y="-22.21039437151252"
					width="0.18328611898016997"
					height="119.21039437151252"
				/>
			
				<rect
					x="99.71671388101983"
					y="-27.661401191471015"
					width="0.18328611898016997"
					height="124.66140119147101"
				/>
			
		</g>

		<path class="rolling-area" d="M0,97L0,97L0.28328611898017,97L0.56657223796034,97L0.8498583569405099,97L1.13314447592068,97L1.41643059490085,97L1.6997167138810199,97L1.9830028328611897,97L2.26628895184136,97L2.54957507082153,97L2.8328611898017,97L3.1161473087818696,97L3.3994334277620397,97L3.68271954674221,97L3.9660056657223794,97L4.2492917847025495,97L4.53257790368272,97L4.81586402266289,97L5.09915014164306,97L5.38243626062323,97L5.6657223796034,97L5.949008498583569,97L6.232294617563739,97L6.515580736543909,97L6.798866855524079,97L7.0821529745042495,97L7.36543909348442,97L7.64872521246459,97L7.932011331444759,97L8.215297450424929,97L8.498583569405099,97L8.78186968838527,97L9.06515580736544,97L9.34844192634561,97L9.63172804532578,97L9.91501416430595,97L10.19830028328612,97L10.48158640226629,96.99876000754779L10.76487252124646,96.99504003019112L11.04815864022663,96.99380003773891L11.3314447592068,96.99380003773891L11.614730878186968,96.99380003773891L11.898016997167138,96.99380003773891L12.181303116147308,96.99380003773891L12.464589235127479,96.99380003773891L12.747875354107649,96.99752001509556L13.031161473087819,96.99752001509556L13.314447592067989,96.99752001509556L13.597733711048159,96.99752001509556L13.881019830028329,96.99628002264335L14.164305949008499,96.99132005283447L14.44759206798867,96.99256004528668L14.73087818696884,96.99256004528668L15.01416430594901,96.95784025662452L15.29745042492918,96.90700056608351L15.58073654390935,96.90700056608351L15.864022662889518,96.89460064156131L16.14730878186969,96.8685608000647L16.430594900849858,96.81152114726258L16.71388101983003,96.76316144162601L16.997167138810198,96.73960158503382L17.28045325779037,96.70984176618056L17.56373937677054,96.64660215111734L17.84702549575071,96.6131223549074L18.13031161473088,96.55732269455751L18.413597733711047,96.47796317761544L18.69688385269122,96.36264387955899L18.980169971671387,96.25972450602474L19.26345609065156,96.16052510984716L19.546742209631727,96.09852548723616L19.8300283286119,95.99560611370191L20.113314447592067,95.88028681564548L20.39660056657224,95.6322883252015L20.679886685552407,95.5454888535461L20.96317280453258,95.39420977437528L21.246458923512748,95.20697091409009L21.52974504249292,94.90317276329623L21.813031161473088,94.56217483893576L22.09631728045326,94.44189557107043L22.379603399433428,94.32657627301398L22.6628895184136,94.11205757877995L22.946175637393768,93.8776990053104L23.229461756373937,93.80701943553387L23.51274787535411,93.75865972989729L23.796033994334277,93.69418012238187L24.07932011331445,93.45858155646009L24.362606232294617,93.24158287732162L24.64589235127479,92.93530474162331L24.929178470254957,92.53602717200852L25.21246458923513,92.34010836455778L25.495750708215297,91.91355096099414L25.77903682719547,91.17575545192334L26.062322946175637,90.38340027495485L26.34560906515581,89.56376526403753L26.628895184135978,89.13224789066501L26.91218130311615,89.0442084265574L27.195467422096318,88.62137100035044L27.478753541076486,88.00881472895382L27.762039660056658,88.00385475914494L28.045325779036826,87.58721729519907L28.328611898016998,87.24497937838639L28.611898016997166,86.77502223899506L28.89518413597734,86.09550637517859L29.178470254957507,85.37383076798663L29.46175637393768,85.50154999056528L29.745042492917847,84.80467423241771L30.02832861189802,84.11399843653126L30.311614730878187,83.6291613877133L30.59490084985836,82.8988058333558L30.878186968838527,82.67684718440844L31.1614730878187,82.83680621074481L31.444759206798867,81.74933283014799L31.728045325779036,81.43561473973637L32.01133144475921,80.9061379626385L32.29461756373938,80.24770197050975L32.577903682719544,80.0319432838235L32.861189801699716,79.3958271558347L33.14447592067989,78.02067552632289L33.42776203966006,77.13284093053346L33.711048158640224,76.6542038439766L33.994334277620396,75.95484810092461L34.27762039660057,75.30633204841362L34.56090651558074,73.79726123406205L34.844192634560905,72.94290643448258L35.12747875354108,72.85486697037496L35.41076487252125,71.93479257082782L35.69405099150142,70.4282017413807L35.977337110481585,69.92724479068389L36.26062322946176,69.59616680594118L36.54390934844193,70.1467234547268L36.827195467422094,69.6656063832655L37.110481586402265,69.3109685419306L37.39376770538244,68.77033183276276L37.67705382436261,68.21357522171604L37.960339943342774,66.8929832601019L38.243626062322946,65.50543170606787L38.52691218130312,64.62751704989623L38.81019830028329,64.21583955575923L39.093484419263454,63.9331212766531L39.376770538243626,63.55120360136938L39.6600566572238,62.3471709302639L39.94334277620397,61.91565355689139L40.226628895184135,60.8294201687468L40.50991501416431,60.95217942151656L40.79320113314448,60.130064425694805L41.07648725212464,59.5993476561447L41.359773371104815,59.103350675256756L41.64305949008499,59.045071030002426L41.92634560906516,57.963797611666706L42.20963172804532,58.20187616249292L42.492917847025495,56.68536539342804L42.77620396600567,55.20233442057309L43.05949008498584,53.77634310052026L43.342776203966004,51.681995848720916L43.626062322946176,51.05331967544545L43.90934844192635,50.505243011564275L44.19263456090652,49.99560611370191L44.475920679886684,50.37628379653341L44.759206798866856,51.97959403725369L45.04249291784703,52.936868210367415L45.3257790368272,53.998301749467615L45.609065155807365,53.69574359112597L45.892351274787536,52.905868399061916L46.17563739376771,51.29511820362833L46.45892351274787,48.190177103269804L46.742209631728045,47.40526188101464L47.02549575070822,46.04499016092945L47.30878186968839,45.02075639539585L47.59206798866855,43.39140631317896L47.875354107648725,42.723050381432465L48.1586402266289,42.53581152114727L48.44192634560907,43.55260533196754L48.725212464589234,43.80184381486373L49.008498583569406,44.07092217699544L49.29178470254958,43.0876081623851L49.57507082152975,44.13664177696309L49.858356940509914,45.22039518020325L50.141643059490086,44.76655794269079L50.42492917847026,42.880529422864385L50.70821529745042,41.852575679974116L50.991501416430594,41.24869935574305L51.274787535410766,41.486777906569266L51.55807365439094,41.647976925357845L51.8413597733711,39.128312262447096L52.124645892351275,38.73647464754562L52.40793201133145,39.80782812626358L52.69121813031162,39.59826940183842L52.97450424929178,39.84502789983018L53.257790368271955,39.412270534005444L53.54107648725213,39.74334851874814L53.8243626062323,40.6212631749198L54.107648725212464,39.52386985470523L54.390934844192635,36.04569102622853L54.67422096317281,36.823166293770385L54.95750708215297,37.07860473892767L55.240793201133144,38.39299673828072L55.524079320113316,37.913119659271636L55.80736543909349,39.326711054802274L56.09065155807365,41.485537914117046L56.373937677053824,45.28115481036202L56.657223796033996,45.87263121007089L56.94050991501417,44.89179718036498L57.22379603399433,44.224681241070705L57.507082152974505,44.57311912014448L57.79036827195468,43.60468501496078L58.07365439093485,44.9674367199504L58.35694050991501,45.15343558778338L58.640226628895185,45.06415613122355L58.92351274787536,47.5280211337844L59.20679886685552,48.991212227403835L59.49008498583569,49.073051729250345L59.773371104815865,49.81208723077338L60.05665722379604,49.42768957058522L60.3399433427762,49.257810604631096L60.623229461756374,49.87780683074103L60.906515580736546,49.91500660430763L61.18980169971672,50.646602151117335L61.47308781869688,51.29759818853276L61.756373937677054,52.22635253524543L62.039660056657226,52.3553117502763L62.3229461756374,52.985227916003986L62.60623229461756,52.760789282152196L62.889518413597735,52.540070625657066L63.172804532577906,50.605682400194084L63.45609065155807,51.03471978866216L63.73937677053824,51.14507911690972L64.02266288951841,50.683801924683934L64.30594900849859,50.25600452866808L64.58923512747876,49.65460818934146L64.87252124645893,49.94352643070868L65.15580736543909,51.33851793945602L65.43909348441926,51.67827587136426L65.72237960339943,53.017467719761704L66.0056657223796,53.34110574979108L66.28895184135978,54.140900881472895L66.57223796033995,54.396339326630184L66.85552407932012,54.58357818691539L67.13881019830029,55.3027738092029L67.42209631728045,55.554492277003526L67.70538243626062,57.63147963447179L67.98866855524079,58.98803137720031L68.27195467422096,59.61670755047577L68.55524079320114,60.69054101409817L68.83852691218131,61.20885785912607L69.12181303116148,61.31797719492142L69.40509915014164,60.89389977626223L69.68838526912181,58.13367657762083L69.97167138810198,57.43928080437772L70.25495750708215,56.93584386877645L70.53824362606233,56.50928646521282L70.8215297450425,55.91037011079062L71.10481586402267,56.20424832196674L71.38810198300284,55.87317033722404L71.671388101983,56.25632800495997L71.95467422096317,57.0325632800496L72.23796033994334,57.912957921125695L72.52124645892351,58.128716607811945L72.80453257790369,56.568806102919375L73.08781869688386,56.01618280004672L73.37110481586403,56.70045196826338L73.65439093484419,56.409673738217826L73.93767705382436,55.703704702087315L74.22096317280453,56.11744885031135L74.5042492917847,56.89430412162709L74.78753541076487,58.2316359813462L75.07082152974505,58.89255195837938L75.35410764872522,59.54230800334258L75.63739376770539,59.276949618567535L75.92067988668555,57.4318408496644L76.20396600566572,56.35304741623312L76.48725212464589,55.182494541337576L76.77053824362606,54.98781572633906L77.05382436260624,53.13650699517481L77.33711048158641,49.67816804593363L77.62039660056658,48.31665633339623L77.90368271954674,48.49893522387255L78.18696883852691,47.78221958648947L78.47025495750708,47.48338140550449L78.75354107648725,46.904304930317814L79.03682719546742,46.713346092675955L79.3201133144476,48.263336657950774L79.60339943342777,49.086691646224764L79.88668555240794,49.83564708736556L80.1699716713881,49.67940803838586L80.45325779036827,49.59260856673047L80.73654390934844,50.09232552497507L81.01983002832861,50.9504003019112L81.30311614730878,51.40919750923255L81.58640226628896,51.881634633528314L81.86968838526913,51.96719411273149L82.15297450424929,51.1500390867186L82.43626062322946,49.34337008383427L82.71954674220963,47.859099118527105L83.0028328611898,47.24406286222605L83.28611898016997,44.242041135401784L83.56940509915015,44.129201822249776L83.85269121813032,44.59171900692778L84.13597733711049,45.76971183653665L84.41926345609065,49.016012076448234L84.70254957507082,51.602636331778854L84.98583569405099,56.54896622368385L85.26912181303116,61.17165808555948L85.55240793201133,62.64228913389223L85.8356940509915,61.565975685365395L86.11898016997168,60.500822168908535L86.40226628895184,53.162546836671424L86.68555240793201,47.44742162439011L86.96883852691218,36.24160983367927L87.25212464589235,28.284578267784454L87.53541076487252,23.77720570396528L87.8186968838527,16.765048386661988L88.10198300283287,12.686713211310874L88.38526912181304,16.245491549181864L88.6685552407932,17.411084454268547L88.95184135977337,19.86006954740276L89.23512747875354,18.72423646116937L89.51841359773371,15.099738523330714L89.80169971671388,15.04269887052861L90.08498583569406,13.037631075289113L90.36827195467423,11.626519664662908L90.6515580736544,11.805078577782567L90.93484419263456,9.09321508477774L91.21813031161473,8.196700541822779L91.5014164305949,7.121627085748173L91.78470254957507,6.965388036768459L92.06798866855524,6.429711297409497L92.35127478753542,5L92.63456090651559,5.581556460091107L92.91784702549575,5.306278135698307L93.20113314447592,7.3857454780710015L93.48441926345609,7.507264738388557L93.76770538243626,7.513464700649635L94.05099150141643,7.424185244089813L94.3342776203966,9.579292126047918L94.61756373937678,10.273687899291033L94.90084985835695,8.682777583092971L95.1841359773371,7.001347817882845L95.46742209631728,6.150712995660015L95.75070821529745,9.336253605412821L96.03399433427762,18.20839960104591L96.3172804532578,19.018114672345476L96.60056657223797,18.24187939725583L96.88385269121814,18.75275628757042L97.1671388101983,17.819041971048875L97.45042492917847,18.223279510472537L97.73371104815864,16.472410167938108L98.01699716713881,14.75502062161361L98.30028328611898,16.002453028546768L98.58356940509915,15.422136560907902L98.86685552407933,16.448850311345936L99.1501416430595,15.284497398711494L99.43342776203966,13.33150928646522L99.71671388101983,9.27549397525405L100,97Z"/>
		<path class="rolling-line" d="M0,97L0.28328611898017,97L0.56657223796034,97L0.8498583569405099,97L1.13314447592068,97L1.41643059490085,97L1.6997167138810199,97L1.9830028328611897,97L2.26628895184136,97L2.54957507082153,97L2.8328611898017,97L3.1161473087818696,97L3.3994334277620397,97L3.68271954674221,97L3.9660056657223794,97L4.2492917847025495,97L4.53257790368272,97L4.81586402266289,97L5.09915014164306,97L5.38243626062323,97L5.6657223796034,97L5.949008498583569,97L6.232294617563739,97L6.515580736543909,97L6.798866855524079,97L7.0821529745042495,97L7.36543909348442,97L7.64872521246459,97L7.932011331444759,97L8.215297450424929,97L8.498583569405099,97L8.78186968838527,97L9.06515580736544,97L9.34844192634561,97L9.63172804532578,97L9.91501416430595,97L10.19830028328612,97L10.48158640226629,96.99876000754779L10.76487252124646,96.99504003019112L11.04815864022663,96.99380003773891L11.3314447592068,96.99380003773891L11.614730878186968,96.99380003773891L11.898016997167138,96.99380003773891L12.181303116147308,96.99380003773891L12.464589235127479,96.99380003773891L12.747875354107649,96.99752001509556L13.031161473087819,96.99752001509556L13.314447592067989,96.99752001509556L13.597733711048159,96.99752001509556L13.881019830028329,96.99628002264335L14.164305949008499,96.99132005283447L14.44759206798867,96.99256004528668L14.73087818696884,96.99256004528668L15.01416430594901,96.95784025662452L15.29745042492918,96.90700056608351L15.58073654390935,96.90700056608351L15.864022662889518,96.89460064156131L16.14730878186969,96.8685608000647L16.430594900849858,96.81152114726258L16.71388101983003,96.76316144162601L16.997167138810198,96.73960158503382L17.28045325779037,96.70984176618056L17.56373937677054,96.64660215111734L17.84702549575071,96.6131223549074L18.13031161473088,96.55732269455751L18.413597733711047,96.47796317761544L18.69688385269122,96.36264387955899L18.980169971671387,96.25972450602474L19.26345609065156,96.16052510984716L19.546742209631727,96.09852548723616L19.8300283286119,95.99560611370191L20.113314447592067,95.88028681564548L20.39660056657224,95.6322883252015L20.679886685552407,95.5454888535461L20.96317280453258,95.39420977437528L21.246458923512748,95.20697091409009L21.52974504249292,94.90317276329623L21.813031161473088,94.56217483893576L22.09631728045326,94.44189557107043L22.379603399433428,94.32657627301398L22.6628895184136,94.11205757877995L22.946175637393768,93.8776990053104L23.229461756373937,93.80701943553387L23.51274787535411,93.75865972989729L23.796033994334277,93.69418012238187L24.07932011331445,93.45858155646009L24.362606232294617,93.24158287732162L24.64589235127479,92.93530474162331L24.929178470254957,92.53602717200852L25.21246458923513,92.34010836455778L25.495750708215297,91.91355096099414L25.77903682719547,91.17575545192334L26.062322946175637,90.38340027495485L26.34560906515581,89.56376526403753L26.628895184135978,89.13224789066501L26.91218130311615,89.0442084265574L27.195467422096318,88.62137100035044L27.478753541076486,88.00881472895382L27.762039660056658,88.00385475914494L28.045325779036826,87.58721729519907L28.328611898016998,87.24497937838639L28.611898016997166,86.77502223899506L28.89518413597734,86.09550637517859L29.178470254957507,85.37383076798663L29.46175637393768,85.50154999056528L29.745042492917847,84.80467423241771L30.02832861189802,84.11399843653126L30.311614730878187,83.6291613877133L30.59490084985836,82.8988058333558L30.878186968838527,82.67684718440844L31.1614730878187,82.83680621074481L31.444759206798867,81.74933283014799L31.728045325779036,81.43561473973637L32.01133144475921,80.9061379626385L32.29461756373938,80.24770197050975L32.577903682719544,80.0319432838235L32.861189801699716,79.3958271558347L33.14447592067989,78.02067552632289L33.42776203966006,77.13284093053346L33.711048158640224,76.6542038439766L33.994334277620396,75.95484810092461L34.27762039660057,75.30633204841362L34.56090651558074,73.79726123406205L34.844192634560905,72.94290643448258L35.12747875354108,72.85486697037496L35.41076487252125,71.93479257082782L35.69405099150142,70.4282017413807L35.977337110481585,69.92724479068389L36.26062322946176,69.59616680594118L36.54390934844193,70.1467234547268L36.827195467422094,69.6656063832655L37.110481586402265,69.3109685419306L37.39376770538244,68.77033183276276L37.67705382436261,68.21357522171604L37.960339943342774,66.8929832601019L38.243626062322946,65.50543170606787L38.52691218130312,64.62751704989623L38.81019830028329,64.21583955575923L39.093484419263454,63.9331212766531L39.376770538243626,63.55120360136938L39.6600566572238,62.3471709302639L39.94334277620397,61.91565355689139L40.226628895184135,60.8294201687468L40.50991501416431,60.95217942151656L40.79320113314448,60.130064425694805L41.07648725212464,59.5993476561447L41.359773371104815,59.103350675256756L41.64305949008499,59.045071030002426L41.92634560906516,57.963797611666706L42.20963172804532,58.20187616249292L42.492917847025495,56.68536539342804L42.77620396600567,55.20233442057309L43.05949008498584,53.77634310052026L43.342776203966004,51.681995848720916L43.626062322946176,51.05331967544545L43.90934844192635,50.505243011564275L44.19263456090652,49.99560611370191L44.475920679886684,50.37628379653341L44.759206798866856,51.97959403725369L45.04249291784703,52.936868210367415L45.3257790368272,53.998301749467615L45.609065155807365,53.69574359112597L45.892351274787536,52.905868399061916L46.17563739376771,51.29511820362833L46.45892351274787,48.190177103269804L46.742209631728045,47.40526188101464L47.02549575070822,46.04499016092945L47.30878186968839,45.02075639539585L47.59206798866855,43.39140631317896L47.875354107648725,42.723050381432465L48.1586402266289,42.53581152114727L48.44192634560907,43.55260533196754L48.725212464589234,43.80184381486373L49.008498583569406,44.07092217699544L49.29178470254958,43.0876081623851L49.57507082152975,44.13664177696309L49.858356940509914,45.22039518020325L50.141643059490086,44.76655794269079L50.42492917847026,42.880529422864385L50.70821529745042,41.852575679974116L50.991501416430594,41.24869935574305L51.274787535410766,41.486777906569266L51.55807365439094,41.647976925357845L51.8413597733711,39.128312262447096L52.124645892351275,38.73647464754562L52.40793201133145,39.80782812626358L52.69121813031162,39.59826940183842L52.97450424929178,39.84502789983018L53.257790368271955,39.412270534005444L53.54107648725213,39.74334851874814L53.8243626062323,40.6212631749198L54.107648725212464,39.52386985470523L54.390934844192635,36.04569102622853L54.67422096317281,36.823166293770385L54.95750708215297,37.07860473892767L55.240793201133144,38.39299673828072L55.524079320113316,37.913119659271636L55.80736543909349,39.326711054802274L56.09065155807365,41.485537914117046L56.373937677053824,45.28115481036202L56.657223796033996,45.87263121007089L56.94050991501417,44.89179718036498L57.22379603399433,44.224681241070705L57.507082152974505,44.57311912014448L57.79036827195468,43.60468501496078L58.07365439093485,44.9674367199504L58.35694050991501,45.15343558778338L58.640226628895185,45.06415613122355L58.92351274787536,47.5280211337844L59.20679886685552,48.991212227403835L59.49008498583569,49.073051729250345L59.773371104815865,49.81208723077338L60.05665722379604,49.42768957058522L60.3399433427762,49.257810604631096L60.623229461756374,49.87780683074103L60.906515580736546,49.91500660430763L61.18980169971672,50.646602151117335L61.47308781869688,51.29759818853276L61.756373937677054,52.22635253524543L62.039660056657226,52.3553117502763L62.3229461756374,52.985227916003986L62.60623229461756,52.760789282152196L62.889518413597735,52.540070625657066L63.172804532577906,50.605682400194084L63.45609065155807,51.03471978866216L63.73937677053824,51.14507911690972L64.02266288951841,50.683801924683934L64.30594900849859,50.25600452866808L64.58923512747876,49.65460818934146L64.87252124645893,49.94352643070868L65.15580736543909,51.33851793945602L65.43909348441926,51.67827587136426L65.72237960339943,53.017467719761704L66.0056657223796,53.34110574979108L66.28895184135978,54.140900881472895L66.57223796033995,54.396339326630184L66.85552407932012,54.58357818691539L67.13881019830029,55.3027738092029L67.42209631728045,55.554492277003526L67.70538243626062,57.63147963447179L67.98866855524079,58.98803137720031L68.27195467422096,59.61670755047577L68.55524079320114,60.69054101409817L68.83852691218131,61.20885785912607L69.12181303116148,61.31797719492142L69.40509915014164,60.89389977626223L69.68838526912181,58.13367657762083L69.97167138810198,57.43928080437772L70.25495750708215,56.93584386877645L70.53824362606233,56.50928646521282L70.8215297450425,55.91037011079062L71.10481586402267,56.20424832196674L71.38810198300284,55.87317033722404L71.671388101983,56.25632800495997L71.95467422096317,57.0325632800496L72.23796033994334,57.912957921125695L72.52124645892351,58.128716607811945L72.80453257790369,56.568806102919375L73.08781869688386,56.01618280004672L73.37110481586403,56.70045196826338L73.65439093484419,56.409673738217826L73.93767705382436,55.703704702087315L74.22096317280453,56.11744885031135L74.5042492917847,56.89430412162709L74.78753541076487,58.2316359813462L75.07082152974505,58.89255195837938L75.35410764872522,59.54230800334258L75.63739376770539,59.276949618567535L75.92067988668555,57.4318408496644L76.20396600566572,56.35304741623312L76.48725212464589,55.182494541337576L76.77053824362606,54.98781572633906L77.05382436260624,53.13650699517481L77.33711048158641,49.67816804593363L77.62039660056658,48.31665633339623L77.90368271954674,48.49893522387255L78.18696883852691,47.78221958648947L78.47025495750708,47.48338140550449L78.75354107648725,46.904304930317814L79.03682719546742,46.713346092675955L79.3201133144476,48.263336657950774L79.60339943342777,49.086691646224764L79.88668555240794,49.83564708736556L80.1699716713881,49.67940803838586L80.45325779036827,49.59260856673047L80.73654390934844,50.09232552497507L81.01983002832861,50.9504003019112L81.30311614730878,51.40919750923255L81.58640226628896,51.881634633528314L81.86968838526913,51.96719411273149L82.15297450424929,51.1500390867186L82.43626062322946,49.34337008383427L82.71954674220963,47.859099118527105L83.0028328611898,47.24406286222605L83.28611898016997,44.242041135401784L83.56940509915015,44.129201822249776L83.85269121813032,44.59171900692778L84.13597733711049,45.76971183653665L84.41926345609065,49.016012076448234L84.70254957507082,51.602636331778854L84.98583569405099,56.54896622368385L85.26912181303116,61.17165808555948L85.55240793201133,62.64228913389223L85.8356940509915,61.565975685365395L86.11898016997168,60.500822168908535L86.40226628895184,53.162546836671424L86.68555240793201,47.44742162439011L86.96883852691218,36.24160983367927L87.25212464589235,28.284578267784454L87.53541076487252,23.77720570396528L87.8186968838527,16.765048386661988L88.10198300283287,12.686713211310874L88.38526912181304,16.245491549181864L88.6685552407932,17.411084454268547L88.95184135977337,19.86006954740276L89.23512747875354,18.72423646116937L89.51841359773371,15.099738523330714L89.80169971671388,15.04269887052861L90.08498583569406,13.037631075289113L90.36827195467423,11.626519664662908L90.6515580736544,11.805078577782567L90.93484419263456,9.09321508477774L91.21813031161473,8.196700541822779L91.5014164305949,7.121627085748173L91.78470254957507,6.965388036768459L92.06798866855524,6.429711297409497L92.35127478753542,5L92.63456090651559,5.581556460091107L92.91784702549575,5.306278135698307L93.20113314447592,7.3857454780710015L93.48441926345609,7.507264738388557L93.76770538243626,7.513464700649635L94.05099150141643,7.424185244089813L94.3342776203966,9.579292126047918L94.61756373937678,10.273687899291033L94.90084985835695,8.682777583092971L95.1841359773371,7.001347817882845L95.46742209631728,6.150712995660015L95.75070821529745,9.336253605412821L96.03399433427762,18.20839960104591L96.3172804532578,19.018114672345476L96.60056657223797,18.24187939725583L96.88385269121814,18.75275628757042L97.1671388101983,17.819041971048875L97.45042492917847,18.223279510472537L97.73371104815864,16.472410167938108L98.01699716713881,14.75502062161361L98.30028328611898,16.002453028546768L98.58356940509915,15.422136560907902L98.86685552407933,16.448850311345936L99.1501416430595,15.284497398711494L99.43342776203966,13.33150928646522L99.71671388101983,9.27549397525405"/>
	</g>

	
</svg>