<?xml version="1.0" encoding="UTF-8"?>
<svg xmlns="http://www.w3.org/2000/svg" viewBox="0 0 100 100" preserveAspectRatio="none">
	<style>
		* { vector-effect: non-scaling-stroke }
		.rolling-line { fill: none; stroke-width: 1.5; stroke-linecap: round; stroke-linejoin: round;}

		.cases rect { fill: #ffdad8; }
		.cases.faded .rolling-line { stroke: #fca9a9; }
		.cases.normal .rolling-line { stroke: #cf1111; }
		.cases.normal .rolling-area { fill: rgba(207, 17, 17, 0.2); }

		.deaths rect { fill: rgba(85, 85, 85, 0.1); }
		.deaths.faded .rolling-line { stroke: #bbb; }
		.deaths.normal .rolling-line { stroke: #555; }
		.deaths.normal .rolling-area { fill: rgba(85, 85, 85, 0.3); }
	</style>

	<g class="cases normal">
		<g>
			
				<rect
					x="0"
					y="97"
					width="0.18328611898016997"
					height="0"
				/>
			
				<rect
					x="0.28328611898017"
					y="97"
					width="0.18328611898016997"
					height="0"
				/>
			
				<rect
					x="0.56657223796034"
					y="97"
					width="0.18328611898016997"
					height="0"
				/>
			
				<rect
					x="0.8498583569405099"
					y="97"
					width="0.18328611898016997"
					height="0"
				/>
			
				<rect
					x="1.13314447592068"
					y="97"
					width="0.18328611898016997"
					height="0"
				/>
			
				<rect
					x="1.41643059490085"
					y="97"
					width="0.18328611898016997"
					height="0"
				/>
			
				<rect
					x="1.6997167138810199"
					y="97"
					width="0.18328611898016997"
					height="0"
				/>
			
				<rect
					x="1.9830028328611897"
					y="97"
					width="0.18328611898016997"
					height="0"
				/>
			
				<rect
					x="2.26628895184136"
					y="97"
					width="0.18328611898016997"
					height="0"
				/>
			
				<rect
					x="2.54957507082153"
					y="96.99689942634573"
					width="0.18328611898016997"
					height="0.003100573654265304"
				/>
			
				<rect
					x="2.8328611898017"
					y="97"
					width="0.18328611898016997"
					height="0"
				/>
			
				<rect
					x="3.1161473087818696"
					y="97"
					width="0.18328611898016997"
					height="0"
				/>
			
				<rect
					x="3.3994334277620397"
					y="97"
					width="0.18328611898016997"
					height="0"
				/>
			
				<rect
					x="3.68271954674221"
					y="97"
					width="0.18328611898016997"
					height="0"
				/>
			
				<rect
					x="3.9660056657223794"
					y="97"
					width="0.18328611898016997"
					height="0"
				/>
			
				<rect
					x="4.2492917847025495"
					y="96.99844971317286"
					width="0.18328611898016997"
					height="0.0015502868271397574"
				/>
			
				<rect
					x="4.53257790368272"
					y="97"
					width="0.18328611898016997"
					height="0"
				/>
			
				<rect
					x="4.81586402266289"
					y="97"
					width="0.18328611898016997"
					height="0"
				/>
			
				<rect
					x="5.09915014164306"
					y="96.99844971317286"
					width="0.18328611898016997"
					height="0.0015502868271397574"
				/>
			
				<rect
					x="5.38243626062323"
					y="96.99379885269146"
					width="0.18328611898016997"
					height="0.006201147308544819"
				/>
			
				<rect
					x="5.6657223796034"
					y="97"
					width="0.18328611898016997"
					height="0"
				/>
			
				<rect
					x="5.949008498583569"
					y="97"
					width="0.18328611898016997"
					height="0"
				/>
			
				<rect
					x="6.232294617563739"
					y="96.99844971317286"
					width="0.18328611898016997"
					height="0.0015502868271397574"
				/>
			
				<rect
					x="6.515580736543909"
					y="97"
					width="0.18328611898016997"
					height="0"
				/>
			
				<rect
					x="6.798866855524079"
					y="97"
					width="0.18328611898016997"
					height="0"
				/>
			
				<rect
					x="7.0821529745042495"
					y="97"
					width="0.18328611898016997"
					height="0"
				/>
			
				<rect
					x="7.36543909348442"
					y="97"
					width="0.18328611898016997"
					height="0"
				/>
			
				<rect
					x="7.64872521246459"
					y="97"
					width="0.18328611898016997"
					height="0"
				/>
			
				<rect
					x="7.932011331444759"
					y="97"
					width="0.18328611898016997"
					height="0"
				/>
			
				<rect
					x="8.215297450424929"
					y="97"
					width="0.18328611898016997"
					height="0"
				/>
			
				<rect
					x="8.498583569405099"
					y="97"
					width="0.18328611898016997"
					height="0"
				/>
			
				<rect
					x="8.78186968838527"
					y="97"
					width="0.18328611898016997"
					height="0"
				/>
			
				<rect
					x="9.06515580736544"
					y="97"
					width="0.18328611898016997"
					height="0"
				/>
			
				<rect
					x="9.34844192634561"
					y="96.99379885269146"
					width="0.18328611898016997"
					height="0.006201147308544819"
				/>
			
				<rect
					x="9.63172804532578"
					y="97"
					width="0.18328611898016997"
					height="0"
				/>
			
				<rect
					x="9.91501416430595"
					y="97"
					width="0.18328611898016997"
					height="0"
				/>
			
				<rect
					x="10.19830028328612"
					y="97"
					width="0.18328611898016997"
					height="0"
				/>
			
				<rect
					x="10.48158640226629"
					y="96.99069827903719"
					width="0.18328611898016997"
					height="0.009301720962810123"
				/>
			
				<rect
					x="10.76487252124646"
					y="96.99379885269146"
					width="0.18328611898016997"
					height="0.006201147308544819"
				/>
			
				<rect
					x="11.04815864022663"
					y="96.98139655807437"
					width="0.18328611898016997"
					height="0.018603441925634456"
				/>
			
				<rect
					x="11.3314447592068"
					y="96.99224856586432"
					width="0.18328611898016997"
					height="0.007751434135684576"
				/>
			
				<rect
					x="11.614730878186968"
					y="96.9829468449015"
					width="0.18328611898016997"
					height="0.0170531550984947"
				/>
			
				<rect
					x="11.898016997167138"
					y="96.94729024787738"
					width="0.18328611898016997"
					height="0.052709752122623854"
				/>
			
				<rect
					x="12.181303116147308"
					y="96.95504168201306"
					width="0.18328611898016997"
					height="0.04495831798693928"
				/>
			
				<rect
					x="12.464589235127479"
					y="96.92868680595176"
					width="0.18328611898016997"
					height="0.0713131940482441"
				/>
			
				<rect
					x="12.747875354107649"
					y="96.92868680595176"
					width="0.18328611898016997"
					height="0.0713131940482441"
				/>
			
				<rect
					x="13.031161473087819"
					y="96.89923135623617"
					width="0.18328611898016997"
					height="0.10076864376382844"
				/>
			
				<rect
					x="13.314447592067989"
					y="96.92248565864321"
					width="0.18328611898016997"
					height="0.07751434135678892"
				/>
			
				<rect
					x="13.597733711048159"
					y="96.91938508498893"
					width="0.18328611898016997"
					height="0.08061491501106843"
				/>
			
				<rect
					x="13.881019830028329"
					y="96.87132619334773"
					width="0.18328611898016997"
					height="0.12867380665227302"
				/>
			
				<rect
					x="14.164305949008499"
					y="96.7922615651638"
					width="0.18328611898016997"
					height="0.2077384348362017"
				/>
			
				<rect
					x="14.44759206798867"
					y="96.6790906267829"
					width="0.18328611898016997"
					height="0.32090937321710555"
				/>
			
				<rect
					x="14.73087818696884"
					y="96.59072427763616"
					width="0.18328611898016997"
					height="0.40927572236384435"
				/>
			
				<rect
					x="15.01416430594901"
					y="96.48840534704519"
					width="0.18328611898016997"
					height="0.5115946529548125"
				/>
			
				<rect
					x="15.29745042492918"
					y="96.76435640227535"
					width="0.18328611898016997"
					height="0.23564359772464627"
				/>
			
				<rect
					x="15.58073654390935"
					y="96.36903326135572"
					width="0.18328611898016997"
					height="0.6309667386442754"
				/>
			
				<rect
					x="15.864022662889518"
					y="95.9520061048562"
					width="0.18328611898016997"
					height="1.0479938951438044"
				/>
			
				<rect
					x="16.14730878186969"
					y="96.00316557015168"
					width="0.18328611898016997"
					height="0.9968344298483203"
				/>
			
				<rect
					x="16.430594900849858"
					y="95.89309520542504"
					width="0.18328611898016997"
					height="1.1069047945749588"
				/>
			
				<rect
					x="16.71388101983003"
					y="95.39545313391444"
					width="0.18328611898016997"
					height="1.6045468660855562"
				/>
			
				<rect
					x="16.997167138810198"
					y="95.96905925995469"
					width="0.18328611898016997"
					height="1.0309407400453097"
				/>
			
				<rect
					x="17.28045325779037"
					y="95.50087263815968"
					width="0.18328611898016997"
					height="1.4991273618403227"
				/>
			
				<rect
					x="17.56373937677054"
					y="94.78774069767722"
					width="0.18328611898016997"
					height="2.212259302322778"
				/>
			
				<rect
					x="17.84702549575071"
					y="94.74898352699883"
					width="0.18328611898016997"
					height="2.2510164730011724"
				/>
			
				<rect
					x="18.13031161473088"
					y="93.69943934502788"
					width="0.18328611898016997"
					height="3.3005606549721165"
				/>
			
				<rect
					x="18.413597733711047"
					y="92.51967106957754"
					width="0.18328611898016997"
					height="4.480328930422459"
				/>
			
				<rect
					x="18.69688385269122"
					y="93.0374668698409"
					width="0.18328611898016997"
					height="3.962533130159102"
				/>
			
				<rect
					x="18.980169971671387"
					y="93.12118235850623"
					width="0.18328611898016997"
					height="3.878817641493768"
				/>
			
				<rect
					x="19.26345609065156"
					y="92.8684856056831"
					width="0.18328611898016997"
					height="4.131514394316895"
				/>
			
				<rect
					x="19.546742209631727"
					y="91.96156781180866"
					width="0.18328611898016997"
					height="5.0384321881913365"
				/>
			
				<rect
					x="19.8300283286119"
					y="89.91984006047082"
					width="0.18328611898016997"
					height="7.080159939529182"
				/>
			
				<rect
					x="20.113314447592067"
					y="89.98960296769192"
					width="0.18328611898016997"
					height="7.010397032308077"
				/>
			
				<rect
					x="20.39660056657224"
					y="89.75705994362156"
					width="0.18328611898016997"
					height="7.242940056378444"
				/>
			
				<rect
					x="20.679886685552407"
					y="90.79885269145682"
					width="0.18328611898016997"
					height="6.2011473085431845"
				/>
			
				<rect
					x="20.96317280453258"
					y="87.3897719585852"
					width="0.18328611898016997"
					height="9.6102280414148"
				/>
			
				<rect
					x="21.246458923512748"
					y="90.5771616751764"
					width="0.18328611898016997"
					height="6.422838324823601"
				/>
			
				<rect
					x="21.52974504249292"
					y="90.97248481609603"
					width="0.18328611898016997"
					height="6.027515183903972"
				/>
			
				<rect
					x="21.813031161473088"
					y="87.90756775884856"
					width="0.18328611898016997"
					height="9.092432241151442"
				/>
			
				<rect
					x="22.09631728045326"
					y="89.75240908314015"
					width="0.18328611898016997"
					height="7.247590916859849"
				/>
			
				<rect
					x="22.379603399433428"
					y="88.15406336436314"
					width="0.18328611898016997"
					height="8.84593663563686"
				/>
			
				<rect
					x="22.6628895184136"
					y="88.88734903359838"
					width="0.18328611898016997"
					height="8.112650966401617"
				/>
			
				<rect
					x="22.946175637393768"
					y="88.80208325810591"
					width="0.18328611898016997"
					height="8.19791674189409"
				/>
			
				<rect
					x="23.229461756373937"
					y="90.26865459657637"
					width="0.18328611898016997"
					height="6.7313454034236315"
				/>
			
				<rect
					x="23.51274787535411"
					y="88.8578935838828"
					width="0.18328611898016997"
					height="8.142106416117201"
				/>
			
				<rect
					x="23.796033994334277"
					y="89.86402973469393"
					width="0.18328611898016997"
					height="7.135970265306071"
				/>
			
				<rect
					x="24.07932011331445"
					y="89.84232571911403"
					width="0.18328611898016997"
					height="7.157674280885971"
				/>
			
				<rect
					x="24.362606232294617"
					y="88.31994405486668"
					width="0.18328611898016997"
					height="8.680055945133319"
				/>
			
				<rect
					x="24.64589235127479"
					y="88.43466528007473"
					width="0.18328611898016997"
					height="8.565334719925275"
				/>
			
				<rect
					x="24.929178470254957"
					y="87.93082206125558"
					width="0.18328611898016997"
					height="9.069177938744417"
				/>
			
				<rect
					x="25.21246458923513"
					y="89.75085879631301"
					width="0.18328611898016997"
					height="7.249141203686989"
				/>
			
				<rect
					x="25.495750708215297"
					y="90.33221635648894"
					width="0.18328611898016997"
					height="6.667783643511058"
				/>
			
				<rect
					x="25.77903682719547"
					y="90.09967333241858"
					width="0.18328611898016997"
					height="6.9003266675814245"
				/>
			
				<rect
					x="26.062322946175637"
					y="89.89503547123664"
					width="0.18328611898016997"
					height="7.104964528763361"
				/>
			
				<rect
					x="26.34560906515581"
					y="88.6501551490466"
					width="0.18328611898016997"
					height="8.349844850953403"
				/>
			
				<rect
					x="26.628895184135978"
					y="89.38344081828183"
					width="0.18328611898016997"
					height="7.6165591817181735"
				/>
			
				<rect
					x="26.91218130311615"
					y="90.08106989049294"
					width="0.18328611898016997"
					height="6.918930109507059"
				/>
			
				<rect
					x="27.195467422096318"
					y="90.31981406187185"
					width="0.18328611898016997"
					height="6.680185938128147"
				/>
			
				<rect
					x="27.478753541076486"
					y="90.80505383876536"
					width="0.18328611898016997"
					height="6.19494616123464"
				/>
			
				<rect
					x="27.762039660056658"
					y="90.68103089259449"
					width="0.18328611898016997"
					height="6.318969107405508"
				/>
			
				<rect
					x="28.045325779036826"
					y="87.64866985871687"
					width="0.18328611898016997"
					height="9.351330141283128"
				/>
			
				<rect
					x="28.328611898016998"
					y="87.38667138493092"
					width="0.18328611898016997"
					height="9.61332861506908"
				/>
			
				<rect
					x="28.611898016997166"
					y="89.54932150878535"
					width="0.18328611898016997"
					height="7.450678491214646"
				/>
			
				<rect
					x="28.89518413597734"
					y="90.27330545705777"
					width="0.18328611898016997"
					height="6.7266945429422265"
				/>
			
				<rect
					x="29.178470254957507"
					y="90.82210699386385"
					width="0.18328611898016997"
					height="6.177893006136145"
				/>
			
				<rect
					x="29.46175637393768"
					y="90.16943623963968"
					width="0.18328611898016997"
					height="6.83056376036032"
				/>
			
				<rect
					x="29.745042492917847"
					y="87.52619719937314"
					width="0.18328611898016997"
					height="9.473802800626856"
				/>
			
				<rect
					x="30.02832861189802"
					y="88.29668975245964"
					width="0.18328611898016997"
					height="8.703310247540358"
				/>
			
				<rect
					x="30.311614730878187"
					y="89.79271654064569"
					width="0.18328611898016997"
					height="7.207283459354315"
				/>
			
				<rect
					x="30.59490084985836"
					y="90.96008252147894"
					width="0.18328611898016997"
					height="6.039917478521062"
				/>
			
				<rect
					x="30.878186968838527"
					y="90.91822477714626"
					width="0.18328611898016997"
					height="6.081775222853736"
				/>
			
				<rect
					x="31.1614730878187"
					y="90.98953797119452"
					width="0.18328611898016997"
					height="6.0104620288054775"
				/>
			
				<rect
					x="31.444759206798867"
					y="91.72437392725688"
					width="0.18328611898016997"
					height="5.275626072743123"
				/>
			
				<rect
					x="31.728045325779036"
					y="91.97397010642575"
					width="0.18328611898016997"
					height="5.026029893574247"
				/>
			
				<rect
					x="32.01133144475921"
					y="91.65771159369004"
					width="0.18328611898016997"
					height="5.342288406309962"
				/>
			
				<rect
					x="32.29461756373938"
					y="91.48097889539656"
					width="0.18328611898016997"
					height="5.519021104603439"
				/>
			
				<rect
					x="32.577903682719544"
					y="91.65151044638151"
					width="0.18328611898016997"
					height="5.348489553618492"
				/>
			
				<rect
					x="32.861189801699716"
					y="91.4778783217423"
					width="0.18328611898016997"
					height="5.5221216782577045"
				/>
			
				<rect
					x="33.14447592067989"
					y="92.84058044279466"
					width="0.18328611898016997"
					height="4.159419557205339"
				/>
			
				<rect
					x="33.42776203966006"
					y="93.26070817294845"
					width="0.18328611898016997"
					height="3.739291827051545"
				/>
			
				<rect
					x="33.711048158640224"
					y="97.8139005842463"
					width="0.18328611898016997"
					height="-0.8139005842462979"
				/>
			
				<rect
					x="33.994334277620396"
					y="92.9459999470399"
					width="0.18328611898016997"
					height="4.054000052960106"
				/>
			
				<rect
					x="34.27762039660057"
					y="91.90420719920463"
					width="0.18328611898016997"
					height="5.0957928007953655"
				/>
			
				<rect
					x="34.56090651558074"
					y="92.41270127850518"
					width="0.18328611898016997"
					height="4.587298721494818"
				/>
			
				<rect
					x="34.844192634560905"
					y="93.2715601807384"
					width="0.18328611898016997"
					height="3.7284398192615953"
				/>
			
				<rect
					x="35.12747875354108"
					y="94.48078390590433"
					width="0.18328611898016997"
					height="2.5192160940956683"
				/>
			
				<rect
					x="35.41076487252125"
					y="90.73219035788998"
					width="0.18328611898016997"
					height="6.267809642110024"
				/>
			
				<rect
					x="35.69405099150142"
					y="93.87927261697564"
					width="0.18328611898016997"
					height="3.1207273830243594"
				/>
			
				<rect
					x="35.977337110481585"
					y="94.07460875719475"
					width="0.18328611898016997"
					height="2.9253912428052473"
				/>
			
				<rect
					x="36.26062322946176"
					y="93.75214909715051"
					width="0.18328611898016997"
					height="3.2478509028494926"
				/>
			
				<rect
					x="36.54390934844193"
					y="94.51333992927418"
					width="0.18328611898016997"
					height="2.4866600707258186"
				/>
			
				<rect
					x="36.827195467422094"
					y="93.9986447026651"
					width="0.18328611898016997"
					height="3.0013552973348965"
				/>
			
				<rect
					x="37.110481586402265"
					y="94.5660496813968"
					width="0.18328611898016997"
					height="2.4339503186031948"
				/>
			
				<rect
					x="37.39376770538244"
					y="94.43737587474453"
					width="0.18328611898016997"
					height="2.562624125255468"
				/>
			
				<rect
					x="37.67705382436261"
					y="94.09941334642892"
					width="0.18328611898016997"
					height="2.9005866535710823"
				/>
			
				<rect
					x="37.960339943342774"
					y="94.20173227701989"
					width="0.18328611898016997"
					height="2.798267722980114"
				/>
			
				<rect
					x="38.243626062322946"
					y="94.44202673522594"
					width="0.18328611898016997"
					height="2.5579732647740627"
				/>
			
				<rect
					x="38.52691218130312"
					y="94.58620341014957"
					width="0.18328611898016997"
					height="2.4137965898504348"
				/>
			
				<rect
					x="38.81019830028329"
					y="94.94431966721794"
					width="0.18328611898016997"
					height="2.0556803327820603"
				/>
			
				<rect
					x="39.093484419263454"
					y="95.13190437330137"
					width="0.18328611898016997"
					height="1.8680956266986328"
				/>
			
				<rect
					x="39.376770538243626"
					y="94.30095063395657"
					width="0.18328611898016997"
					height="2.6990493660434254"
				/>
			
				<rect
					x="39.6600566572238"
					y="95.4450623123828"
					width="0.18328611898016997"
					height="1.5549376876171976"
				/>
			
				<rect
					x="39.94334277620397"
					y="95.03733687684608"
					width="0.18328611898016997"
					height="1.9626631231539164"
				/>
			
				<rect
					x="40.226628895184135"
					y="94.61100799938373"
					width="0.18328611898016997"
					height="2.3889920006162697"
				/>
			
				<rect
					x="40.50991501416431"
					y="94.79084127133149"
					width="0.18328611898016997"
					height="2.2091587286685126"
				/>
			
				<rect
					x="40.79320113314448"
					y="94.6528657437164"
					width="0.18328611898016997"
					height="2.3471342562835957"
				/>
			
				<rect
					x="41.07648725212464"
					y="95.49932235133255"
					width="0.18328611898016997"
					height="1.5006776486674482"
				/>
			
				<rect
					x="41.359773371104815"
					y="95.01718314809331"
					width="0.18328611898016997"
					height="1.9828168519066907"
				/>
			
				<rect
					x="41.64305949008499"
					y="95.27143018774359"
					width="0.18328611898016997"
					height="1.72856981225641"
				/>
			
				<rect
					x="41.92634560906516"
					y="95.1117506445486"
					width="0.18328611898016997"
					height="1.888249355451407"
				/>
			
				<rect
					x="42.20963172804532"
					y="94.91331393067522"
					width="0.18328611898016997"
					height="2.0866860693247844"
				/>
			
				<rect
					x="42.492917847025495"
					y="94.99237855885914"
					width="0.18328611898016997"
					height="2.0076214411408557"
				/>
			
				<rect
					x="42.77620396600567"
					y="95.10709978406719"
					width="0.18328611898016997"
					height="1.892900215932812"
				/>
			
				<rect
					x="43.05949008498584"
					y="95.5148252196039"
					width="0.18328611898016997"
					height="1.4851747803960933"
				/>
			
				<rect
					x="43.342776203966004"
					y="95.57218583220794"
					width="0.18328611898016997"
					height="1.4278141677920644"
				/>
			
				<rect
					x="43.626062322946176"
					y="95.98921298870746"
					width="0.18328611898016997"
					height="1.0107870112925355"
				/>
			
				<rect
					x="43.90934844192635"
					y="95.26677932726219"
					width="0.18328611898016997"
					height="1.733220672737815"
				/>
			
				<rect
					x="44.19263456090652"
					y="94.8606041785526"
					width="0.18328611898016997"
					height="2.139395821447394"
				/>
			
				<rect
					x="44.475920679886684"
					y="95.62024472384914"
					width="0.18328611898016997"
					height="1.3797552761508598"
				/>
			
				<rect
					x="44.759206798866856"
					y="95.60319156875065"
					width="0.18328611898016997"
					height="1.3968084312493545"
				/>
			
				<rect
					x="45.04249291784703"
					y="95.73806652271146"
					width="0.18328611898016997"
					height="1.2619334772885367"
				/>
			
				<rect
					x="45.3257790368272"
					y="95.93185237610344"
					width="0.18328611898016997"
					height="1.0681476238965644"
				/>
			
				<rect
					x="45.609065155807365"
					y="95.71481222030442"
					width="0.18328611898016997"
					height="1.2851877796955762"
				/>
			
				<rect
					x="45.892351274787536"
					y="143.0838262234387"
					width="0.18328611898016997"
					height="-46.083826223438706"
				/>
			
				<rect
					x="46.17563739376771"
					y="96.19540113671653"
					width="0.18328611898016997"
					height="0.8045988632834735"
				/>
			
				<rect
					x="46.45892351274787"
					y="96.03262101986726"
					width="0.18328611898016997"
					height="0.9673789801327359"
				/>
			
				<rect
					x="46.742209631728045"
					y="96.20005199719793"
					width="0.18328611898016997"
					height="0.7999480028020685"
				/>
			
				<rect
					x="47.02549575070822"
					y="96.4542990368482"
					width="0.18328611898016997"
					height="0.5457009631518019"
				/>
			
				<rect
					x="47.30878186968839"
					y="96.0992833534341"
					width="0.18328611898016997"
					height="0.9007166465658969"
				/>
			
				<rect
					x="47.59206798866855"
					y="96.02331929890445"
					width="0.18328611898016997"
					height="0.9766807010955461"
				/>
			
				<rect
					x="47.875354107648725"
					y="96.00471585697882"
					width="0.18328611898016997"
					height="0.9952841430211805"
				/>
			
				<rect
					x="48.1586402266289"
					y="96.20625314450648"
					width="0.18328611898016997"
					height="0.7937468554935236"
				/>
			
				<rect
					x="48.44192634560907"
					y="95.72876480174865"
					width="0.18328611898016997"
					height="1.2712351982513468"
				/>
			
				<rect
					x="48.725212464589234"
					y="95.99231356236173"
					width="0.18328611898016997"
					height="1.0076864376382701"
				/>
			
				<rect
					x="49.008498583569406"
					y="96.17834798161803"
					width="0.18328611898016997"
					height="0.8216520183819682"
				/>
			
				<rect
					x="49.29178470254958"
					y="95.07764433435162"
					width="0.18328611898016997"
					height="1.9223556656483822"
				/>
			
				<rect
					x="49.57507082152975"
					y="96.16594568700094"
					width="0.18328611898016997"
					height="0.8340543129990579"
				/>
			
				<rect
					x="49.858356940509914"
					y="96.00626614380596"
					width="0.18328611898016997"
					height="0.9937338561940408"
				/>
			
				<rect
					x="50.141643059490086"
					y="95.9349529497577"
					width="0.18328611898016997"
					height="1.065047050242299"
				/>
			
				<rect
					x="50.42492917847026"
					y="95.71791279395869"
					width="0.18328611898016997"
					height="1.2820872060413109"
				/>
			
				<rect
					x="50.70821529745042"
					y="95.8744917634994"
					width="0.18328611898016997"
					height="1.1255082365005933"
				/>
			
				<rect
					x="50.991501416430594"
					y="96.10083364026124"
					width="0.18328611898016997"
					height="0.8991663597387571"
				/>
			
				<rect
					x="51.274787535410766"
					y="96.31012236192457"
					width="0.18328611898016997"
					height="0.6898776380754299"
				/>
			
				<rect
					x="51.55807365439094"
					y="96.13183937680395"
					width="0.18328611898016997"
					height="0.8681606231960473"
				/>
			
				<rect
					x="51.8413597733711"
					y="95.80782942993257"
					width="0.18328611898016997"
					height="1.1921705700674323"
				/>
			
				<rect
					x="52.124645892351275"
					y="95.80937971675971"
					width="0.18328611898016997"
					height="1.1906202832402926"
				/>
			
				<rect
					x="52.40793201133145"
					y="95.81093000358685"
					width="0.18328611898016997"
					height="1.1890699964131528"
				/>
			
				<rect
					x="52.69121813031162"
					y="95.84503631378384"
					width="0.18328611898016997"
					height="1.1549636862161634"
				/>
			
				<rect
					x="52.97450424929178"
					y="95.93805352341198"
					width="0.18328611898016997"
					height="1.0619464765880196"
				/>
			
				<rect
					x="53.257790368271955"
					y="96.0992833534341"
					width="0.18328611898016997"
					height="0.9007166465658969"
				/>
			
				<rect
					x="53.54107648725213"
					y="95.81713115089539"
					width="0.18328611898016997"
					height="1.182868849104608"
				/>
			
				<rect
					x="53.8243626062323"
					y="95.68845734424312"
					width="0.18328611898016997"
					height="1.311542655756881"
				/>
			
				<rect
					x="54.107648725212464"
					y="95.6357475921205"
					width="0.18328611898016997"
					height="1.3642524078795049"
				/>
			
				<rect
					x="54.390934844192635"
					y="95.82023172454966"
					width="0.18328611898016997"
					height="1.1797682754503427"
				/>
			
				<rect
					x="54.67422096317281"
					y="95.8481368874381"
					width="0.18328611898016997"
					height="1.151863112561898"
				/>
			
				<rect
					x="54.95750708215297"
					y="95.54583095614662"
					width="0.18328611898016997"
					height="1.4541690438533834"
				/>
			
				<rect
					x="55.240793201133144"
					y="95.96130782581902"
					width="0.18328611898016997"
					height="1.03869217418098"
				/>
			
				<rect
					x="55.524079320113316"
					y="95.618694437022"
					width="0.18328611898016997"
					height="1.3813055629779996"
				/>
			
				<rect
					x="55.80736543909349"
					y="95.527227514221"
					width="0.18328611898016997"
					height="1.4727724857790037"
				/>
			
				<rect
					x="56.09065155807365"
					y="95.64970017356472"
					width="0.18328611898016997"
					height="1.3502998264352755"
				/>
			
				<rect
					x="56.373937677053824"
					y="95.82488258503106"
					width="0.18328611898016997"
					height="1.1751174149689376"
				/>
			
				<rect
					x="56.657223796033996"
					y="95.35359538958178"
					width="0.18328611898016997"
					height="1.646404610418216"
				/>
			
				<rect
					x="56.94050991501417"
					y="95.73496594905718"
					width="0.18328611898016997"
					height="1.2650340509428162"
				/>
			
				<rect
					x="57.22379603399433"
					y="95.2202707224481"
					width="0.18328611898016997"
					height="1.779729277551894"
				/>
			
				<rect
					x="57.507082152974505"
					y="95.43576059141998"
					width="0.18328611898016997"
					height="1.564239408580022"
				/>
			
				<rect
					x="57.79036827195468"
					y="95.24972617216369"
					width="0.18328611898016997"
					height="1.7502738278363097"
				/>
			
				<rect
					x="58.07365439093485"
					y="94.76758696892445"
					width="0.18328611898016997"
					height="2.232413031075552"
				/>
			
				<rect
					x="58.35694050991501"
					y="95.33034108717474"
					width="0.18328611898016997"
					height="1.6696589128252555"
				/>
			
				<rect
					x="58.640226628895185"
					y="95.38770169977877"
					width="0.18328611898016997"
					height="1.6122983002212266"
				/>
			
				<rect
					x="58.92351274787536"
					y="95.89464549225218"
					width="0.18328611898016997"
					height="1.105354507747819"
				/>
			
				<rect
					x="59.20679886685552"
					y="95.31173764524911"
					width="0.18328611898016997"
					height="1.68826235475089"
				/>
			
				<rect
					x="59.49008498583569"
					y="95.74116709636573"
					width="0.18328611898016997"
					height="1.2588329036342714"
				/>
			
				<rect
					x="59.773371104815865"
					y="95.16756097032548"
					width="0.18328611898016997"
					height="1.8324390296745179"
				/>
			
				<rect
					x="60.05665722379604"
					y="95.39855370756872"
					width="0.18328611898016997"
					height="1.6014462924312767"
				/>
			
				<rect
					x="60.3399433427762"
					y="95.0032305666491"
					width="0.18328611898016997"
					height="1.9967694333509058"
				/>
			
				<rect
					x="60.623229461756374"
					y="95.38615141295163"
					width="0.18328611898016997"
					height="1.6138485870483663"
				/>
			
				<rect
					x="60.906515580736546"
					y="95.493121204024"
					width="0.18328611898016997"
					height="1.506878795975993"
				/>
			
				<rect
					x="61.18980169971672"
					y="95.16446039667122"
					width="0.18328611898016997"
					height="1.8355396033287832"
				/>
			
				<rect
					x="61.47308781869688"
					y="95.37529940516168"
					width="0.18328611898016997"
					height="1.6247005948383162"
				/>
			
				<rect
					x="61.756373937677054"
					y="94.64046344909931"
					width="0.18328611898016997"
					height="2.3595365509006854"
				/>
			
				<rect
					x="62.039660056657226"
					y="95.02183400857473"
					width="0.18328611898016997"
					height="1.9781659914252714"
				/>
			
				<rect
					x="62.3229461756374"
					y="95.28228219553354"
					width="0.18328611898016997"
					height="1.71771780446646"
				/>
			
				<rect
					x="62.60623229461756"
					y="94.34125809146211"
					width="0.18328611898016997"
					height="2.658741908537891"
				/>
			
				<rect
					x="62.889518413597735"
					y="94.82029672104707"
					width="0.18328611898016997"
					height="2.1797032789529283"
				/>
			
				<rect
					x="63.172804532577906"
					y="94.99237855885914"
					width="0.18328611898016997"
					height="2.0076214411408557"
				/>
			
				<rect
					x="63.45609065155807"
					y="94.66216746467921"
					width="0.18328611898016997"
					height="2.3378325353207856"
				/>
			
				<rect
					x="63.73937677053824"
					y="94.3102523549194"
					width="0.18328611898016997"
					height="2.689747645080601"
				/>
			
				<rect
					x="64.02266288951841"
					y="93.99244355535656"
					width="0.18328611898016997"
					height="3.0075564446434413"
				/>
			
				<rect
					x="64.30594900849859"
					y="94.1893299824028"
					width="0.18328611898016997"
					height="2.8106700175972037"
				/>
			
				<rect
					x="64.58923512747876"
					y="92.36774296051824"
					width="0.18328611898016997"
					height="4.6322570394817575"
				/>
			
				<rect
					x="64.87252124645893"
					y="92.42975443360368"
					width="0.18328611898016997"
					height="4.5702455663963235"
				/>
			
				<rect
					x="65.15580736543909"
					y="93.18629440524595"
					width="0.18328611898016997"
					height="3.8137055947540546"
				/>
			
				<rect
					x="65.43909348441926"
					y="92.87778732664592"
					width="0.18328611898016997"
					height="4.122212673354085"
				/>
			
				<rect
					x="65.72237960339943"
					y="92.4747127515906"
					width="0.18328611898016997"
					height="4.525287248409398"
				/>
			
				<rect
					x="66.0056657223796"
					y="91.51353491876641"
					width="0.18328611898016997"
					height="5.48646508123359"
				/>
			
				<rect
					x="66.28895184135978"
					y="91.57864696550612"
					width="0.18328611898016997"
					height="5.421353034493876"
				/>
			
				<rect
					x="66.57223796033995"
					y="91.8375448656378"
					width="0.18328611898016997"
					height="5.1624551343622045"
				/>
			
				<rect
					x="66.85552407932012"
					y="92.93669822607708"
					width="0.18328611898016997"
					height="4.063301773922916"
				/>
			
				<rect
					x="67.13881019830029"
					y="92.18945997539763"
					width="0.18328611898016997"
					height="4.810540024602375"
				/>
			
				<rect
					x="67.42209631728045"
					y="90.81280527290103"
					width="0.18328611898016997"
					height="6.187194727098969"
				/>
			
				<rect
					x="67.70538243626062"
					y="91.73677622187397"
					width="0.18328611898016997"
					height="5.263223778126033"
				/>
			
				<rect
					x="67.98866855524079"
					y="90.29966033311909"
					width="0.18328611898016997"
					height="6.700339666880907"
				/>
			
				<rect
					x="68.27195467422096"
					y="90.1446316504055"
					width="0.18328611898016997"
					height="6.8553683495944995"
				/>
			
				<rect
					x="68.55524079320114"
					y="90.95543166099753"
					width="0.18328611898016997"
					height="6.044568339002467"
				/>
			
				<rect
					x="68.83852691218131"
					y="90.22834713907083"
					width="0.18328611898016997"
					height="6.771652860929166"
				/>
			
				<rect
					x="69.12181303116148"
					y="89.36328708952907"
					width="0.18328611898016997"
					height="7.6367129104709335"
				/>
			
				<rect
					x="69.40509915014164"
					y="87.42232798195505"
					width="0.18328611898016997"
					height="9.57767201804495"
				/>
			
				<rect
					x="69.68838526912181"
					y="86.71539718878113"
					width="0.18328611898016997"
					height="10.284602811218875"
				/>
			
				<rect
					x="69.97167138810198"
					y="86.34487863709566"
					width="0.18328611898016997"
					height="10.655121362904339"
				/>
			
				<rect
					x="70.25495750708215"
					y="87.63471727727266"
					width="0.18328611898016997"
					height="9.365282722727343"
				/>
			
				<rect
					x="70.53824362606233"
					y="88.17576737994304"
					width="0.18328611898016997"
					height="8.82423262005696"
				/>
			
				<rect
					x="70.8215297450425"
					y="90.73064007106284"
					width="0.18328611898016997"
					height="6.269359928937163"
				/>
			
				<rect
					x="71.10481586402267"
					y="85.926301193769"
					width="0.18328611898016997"
					height="11.073698806230993"
				/>
			
				<rect
					x="71.38810198300284"
					y="85.98056123271876"
					width="0.18328611898016997"
					height="11.019438767281244"
				/>
			
				<rect
					x="71.671388101983"
					y="86.2813168771831"
					width="0.18328611898016997"
					height="10.718683122816898"
				/>
			
				<rect
					x="71.95467422096317"
					y="86.19760138851777"
					width="0.18328611898016997"
					height="10.802398611482232"
				/>
			
				<rect
					x="72.23796033994334"
					y="77.04625824793516"
					width="0.18328611898016997"
					height="19.953741752064843"
				/>
			
				<rect
					x="72.52124645892351"
					y="61.40386416213497"
					width="0.18328611898016997"
					height="35.59613583786503"
				/>
			
				<rect
					x="72.80453257790369"
					y="77.47723798587892"
					width="0.18328611898016997"
					height="19.522762014121085"
				/>
			
				<rect
					x="73.08781869688386"
					y="74.45572895979124"
					width="0.18328611898016997"
					height="22.544271040208756"
				/>
			
				<rect
					x="73.37110481586403"
					y="75.04483795410285"
					width="0.18328611898016997"
					height="21.955162045897154"
				/>
			
				<rect
					x="73.65439093484419"
					y="69.80796905203812"
					width="0.18328611898016997"
					height="27.192030947961882"
				/>
			
				<rect
					x="73.93767705382436"
					y="75.50682342858931"
					width="0.18328611898016997"
					height="21.493176571410686"
				/>
			
				<rect
					x="74.22096317280453"
					y="73.48990026648565"
					width="0.18328611898016997"
					height="23.510099733514352"
				/>
			
				<rect
					x="74.5042492917847"
					y="77.04470796110803"
					width="0.18328611898016997"
					height="19.95529203889197"
				/>
			
				<rect
					x="74.78753541076487"
					y="75.33939245125865"
					width="0.18328611898016997"
					height="21.660607548741353"
				/>
			
				<rect
					x="75.07082152974505"
					y="70.28545739479594"
					width="0.18328611898016997"
					height="26.71454260520406"
				/>
			
				<rect
					x="75.35410764872522"
					y="66.42214262157354"
					width="0.18328611898016997"
					height="30.577857378426458"
				/>
			
				<rect
					x="75.63739376770539"
					y="67.57865659461685"
					width="0.18328611898016997"
					height="29.421343405383155"
				/>
			
				<rect
					x="75.92067988668555"
					y="72.76126545773181"
					width="0.18328611898016997"
					height="24.23873454226819"
				/>
			
				<rect
					x="76.20396600566572"
					y="71.93031171838703"
					width="0.18328611898016997"
					height="25.06968828161297"
				/>
			
				<rect
					x="76.48725212464589"
					y="70.67457938840704"
					width="0.18328611898016997"
					height="26.32542061159296"
				/>
			
				<rect
					x="76.77053824362606"
					y="67.84995678936562"
					width="0.18328611898016997"
					height="29.15004321063438"
				/>
			
				<rect
					x="77.05382436260624"
					y="63.93238197719345"
					width="0.18328611898016997"
					height="33.06761802280655"
				/>
			
				<rect
					x="77.33711048158641"
					y="55.62749544422699"
					width="0.18328611898016997"
					height="41.37250455577301"
				/>
			
				<rect
					x="77.62039660056658"
					y="64.07500836528995"
					width="0.18328611898016997"
					height="32.924991634710054"
				/>
			
				<rect
					x="77.90368271954674"
					y="65.17106115207496"
					width="0.18328611898016997"
					height="31.828938847925045"
				/>
			
				<rect
					x="78.18696883852691"
					y="61.324799533951044"
					width="0.18328611898016997"
					height="35.675200466048956"
				/>
			
				<rect
					x="78.47025495750708"
					y="66.31982369098259"
					width="0.18328611898016997"
					height="30.680176309017412"
				/>
			
				<rect
					x="78.75354107648725"
					y="64.6145081811332"
					width="0.18328611898016997"
					height="32.3854918188668"
				/>
			
				<rect
					x="79.03682719546742"
					y="61.52168596099729"
					width="0.18328611898016997"
					height="35.47831403900271"
				/>
			
				<rect
					x="79.3201133144476"
					y="58.70791536974582"
					width="0.18328611898016997"
					height="38.29208463025418"
				/>
			
				<rect
					x="79.60339943342777"
					y="61.24263433211285"
					width="0.18328611898016997"
					height="35.75736566788715"
				/>
			
				<rect
					x="79.88668555240794"
					y="59.165249983750876"
					width="0.18328611898016997"
					height="37.834750016249124"
				/>
			
				<rect
					x="80.1699716713881"
					y="63.02546418331901"
					width="0.18328611898016997"
					height="33.97453581668099"
				/>
			
				<rect
					x="80.45325779036827"
					y="60.94963012178418"
					width="0.18328611898016997"
					height="36.05036987821582"
				/>
			
				<rect
					x="80.73654390934844"
					y="67.62206462577666"
					width="0.18328611898016997"
					height="29.37793537422334"
				/>
			
				<rect
					x="81.01983002832861"
					y="65.96635829439562"
					width="0.18328611898016997"
					height="31.03364170560438"
				/>
			
				<rect
					x="81.30311614730878"
					y="57.968428553202045"
					width="0.18328611898016997"
					height="39.031571446797955"
				/>
			
				<rect
					x="81.58640226628896"
					y="59.57917656659614"
					width="0.18328611898016997"
					height="37.42082343340386"
				/>
			
				<rect
					x="81.86968838526913"
					y="60.8984706564887"
					width="0.18328611898016997"
					height="36.1015293435113"
				/>
			
				<rect
					x="82.15297450424929"
					y="58.30949165517192"
					width="0.18328611898016997"
					height="38.69050834482808"
				/>
			
				<rect
					x="82.43626062322946"
					y="65.1074993921624"
					width="0.18328611898016997"
					height="31.892500607837604"
				/>
			
				<rect
					x="82.71954674220963"
					y="63.90137624065074"
					width="0.18328611898016997"
					height="33.09862375934926"
				/>
			
				<rect
					x="83.0028328611898"
					y="65.35554528450412"
					width="0.18328611898016997"
					height="31.644454715495883"
				/>
			
				<rect
					x="83.28611898016997"
					y="61.42091731723346"
					width="0.18328611898016997"
					height="35.57908268276654"
				/>
			
				<rect
					x="83.56940509915015"
					y="45.11189989576488"
					width="0.18328611898016997"
					height="51.88810010423512"
				/>
			
				<rect
					x="83.85269121813032"
					y="54.67561933236561"
					width="0.18328611898016997"
					height="42.32438066763439"
				/>
			
				<rect
					x="84.13597733711049"
					y="55.3592958231325"
					width="0.18328611898016997"
					height="41.6407041768675"
				/>
			
				<rect
					x="84.41926345609065"
					y="58.30174022103624"
					width="0.18328611898016997"
					height="38.69825977896376"
				/>
			
				<rect
					x="84.70254957507082"
					y="63.881222511897974"
					width="0.18328611898016997"
					height="33.118777488102026"
				/>
			
				<rect
					x="84.98583569405099"
					y="65.91519882910013"
					width="0.18328611898016997"
					height="31.084801170899865"
				/>
			
				<rect
					x="85.26912181303116"
					y="66.60042560669416"
					width="0.18328611898016997"
					height="30.39957439330584"
				/>
			
				<rect
					x="85.55240793201133"
					y="61.47517735618322"
					width="0.18328611898016997"
					height="35.52482264381678"
				/>
			
				<rect
					x="85.8356940509915"
					y="65.60359117684584"
					width="0.18328611898016997"
					height="31.39640882315416"
				/>
			
				<rect
					x="86.11898016997168"
					y="66.18804931067604"
					width="0.18328611898016997"
					height="30.811950689323965"
				/>
			
				<rect
					x="86.40226628895184"
					y="68.06854723199176"
					width="0.18328611898016997"
					height="28.931452768008242"
				/>
			
				<rect
					x="86.68555240793201"
					y="73.04806852075194"
					width="0.18328611898016997"
					height="23.95193147924806"
				/>
			
				<rect
					x="86.96883852691218"
					y="79.48330914019263"
					width="0.18328611898016997"
					height="17.51669085980737"
				/>
			
				<rect
					x="87.25212464589235"
					y="68.76462601737573"
					width="0.18328611898016997"
					height="28.235373982624267"
				/>
			
				<rect
					x="87.53541076487252"
					y="69.78471474963109"
					width="0.18328611898016997"
					height="27.215285250368908"
				/>
			
				<rect
					x="87.8186968838527"
					y="74.1503224548455"
					width="0.18328611898016997"
					height="22.849677545154506"
				/>
			
				<rect
					x="88.10198300283287"
					y="72.39539776652776"
					width="0.18328611898016997"
					height="24.604602233472235"
				/>
			
				<rect
					x="88.38526912181304"
					y="78.15626361616438"
					width="0.18328611898016997"
					height="18.84373638383562"
				/>
			
				<rect
					x="88.6685552407932"
					y="77.88496342141562"
					width="0.18328611898016997"
					height="19.11503657858438"
				/>
			
				<rect
					x="88.95184135977337"
					y="76.18119819839339"
					width="0.18328611898016997"
					height="20.81880180160661"
				/>
			
				<rect
					x="89.23512747875354"
					y="71.93186200521416"
					width="0.18328611898016997"
					height="25.068137994785843"
				/>
			
				<rect
					x="89.51841359773371"
					y="73.93483258587361"
					width="0.18328611898016997"
					height="23.065167414126392"
				/>
			
				<rect
					x="89.80169971671388"
					y="71.73342529134078"
					width="0.18328611898016997"
					height="25.26657470865922"
				/>
			
				<rect
					x="90.08498583569406"
					y="72.91009299313686"
					width="0.18328611898016997"
					height="24.089907006863143"
				/>
			
				<rect
					x="90.36827195467423"
					y="70.22499620853765"
					width="0.18328611898016997"
					height="26.775003791462353"
				/>
			
				<rect
					x="90.6515580736544"
					y="74.18287847821534"
					width="0.18328611898016997"
					height="22.817121521784657"
				/>
			
				<rect
					x="90.93484419263456"
					y="77.96092747594528"
					width="0.18328611898016997"
					height="19.039072524054717"
				/>
			
				<rect
					x="91.21813031161473"
					y="71.29934497974276"
					width="0.18328611898016997"
					height="25.700655020257244"
				/>
			
				<rect
					x="91.5014164305949"
					y="64.49978695592515"
					width="0.18328611898016997"
					height="32.500213044074854"
				/>
			
				<rect
					x="91.78470254957507"
					y="63.40218388231301"
					width="0.18328611898016997"
					height="33.59781611768699"
				/>
			
				<rect
					x="92.06798866855524"
					y="63.667282929753235"
					width="0.18328611898016997"
					height="33.332717070246765"
				/>
			
				<rect
					x="92.35127478753542"
					y="68.40185889982595"
					width="0.18328611898016997"
					height="28.598141100174047"
				/>
			
				<rect
					x="92.63456090651559"
					y="65.58653802174734"
					width="0.18328611898016997"
					height="31.413461978252656"
				/>
			
				<rect
					x="92.91784702549575"
					y="68.39720803934455"
					width="0.18328611898016997"
					height="28.602791960655452"
				/>
			
				<rect
					x="93.20113314447592"
					y="57.99323314243622"
					width="0.18328611898016997"
					height="39.00676685756378"
				/>
			
				<rect
					x="93.48441926345609"
					y="42.146201195454104"
					width="0.18328611898016997"
					height="54.853798804545896"
				/>
			
				<rect
					x="93.76770538243626"
					y="52.80597341883984"
					width="0.18328611898016997"
					height="44.19402658116016"
				/>
			
				<rect
					x="94.05099150141643"
					y="55.061640752322425"
					width="0.18328611898016997"
					height="41.938359247677575"
				/>
			
				<rect
					x="94.3342776203966"
					y="41.30129487466509"
					width="0.18328611898016997"
					height="55.69870512533491"
				/>
			
				<rect
					x="94.61756373937678"
					y="45.27623029944127"
					width="0.18328611898016997"
					height="51.72376970055873"
				/>
			
				<rect
					x="94.90084985835695"
					y="39.94479390092127"
					width="0.18328611898016997"
					height="57.05520609907873"
				/>
			
				<rect
					x="95.1841359773371"
					y="36.17139576367274"
					width="0.18328611898016997"
					height="60.82860423632726"
				/>
			
				<rect
					x="95.46742209631728"
					y="36.48300341592704"
					width="0.18328611898016997"
					height="60.51699658407296"
				/>
			
				<rect
					x="95.75070821529745"
					y="46.26686358198105"
					width="0.18328611898016997"
					height="50.73313641801895"
				/>
			
				<rect
					x="96.03399433427762"
					y="43.2158991061778"
					width="0.18328611898016997"
					height="53.7841008938222"
				/>
			
				<rect
					x="96.3172804532578"
					y="46.86372401042833"
					width="0.18328611898016997"
					height="50.13627598957167"
				/>
			
				<rect
					x="96.60056657223797"
					y="32.84137965898505"
					width="0.18328611898016997"
					height="64.15862034101495"
				/>
			
				<rect
					x="96.88385269121814"
					y="14.625509440139439"
					width="0.18328611898016997"
					height="82.37449055986056"
				/>
			
				<rect
					x="97.1671388101983"
					y="19.45000204618603"
					width="0.18328611898016997"
					height="77.54999795381397"
				/>
			
				<rect
					x="97.45042492917847"
					y="10.351368657726042"
					width="0.18328611898016997"
					height="86.64863134227396"
				/>
			
				<rect
					x="97.73371104815864"
					y="14.392966416069072"
					width="0.18328611898016997"
					height="82.60703358393093"
				/>
			
				<rect
					x="98.01699716713881"
					y="7.511243190413268"
					width="0.18328611898016997"
					height="89.48875680958673"
				/>
			
				<rect
					x="98.30028328611898"
					y="11.749727375802536"
					width="0.18328611898016997"
					height="85.25027262419746"
				/>
			
				<rect
					x="98.58356940509915"
					y="5.867939153649317"
					width="0.18328611898016997"
					height="91.13206084635068"
				/>
			
				<rect
					x="98.86685552407933"
					y="2.5627276381957955"
					width="0.18328611898016997"
					height="94.4372723618042"
				/>
			
				<rect
					x="99.1501416430595"
					y="0.38302435924286726"
					width="0.18328611898016997"
					height="96.61697564075713"
				/>
			
				<rect
					x="99.43342776203966"
					y="15.427007729768647"
					width="0.18328611898016997"
					height="81.57299227023135"
				/>
			
				<rect
					x="99.71671388101983"
					y="-8.501669447072388"
					width="0.18328611898016997"
					height="105.50166944707239"
				/>
			
		</g>

		<path class="rolling-area" d="M0,97L0,97L0.28328611898017,97L0.56657223796034,97L0.8498583569405099,97L1.13314447592068,97L1.41643059490085,97L1.6997167138810199,97L1.9830028328611897,97L2.26628895184136,97L2.54957507082153,96.99955706090654L2.8328611898017,96.99955706090654L3.1161473087818696,96.99955706090654L3.3994334277620397,96.99955706090654L3.68271954674221,96.99955706090654L3.9660056657223794,96.99955706090654L4.2492917847025495,96.9993355913598L4.53257790368272,96.99977853045327L4.81586402266289,96.99977853045327L5.09915014164306,96.99955706090654L5.38243626062323,96.9986711827196L5.6657223796034,96.9986711827196L5.949008498583569,96.9986711827196L6.232294617563739,96.9986711827196L6.515580736543909,96.9986711827196L6.798866855524079,96.9986711827196L7.0821529745042495,96.99889265226633L7.36543909348442,96.99977853045327L7.64872521246459,96.99977853045327L7.932011331444759,96.99977853045327L8.215297450424929,97L8.498583569405099,97L8.78186968838527,97L9.06515580736544,97L9.34844192634561,96.99911412181307L9.63172804532578,96.99911412181307L9.91501416430595,96.99911412181307L10.19830028328612,96.99911412181307L10.48158640226629,96.99778530453267L10.76487252124646,96.99689942634573L11.04815864022663,96.99424179178493L11.3314447592068,96.99402032223819L11.614730878186968,96.99158415722412L11.898016997167138,96.98405419263517L12.181303116147308,96.9776315757799L12.464589235127479,96.96877279391055L12.747875354107649,96.95947107294774L13.031161473087819,96.94773318697085L13.314447592067989,96.93776705736784L13.597733711048159,96.92868680595176L13.881019830028329,96.9178347981618L14.164305949008499,96.89458049575477L14.44759206798867,96.85892389873064L14.73087818696884,96.8106435375427L15.01416430594901,96.75195410765828L15.29745042492918,96.72936421389144L15.58073654390935,96.65074252480098L15.864022662889518,96.5194110835879L16.14730878186969,96.40668308430045L16.430594900849858,96.29439802410648L16.71388101983003,96.12364500357481L16.997167138810198,96.04945270541903L17.28045325779037,95.86895502483107L17.56373937677054,95.6430560871627L17.84702549575071,95.47119571889738L18.13031161473088,95.14209197245111L18.413597733711047,94.66017423875861L18.69688385269122,94.32331905817668L18.980169971671387,93.9164795008269L19.26345609065156,93.5404242104731L19.546742209631727,93.1366852267776L19.8300283286119,92.44680758870217L20.113314447592067,91.91683096336845L20.39660056657224,91.52217223108903L20.679886685552407,91.20237020560559L20.96317280453258,90.38359729133116L21.246458923512748,90.05626530125876L21.52974504249292,89.91496773044267L21.813031161473088,89.62750025878235L22.09631728045326,89.5936154181321L22.379603399433428,89.36461590680946L22.6628895184136,89.09154395568683L22.946175637393768,89.29330271276122L23.229461756373937,89.24923027296121L23.51274787535411,88.94714581121647L23.796033994334277,89.22664037919438L24.07932011331445,89.23948561290493L24.362606232294617,89.26318285440544L24.64589235127479,89.1985137467592L24.929178470254957,89.07404786149488L25.21246458923513,89.00007703288583L25.495750708215297,89.21069457182955L25.77903682719547,89.24435794293308L26.062322946175637,89.25188790752202L26.34560906515581,89.2990609209763L26.628895184135978,89.43460028357731L26.91218130311615,89.74177854489693L27.195467422096318,89.82305786854819L27.478753541076486,89.89060608030196L27.762039660056658,89.97365716032711L28.045325779036826,89.65274778710999L28.328611898016998,89.47225010652204L28.611898016997166,89.49594734802254L28.89518413597734,89.52340957181752L29.178470254957507,89.59516570495923L29.46175637393768,89.50436319079841L29.745042492917847,89.05367266319537L30.02832861189802,89.14624693373005L30.311614730878187,89.48996767026074L30.59490084985836,89.69150495778838L30.878186968838527,89.7836362892296L31.1614730878187,89.80755500027684L31.444759206798867,90.02968895565073L31.728045325779036,90.66508508522966L32.01133144475921,91.14523106254829L32.29461756373938,91.38641139894128L32.577903682719544,91.4851868167845L32.861189801699716,91.56513732315537L33.14447592067989,91.82957196195538L33.42776203966006,92.04904828276847L33.711048158640224,92.06156131215891L33.994334277620396,92.27627603771722L34.27762039660057,92.3468140883519L34.56090651558074,92.47367922703918L34.844192634560905,92.77262620353854L35.12747875354108,93.04599344739015L35.41076487252125,92.62457381154707L35.69405099150142,92.80381649803687L35.977337110481585,92.96504632805899L36.26062322946176,93.22903802776554L36.54390934844193,93.52912926358968L36.827195467422094,93.63299848100779L37.110481586402265,93.64517930607813L37.39376770538244,94.17449152277165L37.67705382436261,94.20594019840783L37.960339943342774,94.22410070123999L38.243626062322946,94.32265464953647L38.52691218130312,94.33306371823296L38.81019830028329,94.46816014174051L39.093484419263454,94.54899652629831L39.376770538243626,94.52950720618574L39.6600566572238,94.72174277275057L39.94334277620397,94.84111485844004L40.226628895184135,94.86525503903401L40.50991501416431,94.89448901920285L40.79320113314448,94.85285274441692L41.07648725212464,94.9053410269928L41.359773371104815,95.00765995758377L41.64305949008499,94.98285536834959L41.92634560906516,94.99348590659281L42.20963172804532,95.03667246820588L42.492917847025495,95.06546350928126L42.77620396600567,95.13035408647423L43.05949008498584,95.13256878194157L43.342776203966004,95.21185487967223L43.626062322946176,95.31439527980991L43.90934844192635,95.33654223448329L44.19263456090652,95.32901226989435L44.475920679886684,95.41870743632148L44.759206798866856,95.48957769127627L45.04249291784703,95.52146930600591L45.3257790368272,95.57285024084813L45.609065155807365,95.53365013107627L45.892351274787536,95.57812859837861L46.17563739376771,95.8005947580726L46.45892351274787,95.8693241407423L46.742209631728045,95.96880087881684L47.02549575070822,96.0881729645063L47.30878186968839,96.11607812739474L47.59206798866855,96.16749597382808L47.875354107648725,96.14424167142104L48.1586402266289,96.14579195824818L48.44192634560907,96.10238392708837L48.725212464589234,96.07270700782605L49.008498583569406,96.03328542850747L49.29178470254958,95.88733699720997L49.57507082152975,95.90771219550946L49.858356940509914,95.90793366505619L50.141643059490086,95.8691764943778L50.42492917847026,95.86762620755067L50.70821529745042,95.8507945219989L50.991501416430594,95.83972104466223L51.274787535410766,96.0157893343155L51.55807365439094,96.01091700428736L51.8413597733711,95.98256890230545L52.124645892351275,95.96462986902002L52.40793201133145,95.97791804182404L52.69121813031162,95.9737101204361L52.97450424929178,95.95045581802907L53.257790368271955,95.92033595967328L53.54107648725213,95.87537764168634L53.8243626062323,95.85832448658785L54.107648725212464,95.83351989735368L54.390934844192635,95.83484871463408L54.67422096317281,95.83529165372755L54.95750708215297,95.77925985840393L55.240793201133144,95.75954906874463L55.524079320113316,95.73120096676271L55.80736543909349,95.70816813390242L56.09065155807365,95.71016135982302L56.373937677053824,95.71082576846322L56.657223796033996,95.64017698305517L56.94050991501417,95.66719626775668L57.22379603399433,95.56133382441799L57.507082152974505,95.53520041790341L57.79036827195468,95.49555736903808L58.07365439093485,95.36954119694661L58.35694050991501,95.29889241153856L58.640226628895185,95.30376474156671L58.92351274787536,95.32657610488027L59.20679886685552,95.33964280813755L59.49008498583569,95.3832723088441L59.773371104815865,95.37153442286721L60.05665722379604,95.46167252838782L60.3399433427762,95.41494245402701L60.623229461756374,95.41472098448028L60.906515580736546,95.35736037187625L61.18980169971672,95.33632076493656L61.47308781869688,95.28405395190741L61.756373937677054,95.20875430601795L62.039660056657226,95.15493720616166L62.3229461756374,95.19480172457374L62.60623229461756,95.04553125007523L62.889518413597735,94.9494134667928L63.172804532577906,94.92483034710537L63.45609065155807,94.82295435560788L63.73937677053824,94.77578134215359L64.02266288951841,94.62872556312243L64.30594900849859,94.47258953267519L64.58923512747876,94.1906587996832L64.87252124645893,93.84915275861987L65.15580736543909,93.59114073667511L65.43909348441926,93.33622928838464L65.72237960339943,93.07400934505196L66.0056657223796,92.7198795398248L66.28895184135978,92.34692482312528L66.57223796033995,92.27118223814236L66.85552407932012,92.34360277992427L67.13881019830029,92.20119786137451L67.42209631728045,91.90620042512523L67.70538243626062,91.80078092088L67.98866855524079,91.62737026578753L68.27195467422096,91.42251093505887L68.55524079320114,91.2964947629674L68.83852691218131,90.90958746482366L69.12181303116148,90.50584848112814L69.40509915014164,90.02149458242158L69.68838526912181,89.30415472055117L69.97167138810198,88.73918590683354L70.25495750708215,88.3806267106717L70.53824362606233,87.9835318133782L70.8215297450425,88.05528794651993L71.10481586402267,87.56428996141133L71.38810198300284,87.35832328294902L71.671388101983,87.29631180986358L71.95467422096317,87.27527220292387L72.23796033994334,85.76263519873281L72.52124645892351,81.9380775961888L72.80453257790369,80.04473444116252L73.08781869688386,78.40608126487999L73.37110481586403,76.84383508222056L73.65439093484419,74.49049967862842L73.93767705382436,72.96324568435294L74.22096317280453,72.45519454414587L74.5042492917847,74.689600801142L74.78753541076487,74.38419429619626L75.07082152974505,73.78844121548265L75.35410764872522,72.55662759654989L75.63739376770539,72.23815438834686L75.92067988668555,71.84593182108149L76.20396600566572,71.62313345706741L76.48725212464589,70.71311508953869L76.77053824362606,69.64319570926827L77.05382436260624,68.73561350675362L77.33711048158641,67.19352105284696L77.62039660056658,66.69299987722884L77.90368271954674,65.60868497642072L78.18696883852691,64.09361180721558L78.47025495750708,63.471503850440655L78.75354107648725,63.00929690640745L79.03682719546742,62.664911761236574L79.3201133144476,63.104971750596405L79.60339943342777,62.70034688871396L79.88668555240794,61.842373864667664L80.1699716713881,62.08532595743452L80.45325779036827,61.31815544754903L80.73654390934844,61.74780636821238L81.01983002832861,62.38275955869786L81.30311614730878,62.27711858490589L81.58640226628896,62.039481761260646L81.86968838526913,62.28708471450891L82.15297450424929,61.61337435334504L82.43626062322946,62.20735567768478L82.71954674220963,61.67582876552394L83.0028328611898,61.588569764110865L83.28611898016997,62.08178244468678L83.56940509915015,60.01502863456803L83.85269121813032,59.126049873979014L84.13597733711049,58.70459332654481L84.41926345609065,57.73234201638394L84.70254957507082,57.7294629122764L84.98583569405099,57.80941341864726L85.26912181303116,58.5493431742845L85.55240793201133,60.88695424005854L85.8356940509915,62.44809307498429L86.11898016997168,63.99505785891909L86.40226628895184,65.3903160033413L86.68555240793201,66.69986543317759L86.96883852691218,68.6381669061908L87.25212464589235,68.94733839343102L87.53541076487252,70.13441516392358L87.8186968838527,71.35537677506639L88.10198300283287,72.24214084018806L88.38526912181304,73.68324318078415L88.6685552407932,74.37422816659324L88.95184135977337,73.90249803205049L89.23512747875354,74.35496031602742L89.51841359773371,74.94783429263349L89.80169971671388,74.60256326927568L90.08498583569406,74.67609115879125L90.36827195467423,73.54305295770172L90.6515580736544,73.01418368010168L90.93484419263456,73.26843071975196L91.21813031161473,73.17807114468461L91.5014164305949,71.83020748326341L91.78470254957507,70.64003013911658L92.06798866855524,69.31962870149034L92.35127478753542,69.05918051453153L92.63456090651559,67.83113187789324L92.91784702549575,66.46488624409315L93.20113314447592,64.56401312447792L93.48441926345609,61.37064373012492L93.76770538243626,59.85689937820018L94.05099150141643,58.627521924281496L94.3342776203966,54.75601277782994L94.61756373937678,51.85454024607193L94.90084985835695,47.7899096548686L95.1841359773371,44.672504315045245L95.46742209631728,43.86347606082709L95.75070821529745,42.92931751270441L96.03399433427762,41.237068706112325L96.3172804532578,42.03170143979278L96.60056657223797,40.2552942054419L96.88385269121814,36.638253568187345L97.1671388101983,34.24948303711783L97.45042492917847,30.516392357374826L97.73371104815864,25.962978476530253L98.01699716713881,20.862313345706752L98.30028328611898,15.846028112188776L98.58356940509915,11.992679468569378L98.86685552407933,10.269424925434578L99.1501416430595,7.545570970156987L99.43342776203966,8.270662266163072L99.71671388101983,5L100,97Z"/>
		<path class="rolling-line" d="M0,97L0.28328611898017,97L0.56657223796034,97L0.8498583569405099,97L1.13314447592068,97L1.41643059490085,97L1.6997167138810199,97L1.9830028328611897,97L2.26628895184136,97L2.54957507082153,96.99955706090654L2.8328611898017,96.99955706090654L3.1161473087818696,96.99955706090654L3.3994334277620397,96.99955706090654L3.68271954674221,96.99955706090654L3.9660056657223794,96.99955706090654L4.2492917847025495,96.9993355913598L4.53257790368272,96.99977853045327L4.81586402266289,96.99977853045327L5.09915014164306,96.99955706090654L5.38243626062323,96.9986711827196L5.6657223796034,96.9986711827196L5.949008498583569,96.9986711827196L6.232294617563739,96.9986711827196L6.515580736543909,96.9986711827196L6.798866855524079,96.9986711827196L7.0821529745042495,96.99889265226633L7.36543909348442,96.99977853045327L7.64872521246459,96.99977853045327L7.932011331444759,96.99977853045327L8.215297450424929,97L8.498583569405099,97L8.78186968838527,97L9.06515580736544,97L9.34844192634561,96.99911412181307L9.63172804532578,96.99911412181307L9.91501416430595,96.99911412181307L10.19830028328612,96.99911412181307L10.48158640226629,96.99778530453267L10.76487252124646,96.99689942634573L11.04815864022663,96.99424179178493L11.3314447592068,96.99402032223819L11.614730878186968,96.99158415722412L11.898016997167138,96.98405419263517L12.181303116147308,96.9776315757799L12.464589235127479,96.96877279391055L12.747875354107649,96.95947107294774L13.031161473087819,96.94773318697085L13.314447592067989,96.93776705736784L13.597733711048159,96.92868680595176L13.881019830028329,96.9178347981618L14.164305949008499,96.89458049575477L14.44759206798867,96.85892389873064L14.73087818696884,96.8106435375427L15.01416430594901,96.75195410765828L15.29745042492918,96.72936421389144L15.58073654390935,96.65074252480098L15.864022662889518,96.5194110835879L16.14730878186969,96.40668308430045L16.430594900849858,96.29439802410648L16.71388101983003,96.12364500357481L16.997167138810198,96.04945270541903L17.28045325779037,95.86895502483107L17.56373937677054,95.6430560871627L17.84702549575071,95.47119571889738L18.13031161473088,95.14209197245111L18.413597733711047,94.66017423875861L18.69688385269122,94.32331905817668L18.980169971671387,93.9164795008269L19.26345609065156,93.5404242104731L19.546742209631727,93.1366852267776L19.8300283286119,92.44680758870217L20.113314447592067,91.91683096336845L20.39660056657224,91.52217223108903L20.679886685552407,91.20237020560559L20.96317280453258,90.38359729133116L21.246458923512748,90.05626530125876L21.52974504249292,89.91496773044267L21.813031161473088,89.62750025878235L22.09631728045326,89.5936154181321L22.379603399433428,89.36461590680946L22.6628895184136,89.09154395568683L22.946175637393768,89.29330271276122L23.229461756373937,89.24923027296121L23.51274787535411,88.94714581121647L23.796033994334277,89.22664037919438L24.07932011331445,89.23948561290493L24.362606232294617,89.26318285440544L24.64589235127479,89.1985137467592L24.929178470254957,89.07404786149488L25.21246458923513,89.00007703288583L25.495750708215297,89.21069457182955L25.77903682719547,89.24435794293308L26.062322946175637,89.25188790752202L26.34560906515581,89.2990609209763L26.628895184135978,89.43460028357731L26.91218130311615,89.74177854489693L27.195467422096318,89.82305786854819L27.478753541076486,89.89060608030196L27.762039660056658,89.97365716032711L28.045325779036826,89.65274778710999L28.328611898016998,89.47225010652204L28.611898016997166,89.49594734802254L28.89518413597734,89.52340957181752L29.178470254957507,89.59516570495923L29.46175637393768,89.50436319079841L29.745042492917847,89.05367266319537L30.02832861189802,89.14624693373005L30.311614730878187,89.48996767026074L30.59490084985836,89.69150495778838L30.878186968838527,89.7836362892296L31.1614730878187,89.80755500027684L31.444759206798867,90.02968895565073L31.728045325779036,90.66508508522966L32.01133144475921,91.14523106254829L32.29461756373938,91.38641139894128L32.577903682719544,91.4851868167845L32.861189801699716,91.56513732315537L33.14447592067989,91.82957196195538L33.42776203966006,92.04904828276847L33.711048158640224,92.06156131215891L33.994334277620396,92.27627603771722L34.27762039660057,92.3468140883519L34.56090651558074,92.47367922703918L34.844192634560905,92.77262620353854L35.12747875354108,93.04599344739015L35.41076487252125,92.62457381154707L35.69405099150142,92.80381649803687L35.977337110481585,92.96504632805899L36.26062322946176,93.22903802776554L36.54390934844193,93.52912926358968L36.827195467422094,93.63299848100779L37.110481586402265,93.64517930607813L37.39376770538244,94.17449152277165L37.67705382436261,94.20594019840783L37.960339943342774,94.22410070123999L38.243626062322946,94.32265464953647L38.52691218130312,94.33306371823296L38.81019830028329,94.46816014174051L39.093484419263454,94.54899652629831L39.376770538243626,94.52950720618574L39.6600566572238,94.72174277275057L39.94334277620397,94.84111485844004L40.226628895184135,94.86525503903401L40.50991501416431,94.89448901920285L40.79320113314448,94.85285274441692L41.07648725212464,94.9053410269928L41.359773371104815,95.00765995758377L41.64305949008499,94.98285536834959L41.92634560906516,94.99348590659281L42.20963172804532,95.03667246820588L42.492917847025495,95.06546350928126L42.77620396600567,95.13035408647423L43.05949008498584,95.13256878194157L43.342776203966004,95.21185487967223L43.626062322946176,95.31439527980991L43.90934844192635,95.33654223448329L44.19263456090652,95.32901226989435L44.475920679886684,95.41870743632148L44.759206798866856,95.48957769127627L45.04249291784703,95.52146930600591L45.3257790368272,95.57285024084813L45.609065155807365,95.53365013107627L45.892351274787536,95.57812859837861L46.17563739376771,95.8005947580726L46.45892351274787,95.8693241407423L46.742209631728045,95.96880087881684L47.02549575070822,96.0881729645063L47.30878186968839,96.11607812739474L47.59206798866855,96.16749597382808L47.875354107648725,96.14424167142104L48.1586402266289,96.14579195824818L48.44192634560907,96.10238392708837L48.725212464589234,96.07270700782605L49.008498583569406,96.03328542850747L49.29178470254958,95.88733699720997L49.57507082152975,95.90771219550946L49.858356940509914,95.90793366505619L50.141643059490086,95.8691764943778L50.42492917847026,95.86762620755067L50.70821529745042,95.8507945219989L50.991501416430594,95.83972104466223L51.274787535410766,96.0157893343155L51.55807365439094,96.01091700428736L51.8413597733711,95.98256890230545L52.124645892351275,95.96462986902002L52.40793201133145,95.97791804182404L52.69121813031162,95.9737101204361L52.97450424929178,95.95045581802907L53.257790368271955,95.92033595967328L53.54107648725213,95.87537764168634L53.8243626062323,95.85832448658785L54.107648725212464,95.83351989735368L54.390934844192635,95.83484871463408L54.67422096317281,95.83529165372755L54.95750708215297,95.77925985840393L55.240793201133144,95.75954906874463L55.524079320113316,95.73120096676271L55.80736543909349,95.70816813390242L56.09065155807365,95.71016135982302L56.373937677053824,95.71082576846322L56.657223796033996,95.64017698305517L56.94050991501417,95.66719626775668L57.22379603399433,95.56133382441799L57.507082152974505,95.53520041790341L57.79036827195468,95.49555736903808L58.07365439093485,95.36954119694661L58.35694050991501,95.29889241153856L58.640226628895185,95.30376474156671L58.92351274787536,95.32657610488027L59.20679886685552,95.33964280813755L59.49008498583569,95.3832723088441L59.773371104815865,95.37153442286721L60.05665722379604,95.46167252838782L60.3399433427762,95.41494245402701L60.623229461756374,95.41472098448028L60.906515580736546,95.35736037187625L61.18980169971672,95.33632076493656L61.47308781869688,95.28405395190741L61.756373937677054,95.20875430601795L62.039660056657226,95.15493720616166L62.3229461756374,95.19480172457374L62.60623229461756,95.04553125007523L62.889518413597735,94.9494134667928L63.172804532577906,94.92483034710537L63.45609065155807,94.82295435560788L63.73937677053824,94.77578134215359L64.02266288951841,94.62872556312243L64.30594900849859,94.47258953267519L64.58923512747876,94.1906587996832L64.87252124645893,93.84915275861987L65.15580736543909,93.59114073667511L65.43909348441926,93.33622928838464L65.72237960339943,93.07400934505196L66.0056657223796,92.7198795398248L66.28895184135978,92.34692482312528L66.57223796033995,92.27118223814236L66.85552407932012,92.34360277992427L67.13881019830029,92.20119786137451L67.42209631728045,91.90620042512523L67.70538243626062,91.80078092088L67.98866855524079,91.62737026578753L68.27195467422096,91.42251093505887L68.55524079320114,91.2964947629674L68.83852691218131,90.90958746482366L69.12181303116148,90.50584848112814L69.40509915014164,90.02149458242158L69.68838526912181,89.30415472055117L69.97167138810198,88.73918590683354L70.25495750708215,88.3806267106717L70.53824362606233,87.9835318133782L70.8215297450425,88.05528794651993L71.10481586402267,87.56428996141133L71.38810198300284,87.35832328294902L71.671388101983,87.29631180986358L71.95467422096317,87.27527220292387L72.23796033994334,85.76263519873281L72.52124645892351,81.9380775961888L72.80453257790369,80.04473444116252L73.08781869688386,78.40608126487999L73.37110481586403,76.84383508222056L73.65439093484419,74.49049967862842L73.93767705382436,72.96324568435294L74.22096317280453,72.45519454414587L74.5042492917847,74.689600801142L74.78753541076487,74.38419429619626L75.07082152974505,73.78844121548265L75.35410764872522,72.55662759654989L75.63739376770539,72.23815438834686L75.92067988668555,71.84593182108149L76.20396600566572,71.62313345706741L76.48725212464589,70.71311508953869L76.77053824362606,69.64319570926827L77.05382436260624,68.73561350675362L77.33711048158641,67.19352105284696L77.62039660056658,66.69299987722884L77.90368271954674,65.60868497642072L78.18696883852691,64.09361180721558L78.47025495750708,63.471503850440655L78.75354107648725,63.00929690640745L79.03682719546742,62.664911761236574L79.3201133144476,63.104971750596405L79.60339943342777,62.70034688871396L79.88668555240794,61.842373864667664L80.1699716713881,62.08532595743452L80.45325779036827,61.31815544754903L80.73654390934844,61.74780636821238L81.01983002832861,62.38275955869786L81.30311614730878,62.27711858490589L81.58640226628896,62.039481761260646L81.86968838526913,62.28708471450891L82.15297450424929,61.61337435334504L82.43626062322946,62.20735567768478L82.71954674220963,61.67582876552394L83.0028328611898,61.588569764110865L83.28611898016997,62.08178244468678L83.56940509915015,60.01502863456803L83.85269121813032,59.126049873979014L84.13597733711049,58.70459332654481L84.41926345609065,57.73234201638394L84.70254957507082,57.7294629122764L84.98583569405099,57.80941341864726L85.26912181303116,58.5493431742845L85.55240793201133,60.88695424005854L85.8356940509915,62.44809307498429L86.11898016997168,63.99505785891909L86.40226628895184,65.3903160033413L86.68555240793201,66.69986543317759L86.96883852691218,68.6381669061908L87.25212464589235,68.94733839343102L87.53541076487252,70.13441516392358L87.8186968838527,71.35537677506639L88.10198300283287,72.24214084018806L88.38526912181304,73.68324318078415L88.6685552407932,74.37422816659324L88.95184135977337,73.90249803205049L89.23512747875354,74.35496031602742L89.51841359773371,74.94783429263349L89.80169971671388,74.60256326927568L90.08498583569406,74.67609115879125L90.36827195467423,73.54305295770172L90.6515580736544,73.01418368010168L90.93484419263456,73.26843071975196L91.21813031161473,73.17807114468461L91.5014164305949,71.83020748326341L91.78470254957507,70.64003013911658L92.06798866855524,69.31962870149034L92.35127478753542,69.05918051453153L92.63456090651559,67.83113187789324L92.91784702549575,66.46488624409315L93.20113314447592,64.56401312447792L93.48441926345609,61.37064373012492L93.76770538243626,59.85689937820018L94.05099150141643,58.627521924281496L94.3342776203966,54.75601277782994L94.61756373937678,51.85454024607193L94.90084985835695,47.7899096548686L95.1841359773371,44.672504315045245L95.46742209631728,43.86347606082709L95.75070821529745,42.92931751270441L96.03399433427762,41.237068706112325L96.3172804532578,42.03170143979278L96.60056657223797,40.2552942054419L96.88385269121814,36.638253568187345L97.1671388101983,34.24948303711783L97.45042492917847,30.516392357374826L97.73371104815864,25.962978476530253L98.01699716713881,20.862313345706752L98.30028328611898,15.846028112188776L98.58356940509915,11.992679468569378L98.86685552407933,10.269424925434578L99.1501416430595,7.545570970156987L99.43342776203966,8.270662266163072L99.71671388101983,5"/>
	</g>

	
</svg>