<?xml version="1.0" encoding="UTF-8"?>
<svg xmlns="http://www.w3.org/2000/svg" viewBox="0 0 100 100" preserveAspectRatio="none">
	<style>
		* { vector-effect: non-scaling-stroke }
		.rolling-line { fill: none; stroke-width: 1.5; stroke-linecap: round; stroke-linejoin: round;}

		.cases rect { fill: #ffdad8; }
		.cases.faded .rolling-line { stroke: #fca9a9; }
		.cases.normal .rolling-line { stroke: #cf1111; }
		.cases.normal .rolling-area { fill: rgba(207, 17, 17, 0.2); }

		.deaths rect { fill: rgba(85, 85, 85, 0.1); }
		.deaths.faded .rolling-line { stroke: #bbb; }
		.deaths.normal .rolling-line { stroke: #555; }
		.deaths.normal .rolling-area { fill: rgba(85, 85, 85, 0.3); }
	</style>

	<g class="cases normal">
		<g>
			
				<rect
					x="0"
					y="97"
					width="0.18328611898016997"
					height="0"
				/>
			
				<rect
					x="0.28328611898017"
					y="97"
					width="0.18328611898016997"
					height="0"
				/>
			
				<rect
					x="0.56657223796034"
					y="97"
					width="0.18328611898016997"
					height="0"
				/>
			
				<rect
					x="0.8498583569405099"
					y="97"
					width="0.18328611898016997"
					height="0"
				/>
			
				<rect
					x="1.13314447592068"
					y="97"
					width="0.18328611898016997"
					height="0"
				/>
			
				<rect
					x="1.41643059490085"
					y="97"
					width="0.18328611898016997"
					height="0"
				/>
			
				<rect
					x="1.6997167138810199"
					y="97"
					width="0.18328611898016997"
					height="0"
				/>
			
				<rect
					x="1.9830028328611897"
					y="97"
					width="0.18328611898016997"
					height="0"
				/>
			
				<rect
					x="2.26628895184136"
					y="97"
					width="0.18328611898016997"
					height="0"
				/>
			
				<rect
					x="2.54957507082153"
					y="97"
					width="0.18328611898016997"
					height="0"
				/>
			
				<rect
					x="2.8328611898017"
					y="97"
					width="0.18328611898016997"
					height="0"
				/>
			
				<rect
					x="3.1161473087818696"
					y="97"
					width="0.18328611898016997"
					height="0"
				/>
			
				<rect
					x="3.3994334277620397"
					y="97"
					width="0.18328611898016997"
					height="0"
				/>
			
				<rect
					x="3.68271954674221"
					y="97"
					width="0.18328611898016997"
					height="0"
				/>
			
				<rect
					x="3.9660056657223794"
					y="97"
					width="0.18328611898016997"
					height="0"
				/>
			
				<rect
					x="4.2492917847025495"
					y="97"
					width="0.18328611898016997"
					height="0"
				/>
			
				<rect
					x="4.53257790368272"
					y="97"
					width="0.18328611898016997"
					height="0"
				/>
			
				<rect
					x="4.81586402266289"
					y="97"
					width="0.18328611898016997"
					height="0"
				/>
			
				<rect
					x="5.09915014164306"
					y="97"
					width="0.18328611898016997"
					height="0"
				/>
			
				<rect
					x="5.38243626062323"
					y="97"
					width="0.18328611898016997"
					height="0"
				/>
			
				<rect
					x="5.6657223796034"
					y="97"
					width="0.18328611898016997"
					height="0"
				/>
			
				<rect
					x="5.949008498583569"
					y="97"
					width="0.18328611898016997"
					height="0"
				/>
			
				<rect
					x="6.232294617563739"
					y="97"
					width="0.18328611898016997"
					height="0"
				/>
			
				<rect
					x="6.515580736543909"
					y="97"
					width="0.18328611898016997"
					height="0"
				/>
			
				<rect
					x="6.798866855524079"
					y="97"
					width="0.18328611898016997"
					height="0"
				/>
			
				<rect
					x="7.0821529745042495"
					y="97"
					width="0.18328611898016997"
					height="0"
				/>
			
				<rect
					x="7.36543909348442"
					y="97"
					width="0.18328611898016997"
					height="0"
				/>
			
				<rect
					x="7.64872521246459"
					y="97"
					width="0.18328611898016997"
					height="0"
				/>
			
				<rect
					x="7.932011331444759"
					y="97"
					width="0.18328611898016997"
					height="0"
				/>
			
				<rect
					x="8.215297450424929"
					y="97"
					width="0.18328611898016997"
					height="0"
				/>
			
				<rect
					x="8.498583569405099"
					y="97"
					width="0.18328611898016997"
					height="0"
				/>
			
				<rect
					x="8.78186968838527"
					y="97"
					width="0.18328611898016997"
					height="0"
				/>
			
				<rect
					x="9.06515580736544"
					y="97"
					width="0.18328611898016997"
					height="0"
				/>
			
				<rect
					x="9.34844192634561"
					y="97"
					width="0.18328611898016997"
					height="0"
				/>
			
				<rect
					x="9.63172804532578"
					y="97"
					width="0.18328611898016997"
					height="0"
				/>
			
				<rect
					x="9.91501416430595"
					y="97"
					width="0.18328611898016997"
					height="0"
				/>
			
				<rect
					x="10.19830028328612"
					y="97"
					width="0.18328611898016997"
					height="0"
				/>
			
				<rect
					x="10.48158640226629"
					y="97"
					width="0.18328611898016997"
					height="0"
				/>
			
				<rect
					x="10.76487252124646"
					y="97"
					width="0.18328611898016997"
					height="0"
				/>
			
				<rect
					x="11.04815864022663"
					y="96.96880921677958"
					width="0.18328611898016997"
					height="0.031190783220424123"
				/>
			
				<rect
					x="11.3314447592068"
					y="96.99432894850538"
					width="0.18328611898016997"
					height="0.005671051494616108"
				/>
			
				<rect
					x="11.614730878186968"
					y="96.9925567449133"
					width="0.18328611898016997"
					height="0.007443255086698741"
				/>
			
				<rect
					x="11.898016997167138"
					y="96.9872401341371"
					width="0.18328611898016997"
					height="0.012759865862904007"
				/>
			
				<rect
					x="12.181303116147308"
					y="96.97625247186627"
					width="0.18328611898016997"
					height="0.023747528133725382"
				/>
			
				<rect
					x="12.464589235127479"
					y="96.97058142037164"
					width="0.18328611898016997"
					height="0.0294185796283557"
				/>
			
				<rect
					x="12.747875354107649"
					y="96.95853043594558"
					width="0.18328611898016997"
					height="0.04146956405442381"
				/>
			
				<rect
					x="13.031161473087819"
					y="96.95782155450874"
					width="0.18328611898016997"
					height="0.04217844549125971"
				/>
			
				<rect
					x="13.314447592067989"
					y="96.92875741559881"
					width="0.18328611898016997"
					height="0.07124258440119036"
				/>
			
				<rect
					x="13.597733711048159"
					y="96.90430100602825"
					width="0.18328611898016997"
					height="0.09569899397175163"
				/>
			
				<rect
					x="13.881019830028329"
					y="96.91316202398859"
					width="0.18328611898016997"
					height="0.08683797601140952"
				/>
			
				<rect
					x="14.164305949008499"
					y="96.85645150904237"
					width="0.18328611898016997"
					height="0.14354849095762745"
				/>
			
				<rect
					x="14.44759206798867"
					y="96.80293096056187"
					width="0.18328611898016997"
					height="0.1970690394381336"
				/>
			
				<rect
					x="14.73087818696884"
					y="96.76110695578902"
					width="0.18328611898016997"
					height="0.23889304421098245"
				/>
			
				<rect
					x="15.01416430594901"
					y="96.75118261567343"
					width="0.18328611898016997"
					height="0.2488173843265713"
				/>
			
				<rect
					x="15.29745042492918"
					y="96.67852226839858"
					width="0.18328611898016997"
					height="0.32147773160141924"
				/>
			
				<rect
					x="15.58073654390935"
					y="96.50413743493894"
					width="0.18328611898016997"
					height="0.49586256506105997"
				/>
			
				<rect
					x="15.864022662889518"
					y="96.1337468841964"
					width="0.18328611898016997"
					height="0.8662531158036018"
				/>
			
				<rect
					x="16.14730878186969"
					y="95.56699617545256"
					width="0.18328611898016997"
					height="1.4330038245474412"
				/>
			
				<rect
					x="16.430594900849858"
					y="95.00839760323224"
					width="0.18328611898016997"
					height="1.9916023967677603"
				/>
			
				<rect
					x="16.71388101983003"
					y="94.69046427881496"
					width="0.18328611898016997"
					height="2.3095357211850427"
				/>
			
				<rect
					x="16.997167138810198"
					y="93.97130406115313"
					width="0.18328611898016997"
					height="3.028695938846866"
				/>
			
				<rect
					x="17.28045325779037"
					y="93.30247442550608"
					width="0.18328611898016997"
					height="3.6975255744939233"
				/>
			
				<rect
					x="17.56373937677054"
					y="93.30211998478767"
					width="0.18328611898016997"
					height="3.697880015212334"
				/>
			
				<rect
					x="17.84702549575071"
					y="91.81311452673083"
					width="0.18328611898016997"
					height="5.186885473269172"
				/>
			
				<rect
					x="18.13031161473088"
					y="90.97521666840035"
					width="0.18328611898016997"
					height="6.02478333159965"
				/>
			
				<rect
					x="18.413597733711047"
					y="90.85754234988693"
					width="0.18328611898016997"
					height="6.142457650113073"
				/>
			
				<rect
					x="18.69688385269122"
					y="89.53335182589255"
					width="0.18328611898016997"
					height="7.466648174107448"
				/>
			
				<rect
					x="18.980169971671387"
					y="90.43575789497437"
					width="0.18328611898016997"
					height="6.564242105025627"
				/>
			
				<rect
					x="19.26345609065156"
					y="89.39051221637175"
					width="0.18328611898016997"
					height="7.6094877836282535"
				/>
			
				<rect
					x="19.546742209631727"
					y="88.3140757545487"
					width="0.18328611898016997"
					height="8.685924245451304"
				/>
			
				<rect
					x="19.8300283286119"
					y="87.45491145311338"
					width="0.18328611898016997"
					height="9.545088546886618"
				/>
			
				<rect
					x="20.113314447592067"
					y="86.46708517089381"
					width="0.18328611898016997"
					height="10.53291482910619"
				/>
			
				<rect
					x="20.39660056657224"
					y="85.54518486229924"
					width="0.18328611898016997"
					height="11.454815137700763"
				/>
			
				<rect
					x="20.679886685552407"
					y="84.55948522439014"
					width="0.18328611898016997"
					height="12.440514775609856"
				/>
			
				<rect
					x="20.96317280453258"
					y="87.92064655710927"
					width="0.18328611898016997"
					height="9.079353442890735"
				/>
			
				<rect
					x="21.246458923512748"
					y="86.04211074951553"
					width="0.18328611898016997"
					height="10.95788925048447"
				/>
			
				<rect
					x="21.52974504249292"
					y="86.24733192547718"
					width="0.18328611898016997"
					height="10.752668074522816"
				/>
			
				<rect
					x="21.813031161473088"
					y="85.72169634006936"
					width="0.18328611898016997"
					height="11.278303659930643"
				/>
			
				<rect
					x="22.09631728045326"
					y="84.7012615117557"
					width="0.18328611898016997"
					height="12.298738488244297"
				/>
			
				<rect
					x="22.379603399433428"
					y="85.13580583253116"
					width="0.18328611898016997"
					height="11.864194167468838"
				/>
			
				<rect
					x="22.6628895184136"
					y="85.75714041191075"
					width="0.18328611898016997"
					height="11.242859588089246"
				/>
			
				<rect
					x="22.946175637393768"
					y="87.37941558009122"
					width="0.18328611898016997"
					height="9.62058441990878"
				/>
			
				<rect
					x="23.229461756373937"
					y="87.86641712719194"
					width="0.18328611898016997"
					height="9.133582872808063"
				/>
			
				<rect
					x="23.51274787535411"
					y="87.53962278481431"
					width="0.18328611898016997"
					height="9.460377215185687"
				/>
			
				<rect
					x="23.796033994334277"
					y="86.35508190387502"
					width="0.18328611898016997"
					height="10.644918096124982"
				/>
			
				<rect
					x="24.07932011331445"
					y="85.79506556878104"
					width="0.18328611898016997"
					height="11.204934431218959"
				/>
			
				<rect
					x="24.362606232294617"
					y="85.83192740349608"
					width="0.18328611898016997"
					height="11.168072596503919"
				/>
			
				<rect
					x="24.64589235127479"
					y="86.93459247848176"
					width="0.18328611898016997"
					height="10.065407521518239"
				/>
			
				<rect
					x="24.929178470254957"
					y="88.02059883970199"
					width="0.18328611898016997"
					height="8.97940116029801"
				/>
			
				<rect
					x="25.21246458923513"
					y="87.29009651905092"
					width="0.18328611898016997"
					height="9.70990348094908"
				/>
			
				<rect
					x="25.495750708215297"
					y="87.95679951038748"
					width="0.18328611898016997"
					height="9.043200489612516"
				/>
			
				<rect
					x="25.77903682719547"
					y="86.78111964740853"
					width="0.18328611898016997"
					height="10.21888035259147"
				/>
			
				<rect
					x="26.062322946175637"
					y="85.02841029485175"
					width="0.18328611898016997"
					height="11.971589705148247"
				/>
			
				<rect
					x="26.34560906515581"
					y="83.9774935647545"
					width="0.18328611898016997"
					height="13.022506435245504"
				/>
			
				<rect
					x="26.628895184135978"
					y="84.80440376081415"
					width="0.18328611898016997"
					height="12.195596239185846"
				/>
			
				<rect
					x="26.91218130311615"
					y="87.5240273932041"
					width="0.18328611898016997"
					height="9.475972606795906"
				/>
			
				<rect
					x="27.195467422096318"
					y="88.77803865495251"
					width="0.18328611898016997"
					height="8.22196134504749"
				/>
			
				<rect
					x="27.478753541076486"
					y="88.26268185037868"
					width="0.18328611898016997"
					height="8.737318149621316"
				/>
			
				<rect
					x="27.762039660056658"
					y="87.5878267225186"
					width="0.18328611898016997"
					height="9.4121732774814"
				/>
			
				<rect
					x="28.045325779036826"
					y="86.24024311110891"
					width="0.18328611898016997"
					height="10.75975688889109"
				/>
			
				<rect
					x="28.328611898016998"
					y="84.95964879547945"
					width="0.18328611898016997"
					height="12.040351204520547"
				/>
			
				<rect
					x="28.611898016997166"
					y="86.5532142654684"
					width="0.18328611898016997"
					height="10.446785734531602"
				/>
			
				<rect
					x="28.89518413597734"
					y="87.73491962066038"
					width="0.18328611898016997"
					height="9.265080379339622"
				/>
			
				<rect
					x="29.178470254957507"
					y="89.2157729421937"
					width="0.18328611898016997"
					height="7.784227057806305"
				/>
			
				<rect
					x="29.46175637393768"
					y="88.59656500712458"
					width="0.18328611898016997"
					height="8.403434992875418"
				/>
			
				<rect
					x="29.745042492917847"
					y="88.3140757545487"
					width="0.18328611898016997"
					height="8.685924245451304"
				/>
			
				<rect
					x="30.02832861189802"
					y="86.90623722100865"
					width="0.18328611898016997"
					height="10.093762778991348"
				/>
			
				<rect
					x="30.311614730878187"
					y="87.2004230172922"
					width="0.18328611898016997"
					height="9.799576982707805"
				/>
			
				<rect
					x="30.59490084985836"
					y="88.18576821448286"
					width="0.18328611898016997"
					height="8.814231785517137"
				/>
			
				<rect
					x="30.878186968838527"
					y="89.79882792398458"
					width="0.18328611898016997"
					height="7.201172076015425"
				/>
			
				<rect
					x="31.1614730878187"
					y="90.75440010082848"
					width="0.18328611898016997"
					height="6.245599899171523"
				/>
			
				<rect
					x="31.444759206798867"
					y="89.09597197936979"
					width="0.18328611898016997"
					height="7.904028020630207"
				/>
			
				<rect
					x="31.728045325779036"
					y="89.50535100913785"
					width="0.18328611898016997"
					height="7.494648990862146"
				/>
			
				<rect
					x="32.01133144475921"
					y="87.44356935012414"
					width="0.18328611898016997"
					height="9.556430649875864"
				/>
			
				<rect
					x="32.29461756373938"
					y="87.70053887097423"
					width="0.18328611898016997"
					height="9.299461129025772"
				/>
			
				<rect
					x="32.577903682719544"
					y="88.61428704304528"
					width="0.18328611898016997"
					height="8.38571295695472"
				/>
			
				<rect
					x="32.861189801699716"
					y="90.2606641800779"
					width="0.18328611898016997"
					height="6.739335819922104"
				/>
			
				<rect
					x="33.14447592067989"
					y="89.26362243917957"
					width="0.18328611898016997"
					height="7.736377560820429"
				/>
			
				<rect
					x="33.42776203966006"
					y="89.56489704983139"
					width="0.18328611898016997"
					height="7.435102950168613"
				/>
			
				<rect
					x="33.711048158640224"
					y="88.82305262619107"
					width="0.18328611898016997"
					height="8.176947373808929"
				/>
			
				<rect
					x="33.994334277620396"
					y="87.87917699305484"
					width="0.18328611898016997"
					height="9.120823006945159"
				/>
			
				<rect
					x="34.27762039660057"
					y="88.56466534246734"
					width="0.18328611898016997"
					height="8.435334657532664"
				/>
			
				<rect
					x="34.56090651558074"
					y="89.10731408235904"
					width="0.18328611898016997"
					height="7.892685917640961"
				/>
			
				<rect
					x="34.844192634560905"
					y="89.90019796945096"
					width="0.18328611898016997"
					height="7.099802030549043"
				/>
			
				<rect
					x="35.12747875354108"
					y="90.23018227829431"
					width="0.18328611898016997"
					height="6.769817721705692"
				/>
			
				<rect
					x="35.41076487252125"
					y="90.30248818485074"
					width="0.18328611898016997"
					height="6.697511815149255"
				/>
			
				<rect
					x="35.69405099150142"
					y="90.35636317404966"
					width="0.18328611898016997"
					height="6.643636825950338"
				/>
			
				<rect
					x="35.977337110481585"
					y="89.02083054706604"
					width="0.18328611898016997"
					height="7.979169452933959"
				/>
			
				<rect
					x="36.26062322946176"
					y="88.29918924437531"
					width="0.18328611898016997"
					height="8.700810755624687"
				/>
			
				<rect
					x="36.54390934844193"
					y="88.70715051126973"
					width="0.18328611898016997"
					height="8.292849488730269"
				/>
			
				<rect
					x="36.827195467422094"
					y="89.68647021624736"
					width="0.18328611898016997"
					height="7.313529783752642"
				/>
			
				<rect
					x="37.110481586402265"
					y="89.2388115888906"
					width="0.18328611898016997"
					height="7.761188411109401"
				/>
			
				<rect
					x="37.39376770538244"
					y="89.63082302345639"
					width="0.18328611898016997"
					height="7.3691769765436135"
				/>
			
				<rect
					x="37.67705382436261"
					y="89.91579336106116"
					width="0.18328611898016997"
					height="7.084206638938838"
				/>
			
				<rect
					x="37.960339943342774"
					y="89.3384094307649"
					width="0.18328611898016997"
					height="7.661590569235102"
				/>
			
				<rect
					x="38.243626062322946"
					y="86.82436141505504"
					width="0.18328611898016997"
					height="10.175638584944963"
				/>
			
				<rect
					x="38.52691218130312"
					y="89.01941278419238"
					width="0.18328611898016997"
					height="7.980587215807617"
				/>
			
				<rect
					x="38.81019830028329"
					y="90.40173158600663"
					width="0.18328611898016997"
					height="6.598268413993367"
				/>
			
				<rect
					x="39.093484419263454"
					y="90.54669783983793"
					width="0.18328611898016997"
					height="6.4533021601620675"
				/>
			
				<rect
					x="39.376770538243626"
					y="90.3347422902264"
					width="0.18328611898016997"
					height="6.6652577097735985"
				/>
			
				<rect
					x="39.6600566572238"
					y="88.90032070280532"
					width="0.18328611898016997"
					height="8.099679297194683"
				/>
			
				<rect
					x="39.94334277620397"
					y="88.77626645136044"
					width="0.18328611898016997"
					height="8.223733548639558"
				/>
			
				<rect
					x="40.226628895184135"
					y="87.96424276547417"
					width="0.18328611898016997"
					height="9.035757234525832"
				/>
			
				<rect
					x="40.50991501416431"
					y="88.02059883970199"
					width="0.18328611898016997"
					height="8.97940116029801"
				/>
			
				<rect
					x="40.79320113314448"
					y="90.21954905674188"
					width="0.18328611898016997"
					height="6.780450943258117"
				/>
			
				<rect
					x="41.07648725212464"
					y="89.86971606766735"
					width="0.18328611898016997"
					height="7.130283932332645"
				/>
			
				<rect
					x="41.359773371104815"
					y="88.17974272226982"
					width="0.18328611898016997"
					height="8.820257277730178"
				/>
			
				<rect
					x="41.64305949008499"
					y="87.90682336909111"
					width="0.18328611898016997"
					height="9.093176630908886"
				/>
			
				<rect
					x="41.92634560906516"
					y="87.05474788202407"
					width="0.18328611898016997"
					height="9.945252117975926"
				/>
			
				<rect
					x="42.20963172804532"
					y="86.07046600698865"
					width="0.18328611898016997"
					height="10.929533993011347"
				/>
			
				<rect
					x="42.492917847025495"
					y="85.64903599279451"
					width="0.18328611898016997"
					height="11.35096400720549"
				/>
			
				<rect
					x="42.77620396600567"
					y="87.65020828895945"
					width="0.18328611898016997"
					height="9.349791711040552"
				/>
			
				<rect
					x="43.05949008498584"
					y="86.2016090728018"
					width="0.18328611898016997"
					height="10.798390927198199"
				/>
			
				<rect
					x="43.342776203966004"
					y="84.5733084124083"
					width="0.18328611898016997"
					height="12.426691587591705"
				/>
			
				<rect
					x="43.626062322946176"
					y="83.88959226658785"
					width="0.18328611898016997"
					height="13.110407733412146"
				/>
			
				<rect
					x="43.90934844192635"
					y="82.40661230074406"
					width="0.18328611898016997"
					height="14.593387699255942"
				/>
			
				<rect
					x="44.19263456090652"
					y="80.86302297205147"
					width="0.18328611898016997"
					height="16.136977027948532"
				/>
			
				<rect
					x="44.475920679886684"
					y="82.00751205180998"
					width="0.18328611898016997"
					height="14.992487948190018"
				/>
			
				<rect
					x="44.759206798866856"
					y="82.99675609690321"
					width="0.18328611898016997"
					height="14.003243903096788"
				/>
			
				<rect
					x="45.04249291784703"
					y="83.00100938552418"
					width="0.18328611898016997"
					height="13.998990614475815"
				/>
			
				<rect
					x="45.3257790368272"
					y="79.84896807666927"
					width="0.18328611898016997"
					height="17.151031923330734"
				/>
			
				<rect
					x="45.609065155807365"
					y="79.28682509726481"
					width="0.18328611898016997"
					height="17.71317490273519"
				/>
			
				<rect
					x="45.892351274787536"
					y="77.30762812564153"
					width="0.18328611898016997"
					height="19.69237187435847"
				/>
			
				<rect
					x="46.17563739376771"
					y="76.74229517977135"
					width="0.18328611898016997"
					height="20.257704820228653"
				/>
			
				<rect
					x="46.45892351274787"
					y="79.27583743499397"
					width="0.18328611898016997"
					height="17.724162565006026"
				/>
			
				<rect
					x="46.742209631728045"
					y="81.13275235876445"
					width="0.18328611898016997"
					height="15.86724764123555"
				/>
			
				<rect
					x="47.02549575070822"
					y="80.2292829675274"
					width="0.18328611898016997"
					height="16.770717032472604"
				/>
			
				<rect
					x="47.30878186968839"
					y="77.83042818530205"
					width="0.18328611898016997"
					height="19.169571814697946"
				/>
			
				<rect
					x="47.59206798866855"
					y="75.92672708670094"
					width="0.18328611898016997"
					height="21.073272913299064"
				/>
			
				<rect
					x="47.875354107648725"
					y="75.7728998149093"
					width="0.18328611898016997"
					height="21.227100185090706"
				/>
			
				<rect
					x="48.1586402266289"
					y="72.81757310477411"
					width="0.18328611898016997"
					height="24.182426895225888"
				/>
			
				<rect
					x="48.44192634560907"
					y="75.47800513718892"
					width="0.18328611898016997"
					height="21.521994862811084"
				/>
			
				<rect
					x="48.725212464589234"
					y="76.51155427208388"
					width="0.18328611898016997"
					height="20.488445727916115"
				/>
			
				<rect
					x="49.008498583569406"
					y="75.17814828941076"
					width="0.18328611898016997"
					height="21.821851710589243"
				/>
			
				<rect
					x="49.29178470254958"
					y="73.74797999061062"
					width="0.18328611898016997"
					height="23.252020009389383"
				/>
			
				<rect
					x="49.57507082152975"
					y="72.77681242215651"
					width="0.18328611898016997"
					height="24.22318757784349"
				/>
			
				<rect
					x="49.858356940509914"
					y="70.17344534540634"
					width="0.18328611898016997"
					height="26.826554654593664"
				/>
			
				<rect
					x="50.141643059490086"
					y="71.86200092793021"
					width="0.18328611898016997"
					height="25.13799907206979"
				/>
			
				<rect
					x="50.42492917847026"
					y="74.86482269433286"
					width="0.18328611898016997"
					height="22.135177305667142"
				/>
			
				<rect
					x="50.70821529745042"
					y="74.9272042607737"
					width="0.18328611898016997"
					height="22.072795739226294"
				/>
			
				<rect
					x="50.991501416430594"
					y="75.7732542556277"
					width="0.18328611898016997"
					height="21.226745744372295"
				/>
			
				<rect
					x="51.274787535410766"
					y="73.86317322409515"
					width="0.18328611898016997"
					height="23.13682677590485"
				/>
			
				<rect
					x="51.55807365439094"
					y="72.28165873853227"
					width="0.18328611898016997"
					height="24.718341261467728"
				/>
			
				<rect
					x="51.8413597733711"
					y="72.18702306671577"
					width="0.18328611898016997"
					height="24.812976933284233"
				/>
			
				<rect
					x="52.124645892351275"
					y="70.93974617861721"
					width="0.18328611898016997"
					height="26.060253821382787"
				/>
			
				<rect
					x="52.40793201133145"
					y="73.33186658719269"
					width="0.18328611898016997"
					height="23.668133412807308"
				/>
			
				<rect
					x="52.69121813031162"
					y="77.783287569753"
					width="0.18328611898016997"
					height="19.216712430247"
				/>
			
				<rect
					x="52.97450424929178"
					y="76.02384384354635"
					width="0.18328611898016997"
					height="20.976156156453655"
				/>
			
				<rect
					x="53.257790368271955"
					y="74.6291196165876"
					width="0.18328611898016997"
					height="22.3708803834124"
				/>
			
				<rect
					x="53.54107648725213"
					y="73.38857710213892"
					width="0.18328611898016997"
					height="23.611422897861075"
				/>
			
				<rect
					x="53.8243626062323"
					y="72.50318418754097"
					width="0.18328611898016997"
					height="24.496815812459033"
				/>
			
				<rect
					x="54.107648725212464"
					y="72.51239964621973"
					width="0.18328611898016997"
					height="24.487600353780266"
				/>
			
				<rect
					x="54.390934844192635"
					y="76.85784285397428"
					width="0.18328611898016997"
					height="20.142157146025724"
				/>
			
				<rect
					x="54.67422096317281"
					y="78.99653814888381"
					width="0.18328611898016997"
					height="18.003461851116185"
				/>
			
				<rect
					x="54.95750708215297"
					y="80.16973692683386"
					width="0.18328611898016997"
					height="16.830263073166137"
				/>
			
				<rect
					x="55.240793201133144"
					y="78.02005396965349"
					width="0.18328611898016997"
					height="18.97994603034651"
				/>
			
				<rect
					x="55.524079320113316"
					y="77.95838128464948"
					width="0.18328611898016997"
					height="19.041618715350523"
				/>
			
				<rect
					x="55.80736543909349"
					y="76.61469652114233"
					width="0.18328611898016997"
					height="20.385303478857665"
				/>
			
				<rect
					x="56.09065155807365"
					y="75.32346898396045"
					width="0.18328611898016997"
					height="21.676531016039547"
				/>
			
				<rect
					x="56.373937677053824"
					y="77.42069471481557"
					width="0.18328611898016997"
					height="19.579305285184432"
				/>
			
				<rect
					x="56.657223796033996"
					y="79.81671397129361"
					width="0.18328611898016997"
					height="17.18328602870639"
				/>
			
				<rect
					x="56.94050991501417"
					y="80.27996799026059"
					width="0.18328611898016997"
					height="16.720032009739413"
				/>
			
				<rect
					x="57.22379603399433"
					y="78.08810658758895"
					width="0.18328611898016997"
					height="18.911893412411047"
				/>
			
				<rect
					x="57.507082152974505"
					y="77.76166668592975"
					width="0.18328611898016997"
					height="19.238333314070246"
				/>
			
				<rect
					x="57.79036827195468"
					y="77.83858032182556"
					width="0.18328611898016997"
					height="19.16141967817444"
				/>
			
				<rect
					x="58.07365439093485"
					y="75.91892939089583"
					width="0.18328611898016997"
					height="21.081070609104174"
				/>
			
				<rect
					x="58.35694050991501"
					y="79.01461462552292"
					width="0.18328611898016997"
					height="17.985385374477076"
				/>
			
				<rect
					x="58.640226628895185"
					y="82.06493144819304"
					width="0.18328611898016997"
					height="14.935068551806964"
				/>
			
				<rect
					x="58.92351274787536"
					y="83.70032092295483"
					width="0.18328611898016997"
					height="13.29967907704517"
				/>
			
				<rect
					x="59.20679886685552"
					y="81.6764644208114"
					width="0.18328611898016997"
					height="15.3235355791886"
				/>
			
				<rect
					x="59.49008498583569"
					y="81.75444137886245"
					width="0.18328611898016997"
					height="15.245558621137548"
				/>
			
				<rect
					x="59.773371104815865"
					y="80.6854481721261"
					width="0.18328611898016997"
					height="16.3145518278739"
				/>
			
				<rect
					x="60.05665722379604"
					y="79.62212601688437"
					width="0.18328611898016997"
					height="17.377873983115634"
				/>
			
				<rect
					x="60.3399433427762"
					y="81.04095221269526"
					width="0.18328611898016997"
					height="15.95904778730474"
				/>
			
				<rect
					x="60.623229461756374"
					y="85.53986825152302"
					width="0.18328611898016997"
					height="11.460131748476982"
				/>
			
				<rect
					x="60.906515580736546"
					y="82.67917721320435"
					width="0.18328611898016997"
					height="14.320822786795645"
				/>
			
				<rect
					x="61.18980169971672"
					y="83.11194933038773"
					width="0.18328611898016997"
					height="13.88805066961227"
				/>
			
				<rect
					x="61.47308781869688"
					y="80.93710108219997"
					width="0.18328611898016997"
					height="16.062898917800027"
				/>
			
				<rect
					x="61.756373937677054"
					y="80.83395883314154"
					width="0.18328611898016997"
					height="16.166041166858463"
				/>
			
				<rect
					x="62.039660056657226"
					y="80.49582238777467"
					width="0.18328611898016997"
					height="16.504177612225334"
				/>
			
				<rect
					x="62.3229461756374"
					y="81.18839955155543"
					width="0.18328611898016997"
					height="15.811600448444565"
				/>
			
				<rect
					x="62.60623229461756"
					y="85.15104678342296"
					width="0.18328611898016997"
					height="11.848953216577044"
				/>
			
				<rect
					x="62.889518413597735"
					y="84.06823038866847"
					width="0.18328611898016997"
					height="12.931769611331532"
				/>
			
				<rect
					x="63.172804532577906"
					y="81.38724079458564"
					width="0.18328611898016997"
					height="15.612759205414363"
				/>
			
				<rect
					x="63.45609065155807"
					y="85.50052533177907"
					width="0.18328611898016997"
					height="11.499474668220927"
				/>
			
				<rect
					x="63.73937677053824"
					y="80.55607730990502"
					width="0.18328611898016997"
					height="16.44392269009498"
				/>
			
				<rect
					x="64.02266288951841"
					y="78.53222080776159"
					width="0.18328611898016997"
					height="18.46777919223841"
				/>
			
				<rect
					x="64.30594900849859"
					y="82.02346188413861"
					width="0.18328611898016997"
					height="14.976538115861388"
				/>
			
				<rect
					x="64.58923512747876"
					y="86.36713288830109"
					width="0.18328611898016997"
					height="10.632867111698914"
				/>
			
				<rect
					x="64.87252124645893"
					y="88.08014488039552"
					width="0.18328611898016997"
					height="8.919855119604478"
				/>
			
				<rect
					x="65.15580736543909"
					y="86.74213116838301"
					width="0.18328611898016997"
					height="10.257868831616989"
				/>
			
				<rect
					x="65.43909348441926"
					y="85.18578197382753"
					width="0.18328611898016997"
					height="11.814218026172469"
				/>
			
				<rect
					x="65.72237960339943"
					y="83.50998625716656"
					width="0.18328611898016997"
					height="13.49001374283344"
				/>
			
				<rect
					x="66.0056657223796"
					y="80.13996390648708"
					width="0.18328611898016997"
					height="16.860036093512917"
				/>
			
				<rect
					x="66.28895184135978"
					y="83.13995014714243"
					width="0.18328611898016997"
					height="13.860049852857571"
				/>
			
				<rect
					x="66.57223796033995"
					y="85.18188312592497"
					width="0.18328611898016997"
					height="11.81811687407503"
				/>
			
				<rect
					x="66.85552407932012"
					y="83.92574521986607"
					width="0.18328611898016997"
					height="13.074254780133927"
				/>
			
				<rect
					x="67.13881019830029"
					y="83.09989834596166"
					width="0.18328611898016997"
					height="13.900101654038338"
				/>
			
				<rect
					x="67.42209631728045"
					y="83.08182186932255"
					width="0.18328611898016997"
					height="13.918178130677447"
				/>
			
				<rect
					x="67.70538243626062"
					y="80.9402910486657"
					width="0.18328611898016997"
					height="16.0597089513343"
				/>
			
				<rect
					x="67.98866855524079"
					y="79.67245659889915"
					width="0.18328611898016997"
					height="17.327543401100854"
				/>
			
				<rect
					x="68.27195467422096"
					y="82.18047912239598"
					width="0.18328611898016997"
					height="14.81952087760402"
				/>
			
				<rect
					x="68.55524079320114"
					y="84.11395324134386"
					width="0.18328611898016997"
					height="12.886046758656136"
				/>
			
				<rect
					x="68.83852691218131"
					y="77.5234825231556"
					width="0.18328611898016997"
					height="19.476517476844407"
				/>
			
				<rect
					x="69.12181303116148"
					y="83.74710709778546"
					width="0.18328611898016997"
					height="13.25289290221454"
				/>
			
				<rect
					x="69.40509915014164"
					y="82.2726337091836"
					width="0.18328611898016997"
					height="14.727366290816406"
				/>
			
				<rect
					x="69.68838526912181"
					y="80.97857064625441"
					width="0.18328611898016997"
					height="16.02142935374559"
				/>
			
				<rect
					x="69.97167138810198"
					y="77.65427114825033"
					width="0.18328611898016997"
					height="19.34572885174967"
				/>
			
				<rect
					x="70.25495750708215"
					y="81.86644464588124"
					width="0.18328611898016997"
					height="15.133555354118755"
				/>
			
				<rect
					x="70.53824362606233"
					y="83.78007008459795"
					width="0.18328611898016997"
					height="13.219929915402048"
				/>
			
				<rect
					x="70.8215297450425"
					y="83.7580947600563"
					width="0.18328611898016997"
					height="13.241905239943705"
				/>
			
				<rect
					x="71.10481586402267"
					y="81.51200392746733"
					width="0.18328611898016997"
					height="15.487996072532667"
				/>
			
				<rect
					x="71.38810198300284"
					y="82.09293226494773"
					width="0.18328611898016997"
					height="14.907067735052266"
				/>
			
				<rect
					x="71.671388101983"
					y="80.54757073266309"
					width="0.18328611898016997"
					height="16.45242926733691"
				/>
			
				<rect
					x="71.95467422096317"
					y="78.00906630738265"
					width="0.18328611898016997"
					height="18.990933692617347"
				/>
			
				<rect
					x="72.23796033994334"
					y="80.06517691490176"
					width="0.18328611898016997"
					height="16.934823085098245"
				/>
			
				<rect
					x="72.52124645892351"
					y="84.57224509025305"
					width="0.18328611898016997"
					height="12.427754909746952"
				/>
			
				<rect
					x="72.80453257790369"
					y="74.878645882351"
					width="0.18328611898016997"
					height="22.121354117649005"
				/>
			
				<rect
					x="73.08781869688386"
					y="81.80796192734296"
					width="0.18328611898016997"
					height="15.192038072657041"
				/>
			
				<rect
					x="73.37110481586403"
					y="78.20861643184969"
					width="0.18328611898016997"
					height="18.79138356815031"
				/>
			
				<rect
					x="73.65439093484419"
					y="77.01556897366846"
					width="0.18328611898016997"
					height="19.984431026331535"
				/>
			
				<rect
					x="73.93767705382436"
					y="76.10146636087899"
					width="0.18328611898016997"
					height="20.898533639121013"
				/>
			
				<rect
					x="74.22096317280453"
					y="78.69384577535834"
					width="0.18328611898016997"
					height="18.30615422464166"
				/>
			
				<rect
					x="74.5042492917847"
					y="81.12708130726983"
					width="0.18328611898016997"
					height="15.872918692730167"
				/>
			
				<rect
					x="74.78753541076487"
					y="79.98117446463766"
					width="0.18328611898016997"
					height="17.01882553536234"
				/>
			
				<rect
					x="75.07082152974505"
					y="77.72055156259374"
					width="0.18328611898016997"
					height="19.27944843740626"
				/>
			
				<rect
					x="75.35410764872522"
					y="75.7856596807722"
					width="0.18328611898016997"
					height="21.2143403192278"
				/>
			
				<rect
					x="75.63739376770539"
					y="73.83623572949568"
					width="0.18328611898016997"
					height="23.163764270504316"
				/>
			
				<rect
					x="75.92067988668555"
					y="72.0250436584006"
					width="0.18328611898016997"
					height="24.974956341599395"
				/>
			
				<rect
					x="76.20396600566572"
					y="78.29935325576365"
					width="0.18328611898016997"
					height="18.70064674423635"
				/>
			
				<rect
					x="76.48725212464589"
					y="80.02866952090513"
					width="0.18328611898016997"
					height="16.971330479094874"
				/>
			
				<rect
					x="76.77053824362606"
					y="73.80539938699368"
					width="0.18328611898016997"
					height="23.194600613006315"
				/>
			
				<rect
					x="77.05382436260624"
					y="75.52301910842749"
					width="0.18328611898016997"
					height="21.47698089157251"
				/>
			
				<rect
					x="77.33711048158641"
					y="74.23179157124561"
					width="0.18328611898016997"
					height="22.76820842875439"
				/>
			
				<rect
					x="77.62039660056658"
					y="70.37157770699972"
					width="0.18328611898016997"
					height="26.628422293000284"
				/>
			
				<rect
					x="77.90368271954674"
					y="66.82610720070537"
					width="0.18328611898016997"
					height="30.173892799294634"
				/>
			
				<rect
					x="78.18696883852691"
					y="69.10622434226205"
					width="0.18328611898016997"
					height="27.893775657737947"
				/>
			
				<rect
					x="78.47025495750708"
					y="75.83563582206855"
					width="0.18328611898016997"
					height="21.164364177931446"
				/>
			
				<rect
					x="78.75354107648725"
					y="70.59522980031889"
					width="0.18328611898016997"
					height="26.40477019968111"
				/>
			
				<rect
					x="79.03682719546742"
					y="70.63067387216029"
					width="0.18328611898016997"
					height="26.369326127839713"
				/>
			
				<rect
					x="79.3201133144476"
					y="67.96279858465877"
					width="0.18328611898016997"
					height="29.03720141534123"
				/>
			
				<rect
					x="79.60339943342777"
					y="64.81890941232739"
					width="0.18328611898016997"
					height="32.181090587672614"
				/>
			
				<rect
					x="79.88668555240794"
					y="61.621854132233906"
					width="0.18328611898016997"
					height="35.378145867766094"
				/>
			
				<rect
					x="80.1699716713881"
					y="67.14368608440422"
					width="0.18328611898016997"
					height="29.856313915595777"
				/>
			
				<rect
					x="80.45325779036827"
					y="70.69199211644589"
					width="0.18328611898016997"
					height="26.30800788355411"
				/>
			
				<rect
					x="80.73654390934844"
					y="63.77508149659842"
					width="0.18328611898016997"
					height="33.22491850340158"
				/>
			
				<rect
					x="81.01983002832861"
					y="64.16815625331944"
					width="0.18328611898016997"
					height="32.83184374668056"
				/>
			
				<rect
					x="81.30311614730878"
					y="58.76187197535206"
					width="0.18328611898016997"
					height="38.23812802464794"
				/>
			
				<rect
					x="81.58640226628896"
					y="53.92092064325487"
					width="0.18328611898016997"
					height="43.07907935674513"
				/>
			
				<rect
					x="81.86968838526913"
					y="49.90475286290685"
					width="0.18328611898016997"
					height="47.09524713709315"
				/>
			
				<rect
					x="82.15297450424929"
					y="52.36457144869939"
					width="0.18328611898016997"
					height="44.63542855130061"
				/>
			
				<rect
					x="82.43626062322946"
					y="60.345158664507004"
					width="0.18328611898016997"
					height="36.654841335492996"
				/>
			
				<rect
					x="82.71954674220963"
					y="50.766398249371065"
					width="0.18328611898016997"
					height="46.233601750628935"
				/>
			
				<rect
					x="83.0028328611898"
					y="47.47045400884011"
					width="0.18328611898016997"
					height="49.52954599115989"
				/>
			
				<rect
					x="83.28611898016997"
					y="46.3645989673887"
					width="0.18328611898016997"
					height="50.6354010326113"
				/>
			
				<rect
					x="83.56940509915015"
					y="39.052132505791306"
					width="0.18328611898016997"
					height="57.947867494208694"
				/>
			
				<rect
					x="83.85269121813032"
					y="32.63604662106269"
					width="0.18328611898016997"
					height="64.36395337893731"
				/>
			
				<rect
					x="84.13597733711049"
					y="40.6010384452601"
					width="0.18328611898016997"
					height="56.3989615547399"
				/>
			
				<rect
					x="84.41926345609065"
					y="49.08422259977864"
					width="0.18328611898016997"
					height="47.91577740022136"
				/>
			
				<rect
					x="84.70254957507082"
					y="38.00192465713089"
					width="0.18328611898016997"
					height="58.99807534286911"
				/>
			
				<rect
					x="84.98583569405099"
					y="39.670986000142"
					width="0.18328611898016997"
					height="57.329013999858"
				/>
			
				<rect
					x="85.26912181303116"
					y="35.93588970949621"
					width="0.18328611898016997"
					height="61.06411029050379"
				/>
			
				<rect
					x="85.55240793201133"
					y="30.552998518944136"
					width="0.18328611898016997"
					height="66.44700148105586"
				/>
			
				<rect
					x="85.8356940509915"
					y="26.58255359127152"
					width="0.18328611898016997"
					height="70.41744640872848"
				/>
			
				<rect
					x="86.11898016997168"
					y="36.0351331106521"
					width="0.18328611898016997"
					height="60.9648668893479"
				/>
			
				<rect
					x="86.40226628895184"
					y="47.011807719212506"
					width="0.18328611898016997"
					height="49.988192280787494"
				/>
			
				<rect
					x="86.68555240793201"
					y="33.52002177278699"
					width="0.18328611898016997"
					height="63.47997822721301"
				/>
			
				<rect
					x="86.96883852691218"
					y="33.80676431398384"
					width="0.18328611898016997"
					height="63.19323568601616"
				/>
			
				<rect
					x="87.25212464589235"
					y="33.0106904604262"
					width="0.18328611898016997"
					height="63.9893095395738"
				/>
			
				<rect
					x="87.53541076487252"
					y="60.45574416865214"
					width="0.18328611898016997"
					height="36.54425583134786"
				/>
			
				<rect
					x="87.8186968838527"
					y="24.175901113241054"
					width="0.18328611898016997"
					height="72.82409888675895"
				/>
			
				<rect
					x="88.10198300283287"
					y="43.39261354348806"
					width="0.18328611898016997"
					height="53.60738645651194"
				/>
			
				<rect
					x="88.38526912181304"
					y="48.67626133288423"
					width="0.18328611898016997"
					height="48.32373866711577"
				/>
			
				<rect
					x="88.6685552407932"
					y="37.539025078882325"
					width="0.18328611898016997"
					height="59.460974921117675"
				/>
			
				<rect
					x="88.95184135977337"
					y="31.681537766374035"
					width="0.18328611898016997"
					height="65.31846223362597"
				/>
			
				<rect
					x="89.23512747875354"
					y="25.691489625178946"
					width="0.18328611898016997"
					height="71.30851037482105"
				/>
			
				<rect
					x="89.51841359773371"
					y="19.746455455222417"
					width="0.18328611898016997"
					height="77.25354454477758"
				/>
			
				<rect
					x="89.80169971671388"
					y="15.06004027635369"
					width="0.18328611898016997"
					height="81.93995972364631"
				/>
			
				<rect
					x="90.08498583569406"
					y="24.07134110130896"
					width="0.18328611898016997"
					height="72.92865889869104"
				/>
			
				<rect
					x="90.36827195467423"
					y="35.97984035857953"
					width="0.18328611898016997"
					height="61.02015964142047"
				/>
			
				<rect
					x="90.6515580736544"
					y="24.643762861547415"
					width="0.18328611898016997"
					height="72.35623713845258"
				/>
			
				<rect
					x="90.93484419263456"
					y="19.05671381718895"
					width="0.18328611898016997"
					height="77.94328618281105"
				/>
			
				<rect
					x="91.21813031161473"
					y="19.137171860268907"
					width="0.18328611898016997"
					height="77.86282813973109"
				/>
			
				<rect
					x="91.5014164305949"
					y="17.161519295829763"
					width="0.18328611898016997"
					height="79.83848070417024"
				/>
			
				<rect
					x="91.78470254957507"
					y="-2.425583685159779"
					width="0.18328611898016997"
					height="99.42558368515978"
				/>
			
				<rect
					x="92.06798866855524"
					y="23.473399609344682"
					width="0.18328611898016997"
					height="73.52660039065532"
				/>
			
				<rect
					x="92.35127478753542"
					y="31.69500651367376"
					width="0.18328611898016997"
					height="65.30499348632624"
				/>
			
				<rect
					x="92.63456090651559"
					y="25.731541426359712"
					width="0.18328611898016997"
					height="71.26845857364029"
				/>
			
				<rect
					x="92.91784702549575"
					y="25.048534161976107"
					width="0.18328611898016997"
					height="71.95146583802389"
				/>
			
				<rect
					x="93.20113314447592"
					y="10.150327444884198"
					width="0.18328611898016997"
					height="86.8496725551158"
				/>
			
				<rect
					x="93.48441926345609"
					y="12.485382897795034"
					width="0.18328611898016997"
					height="84.51461710220497"
				/>
			
				<rect
					x="93.76770538243626"
					y="7.967681500891331"
					width="0.18328611898016997"
					height="89.03231849910867"
				/>
			
				<rect
					x="94.05099150141643"
					y="28.257285985777244"
					width="0.18328611898016997"
					height="68.74271401422276"
				/>
			
				<rect
					x="94.3342776203966"
					y="33.21626607710627"
					width="0.18328611898016997"
					height="63.78373392289373"
				/>
			
				<rect
					x="94.61756373937678"
					y="25.555384389308003"
					width="0.18328611898016997"
					height="71.444615610692"
				/>
			
				<rect
					x="94.90084985835695"
					y="25.51852255459295"
					width="0.18328611898016997"
					height="71.48147744540705"
				/>
			
				<rect
					x="95.1841359773371"
					y="16.27612638123182"
					width="0.18328611898016997"
					height="80.72387361876818"
				/>
			
				<rect
					x="95.46742209631728"
					y="28.395517865958666"
					width="0.18328611898016997"
					height="68.60448213404133"
				/>
			
				<rect
					x="95.75070821529745"
					y="61.203614084505496"
					width="0.18328611898016997"
					height="35.796385915494504"
				/>
			
				<rect
					x="96.03399433427762"
					y="20.136694686196137"
					width="0.18328611898016997"
					height="76.86330531380386"
				/>
			
				<rect
					x="96.3172804532578"
					y="43.08885784780734"
					width="0.18328611898016997"
					height="53.91114215219266"
				/>
			
				<rect
					x="96.60056657223797"
					y="29.995108828160653"
					width="0.18328611898016997"
					height="67.00489117183935"
				/>
			
				<rect
					x="96.88385269121814"
					y="25.719844882652055"
					width="0.18328611898016997"
					height="71.28015511734795"
				/>
			
				<rect
					x="97.1671388101983"
					y="15.819606735914704"
					width="0.18328611898016997"
					height="81.1803932640853"
				/>
			
				<rect
					x="97.45042492917847"
					y="15.108244214057976"
					width="0.18328611898016997"
					height="81.89175578594202"
				/>
			
				<rect
					x="97.73371104815864"
					y="44.8408583189273"
					width="0.18328611898016997"
					height="52.1591416810727"
				/>
			
				<rect
					x="98.01699716713881"
					y="-6.278354294318987"
					width="0.18328611898016997"
					height="103.27835429431899"
				/>
			
				<rect
					x="98.30028328611898"
					y="25.410063694758293"
					width="0.18328611898016997"
					height="71.58993630524171"
				/>
			
				<rect
					x="98.58356940509915"
					y="7.7100030986044175"
					width="0.18328611898016997"
					height="89.28999690139558"
				/>
			
				<rect
					x="98.86685552407933"
					y="13.68835469609185"
					width="0.18328611898016997"
					height="83.31164530390815"
				/>
			
				<rect
					x="99.1501416430595"
					y="6.359583961447413"
					width="0.18328611898016997"
					height="90.64041603855259"
				/>
			
				<rect
					x="99.43342776203966"
					y="-2.34689784567189"
					width="0.18328611898016997"
					height="99.34689784567189"
				/>
			
				<rect
					x="99.71671388101983"
					y="-9.54275331091111"
					width="0.18328611898016997"
					height="106.54275331091111"
				/>
			
		</g>

		<path class="rolling-area" d="M0,97L0,97L0.28328611898017,97L0.56657223796034,97L0.8498583569405099,97L1.13314447592068,97L1.41643059490085,97L1.6997167138810199,97L1.9830028328611897,97L2.26628895184136,97L2.54957507082153,97L2.8328611898017,97L3.1161473087818696,97L3.3994334277620397,97L3.68271954674221,97L3.9660056657223794,97L4.2492917847025495,97L4.53257790368272,97L4.81586402266289,97L5.09915014164306,97L5.38243626062323,97L5.6657223796034,97L5.949008498583569,97L6.232294617563739,97L6.515580736543909,97L6.798866855524079,97L7.0821529745042495,97L7.36543909348442,97L7.64872521246459,97L7.932011331444759,97L8.215297450424929,97L8.498583569405099,97L8.78186968838527,97L9.06515580736544,97L9.34844192634561,97L9.63172804532578,97L9.91501416430595,97L10.19830028328612,97L10.48158640226629,97L10.76487252124646,97L11.04815864022663,96.99554417382565L11.3314447592068,96.99473402361214L11.614730878186968,96.99367070145689L11.898016997167138,96.99184786347648L12.181303116147308,96.98845535945738L12.464589235127479,96.98425270522475L12.747875354107649,96.97832848178841L13.031161473087819,96.97675881574972L13.314447592067989,96.96739145390592L13.597733711048159,96.95478349120805L13.881019830028329,96.94420090404398L14.164305949008499,96.92708648078343L14.44759206798867,96.90313641509631L14.73087818696884,96.87493306078824L15.01416430594901,96.84541321238319L15.29745042492918,96.80966533421173L15.58073654390935,96.7524991097704L15.864022662889518,96.64115408980008L16.14730878186969,96.45694618500154L16.430594900849858,96.2005842768116L16.71388101983003,95.90477818010102L16.997167138810198,95.5076526723124L17.28045325779037,95.02536012332776L17.56373937677054,94.56792905902043L17.84702549575071,93.95069586509678L18.13031161473088,93.29472736408933L18.413597733711047,92.70174804218284L18.69688385269122,91.96501769176537L18.980169971671387,91.45993966802554L19.26345609065156,90.90108792386349L19.546742209631727,90.18851017668649L19.8300283286119,89.56590973759829L20.113314447592067,88.92189095224022L20.39660056657224,88.16298273972768L20.679886685552407,87.45243036808449L20.96317280453258,87.09312874838947L21.246458923512748,86.61478568169572L21.52974504249292,86.31953656325693L21.813031161473088,86.07193440425064L22.09631728045326,85.81967388151664L22.379603399433428,85.76119116297834L22.6628895184136,85.93228476119556L22.946175637393768,85.85496605019298L23.229461756373937,86.1155812470039L23.51274787535411,86.30019422690921L23.796033994334277,86.39067787888145L24.07932011331445,86.54693560131363L24.362606232294617,86.6463815400229L24.64589235127479,86.81458897810448L24.929178470254957,86.90618658662031L25.21246458923513,86.82385507117158L25.495750708215297,86.88345174625347L25.77903682719547,86.94431428104397L26.062322946175637,86.83479209905407L26.34560906515581,86.56987297923385L26.628895184135978,86.26556030528133L26.91218130311615,86.1946215272102L27.195467422096318,86.40718468948187L27.478753541076486,86.45088216662346L27.762039660056658,86.56612603449634L28.045325779036826,86.73924500824735L28.328611898016998,86.87955289835091L28.611898016997166,87.12938297044438L28.89518413597734,87.15951043150956L29.178470254957507,87.22204390111544L29.46175637393768,87.26974149493628L29.745042492917847,87.37349135665487L30.02832861189802,87.46863337235483L30.311614730878187,87.78874397547094L30.59490084985836,88.02196596818729L30.878186968838527,88.31681001151932L31.1614730878187,88.5366138913243L31.444759206798867,88.60795774450219L31.728045325779036,88.7781399237292L32.01133144475921,88.85490165645999L32.29461756373938,88.92634677841455L32.577903682719544,88.98756375392348L32.861189801699716,89.05354036193681L33.14447592067989,88.84057212455839L33.42776203966006,88.90756142033862L33.711048158640224,88.8100902227748L33.994334277620396,88.8723198860506L34.27762039660057,88.99576652483535L34.56090651558074,89.06619895902303L34.844192634560905,89.01470378607631L35.12747875354108,89.1527837630927L35.41076487252125,89.25815392523833L35.69405099150142,89.47719828921812L35.977337110481585,89.64029165407686L36.26062322946176,89.60236649720657L36.54390934844193,89.54520027276524L36.827195467422094,89.51466773659331L37.110481586402265,89.37304335239278L37.39376770538244,89.2770911864793L37.67705382436261,89.21415264176666L37.960339943342774,89.25952105372363L38.243626062322946,89.04883136382074L38.52691218130312,89.09344025995254L38.81019830028329,89.19562045563245L39.093484419263454,89.38246134862491L39.376770538243626,89.48302124387779L39.6600566572238,89.3379537212698L39.94334277620397,89.25764758135487L40.226628895184135,89.42048777427189L40.50991501416431,89.27780006791613L40.79320113314448,89.25177399230688L41.07648725212464,89.15506231056823L41.359773371104815,88.84720522943157L41.64305949008499,88.70527703890097L41.92634560906516,88.45934581471006L42.20963172804532,88.18880627778356L42.492917847025495,87.85001158536821L42.77620396600567,87.48296290425642L43.05949008498584,86.95894761927563L43.342776203966004,86.44374271786684L43.626062322946176,85.86985256036637L43.90934844192635,85.20583319161209L44.19263456090652,84.46191275804964L44.475920679886684,83.9416950521947L44.759206798866856,83.27691616761524L45.04249291784703,82.81968764086129L45.3257790368272,82.14478187861286L45.609065155807365,81.4872437115667L45.892351274787536,80.75881740083778L46.17563739376771,80.17014200194062L46.45892351274787,79.7799027709669L46.742209631728045,79.51361652266137L47.02549575070822,79.11765560580469L47.30878186968839,78.82929276418079L47.59206798866855,78.34927876267167L47.875354107648725,78.13003186113849L48.1586402266289,77.56935727899602L48.44192634560907,77.02680980788102L48.725212464589234,76.36663865264094L49.008498583569406,75.64504798433856L49.29178470254958,75.06184109938265L49.57507082152975,74.61185329016202L49.858356940509914,73.81193122309017L50.141643059490086,73.67542091211246L50.42492917847026,73.58782342027588L50.70821529745042,73.36148770437443L50.991501416430594,73.44650284240542L51.274787535410766,73.4629590186175L51.55807365439094,73.39222277809975L51.8413597733711,73.67987673828681L52.124645892351275,73.54812605981353L52.40793201133145,73.32913233022207L52.69121813031162,73.73714423150483L52.97450424929178,73.77294274406464L53.257790368271955,73.88236365727784L53.54107648725213,74.0404948520788L53.8243626062323,74.08566072648239L54.107648725212464,74.31032550756846L54.390934844192635,74.81403640282298L54.67422096317281,74.98735791412739L54.95750708215297,75.57962835459702L55.240793201133144,76.06404754789216L55.524079320113316,76.71687671682223L55.80736543909349,77.30423562162242L56.09065155807365,77.70581695558539L56.373937677053824,77.786224364277L56.657223796033996,77.90339233890697L56.94050991501417,77.91913963368222L57.22379603399433,77.92886143624443L57.507082152974505,77.90075935071303L57.79036827195468,78.07559989366779L58.07365439093485,78.16066566608713L58.35694050991501,78.3883685104739L58.640226628895185,78.70954243574523L58.92351274787536,79.19816428327299L59.20679886685552,79.71078683087619L59.49008498583569,80.28118321558087L59.773371104815865,80.68787862276665L60.05665722379604,81.21690671219359L60.3399433427762,81.50638351036106L60.623229461756374,82.00280305369391L60.906515580736546,81.85692538087241L61.18980169971672,82.06199465366905L61.47308781869688,81.94523175414582L61.756373937677054,81.96644756286231L62.039660056657226,82.09126133013235L62.3229461756374,82.11232523568381L62.60623229461756,82.05677931166952L62.889518413597735,82.25521547959296L63.172804532577906,82.00882854590695L63.45609065155807,82.66074629584682L63.73937677053824,82.62104893538447L64.02266288951841,82.34053442395403L64.30594900849859,82.45982904289448L64.58923512747876,82.63355562930565L64.87252124645893,83.20668627098094L65.15580736543909,83.97167061009485L65.43909348441926,83.92670727324463L65.72237960339943,84.34869426571056L66.0056657223796,84.57837185124278L66.28895184135978,84.73787017452904L66.57223796033995,84.56854877990386L66.85552407932012,83.97506311411395L67.13881019830029,83.45474413948233L67.42209631728045,83.15417841026733L67.70538243626062,82.78707909476721L67.98866855524079,82.72029233654037L68.27195467422096,82.58322504729087L68.55524079320114,82.43066363520785L68.83852691218131,82.18148337109815L69.12181303116148,82.28935149640212L69.40509915014164,82.15448680304561L69.68838526912181,82.16086673597707L69.97167138810198,81.82450249420228L70.25495750708215,81.77216341478315L70.53824362606233,81.71651622199217L70.8215297450425,82.00817029885847L71.10481586402267,81.68886984595588L71.38810198300284,81.66319821106504L71.671388101983,81.60162679483771L71.95467422096317,81.6523118175709L72.23796033994334,81.3949878560024L72.52124645892351,81.50815571395313L72.80453257790369,80.2396630171381L73.08781869688386,80.28194273140603L73.37110481586403,79.72704046953488L73.65439093484419,79.22246878967852L73.93767705382436,78.94995451160656L74.22096317280453,78.75405006310035L74.5042492917847,78.26188380838846L74.78753541076487,78.99081646300084L75.07082152974505,78.4069006966081L75.35410764872522,78.06076401788275L75.63739376770539,77.60657355442949L75.92067988668555,77.02422745407543L76.20396600566572,76.96787137984762L76.48725212464589,76.81095541036694L76.77053824362606,75.92870182784638L77.05382436260624,75.61476862010835L77.33711048158641,75.39278746160454L77.62039660056658,74.8978363155337L77.90368271954674,74.15513110729151L78.18696883852691,72.84182697679128L78.47025495750708,72.24282216267179L78.75354107648725,71.78422650743252L79.03682719546742,71.08532004510863L79.3201133144476,70.18974961845338L79.60339943342777,69.39651129064305L79.88668555240794,68.65304656657568L80.1699716713881,68.37268395831029L80.45325779036827,67.6378777146499L80.73654390934844,66.6635708141184L81.01983002832861,65.74035401142686L81.30311614730878,64.42593592438305L81.58640226628896,62.869080385944116L81.86968838526913,61.195208776040246L82.15297450424929,59.08390668522527L82.43626062322946,57.605787620662575L82.71954674220963,55.74740429963009L83.0028328611898,53.362018264704474L83.28611898016997,51.59097926356685L83.56940509915015,49.46686667250063L83.85269121813032,46.99990863795147L84.13597733711049,45.31940392317443L84.41926345609065,43.710698771070376L84.70254957507082,41.88720254360749L84.98583569405099,40.7729928280792L85.26912181303116,39.28317721980883L85.55240793201133,38.069015221687806L85.8356940509915,37.20423050314621L86.11898016997168,36.55195831248793L86.40226628895184,36.25589904383562L86.68555240793201,35.61562720321507L86.96883852691218,34.77788124804961L87.25212464589235,34.35999564103961L87.53541076487252,38.63181644814076L87.8186968838527,38.28800895127927L88.10198300283287,39.33907758454154L88.38526912181304,39.57685667220893L88.6685552407932,40.15100000165112L88.95184135977337,39.84739620913544L89.23512747875354,38.8017960898144L89.51841359773371,32.986183416467284L89.80169971671388,31.68391758262625L90.08498583569406,28.923735805172086L90.36827195467423,27.109961380271415L90.6515580736544,25.267781063509275L90.93484419263456,23.464234785054273L91.21813031161473,22.527903675781417L91.5014164305949,22.158627081582452L91.78470254957507,23.341724882453917L92.06798866855524,23.242067967126545L92.35127478753542,22.527928992975575L92.63456090651559,22.709225420444298L92.91784702549575,23.707862144575486L93.20113314447592,22.210054742011366L93.48441926345609,21.43069867567226L93.76770538243626,19.5074105078464L94.05099150141643,20.190822847336776L94.3342776203966,20.408145642112842L94.61756373937678,20.382980351105445L94.90084985835695,20.45012155005071L95.1841359773371,21.325235683814668L95.46742209631728,23.598112107838034L95.75070821529745,31.203245334068626L96.03399433427762,30.043160862699906L96.3172804532578,31.4535311156572L96.60056657223797,32.08777746406473L96.88385269121814,32.11653779664459L97.1671388101983,32.05132070445643L97.45042492917847,30.15313875418491L97.73371104815864,27.815602216245153L98.01699716713881,24.042023790457293L98.30028328611898,21.516481768593138L98.58356940509915,18.332895235799384L98.86685552407933,16.614110923433643L99.1501416430595,15.26267909850975L99.43342776203966,12.7690873756912L99.71671388101983,5L100,97Z"/>
		<path class="rolling-line" d="M0,97L0.28328611898017,97L0.56657223796034,97L0.8498583569405099,97L1.13314447592068,97L1.41643059490085,97L1.6997167138810199,97L1.9830028328611897,97L2.26628895184136,97L2.54957507082153,97L2.8328611898017,97L3.1161473087818696,97L3.3994334277620397,97L3.68271954674221,97L3.9660056657223794,97L4.2492917847025495,97L4.53257790368272,97L4.81586402266289,97L5.09915014164306,97L5.38243626062323,97L5.6657223796034,97L5.949008498583569,97L6.232294617563739,97L6.515580736543909,97L6.798866855524079,97L7.0821529745042495,97L7.36543909348442,97L7.64872521246459,97L7.932011331444759,97L8.215297450424929,97L8.498583569405099,97L8.78186968838527,97L9.06515580736544,97L9.34844192634561,97L9.63172804532578,97L9.91501416430595,97L10.19830028328612,97L10.48158640226629,97L10.76487252124646,97L11.04815864022663,96.99554417382565L11.3314447592068,96.99473402361214L11.614730878186968,96.99367070145689L11.898016997167138,96.99184786347648L12.181303116147308,96.98845535945738L12.464589235127479,96.98425270522475L12.747875354107649,96.97832848178841L13.031161473087819,96.97675881574972L13.314447592067989,96.96739145390592L13.597733711048159,96.95478349120805L13.881019830028329,96.94420090404398L14.164305949008499,96.92708648078343L14.44759206798867,96.90313641509631L14.73087818696884,96.87493306078824L15.01416430594901,96.84541321238319L15.29745042492918,96.80966533421173L15.58073654390935,96.7524991097704L15.864022662889518,96.64115408980008L16.14730878186969,96.45694618500154L16.430594900849858,96.2005842768116L16.71388101983003,95.90477818010102L16.997167138810198,95.5076526723124L17.28045325779037,95.02536012332776L17.56373937677054,94.56792905902043L17.84702549575071,93.95069586509678L18.13031161473088,93.29472736408933L18.413597733711047,92.70174804218284L18.69688385269122,91.96501769176537L18.980169971671387,91.45993966802554L19.26345609065156,90.90108792386349L19.546742209631727,90.18851017668649L19.8300283286119,89.56590973759829L20.113314447592067,88.92189095224022L20.39660056657224,88.16298273972768L20.679886685552407,87.45243036808449L20.96317280453258,87.09312874838947L21.246458923512748,86.61478568169572L21.52974504249292,86.31953656325693L21.813031161473088,86.07193440425064L22.09631728045326,85.81967388151664L22.379603399433428,85.76119116297834L22.6628895184136,85.93228476119556L22.946175637393768,85.85496605019298L23.229461756373937,86.1155812470039L23.51274787535411,86.30019422690921L23.796033994334277,86.39067787888145L24.07932011331445,86.54693560131363L24.362606232294617,86.6463815400229L24.64589235127479,86.81458897810448L24.929178470254957,86.90618658662031L25.21246458923513,86.82385507117158L25.495750708215297,86.88345174625347L25.77903682719547,86.94431428104397L26.062322946175637,86.83479209905407L26.34560906515581,86.56987297923385L26.628895184135978,86.26556030528133L26.91218130311615,86.1946215272102L27.195467422096318,86.40718468948187L27.478753541076486,86.45088216662346L27.762039660056658,86.56612603449634L28.045325779036826,86.73924500824735L28.328611898016998,86.87955289835091L28.611898016997166,87.12938297044438L28.89518413597734,87.15951043150956L29.178470254957507,87.22204390111544L29.46175637393768,87.26974149493628L29.745042492917847,87.37349135665487L30.02832861189802,87.46863337235483L30.311614730878187,87.78874397547094L30.59490084985836,88.02196596818729L30.878186968838527,88.31681001151932L31.1614730878187,88.5366138913243L31.444759206798867,88.60795774450219L31.728045325779036,88.7781399237292L32.01133144475921,88.85490165645999L32.29461756373938,88.92634677841455L32.577903682719544,88.98756375392348L32.861189801699716,89.05354036193681L33.14447592067989,88.84057212455839L33.42776203966006,88.90756142033862L33.711048158640224,88.8100902227748L33.994334277620396,88.8723198860506L34.27762039660057,88.99576652483535L34.56090651558074,89.06619895902303L34.844192634560905,89.01470378607631L35.12747875354108,89.1527837630927L35.41076487252125,89.25815392523833L35.69405099150142,89.47719828921812L35.977337110481585,89.64029165407686L36.26062322946176,89.60236649720657L36.54390934844193,89.54520027276524L36.827195467422094,89.51466773659331L37.110481586402265,89.37304335239278L37.39376770538244,89.2770911864793L37.67705382436261,89.21415264176666L37.960339943342774,89.25952105372363L38.243626062322946,89.04883136382074L38.52691218130312,89.09344025995254L38.81019830028329,89.19562045563245L39.093484419263454,89.38246134862491L39.376770538243626,89.48302124387779L39.6600566572238,89.3379537212698L39.94334277620397,89.25764758135487L40.226628895184135,89.42048777427189L40.50991501416431,89.27780006791613L40.79320113314448,89.25177399230688L41.07648725212464,89.15506231056823L41.359773371104815,88.84720522943157L41.64305949008499,88.70527703890097L41.92634560906516,88.45934581471006L42.20963172804532,88.18880627778356L42.492917847025495,87.85001158536821L42.77620396600567,87.48296290425642L43.05949008498584,86.95894761927563L43.342776203966004,86.44374271786684L43.626062322946176,85.86985256036637L43.90934844192635,85.20583319161209L44.19263456090652,84.46191275804964L44.475920679886684,83.9416950521947L44.759206798866856,83.27691616761524L45.04249291784703,82.81968764086129L45.3257790368272,82.14478187861286L45.609065155807365,81.4872437115667L45.892351274787536,80.75881740083778L46.17563739376771,80.17014200194062L46.45892351274787,79.7799027709669L46.742209631728045,79.51361652266137L47.02549575070822,79.11765560580469L47.30878186968839,78.82929276418079L47.59206798866855,78.34927876267167L47.875354107648725,78.13003186113849L48.1586402266289,77.56935727899602L48.44192634560907,77.02680980788102L48.725212464589234,76.36663865264094L49.008498583569406,75.64504798433856L49.29178470254958,75.06184109938265L49.57507082152975,74.61185329016202L49.858356940509914,73.81193122309017L50.141643059490086,73.67542091211246L50.42492917847026,73.58782342027588L50.70821529745042,73.36148770437443L50.991501416430594,73.44650284240542L51.274787535410766,73.4629590186175L51.55807365439094,73.39222277809975L51.8413597733711,73.67987673828681L52.124645892351275,73.54812605981353L52.40793201133145,73.32913233022207L52.69121813031162,73.73714423150483L52.97450424929178,73.77294274406464L53.257790368271955,73.88236365727784L53.54107648725213,74.0404948520788L53.8243626062323,74.08566072648239L54.107648725212464,74.31032550756846L54.390934844192635,74.81403640282298L54.67422096317281,74.98735791412739L54.95750708215297,75.57962835459702L55.240793201133144,76.06404754789216L55.524079320113316,76.71687671682223L55.80736543909349,77.30423562162242L56.09065155807365,77.70581695558539L56.373937677053824,77.786224364277L56.657223796033996,77.90339233890697L56.94050991501417,77.91913963368222L57.22379603399433,77.92886143624443L57.507082152974505,77.90075935071303L57.79036827195468,78.07559989366779L58.07365439093485,78.16066566608713L58.35694050991501,78.3883685104739L58.640226628895185,78.70954243574523L58.92351274787536,79.19816428327299L59.20679886685552,79.71078683087619L59.49008498583569,80.28118321558087L59.773371104815865,80.68787862276665L60.05665722379604,81.21690671219359L60.3399433427762,81.50638351036106L60.623229461756374,82.00280305369391L60.906515580736546,81.85692538087241L61.18980169971672,82.06199465366905L61.47308781869688,81.94523175414582L61.756373937677054,81.96644756286231L62.039660056657226,82.09126133013235L62.3229461756374,82.11232523568381L62.60623229461756,82.05677931166952L62.889518413597735,82.25521547959296L63.172804532577906,82.00882854590695L63.45609065155807,82.66074629584682L63.73937677053824,82.62104893538447L64.02266288951841,82.34053442395403L64.30594900849859,82.45982904289448L64.58923512747876,82.63355562930565L64.87252124645893,83.20668627098094L65.15580736543909,83.97167061009485L65.43909348441926,83.92670727324463L65.72237960339943,84.34869426571056L66.0056657223796,84.57837185124278L66.28895184135978,84.73787017452904L66.57223796033995,84.56854877990386L66.85552407932012,83.97506311411395L67.13881019830029,83.45474413948233L67.42209631728045,83.15417841026733L67.70538243626062,82.78707909476721L67.98866855524079,82.72029233654037L68.27195467422096,82.58322504729087L68.55524079320114,82.43066363520785L68.83852691218131,82.18148337109815L69.12181303116148,82.28935149640212L69.40509915014164,82.15448680304561L69.68838526912181,82.16086673597707L69.97167138810198,81.82450249420228L70.25495750708215,81.77216341478315L70.53824362606233,81.71651622199217L70.8215297450425,82.00817029885847L71.10481586402267,81.68886984595588L71.38810198300284,81.66319821106504L71.671388101983,81.60162679483771L71.95467422096317,81.6523118175709L72.23796033994334,81.3949878560024L72.52124645892351,81.50815571395313L72.80453257790369,80.2396630171381L73.08781869688386,80.28194273140603L73.37110481586403,79.72704046953488L73.65439093484419,79.22246878967852L73.93767705382436,78.94995451160656L74.22096317280453,78.75405006310035L74.5042492917847,78.26188380838846L74.78753541076487,78.99081646300084L75.07082152974505,78.4069006966081L75.35410764872522,78.06076401788275L75.63739376770539,77.60657355442949L75.92067988668555,77.02422745407543L76.20396600566572,76.96787137984762L76.48725212464589,76.81095541036694L76.77053824362606,75.92870182784638L77.05382436260624,75.61476862010835L77.33711048158641,75.39278746160454L77.62039660056658,74.8978363155337L77.90368271954674,74.15513110729151L78.18696883852691,72.84182697679128L78.47025495750708,72.24282216267179L78.75354107648725,71.78422650743252L79.03682719546742,71.08532004510863L79.3201133144476,70.18974961845338L79.60339943342777,69.39651129064305L79.88668555240794,68.65304656657568L80.1699716713881,68.37268395831029L80.45325779036827,67.6378777146499L80.73654390934844,66.6635708141184L81.01983002832861,65.74035401142686L81.30311614730878,64.42593592438305L81.58640226628896,62.869080385944116L81.86968838526913,61.195208776040246L82.15297450424929,59.08390668522527L82.43626062322946,57.605787620662575L82.71954674220963,55.74740429963009L83.0028328611898,53.362018264704474L83.28611898016997,51.59097926356685L83.56940509915015,49.46686667250063L83.85269121813032,46.99990863795147L84.13597733711049,45.31940392317443L84.41926345609065,43.710698771070376L84.70254957507082,41.88720254360749L84.98583569405099,40.7729928280792L85.26912181303116,39.28317721980883L85.55240793201133,38.069015221687806L85.8356940509915,37.20423050314621L86.11898016997168,36.55195831248793L86.40226628895184,36.25589904383562L86.68555240793201,35.61562720321507L86.96883852691218,34.77788124804961L87.25212464589235,34.35999564103961L87.53541076487252,38.63181644814076L87.8186968838527,38.28800895127927L88.10198300283287,39.33907758454154L88.38526912181304,39.57685667220893L88.6685552407932,40.15100000165112L88.95184135977337,39.84739620913544L89.23512747875354,38.8017960898144L89.51841359773371,32.986183416467284L89.80169971671388,31.68391758262625L90.08498583569406,28.923735805172086L90.36827195467423,27.109961380271415L90.6515580736544,25.267781063509275L90.93484419263456,23.464234785054273L91.21813031161473,22.527903675781417L91.5014164305949,22.158627081582452L91.78470254957507,23.341724882453917L92.06798866855524,23.242067967126545L92.35127478753542,22.527928992975575L92.63456090651559,22.709225420444298L92.91784702549575,23.707862144575486L93.20113314447592,22.210054742011366L93.48441926345609,21.43069867567226L93.76770538243626,19.5074105078464L94.05099150141643,20.190822847336776L94.3342776203966,20.408145642112842L94.61756373937678,20.382980351105445L94.90084985835695,20.45012155005071L95.1841359773371,21.325235683814668L95.46742209631728,23.598112107838034L95.75070821529745,31.203245334068626L96.03399433427762,30.043160862699906L96.3172804532578,31.4535311156572L96.60056657223797,32.08777746406473L96.88385269121814,32.11653779664459L97.1671388101983,32.05132070445643L97.45042492917847,30.15313875418491L97.73371104815864,27.815602216245153L98.01699716713881,24.042023790457293L98.30028328611898,21.516481768593138L98.58356940509915,18.332895235799384L98.86685552407933,16.614110923433643L99.1501416430595,15.26267909850975L99.43342776203966,12.7690873756912L99.71671388101983,5"/>
	</g>

	
</svg>