<?xml version="1.0" encoding="UTF-8"?>
<svg xmlns="http://www.w3.org/2000/svg" viewBox="0 0 100 100" preserveAspectRatio="none">
	<style>
		* { vector-effect: non-scaling-stroke }
		.rolling-line { fill: none; stroke-width: 1.5; stroke-linecap: round; stroke-linejoin: round;}

		.cases rect { fill: #ffdad8; }
		.cases.faded .rolling-line { stroke: #fca9a9; }
		.cases.normal .rolling-line { stroke: #cf1111; }
		.cases.normal .rolling-area { fill: rgba(207, 17, 17, 0.2); }

		.deaths rect { fill: rgba(85, 85, 85, 0.1); }
		.deaths.faded .rolling-line { stroke: #bbb; }
		.deaths.normal .rolling-line { stroke: #555; }
		.deaths.normal .rolling-area { fill: rgba(85, 85, 85, 0.3); }
	</style>

	<g class="cases normal">
		<g>
			
				<rect
					x="0"
					y="97"
					width="0.18328611898016997"
					height="0"
				/>
			
				<rect
					x="0.28328611898017"
					y="97"
					width="0.18328611898016997"
					height="0"
				/>
			
				<rect
					x="0.56657223796034"
					y="97"
					width="0.18328611898016997"
					height="0"
				/>
			
				<rect
					x="0.8498583569405099"
					y="97"
					width="0.18328611898016997"
					height="0"
				/>
			
				<rect
					x="1.13314447592068"
					y="97"
					width="0.18328611898016997"
					height="0"
				/>
			
				<rect
					x="1.41643059490085"
					y="97"
					width="0.18328611898016997"
					height="0"
				/>
			
				<rect
					x="1.6997167138810199"
					y="97"
					width="0.18328611898016997"
					height="0"
				/>
			
				<rect
					x="1.9830028328611897"
					y="97"
					width="0.18328611898016997"
					height="0"
				/>
			
				<rect
					x="2.26628895184136"
					y="96.99901286040559"
					width="0.18328611898016997"
					height="0.0009871395944145434"
				/>
			
				<rect
					x="2.54957507082153"
					y="97"
					width="0.18328611898016997"
					height="0"
				/>
			
				<rect
					x="2.8328611898017"
					y="97"
					width="0.18328611898016997"
					height="0"
				/>
			
				<rect
					x="3.1161473087818696"
					y="96.99901286040559"
					width="0.18328611898016997"
					height="0.0009871395944145434"
				/>
			
				<rect
					x="3.3994334277620397"
					y="96.99901286040559"
					width="0.18328611898016997"
					height="0.0009871395944145434"
				/>
			
				<rect
					x="3.68271954674221"
					y="97"
					width="0.18328611898016997"
					height="0"
				/>
			
				<rect
					x="3.9660056657223794"
					y="97"
					width="0.18328611898016997"
					height="0"
				/>
			
				<rect
					x="4.2492917847025495"
					y="97"
					width="0.18328611898016997"
					height="0"
				/>
			
				<rect
					x="4.53257790368272"
					y="97"
					width="0.18328611898016997"
					height="0"
				/>
			
				<rect
					x="4.81586402266289"
					y="97"
					width="0.18328611898016997"
					height="0"
				/>
			
				<rect
					x="5.09915014164306"
					y="97"
					width="0.18328611898016997"
					height="0"
				/>
			
				<rect
					x="5.38243626062323"
					y="97"
					width="0.18328611898016997"
					height="0"
				/>
			
				<rect
					x="5.6657223796034"
					y="97"
					width="0.18328611898016997"
					height="0"
				/>
			
				<rect
					x="5.949008498583569"
					y="97"
					width="0.18328611898016997"
					height="0"
				/>
			
				<rect
					x="6.232294617563739"
					y="97"
					width="0.18328611898016997"
					height="0"
				/>
			
				<rect
					x="6.515580736543909"
					y="97"
					width="0.18328611898016997"
					height="0"
				/>
			
				<rect
					x="6.798866855524079"
					y="97"
					width="0.18328611898016997"
					height="0"
				/>
			
				<rect
					x="7.0821529745042495"
					y="97"
					width="0.18328611898016997"
					height="0"
				/>
			
				<rect
					x="7.36543909348442"
					y="97"
					width="0.18328611898016997"
					height="0"
				/>
			
				<rect
					x="7.64872521246459"
					y="97"
					width="0.18328611898016997"
					height="0"
				/>
			
				<rect
					x="7.932011331444759"
					y="97"
					width="0.18328611898016997"
					height="0"
				/>
			
				<rect
					x="8.215297450424929"
					y="97"
					width="0.18328611898016997"
					height="0"
				/>
			
				<rect
					x="8.498583569405099"
					y="97"
					width="0.18328611898016997"
					height="0"
				/>
			
				<rect
					x="8.78186968838527"
					y="97"
					width="0.18328611898016997"
					height="0"
				/>
			
				<rect
					x="9.06515580736544"
					y="97"
					width="0.18328611898016997"
					height="0"
				/>
			
				<rect
					x="9.34844192634561"
					y="97"
					width="0.18328611898016997"
					height="0"
				/>
			
				<rect
					x="9.63172804532578"
					y="97"
					width="0.18328611898016997"
					height="0"
				/>
			
				<rect
					x="9.91501416430595"
					y="97"
					width="0.18328611898016997"
					height="0"
				/>
			
				<rect
					x="10.19830028328612"
					y="97"
					width="0.18328611898016997"
					height="0"
				/>
			
				<rect
					x="10.48158640226629"
					y="97"
					width="0.18328611898016997"
					height="0"
				/>
			
				<rect
					x="10.76487252124646"
					y="97"
					width="0.18328611898016997"
					height="0"
				/>
			
				<rect
					x="11.04815864022663"
					y="97"
					width="0.18328611898016997"
					height="0"
				/>
			
				<rect
					x="11.3314447592068"
					y="96.99802572081117"
					width="0.18328611898016997"
					height="0.0019742791888290867"
				/>
			
				<rect
					x="11.614730878186968"
					y="96.99901286040559"
					width="0.18328611898016997"
					height="0.0009871395944145434"
				/>
			
				<rect
					x="11.898016997167138"
					y="96.97828292892288"
					width="0.18328611898016997"
					height="0.021717071077119954"
				/>
			
				<rect
					x="12.181303116147308"
					y="96.99802572081117"
					width="0.18328611898016997"
					height="0.0019742791888290867"
				/>
			
				<rect
					x="12.464589235127479"
					y="96.99901286040559"
					width="0.18328611898016997"
					height="0.0009871395944145434"
				/>
			
				<rect
					x="12.747875354107649"
					y="96.99703858121676"
					width="0.18328611898016997"
					height="0.00296141878324363"
				/>
			
				<rect
					x="13.031161473087819"
					y="96.99506430202793"
					width="0.18328611898016997"
					height="0.004935697972072717"
				/>
			
				<rect
					x="13.314447592067989"
					y="96.99111574365027"
					width="0.18328611898016997"
					height="0.00888425634973089"
				/>
			
				<rect
					x="13.597733711048159"
					y="96.98519290608378"
					width="0.18328611898016997"
					height="0.01480709391621815"
				/>
			
				<rect
					x="13.881019830028329"
					y="96.99210288324468"
					width="0.18328611898016997"
					height="0.007897116755316347"
				/>
			
				<rect
					x="14.164305949008499"
					y="96.99012860405585"
					width="0.18328611898016997"
					height="0.009871395944145434"
				/>
			
				<rect
					x="14.44759206798867"
					y="96.99012860405585"
					width="0.18328611898016997"
					height="0.009871395944145434"
				/>
			
				<rect
					x="14.73087818696884"
					y="96.98914146446144"
					width="0.18328611898016997"
					height="0.010858535538559977"
				/>
			
				<rect
					x="15.01416430594901"
					y="96.99012860405585"
					width="0.18328611898016997"
					height="0.009871395944145434"
				/>
			
				<rect
					x="15.29745042492918"
					y="96.9861800456782"
					width="0.18328611898016997"
					height="0.013819954321803607"
				/>
			
				<rect
					x="15.58073654390935"
					y="96.98025720811171"
					width="0.18328611898016997"
					height="0.019742791888290867"
				/>
			
				<rect
					x="15.864022662889518"
					y="96.97532151013964"
					width="0.18328611898016997"
					height="0.024678489860363584"
				/>
			
				<rect
					x="16.14730878186969"
					y="96.97334723095081"
					width="0.18328611898016997"
					height="0.02665276904919267"
				/>
			
				<rect
					x="16.430594900849858"
					y="96.94274590352397"
					width="0.18328611898016997"
					height="0.057254096476029304"
				/>
			
				<rect
					x="16.71388101983003"
					y="96.92300311163568"
					width="0.18328611898016997"
					height="0.07699688836432017"
				/>
			
				<rect
					x="16.997167138810198"
					y="96.93188736798541"
					width="0.18328611898016997"
					height="0.06811263201458928"
				/>
			
				<rect
					x="17.28045325779037"
					y="96.90720887812505"
					width="0.18328611898016997"
					height="0.09279112187495286"
				/>
			
				<rect
					x="17.56373937677054"
					y="96.92695167001334"
					width="0.18328611898016997"
					height="0.073048329986662"
				/>
			
				<rect
					x="17.84702549575071"
					y="96.91510599488036"
					width="0.18328611898016997"
					height="0.08489400511963652"
				/>
			
				<rect
					x="18.13031161473088"
					y="96.92793880960775"
					width="0.18328611898016997"
					height="0.07206119039224745"
				/>
			
				<rect
					x="18.413597733711047"
					y="96.8489676420546"
					width="0.18328611898016997"
					height="0.1510323579453967"
				/>
			
				<rect
					x="18.69688385269122"
					y="96.86574901515965"
					width="0.18328611898016997"
					height="0.13425098484034947"
				/>
			
				<rect
					x="18.980169971671387"
					y="96.88154324867027"
					width="0.18328611898016997"
					height="0.11845675132973099"
				/>
			
				<rect
					x="19.26345609065156"
					y="96.81540489584451"
					width="0.18328611898016997"
					height="0.18459510415549119"
				/>
			
				<rect
					x="19.546742209631727"
					y="96.69497386532595"
					width="0.18328611898016997"
					height="0.30502613467405126"
				/>
			
				<rect
					x="19.8300283286119"
					y="96.5814528119683"
					width="0.18328611898016997"
					height="0.4185471880316953"
				/>
			
				<rect
					x="20.113314447592067"
					y="96.5202501571146"
					width="0.18328611898016997"
					height="0.479749842885397"
				/>
			
				<rect
					x="20.39660056657224"
					y="96.44720182712794"
					width="0.18328611898016997"
					height="0.552798172872059"
				/>
			
				<rect
					x="20.679886685552407"
					y="96.42844617483406"
					width="0.18328611898016997"
					height="0.5715538251659353"
				/>
			
				<rect
					x="20.96317280453258"
					y="96.39883198700164"
					width="0.18328611898016997"
					height="0.6011680129983574"
				/>
			
				<rect
					x="21.246458923512748"
					y="96.52123729670902"
					width="0.18328611898016997"
					height="0.47876270329098247"
				/>
			
				<rect
					x="21.52974504249292"
					y="96.43436901240055"
					width="0.18328611898016997"
					height="0.5656309875994481"
				/>
			
				<rect
					x="21.813031161473088"
					y="96.44226612915587"
					width="0.18328611898016997"
					height="0.5577338708441317"
				/>
			
				<rect
					x="22.09631728045326"
					y="96.1974555097411"
					width="0.18328611898016997"
					height="0.8025444902588958"
				/>
			
				<rect
					x="22.379603399433428"
					y="96.14020141326507"
					width="0.18328611898016997"
					height="0.8597985867349252"
				/>
			
				<rect
					x="22.6628895184136"
					y="96.15698278637012"
					width="0.18328611898016997"
					height="0.8430172136298779"
				/>
			
				<rect
					x="22.946175637393768"
					y="96.25174818743389"
					width="0.18328611898016997"
					height="0.7482518125661102"
				/>
			
				<rect
					x="23.229461756373937"
					y="95.77298548414292"
					width="0.18328611898016997"
					height="1.2270145158570784"
				/>
			
				<rect
					x="23.51274787535411"
					y="95.97831051978112"
					width="0.18328611898016997"
					height="1.0216894802188818"
				/>
			
				<rect
					x="23.796033994334277"
					y="96.12934287772651"
					width="0.18328611898016997"
					height="0.8706571222734851"
				/>
			
				<rect
					x="24.07932011331445"
					y="95.95461916951517"
					width="0.18328611898016997"
					height="1.0453808304848309"
				/>
			
				<rect
					x="24.362606232294617"
					y="96.06517880408958"
					width="0.18328611898016997"
					height="0.9348211959104162"
				/>
			
				<rect
					x="24.64589235127479"
					y="95.68315578105121"
					width="0.18328611898016997"
					height="1.3168442189487877"
				/>
			
				<rect
					x="24.929178470254957"
					y="95.46697220987446"
					width="0.18328611898016997"
					height="1.5330277901255442"
				/>
			
				<rect
					x="25.21246458923513"
					y="95.68118150186238"
					width="0.18328611898016997"
					height="1.3188184981376168"
				/>
			
				<rect
					x="25.495750708215297"
					y="95.63478594092491"
					width="0.18328611898016997"
					height="1.365214059075086"
				/>
			
				<rect
					x="25.77903682719547"
					y="95.60912031147014"
					width="0.18328611898016997"
					height="1.3908796885298642"
				/>
			
				<rect
					x="26.062322946175637"
					y="95.33765692300618"
					width="0.18328611898016997"
					height="1.662343076993821"
				/>
			
				<rect
					x="26.34560906515581"
					y="95.58937751958184"
					width="0.18328611898016997"
					height="1.410622480418155"
				/>
			
				<rect
					x="26.628895184135978"
					y="95.03559220711537"
					width="0.18328611898016997"
					height="1.9644077928846286"
				/>
			
				<rect
					x="26.91218130311615"
					y="95.62195312619752"
					width="0.18328611898016997"
					height="1.3780468738024751"
				/>
			
				<rect
					x="27.195467422096318"
					y="95.4768436058186"
					width="0.18328611898016997"
					height="1.5231563941813988"
				/>
			
				<rect
					x="27.478753541076486"
					y="95.12739618939591"
					width="0.18328611898016997"
					height="1.8726038106040903"
				/>
			
				<rect
					x="27.762039660056658"
					y="95.3050813163905"
					width="0.18328611898016997"
					height="1.694918683609501"
				/>
			
				<rect
					x="28.045325779036826"
					y="95.03164364873771"
					width="0.18328611898016997"
					height="1.9683563512622868"
				/>
			
				<rect
					x="28.328611898016998"
					y="94.73648891000782"
					width="0.18328611898016997"
					height="2.2635110899921784"
				/>
			
				<rect
					x="28.611898016997166"
					y="94.39000291236837"
					width="0.18328611898016997"
					height="2.6099970876316263"
				/>
			
				<rect
					x="28.89518413597734"
					y="94.47983261546008"
					width="0.18328611898016997"
					height="2.520167384539917"
				/>
			
				<rect
					x="29.178470254957507"
					y="93.1501555817839"
					width="0.18328611898016997"
					height="3.849844418216094"
				/>
			
				<rect
					x="29.46175637393768"
					y="94.08004107972225"
					width="0.18328611898016997"
					height="2.9199589202777503"
				/>
			
				<rect
					x="29.745042492917847"
					y="93.48479590429038"
					width="0.18328611898016997"
					height="3.5152040957096204"
				/>
			
				<rect
					x="30.02832861189802"
					y="93.65359677493524"
					width="0.18328611898016997"
					height="3.346403225064762"
				/>
			
				<rect
					x="30.311614730878187"
					y="93.72269654654424"
					width="0.18328611898016997"
					height="3.277303453455758"
				/>
			
				<rect
					x="30.59490084985836"
					y="93.76514354910407"
					width="0.18328611898016997"
					height="3.2348564508959328"
				/>
			
				<rect
					x="30.878186968838527"
					y="92.8411808887322"
					width="0.18328611898016997"
					height="4.158819111267803"
				/>
			
				<rect
					x="31.1614730878187"
					y="93.44234890173055"
					width="0.18328611898016997"
					height="3.557651098269446"
				/>
			
				<rect
					x="31.444759206798867"
					y="93.5203329296893"
					width="0.18328611898016997"
					height="3.479667070310697"
				/>
			
				<rect
					x="31.728045325779036"
					y="93.32586642958967"
					width="0.18328611898016997"
					height="3.6741335704103335"
				/>
			
				<rect
					x="32.01133144475921"
					y="93.08401722895815"
					width="0.18328611898016997"
					height="3.915982771041854"
				/>
			
				<rect
					x="32.29461756373938"
					y="93.0810558101749"
					width="0.18328611898016997"
					height="3.9189441898250976"
				/>
			
				<rect
					x="32.577903682719544"
					y="92.07713484265547"
					width="0.18328611898016997"
					height="4.922865157344532"
				/>
			
				<rect
					x="32.861189801699716"
					y="91.8254142460798"
					width="0.18328611898016997"
					height="5.174585753920198"
				/>
			
				<rect
					x="33.14447592067989"
					y="92.09391621576052"
					width="0.18328611898016997"
					height="4.906083784239485"
				/>
			
				<rect
					x="33.42776203966006"
					y="91.46115973574089"
					width="0.18328611898016997"
					height="5.5388402642591075"
				/>
			
				<rect
					x="33.711048158640224"
					y="91.46313401492972"
					width="0.18328611898016997"
					height="5.536865985070278"
				/>
			
				<rect
					x="33.994334277620396"
					y="90.99029414920523"
					width="0.18328611898016997"
					height="6.009705850794774"
				/>
			
				<rect
					x="34.27762039660057"
					y="90.4315731387667"
					width="0.18328611898016997"
					height="6.568426861233306"
				/>
			
				<rect
					x="34.56090651558074"
					y="90.32002636459787"
					width="0.18328611898016997"
					height="6.679973635402135"
				/>
			
				<rect
					x="34.844192634560905"
					y="90.11272704977084"
					width="0.18328611898016997"
					height="6.8872729502291605"
				/>
			
				<rect
					x="35.12747875354108"
					y="90.549042750502"
					width="0.18328611898016997"
					height="6.450957249498003"
				/>
			
				<rect
					x="35.41076487252125"
					y="90.69513941047533"
					width="0.18328611898016997"
					height="6.304860589524665"
				/>
			
				<rect
					x="35.69405099150142"
					y="90.51844142307516"
					width="0.18328611898016997"
					height="6.48155857692484"
				/>
			
				<rect
					x="35.977337110481585"
					y="89.63001578810221"
					width="0.18328611898016997"
					height="7.369984211897787"
				/>
			
				<rect
					x="36.26062322946176"
					y="89.13842027008384"
					width="0.18328611898016997"
					height="7.8615797299161585"
				/>
			
				<rect
					x="36.54390934844193"
					y="88.72777019880746"
					width="0.18328611898016997"
					height="8.272229801192537"
				/>
			
				<rect
					x="36.827195467422094"
					y="88.71592452367449"
					width="0.18328611898016997"
					height="8.284075476325512"
				/>
			
				<rect
					x="37.110481586402265"
					y="88.93408237404007"
					width="0.18328611898016997"
					height="8.065917625959926"
				/>
			
				<rect
					x="37.39376770538244"
					y="88.20557335336225"
					width="0.18328611898016997"
					height="8.794426646637746"
				/>
			
				<rect
					x="37.67705382436261"
					y="87.81565321356857"
					width="0.18328611898016997"
					height="9.184346786431433"
				/>
			
				<rect
					x="37.960339943342774"
					y="87.27568785542391"
					width="0.18328611898016997"
					height="9.72431214457609"
				/>
			
				<rect
					x="38.243626062322946"
					y="87.24015083002499"
					width="0.18328611898016997"
					height="9.759849169975013"
				/>
			
				<rect
					x="38.52691218130312"
					y="87.15723110409418"
					width="0.18328611898016997"
					height="9.84276889590582"
				/>
			
				<rect
					x="38.81019830028329"
					y="87.1453854289612"
					width="0.18328611898016997"
					height="9.854614571038795"
				/>
			
				<rect
					x="39.093484419263454"
					y="87.14143687058355"
					width="0.18328611898016997"
					height="9.858563129416453"
				/>
			
				<rect
					x="39.376770538243626"
					y="87.14341114977238"
					width="0.18328611898016997"
					height="9.856588850227624"
				/>
			
				<rect
					x="39.6600566572238"
					y="87.13255261423382"
					width="0.18328611898016997"
					height="9.867447385766184"
				/>
			
				<rect
					x="39.94334277620397"
					y="86.18489860359601"
					width="0.18328611898016997"
					height="10.815101396403989"
				/>
			
				<rect
					x="40.226628895184135"
					y="85.68935452719998"
					width="0.18328611898016997"
					height="11.310645472800019"
				/>
			
				<rect
					x="40.50991501416431"
					y="85.22441177823082"
					width="0.18328611898016997"
					height="11.775588221769183"
				/>
			
				<rect
					x="40.79320113314448"
					y="85.64592038504576"
					width="0.18328611898016997"
					height="11.354079614954244"
				/>
			
				<rect
					x="41.07648725212464"
					y="86.47018194638177"
					width="0.18328611898016997"
					height="10.529818053618229"
				/>
			
				<rect
					x="41.359773371104815"
					y="86.16713009089655"
					width="0.18328611898016997"
					height="10.83286990910345"
				/>
			
				<rect
					x="41.64305949008499"
					y="84.28465488434833"
					width="0.18328611898016997"
					height="12.715345115651672"
				/>
			
				<rect
					x="41.92634560906516"
					y="83.58872147028617"
					width="0.18328611898016997"
					height="13.411278529713826"
				/>
			
				<rect
					x="42.20963172804532"
					y="82.6706816474808"
					width="0.18328611898016997"
					height="14.329318352519195"
				/>
			
				<rect
					x="42.492917847025495"
					y="81.7852174312911"
					width="0.18328611898016997"
					height="15.214782568708898"
				/>
			
				<rect
					x="42.77620396600567"
					y="82.36960407118441"
					width="0.18328611898016997"
					height="14.630395928815588"
				/>
			
				<rect
					x="43.05949008498584"
					y="82.25904443661"
					width="0.18328611898016997"
					height="14.740955563390003"
				/>
			
				<rect
					x="43.342776203966004"
					y="81.23735495639112"
					width="0.18328611898016997"
					height="15.762645043608885"
				/>
			
				<rect
					x="43.626062322946176"
					y="80.2956237833198"
					width="0.18328611898016997"
					height="16.704376216680203"
				/>
			
				<rect
					x="43.90934844192635"
					y="79.92643357500882"
					width="0.18328611898016997"
					height="17.073566424991185"
				/>
			
				<rect
					x="44.19263456090652"
					y="78.68658624442435"
					width="0.18328611898016997"
					height="18.313413755575652"
				/>
			
				<rect
					x="44.475920679886684"
					y="77.34999923358727"
					width="0.18328611898016997"
					height="19.65000076641273"
				/>
			
				<rect
					x="44.759206798866856"
					y="77.7912506322905"
					width="0.18328611898016997"
					height="19.2087493677095"
				/>
			
				<rect
					x="45.04249291784703"
					y="78.71620043225678"
					width="0.18328611898016997"
					height="18.283799567743216"
				/>
			
				<rect
					x="45.3257790368272"
					y="78.5868851453885"
					width="0.18328611898016997"
					height="18.413114854611507"
				/>
			
				<rect
					x="45.609065155807365"
					y="78.09825104615338"
					width="0.18328611898016997"
					height="18.90174895384662"
				/>
			
				<rect
					x="45.892351274787536"
					y="76.36582105795614"
					width="0.18328611898016997"
					height="20.63417894204386"
				/>
			
				<rect
					x="46.17563739376771"
					y="74.52184429559006"
					width="0.18328611898016997"
					height="22.478155704409943"
				/>
			
				<rect
					x="46.45892351274787"
					y="72.46958107880256"
					width="0.18328611898016997"
					height="24.530418921197437"
				/>
			
				<rect
					x="46.742209631728045"
					y="73.06383911464002"
					width="0.18328611898016997"
					height="23.936160885359982"
				/>
			
				<rect
					x="47.02549575070822"
					y="75.03416974509113"
					width="0.18328611898016997"
					height="21.965830254908866"
				/>
			
				<rect
					x="47.30878186968839"
					y="74.54059994788393"
					width="0.18328611898016997"
					height="22.459400052116067"
				/>
			
				<rect
					x="47.59206798866855"
					y="72.44095403056454"
					width="0.18328611898016997"
					height="24.55904596943546"
				/>
			
				<rect
					x="47.875354107648725"
					y="70.83487791045233"
					width="0.18328611898016997"
					height="26.165122089547665"
				/>
			
				<rect
					x="48.1586402266289"
					y="70.23469703704839"
					width="0.18328611898016997"
					height="26.76530296295161"
				/>
			
				<rect
					x="48.44192634560907"
					y="68.73128343475528"
					width="0.18328611898016997"
					height="28.268716565244716"
				/>
			
				<rect
					x="48.725212464589234"
					y="68.66810650071277"
					width="0.18328611898016997"
					height="28.331893499287233"
				/>
			
				<rect
					x="49.008498583569406"
					y="68.86849583837889"
					width="0.18328611898016997"
					height="28.13150416162111"
				/>
			
				<rect
					x="49.29178470254958"
					y="67.9494688759791"
					width="0.18328611898016997"
					height="29.050531124020907"
				/>
			
				<rect
					x="49.57507082152975"
					y="64.72547096062172"
					width="0.18328611898016997"
					height="32.27452903937828"
				/>
			
				<rect
					x="49.858356940509914"
					y="62.49354833765079"
					width="0.18328611898016997"
					height="34.50645166234921"
				/>
			
				<rect
					x="50.141643059490086"
					y="62.564622388448626"
					width="0.18328611898016997"
					height="34.435377611551374"
				/>
			
				<rect
					x="50.42492917847026"
					y="58.59829549809164"
					width="0.18328611898016997"
					height="38.40170450190836"
				/>
			
				<rect
					x="50.70821529745042"
					y="57.09488189579853"
					width="0.18328611898016997"
					height="39.90511810420147"
				/>
			
				<rect
					x="50.991501416430594"
					y="60.32973834669446"
					width="0.18328611898016997"
					height="36.67026165330554"
				/>
			
				<rect
					x="51.274787535410766"
					y="59.76114594031178"
					width="0.18328611898016997"
					height="37.23885405968822"
				/>
			
				<rect
					x="51.55807365439094"
					y="51.86797774337437"
					width="0.18328611898016997"
					height="45.13202225662563"
				/>
			
				<rect
					x="51.8413597733711"
					y="48.324146599426726"
					width="0.18328611898016997"
					height="48.675853400573274"
				/>
			
				<rect
					x="52.124645892351275"
					y="48.71307959962599"
					width="0.18328611898016997"
					height="48.28692040037401"
				/>
			
				<rect
					x="52.40793201133145"
					y="48.96480019620166"
					width="0.18328611898016997"
					height="48.03519980379834"
				/>
			
				<rect
					x="52.69121813031162"
					y="47.711132911295394"
					width="0.18328611898016997"
					height="49.288867088704606"
				/>
			
				<rect
					x="52.97450424929178"
					y="49.91047992765064"
					width="0.18328611898016997"
					height="47.08952007234936"
				/>
			
				<rect
					x="53.257790368271955"
					y="49.11089685617499"
					width="0.18328611898016997"
					height="47.88910314382501"
				/>
			
				<rect
					x="53.54107648725213"
					y="45.54732292033906"
					width="0.18328611898016997"
					height="51.45267707966094"
				/>
			
				<rect
					x="53.8243626062323"
					y="42.630325418844556"
					width="0.18328611898016997"
					height="54.369674581155444"
				/>
			
				<rect
					x="54.107648725212464"
					y="40.616560646239215"
					width="0.18328611898016997"
					height="56.383439353760785"
				/>
			
				<rect
					x="54.390934844192635"
					y="42.968914299728695"
					width="0.18328611898016997"
					height="54.031085700271305"
				/>
			
				<rect
					x="54.67422096317281"
					y="44.70924140468125"
					width="0.18328611898016997"
					height="52.29075859531875"
				/>
			
				<rect
					x="54.95750708215297"
					y="45.61938411073132"
					width="0.18328611898016997"
					height="51.38061588926868"
				/>
			
				<rect
					x="55.240793201133144"
					y="45.16628703689511"
					width="0.18328611898016997"
					height="51.83371296310489"
				/>
			
				<rect
					x="55.524079320113316"
					y="41.44180934716964"
					width="0.18328611898016997"
					height="55.55819065283036"
				/>
			
				<rect
					x="55.80736543909349"
					y="35.26626404451326"
					width="0.18328611898016997"
					height="61.73373595548674"
				/>
			
				<rect
					x="56.09065155807365"
					y="36.25439077852205"
					width="0.18328611898016997"
					height="60.74560922147795"
				/>
			
				<rect
					x="56.373937677053824"
					y="33.42919725930808"
					width="0.18328611898016997"
					height="63.57080274069192"
				/>
			
				<rect
					x="56.657223796033996"
					y="35.73416821226567"
					width="0.18328611898016997"
					height="61.26583178773433"
				/>
			
				<rect
					x="56.94050991501417"
					y="44.0883305997946"
					width="0.18328611898016997"
					height="52.9116694002054"
				/>
			
				<rect
					x="57.22379603399433"
					y="36.82100890571591"
					width="0.18328611898016997"
					height="60.17899109428409"
				/>
			
				<rect
					x="57.507082152974505"
					y="30.862634313830682"
					width="0.18328611898016997"
					height="66.13736568616932"
				/>
			
				<rect
					x="57.79036827195468"
					y="33.27717776176827"
					width="0.18328611898016997"
					height="63.72282223823173"
				/>
			
				<rect
					x="58.07365439093485"
					y="32.83395208387621"
					width="0.18328611898016997"
					height="64.16604791612379"
				/>
			
				<rect
					x="58.35694050991501"
					y="34.32650715063076"
					width="0.18328611898016997"
					height="62.67349284936924"
				/>
			
				<rect
					x="58.640226628895185"
					y="39.764659176259606"
					width="0.18328611898016997"
					height="57.235340823740394"
				/>
			
				<rect
					x="58.92351274787536"
					y="42.62933827925014"
					width="0.18328611898016997"
					height="54.37066172074986"
				/>
			
				<rect
					x="59.20679886685552"
					y="33.298894832845384"
					width="0.18328611898016997"
					height="63.701105167154616"
				/>
			
				<rect
					x="59.49008498583569"
					y="28.243752969849325"
					width="0.18328611898016997"
					height="68.75624703015067"
				/>
			
				<rect
					x="59.773371104815865"
					y="28.988056224037777"
					width="0.18328611898016997"
					height="68.01194377596222"
				/>
			
				<rect
					x="60.05665722379604"
					y="28.02065942151168"
					width="0.18328611898016997"
					height="68.97934057848832"
				/>
			
				<rect
					x="60.3399433427762"
					y="28.651441622342475"
					width="0.18328611898016997"
					height="68.34855837765753"
				/>
			
				<rect
					x="60.623229461756374"
					y="36.381731786201506"
					width="0.18328611898016997"
					height="60.618268213798494"
				/>
			
				<rect
					x="60.906515580736546"
					y="36.80916323058294"
					width="0.18328611898016997"
					height="60.19083676941706"
				/>
			
				<rect
					x="61.18980169971672"
					y="30.7125890954797"
					width="0.18328611898016997"
					height="66.2874109045203"
				/>
			
				<rect
					x="61.47308781869688"
					y="22.214304327166275"
					width="0.18328611898016997"
					height="74.78569567283373"
				/>
			
				<rect
					x="61.756373937677054"
					y="20.727672097978214"
					width="0.18328611898016997"
					height="76.27232790202179"
				/>
			
				<rect
					x="62.039660056657226"
					y="21.511460935943234"
					width="0.18328611898016997"
					height="75.48853906405677"
				/>
			
				<rect
					x="62.3229461756374"
					y="19.2518984043287"
					width="0.18328611898016997"
					height="77.7481015956713"
				/>
			
				<rect
					x="62.60623229461756"
					y="19.497696163337892"
					width="0.18328611898016997"
					height="77.50230383666211"
				/>
			
				<rect
					x="62.889518413597735"
					y="27.978212418951856"
					width="0.18328611898016997"
					height="69.02178758104814"
				/>
			
				<rect
					x="63.172804532577906"
					y="19.650702800472118"
					width="0.18328611898016997"
					height="77.34929719952788"
				/>
			
				<rect
					x="63.45609065155807"
					y="14.195769401738232"
					width="0.18328611898016997"
					height="82.80423059826177"
				/>
			
				<rect
					x="63.73937677053824"
					y="14.73079906191083"
					width="0.18328611898016997"
					height="82.26920093808917"
				/>
			
				<rect
					x="64.02266288951841"
					y="11.67955057557596"
					width="0.18328611898016997"
					height="85.32044942442404"
				/>
			
				<rect
					x="64.30594900849859"
					y="7.533564279035545"
					width="0.18328611898016997"
					height="89.46643572096445"
				/>
			
				<rect
					x="64.58923512747876"
					y="7.365750547985101"
					width="0.18328611898016997"
					height="89.6342494520149"
				/>
			
				<rect
					x="64.87252124645893"
					y="22.165934487039962"
					width="0.18328611898016997"
					height="74.83406551296004"
				/>
			
				<rect
					x="65.15580736543909"
					y="8.44765554346327"
					width="0.18328611898016997"
					height="88.55234445653673"
				/>
			
				<rect
					x="65.43909348441926"
					y="2.4961909287389545"
					width="0.18328611898016997"
					height="94.50380907126105"
				/>
			
				<rect
					x="65.72237960339943"
					y="1.690685019696815"
					width="0.18328611898016997"
					height="95.30931498030318"
				/>
			
				<rect
					x="66.0056657223796"
					y="0.6847897729885517"
					width="0.18328611898016997"
					height="96.31521022701145"
				/>
			
				<rect
					x="66.28895184135978"
					y="3.8416621959257498"
					width="0.18328611898016997"
					height="93.15833780407425"
				/>
			
				<rect
					x="66.57223796033995"
					y="6.113070402673259"
					width="0.18328611898016997"
					height="90.88692959732674"
				/>
			
				<rect
					x="66.85552407932012"
					y="14.268817731724894"
					width="0.18328611898016997"
					height="82.7311822682751"
				/>
			
				<rect
					x="67.13881019830029"
					y="8.036018332592477"
					width="0.18328611898016997"
					height="88.96398166740752"
				/>
			
				<rect
					x="67.42209631728045"
					y="0.3649565443982965"
					width="0.18328611898016997"
					height="96.6350434556017"
				/>
			
				<rect
					x="67.70538243626062"
					y="1.8160517481874336"
					width="0.18328611898016997"
					height="95.18394825181257"
				/>
			
				<rect
					x="67.98866855524079"
					y="4.863351676144646"
					width="0.18328611898016997"
					height="92.13664832385535"
				/>
			
				<rect
					x="68.27195467422096"
					y="5.585937859255978"
					width="0.18328611898016997"
					height="91.41406214074402"
				/>
			
				<rect
					x="68.55524079320114"
					y="11.157353730130751"
					width="0.18328611898016997"
					height="85.84264626986925"
				/>
			
				<rect
					x="68.83852691218131"
					y="22.882597832584807"
					width="0.18328611898016997"
					height="74.1174021674152"
				/>
			
				<rect
					x="69.12181303116148"
					y="14.724876224344342"
					width="0.18328611898016997"
					height="82.27512377565566"
				/>
			
				<rect
					x="69.40509915014164"
					y="11.604527966400468"
					width="0.18328611898016997"
					height="85.39547203359953"
				/>
			
				<rect
					x="69.68838526912181"
					y="12.054663621453429"
					width="0.18328611898016997"
					height="84.94533637854657"
				/>
			
				<rect
					x="69.97167138810198"
					y="12.73578994159935"
					width="0.18328611898016997"
					height="84.26421005840065"
				/>
			
				<rect
					x="70.25495750708215"
					y="9.539431934885584"
					width="0.18328611898016997"
					height="87.46056806511442"
				/>
			
				<rect
					x="70.53824362606233"
					y="15.886739526970075"
					width="0.18328611898016997"
					height="81.11326047302992"
				/>
			
				<rect
					x="70.8215297450425"
					y="27.318803169883054"
					width="0.18328611898016997"
					height="69.68119683011695"
				/>
			
				<rect
					x="71.10481586402267"
					y="17.5629025582857"
					width="0.18328611898016997"
					height="79.4370974417143"
				/>
			
				<rect
					x="71.38810198300284"
					y="11.295553273348773"
					width="0.18328611898016997"
					height="85.70444672665123"
				/>
			
				<rect
					x="71.671388101983"
					y="16.563917288738338"
					width="0.18328611898016997"
					height="80.43608271126166"
				/>
			
				<rect
					x="71.95467422096317"
					y="18.546093594322414"
					width="0.18328611898016997"
					height="78.45390640567759"
				/>
			
				<rect
					x="72.23796033994334"
					y="22.14619169515167"
					width="0.18328611898016997"
					height="74.85380830484833"
				/>
			
				<rect
					x="72.52124645892351"
					y="23.51535431260443"
					width="0.18328611898016997"
					height="73.48464568739557"
				/>
			
				<rect
					x="72.80453257790369"
					y="36.520918469013935"
					width="0.18328611898016997"
					height="60.479081530986065"
				/>
			
				<rect
					x="73.08781869688386"
					y="25.87757936203805"
					width="0.18328611898016997"
					height="71.12242063796195"
				/>
			
				<rect
					x="73.37110481586403"
					y="19.485850488204917"
					width="0.18328611898016997"
					height="77.51414951179508"
				/>
			
				<rect
					x="73.65439093484419"
					y="27.410607152163593"
					width="0.18328611898016997"
					height="69.58939284783641"
				/>
			
				<rect
					x="73.93767705382436"
					y="24.67030763806926"
					width="0.18328611898016997"
					height="72.32969236193074"
				/>
			
				<rect
					x="74.22096317280453"
					y="23.573595548674874"
					width="0.18328611898016997"
					height="73.42640445132513"
				/>
			
				<rect
					x="74.5042492917847"
					y="31.126200585539323"
					width="0.18328611898016997"
					height="65.87379941446068"
				/>
			
				<rect
					x="74.78753541076487"
					y="42.36972056591916"
					width="0.18328611898016997"
					height="54.63027943408084"
				/>
			
				<rect
					x="75.07082152974505"
					y="34.30775149833689"
					width="0.18328611898016997"
					height="62.69224850166311"
				/>
			
				<rect
					x="75.35410764872522"
					y="30.162752341390885"
					width="0.18328611898016997"
					height="66.83724765860912"
				/>
			
				<rect
					x="75.63739376770539"
					y="34.44397676236607"
					width="0.18328611898016997"
					height="62.55602323763393"
				/>
			
				<rect
					x="75.92067988668555"
					y="35.58807155229234"
					width="0.18328611898016997"
					height="61.41192844770766"
				/>
			
				<rect
					x="76.20396600566572"
					y="35.92468615398765"
					width="0.18328611898016997"
					height="61.07531384601235"
				/>
			
				<rect
					x="76.48725212464589"
					y="41.9946075200417"
					width="0.18328611898016997"
					height="55.0053924799583"
				/>
			
				<rect
					x="76.77053824362606"
					y="50.81173837735098"
					width="0.18328611898016997"
					height="46.18826162264902"
				/>
			
				<rect
					x="77.05382436260624"
					y="43.65102775946903"
					width="0.18328611898016997"
					height="53.34897224053097"
				/>
			
				<rect
					x="77.33711048158641"
					y="41.87911218749521"
					width="0.18328611898016997"
					height="55.12088781250479"
				/>
			
				<rect
					x="77.62039660056658"
					y="43.3331688100676"
					width="0.18328611898016997"
					height="53.6668311899324"
				/>
			
				<rect
					x="77.90368271954674"
					y="44.316359846104326"
					width="0.18328611898016997"
					height="52.683640153895674"
				/>
			
				<rect
					x="78.18696883852691"
					y="47.51567927160134"
					width="0.18328611898016997"
					height="49.48432072839866"
				/>
			
				<rect
					x="78.47025495750708"
					y="52.432621591379394"
					width="0.18328611898016997"
					height="44.567378408620606"
				/>
			
				<rect
					x="78.75354107648725"
					y="60.999018991707416"
					width="0.18328611898016997"
					height="36.000981008292584"
				/>
			
				<rect
					x="79.03682719546742"
					y="53.67148178236945"
					width="0.18328611898016997"
					height="43.32851821763055"
				/>
			
				<rect
					x="79.3201133144476"
					y="47.760489891016114"
					width="0.18328611898016997"
					height="49.239510108983886"
				/>
			
				<rect
					x="79.60339943342777"
					y="48.97763301092905"
					width="0.18328611898016997"
					height="48.02236698907095"
				/>
			
				<rect
					x="79.88668555240794"
					y="49.35274605680652"
					width="0.18328611898016997"
					height="47.64725394319348"
				/>
			
				<rect
					x="80.1699716713881"
					y="50.64096322751728"
					width="0.18328611898016997"
					height="46.35903677248272"
				/>
			
				<rect
					x="80.45325779036827"
					y="52.350689005043"
					width="0.18328611898016997"
					height="44.649310994957"
				/>
			
				<rect
					x="80.73654390934844"
					y="59.18268213798495"
					width="0.18328611898016997"
					height="37.81731786201505"
				/>
			
				<rect
					x="81.01983002832861"
					y="51.341832339551495"
					width="0.18328611898016997"
					height="45.658167660448505"
				/>
			
				<rect
					x="81.30311614730878"
					y="47.43572096445378"
					width="0.18328611898016997"
					height="49.56427903554622"
				/>
			
				<rect
					x="81.58640226628896"
					y="49.97464400128758"
					width="0.18328611898016997"
					height="47.02535599871242"
				/>
			
				<rect
					x="81.86968838526913"
					y="47.291598583669284"
					width="0.18328611898016997"
					height="49.708401416330716"
				/>
			
				<rect
					x="82.15297450424929"
					y="51.91338616471742"
					width="0.18328611898016997"
					height="45.08661383528258"
				/>
			
				<rect
					x="82.43626062322946"
					y="51.687331197596535"
					width="0.18328611898016997"
					height="45.312668802403465"
				/>
			
				<rect
					x="82.71954674220963"
					y="59.41663422186116"
					width="0.18328611898016997"
					height="37.58336577813884"
				/>
			
				<rect
					x="83.0028328611898"
					y="53.28847161973666"
					width="0.18328611898016997"
					height="43.71152838026334"
				/>
			
				<rect
					x="83.28611898016997"
					y="49.71107772957894"
					width="0.18328611898016997"
					height="47.28892227042106"
				/>
			
				<rect
					x="83.56940509915015"
					y="52.698162142276864"
					width="0.18328611898016997"
					height="44.301837857723136"
				/>
			
				<rect
					x="83.85269121813032"
					y="52.890654363187664"
					width="0.18328611898016997"
					height="44.109345636812336"
				/>
			
				<rect
					x="84.13597733711049"
					y="56.42856266956882"
					width="0.18328611898016997"
					height="40.57143733043118"
				/>
			
				<rect
					x="84.41926345609065"
					y="66.84485966982939"
					width="0.18328611898016997"
					height="30.15514033017061"
				/>
			
				<rect
					x="84.70254957507082"
					y="68.21204800809332"
					width="0.18328611898016997"
					height="28.78795199190668"
				/>
			
				<rect
					x="84.98583569405099"
					y="58.87963028249973"
					width="0.18328611898016997"
					height="38.12036971750027"
				/>
			
				<rect
					x="85.26912181303116"
					y="52.010125844970034"
					width="0.18328611898016997"
					height="44.989874155029966"
				/>
			
				<rect
					x="85.55240793201133"
					y="51.70806112907923"
					width="0.18328611898016997"
					height="45.29193887092077"
				/>
			
				<rect
					x="85.8356940509915"
					y="51.3625622710342"
					width="0.18328611898016997"
					height="45.6374377289658"
				/>
			
				<rect
					x="86.11898016997168"
					y="52.372406076120114"
					width="0.18328611898016997"
					height="44.627593923879886"
				/>
			
				<rect
					x="86.40226628895184"
					y="53.507616609696655"
					width="0.18328611898016997"
					height="43.492383390303345"
				/>
			
				<rect
					x="86.68555240793201"
					y="59.51337390211377"
					width="0.18328611898016997"
					height="37.48662609788623"
				/>
			
				<rect
					x="86.96883852691218"
					y="53.194693358267294"
					width="0.18328611898016997"
					height="43.805306641732706"
				/>
			
				<rect
					x="87.25212464589235"
					y="53.08314658409847"
					width="0.18328611898016997"
					height="43.91685341590153"
				/>
			
				<rect
					x="87.53541076487252"
					y="54.47205199343951"
					width="0.18328611898016997"
					height="42.52794800656049"
				/>
			
				<rect
					x="87.8186968838527"
					y="56.209417679608826"
					width="0.18328611898016997"
					height="40.790582320391174"
				/>
			
				<rect
					x="88.10198300283287"
					y="55.72769355753461"
					width="0.18328611898016997"
					height="41.27230644246539"
				/>
			
				<rect
					x="88.38526912181304"
					y="58.72662364536551"
					width="0.18328611898016997"
					height="38.27337635463449"
				/>
			
				<rect
					x="88.6685552407932"
					y="66.2821901010132"
					width="0.18328611898016997"
					height="30.7178098989868"
				/>
			
				<rect
					x="88.95184135977337"
					y="60.86674228605589"
					width="0.18328611898016997"
					height="36.13325771394411"
				/>
			
				<rect
					x="89.23512747875354"
					y="61.90620027897423"
					width="0.18328611898016997"
					height="35.09379972102577"
				/>
			
				<rect
					x="89.51841359773371"
					y="60.87562654240562"
					width="0.18328611898016997"
					height="36.12437345759438"
				/>
			
				<rect
					x="89.80169971671388"
					y="60.819359585524"
					width="0.18328611898016997"
					height="36.180640414476"
				/>
			
				<rect
					x="90.08498583569406"
					y="61.45211606554362"
					width="0.18328611898016997"
					height="35.54788393445638"
				/>
			
				<rect
					x="90.36827195467423"
					y="64.4431490366192"
					width="0.18328611898016997"
					height="32.556850963380796"
				/>
			
				<rect
					x="90.6515580736544"
					y="70.77466239519306"
					width="0.18328611898016997"
					height="26.22533760480694"
				/>
			
				<rect
					x="90.93484419263456"
					y="65.33256181118657"
					width="0.18328611898016997"
					height="31.667438188813435"
				/>
			
				<rect
					x="91.21813031161473"
					y="65.8843728444642"
					width="0.18328611898016997"
					height="31.115627155535805"
				/>
			
				<rect
					x="91.5014164305949"
					y="67.98007020340594"
					width="0.18328611898016997"
					height="29.019929796594056"
				/>
			
				<rect
					x="91.78470254957507"
					y="67.37988933000199"
					width="0.18328611898016997"
					height="29.620110669998013"
				/>
			
				<rect
					x="92.06798866855524"
					y="67.13507871058722"
					width="0.18328611898016997"
					height="29.864921289412777"
				/>
			
				<rect
					x="92.35127478753542"
					y="70.2771440396082"
					width="0.18328611898016997"
					height="26.722855960391797"
				/>
			
				<rect
					x="92.63456090651559"
					y="75.21876484924661"
					width="0.18328611898016997"
					height="21.78123515075339"
				/>
			
				<rect
					x="92.91784702549575"
					y="70.95728322015972"
					width="0.18328611898016997"
					height="26.042716779840276"
				/>
			
				<rect
					x="93.20113314447592"
					y="73.29877833811064"
					width="0.18328611898016997"
					height="23.701221661889363"
				/>
			
				<rect
					x="93.48441926345609"
					y="74.40437468385475"
					width="0.18328611898016997"
					height="22.595625316145245"
				/>
			
				<rect
					x="93.76770538243626"
					y="72.17146492128941"
					width="0.18328611898016997"
					height="24.828535078710587"
				/>
			
				<rect
					x="94.05099150141643"
					y="70.71839543831143"
					width="0.18328611898016997"
					height="26.281604561688567"
				/>
			
				<rect
					x="94.3342776203966"
					y="72.97598369073714"
					width="0.18328611898016997"
					height="24.024016309262862"
				/>
			
				<rect
					x="94.61756373937678"
					y="77.6954980916323"
					width="0.18328611898016997"
					height="19.304501908367698"
				/>
			
				<rect
					x="94.90084985835695"
					y="73.3580067137755"
					width="0.18328611898016997"
					height="23.641993286224505"
				/>
			
				<rect
					x="95.1841359773371"
					y="72.60580634283174"
					width="0.18328611898016997"
					height="24.39419365716826"
				/>
			
				<rect
					x="95.46742209631728"
					y="74.22965097564341"
					width="0.18328611898016997"
					height="22.77034902435659"
				/>
			
				<rect
					x="95.75070821529745"
					y="75.01343981360843"
					width="0.18328611898016997"
					height="21.98656018639157"
				/>
			
				<rect
					x="96.03399433427762"
					y="78.50890111742976"
					width="0.18328611898016997"
					height="18.491098882570242"
				/>
			
				<rect
					x="96.3172804532578"
					y="77.23647818022962"
					width="0.18328611898016997"
					height="19.763521819770375"
				/>
			
				<rect
					x="96.60056657223797"
					y="97"
					width="0.18328611898016997"
					height="0"
				/>
			
				<rect
					x="96.88385269121814"
					y="60.49459065896166"
					width="0.18328611898016997"
					height="36.50540934103834"
				/>
			
				<rect
					x="97.1671388101983"
					y="75.45863977068932"
					width="0.18328611898016997"
					height="21.541360229310683"
				/>
			
				<rect
					x="97.45042492917847"
					y="77.22265822590782"
					width="0.18328611898016997"
					height="19.77734177409218"
				/>
			
				<rect
					x="97.73371104815864"
					y="78.16636367816797"
					width="0.18328611898016997"
					height="18.83363632183203"
				/>
			
				<rect
					x="98.01699716713881"
					y="79.05676359232974"
					width="0.18328611898016997"
					height="17.943236407670256"
				/>
			
				<rect
					x="98.30028328611898"
					y="80.708248133785"
					width="0.18328611898016997"
					height="16.291751866214994"
				/>
			
				<rect
					x="98.58356940509915"
					y="80.83558914146447"
					width="0.18328611898016997"
					height="16.164410858535533"
				/>
			
				<rect
					x="98.86685552407933"
					y="79.14461901623262"
					width="0.18328611898016997"
					height="17.855380983767375"
				/>
			
				<rect
					x="99.1501416430595"
					y="76.91565781204494"
					width="0.18328611898016997"
					height="20.08434218795506"
				/>
			
				<rect
					x="99.43342776203966"
					y="79.09427489691748"
					width="0.18328611898016997"
					height="17.905725103082517"
				/>
			
				<rect
					x="99.71671388101983"
					y="79.01234231058109"
					width="0.18328611898016997"
					height="17.98765768941891"
				/>
			
		</g>

		<path class="rolling-area" d="M0,97L0,97L0.28328611898017,97L0.56657223796034,97L0.8498583569405099,97L1.13314447592068,97L1.41643059490085,97L1.6997167138810199,97L1.9830028328611897,97L2.26628895184136,96.99985898005794L2.54957507082153,96.99985898005794L2.8328611898017,96.99985898005794L3.1161473087818696,96.99971796011589L3.3994334277620397,96.99957694017382L3.68271954674221,96.99957694017382L3.9660056657223794,96.99957694017382L4.2492917847025495,96.99971796011589L4.53257790368272,96.99971796011589L4.81586402266289,96.99971796011589L5.09915014164306,96.99985898005794L5.38243626062323,97L5.6657223796034,97L5.949008498583569,97L6.232294617563739,97L6.515580736543909,97L6.798866855524079,97L7.0821529745042495,97L7.36543909348442,97L7.64872521246459,97L7.932011331444759,97L8.215297450424929,97L8.498583569405099,97L8.78186968838527,97L9.06515580736544,97L9.34844192634561,97L9.63172804532578,97L9.91501416430595,97L10.19830028328612,97L10.48158640226629,97L10.76487252124646,97L11.04815864022663,97L11.3314447592068,96.99971796011589L11.614730878186968,96.99957694017382L11.898016997167138,96.99647450144852L12.181303116147308,96.9961924615644L12.464589235127479,96.99605144162234L12.747875354107649,96.99562838179617L13.031161473087819,96.99492328208586L13.314447592067989,96.99393614249145L13.597733711048159,96.99196186330262L13.881019830028329,96.99393614249145L14.164305949008499,96.99280798295499L14.44759206798867,96.99153880347644L14.73087818696884,96.99041064393998L15.01416430594901,96.98970554422968L15.29745042492918,96.98900044451938L15.58073654390935,96.98829534480909L15.864022662889518,96.98589800579408L16.14730878186969,96.98350066677908L16.430594900849858,96.97673170956023L16.71388101983003,96.96728337344227L16.997167138810198,96.95896319686078L17.28045325779037,96.94768160149604L17.56373937677054,96.94006652462484L17.84702549575071,96.93146430815924L18.13031161473088,96.92497739082451L18.413597733711047,96.91158049632888L18.69688385269122,96.90340133968945L18.980169971671387,96.89620932264442L19.26345609065156,96.88309446803292L19.546742209631727,96.84995478164902L19.8300283286119,96.80229004123301L20.113314447592067,96.74404880516255L20.39660056657224,96.68665368874446L20.679886685552407,96.62418185441224L20.96317280453258,96.55522310274529L21.246458923512748,96.51319916001165L21.52974504249292,96.47596989530803L21.813031161473088,96.45608608347767L22.09631728045326,96.40997256242431L22.379603399433428,96.3661153604439L22.6628895184136,96.32733487637762L22.946175637393768,96.3063229050108L23.229461756373937,96.19942978892993L23.51274787535411,96.13427857569859L23.796033994334277,96.08957525406582L24.07932011331445,96.05488434831926L24.362606232294617,96.04416683272275L24.64589235127479,95.97647726053434L24.929178470254957,95.86436640659728L25.21246458923513,95.85125155198577L25.495750708215297,95.80217661214917L25.77903682719547,95.72785910268398L26.062322946175637,95.63972163889697L26.34560906515581,95.57175002682445L26.628895184135978,95.4792409448336L26.91218130311615,95.5013810757369L27.195467422096318,95.47218994773066L27.478753541076486,95.39970569751222L27.762039660056658,95.35627155535799L28.045325779036826,95.31255537331964L28.328611898016998,95.19071414338049L28.611898016997166,95.09848710127378L28.89518413597734,94.93532702831129L29.178470254957507,94.60294302487776L29.46175637393768,94.45332086635295L29.745042492917847,94.19328009319578L30.02832861189802,93.99641625408115L30.311614730878187,93.85158877358636L30.59490084985836,93.76232315026289L30.878186968838527,93.5282300464446L31.1614730878187,93.56997194929413L31.444759206798867,93.49001364214656L31.728045325779036,93.46730943147504L32.01133144475921,93.38594092490688L32.29461756373938,93.2942779625684L32.577903682719544,93.05313386164717L32.861189801699716,92.90802434126826L33.14447592067989,92.71539110041539L33.42776203966006,92.42122350127991L33.711048158640224,92.1551188706142L33.994334277620396,91.85601557350664L34.27762039660057,91.47751804901976L34.56090651558074,91.22650255215439L34.844192634560905,90.98183295268169L35.12747875354108,90.76113674335903L35.41076487252125,90.6517052683211L35.69405099150142,90.51674918377044L35.977337110481585,90.32242370361287L36.26062322946176,90.13768757951532L36.54390934844193,89.91022241297384L36.827195467422094,89.71067919496006L37.110481586402265,89.47997056975122L37.39376770538244,89.12431827587793L37.67705382436261,88.73820567451985L37.960339943342774,88.40187311270866L38.243626062322946,88.13069176412881L38.52691218130312,87.90632903631264L38.81019830028329,87.68196630849646L39.093484419263454,87.42587409371694L39.376770538243626,87.27413663606126L39.6600566572238,87.17655083615628L39.94334277620397,87.02072380018087L40.226628895184135,86.79918147120587L40.50991501416431,86.52306442465397L40.79320113314448,86.30885513266604L41.07648725212464,86.2129615720658L41.359773371104815,86.07349284936925L41.64305949008499,85.66665031652846L41.92634560906516,85.29576786891276L42.20963172804532,84.86452888609574L42.492917847025495,84.3732154079615L42.77620396600567,83.90517022026702L43.05949008498584,83.30357914744248L43.342776203966004,82.59932555679885L43.626062322946176,82.02946397093763L43.90934844192635,81.506279985898L44.19263456090652,80.93712349974709L44.475920679886684,80.30352090007511L44.759206798866856,79.64947040880455L45.04249291784703,79.14334983675408L45.3257790368272,78.76471129232515L45.609065155807365,78.45080090130136L45.892351274787536,77.94214197029385L46.17563739376771,77.34717883474609L46.45892351274787,76.64997624120542L46.742209631728045,75.97463173868391L47.02549575070822,75.44862735480311L47.30878186968839,74.87058661230246L47.59206798866855,74.06240132436119L47.875354107648725,73.27226658900352L48.1586402266289,72.65981698064041L48.44192634560907,72.12577446006223L48.725212464589234,71.49781265807263L49.008498583569406,70.61700209997088L49.29178470254958,69.67541194684162L49.57507082152975,68.57320007970692L49.858356940509914,67.3815815693067L50.141643059490086,66.28585661950675L50.42492917847026,64.83828691426908L50.70821529745042,63.18496911356704L50.991501416430594,61.96514661475498L51.274787535410766,60.79538619537393L51.55807365439094,58.95860145005288L51.8413597733711,56.93440120173516L52.124645892351275,54.9556093747605L52.40793201133145,53.57939576020478L52.69121813031162,52.23886019099005L52.97450424929178,50.750394702555226L53.257790368271955,49.22893054767854L53.54107648725213,48.3259798586735L53.8243626062323,47.51257683287604L54.107648725212464,46.3559312681065L54.390934844192635,45.49937614003894L54.67422096317281,45.07053449623692L54.95750708215297,44.457520808105585L55.240793201133144,43.89400511963703L55.524079320113316,43.30750318061283L55.80736543909349,42.25549441285121L56.09065155807365,41.63232728889162L56.373937677053824,40.26951056883153L56.657223796033996,38.987357255629306L56.94050991501417,38.76863532549549L57.22379603399433,37.57645273532704L57.507082152974505,36.065142016278614L57.79036827195468,35.780986833029324L58.07365439093485,35.29235273379421L58.35694050991501,35.420539861126024L58.640226628895185,35.99632428455372L58.92351274787536,35.787896810190226L59.20679886685552,35.28473765692301L59.49008498583569,34.91061175063996L59.773371104815865,34.297880102392746L60.05665722379604,33.6102668649121L60.3399433427762,32.79954321801377L60.623229461756374,32.3162678765769L60.906515580736546,31.484814298195857L61.18980169971672,31.115342050000777L61.47308781869688,30.253992243903184L61.756373937677054,29.073937368751828L62.039660056657226,28.14405187081347L62.3229461756374,26.801259982525792L62.60623229461756,24.38925489354527L62.889518413597735,23.127690491883683L63.172804532577906,21.54742102116832L63.45609065155807,20.401916031821457L63.73937677053824,19.54521988381184L64.02266288951841,18.14066126090222L64.30594900849859,16.466613528717488L64.58923512747876,14.73347844080996L64.87252124645893,13.903153021965394L65.15580736543909,12.302717699535549L65.43909348441926,10.631349346249948L65.72237960339943,8.76847591164794L66.0056657223796,7.197795796992608L66.28895184135978,6.670381213691215L66.57223796033995,6.49142690721807L66.85552407932012,5.363267370744495L67.13881019830029,5.304462054905812L67.42209631728045,5L67.70538243626062,5.017909532641525L67.98866855524079,5.614846947378098L68.27195467422096,5.86402918499671L68.55524079320114,6.584641088919213L68.83852691218131,7.81518110332776L69.12181303116148,8.770732230720895L69.40509915014164,10.376385291006926L69.68838526912181,11.839044130044925L69.97167138810198,12.963678167967018L70.25495750708215,13.5284630359141L70.53824362606233,14.20408957831971L70.8215297450425,14.837833197933747L71.10481586402267,15.243265531353941L71.38810198300284,15.199126289489413L71.671388101983,15.843305384815835L71.95467422096317,16.673348763776275L72.23796033994334,18.47431444381428L72.52124645892351,19.564116556047765L72.80453257790369,20.87870445592361L73.08781869688386,22.06651542788822L73.37110481586403,23.236557887153396L73.65439093484419,24.78608501049986L73.93767705382436,25.66097273103513L74.22096317280453,25.864887567252723L74.5042492917847,26.95215132052914L74.78753541076487,27.787694477229877L75.07082152974505,28.992004782415435L75.35410764872522,30.517276475727712L75.63739376770539,31.522043562899498L75.92067988668555,33.08172412207422L76.20396600566572,34.84616563711891L76.48725212464589,36.39879519919067L76.77053824362606,37.60479774368093L77.05382436260624,38.93955149527123L77.33711048158641,40.61331718757185L77.62039660056658,41.88320176581493L77.90368271954674,43.13010009350236L78.18696883852691,44.78595625316145L78.47025495750708,46.277101120495416L78.75354107648725,47.73242692254633L79.03682719546742,49.16392035438925L79.3201133144476,50.00411716917795L79.60339943342777,50.810469197872436L79.88668555240794,51.52995294225847L80.1699716713881,51.97642207881789L80.45325779036827,51.96471742362697L80.73654390934844,51.705240730238046L81.01983002832861,51.372433666978345L81.30311614730878,51.32603810604087L81.58640226628896,51.46846824752066L81.86968838526913,51.17401860850105L82.15297450424929,51.355793313815354L82.43626062322946,51.26102791275157L82.71954674220963,51.29444963901961L83.0028328611898,51.57254096476034L83.28611898016997,51.8975919312068L83.56940509915015,52.28666595134812L83.85269121813032,53.08653106270789L84.13597733711049,53.731556277686664L84.41926345609065,55.89691748800564L84.70254957507082,57.1534051717531L84.98583569405099,57.952142123576394L85.26912181303116,58.28057756863226L85.55240793201133,58.13913456674689L85.8356940509915,57.92083569643925L86.11898016997168,57.341384754518L86.40226628895184,55.436064317356184L86.68555240793201,54.19339658793053L86.96883852691218,53.381262741611614L87.25212464589235,53.53455141862997L87.53541076487252,53.92940725639572L87.8186968838527,54.62181517190638L88.10198300283287,55.10114195496559L88.38526912181304,55.84671438863257L88.6685552407932,56.81368813133248L88.95184135977337,57.909695121016576L89.23512747875354,59.170131363141685L89.51841359773371,60.0849277272797L89.80169971671388,60.74349085669615L90.08498583569406,61.56126550069744L90.36827195467423,62.37791198516226L90.6515580736544,63.01969374147366L90.93484419263456,63.657667959349475L91.21813031161473,64.22597832584805L91.5014164305949,65.24089884884809L91.78470254957507,66.17811738377351L92.06798866855524,66.98996919020831L92.35127478753542,67.82339704777817L92.63456090651559,68.45826882692867L92.91784702549575,69.26180045678198L93.20113314447592,70.32100124158862L93.48441926345609,71.23875902450987L93.76770538243626,71.92326982326523L94.05099150141643,72.43517221294012L94.3342776203966,72.82072073452996L94.61756373937678,73.1745397691565L94.90084985835695,73.51750026824445L95.1841359773371,73.4185042689189L95.46742209631728,73.39354373917442L95.75070821529745,73.79954015236285L96.03399433427762,74.91246953509403L96.3172804532578,75.52111160502153L96.60056657223797,78.27889759193121L96.88385269121814,76.4412667269578L97.1671388101983,76.84881435950888L97.45042492917847,77.27638682383237L97.73371104815864,77.72680451876946L98.01699716713881,77.8050705866123L98.30028328611898,78.30103772283451L98.58356940509915,75.99183617161515L98.86685552407933,78.65612593693956L99.1501416430595,78.86427137141894L99.43342776203966,79.13164518156317L99.71671388101983,79.25249927190791L100,97Z"/>
		<path class="rolling-line" d="M0,97L0.28328611898017,97L0.56657223796034,97L0.8498583569405099,97L1.13314447592068,97L1.41643059490085,97L1.6997167138810199,97L1.9830028328611897,97L2.26628895184136,96.99985898005794L2.54957507082153,96.99985898005794L2.8328611898017,96.99985898005794L3.1161473087818696,96.99971796011589L3.3994334277620397,96.99957694017382L3.68271954674221,96.99957694017382L3.9660056657223794,96.99957694017382L4.2492917847025495,96.99971796011589L4.53257790368272,96.99971796011589L4.81586402266289,96.99971796011589L5.09915014164306,96.99985898005794L5.38243626062323,97L5.6657223796034,97L5.949008498583569,97L6.232294617563739,97L6.515580736543909,97L6.798866855524079,97L7.0821529745042495,97L7.36543909348442,97L7.64872521246459,97L7.932011331444759,97L8.215297450424929,97L8.498583569405099,97L8.78186968838527,97L9.06515580736544,97L9.34844192634561,97L9.63172804532578,97L9.91501416430595,97L10.19830028328612,97L10.48158640226629,97L10.76487252124646,97L11.04815864022663,97L11.3314447592068,96.99971796011589L11.614730878186968,96.99957694017382L11.898016997167138,96.99647450144852L12.181303116147308,96.9961924615644L12.464589235127479,96.99605144162234L12.747875354107649,96.99562838179617L13.031161473087819,96.99492328208586L13.314447592067989,96.99393614249145L13.597733711048159,96.99196186330262L13.881019830028329,96.99393614249145L14.164305949008499,96.99280798295499L14.44759206798867,96.99153880347644L14.73087818696884,96.99041064393998L15.01416430594901,96.98970554422968L15.29745042492918,96.98900044451938L15.58073654390935,96.98829534480909L15.864022662889518,96.98589800579408L16.14730878186969,96.98350066677908L16.430594900849858,96.97673170956023L16.71388101983003,96.96728337344227L16.997167138810198,96.95896319686078L17.28045325779037,96.94768160149604L17.56373937677054,96.94006652462484L17.84702549575071,96.93146430815924L18.13031161473088,96.92497739082451L18.413597733711047,96.91158049632888L18.69688385269122,96.90340133968945L18.980169971671387,96.89620932264442L19.26345609065156,96.88309446803292L19.546742209631727,96.84995478164902L19.8300283286119,96.80229004123301L20.113314447592067,96.74404880516255L20.39660056657224,96.68665368874446L20.679886685552407,96.62418185441224L20.96317280453258,96.55522310274529L21.246458923512748,96.51319916001165L21.52974504249292,96.47596989530803L21.813031161473088,96.45608608347767L22.09631728045326,96.40997256242431L22.379603399433428,96.3661153604439L22.6628895184136,96.32733487637762L22.946175637393768,96.3063229050108L23.229461756373937,96.19942978892993L23.51274787535411,96.13427857569859L23.796033994334277,96.08957525406582L24.07932011331445,96.05488434831926L24.362606232294617,96.04416683272275L24.64589235127479,95.97647726053434L24.929178470254957,95.86436640659728L25.21246458923513,95.85125155198577L25.495750708215297,95.80217661214917L25.77903682719547,95.72785910268398L26.062322946175637,95.63972163889697L26.34560906515581,95.57175002682445L26.628895184135978,95.4792409448336L26.91218130311615,95.5013810757369L27.195467422096318,95.47218994773066L27.478753541076486,95.39970569751222L27.762039660056658,95.35627155535799L28.045325779036826,95.31255537331964L28.328611898016998,95.19071414338049L28.611898016997166,95.09848710127378L28.89518413597734,94.93532702831129L29.178470254957507,94.60294302487776L29.46175637393768,94.45332086635295L29.745042492917847,94.19328009319578L30.02832861189802,93.99641625408115L30.311614730878187,93.85158877358636L30.59490084985836,93.76232315026289L30.878186968838527,93.5282300464446L31.1614730878187,93.56997194929413L31.444759206798867,93.49001364214656L31.728045325779036,93.46730943147504L32.01133144475921,93.38594092490688L32.29461756373938,93.2942779625684L32.577903682719544,93.05313386164717L32.861189801699716,92.90802434126826L33.14447592067989,92.71539110041539L33.42776203966006,92.42122350127991L33.711048158640224,92.1551188706142L33.994334277620396,91.85601557350664L34.27762039660057,91.47751804901976L34.56090651558074,91.22650255215439L34.844192634560905,90.98183295268169L35.12747875354108,90.76113674335903L35.41076487252125,90.6517052683211L35.69405099150142,90.51674918377044L35.977337110481585,90.32242370361287L36.26062322946176,90.13768757951532L36.54390934844193,89.91022241297384L36.827195467422094,89.71067919496006L37.110481586402265,89.47997056975122L37.39376770538244,89.12431827587793L37.67705382436261,88.73820567451985L37.960339943342774,88.40187311270866L38.243626062322946,88.13069176412881L38.52691218130312,87.90632903631264L38.81019830028329,87.68196630849646L39.093484419263454,87.42587409371694L39.376770538243626,87.27413663606126L39.6600566572238,87.17655083615628L39.94334277620397,87.02072380018087L40.226628895184135,86.79918147120587L40.50991501416431,86.52306442465397L40.79320113314448,86.30885513266604L41.07648725212464,86.2129615720658L41.359773371104815,86.07349284936925L41.64305949008499,85.66665031652846L41.92634560906516,85.29576786891276L42.20963172804532,84.86452888609574L42.492917847025495,84.3732154079615L42.77620396600567,83.90517022026702L43.05949008498584,83.30357914744248L43.342776203966004,82.59932555679885L43.626062322946176,82.02946397093763L43.90934844192635,81.506279985898L44.19263456090652,80.93712349974709L44.475920679886684,80.30352090007511L44.759206798866856,79.64947040880455L45.04249291784703,79.14334983675408L45.3257790368272,78.76471129232515L45.609065155807365,78.45080090130136L45.892351274787536,77.94214197029385L46.17563739376771,77.34717883474609L46.45892351274787,76.64997624120542L46.742209631728045,75.97463173868391L47.02549575070822,75.44862735480311L47.30878186968839,74.87058661230246L47.59206798866855,74.06240132436119L47.875354107648725,73.27226658900352L48.1586402266289,72.65981698064041L48.44192634560907,72.12577446006223L48.725212464589234,71.49781265807263L49.008498583569406,70.61700209997088L49.29178470254958,69.67541194684162L49.57507082152975,68.57320007970692L49.858356940509914,67.3815815693067L50.141643059490086,66.28585661950675L50.42492917847026,64.83828691426908L50.70821529745042,63.18496911356704L50.991501416430594,61.96514661475498L51.274787535410766,60.79538619537393L51.55807365439094,58.95860145005288L51.8413597733711,56.93440120173516L52.124645892351275,54.9556093747605L52.40793201133145,53.57939576020478L52.69121813031162,52.23886019099005L52.97450424929178,50.750394702555226L53.257790368271955,49.22893054767854L53.54107648725213,48.3259798586735L53.8243626062323,47.51257683287604L54.107648725212464,46.3559312681065L54.390934844192635,45.49937614003894L54.67422096317281,45.07053449623692L54.95750708215297,44.457520808105585L55.240793201133144,43.89400511963703L55.524079320113316,43.30750318061283L55.80736543909349,42.25549441285121L56.09065155807365,41.63232728889162L56.373937677053824,40.26951056883153L56.657223796033996,38.987357255629306L56.94050991501417,38.76863532549549L57.22379603399433,37.57645273532704L57.507082152974505,36.065142016278614L57.79036827195468,35.780986833029324L58.07365439093485,35.29235273379421L58.35694050991501,35.420539861126024L58.640226628895185,35.99632428455372L58.92351274787536,35.787896810190226L59.20679886685552,35.28473765692301L59.49008498583569,34.91061175063996L59.773371104815865,34.297880102392746L60.05665722379604,33.6102668649121L60.3399433427762,32.79954321801377L60.623229461756374,32.3162678765769L60.906515580736546,31.484814298195857L61.18980169971672,31.115342050000777L61.47308781869688,30.253992243903184L61.756373937677054,29.073937368751828L62.039660056657226,28.14405187081347L62.3229461756374,26.801259982525792L62.60623229461756,24.38925489354527L62.889518413597735,23.127690491883683L63.172804532577906,21.54742102116832L63.45609065155807,20.401916031821457L63.73937677053824,19.54521988381184L64.02266288951841,18.14066126090222L64.30594900849859,16.466613528717488L64.58923512747876,14.73347844080996L64.87252124645893,13.903153021965394L65.15580736543909,12.302717699535549L65.43909348441926,10.631349346249948L65.72237960339943,8.76847591164794L66.0056657223796,7.197795796992608L66.28895184135978,6.670381213691215L66.57223796033995,6.49142690721807L66.85552407932012,5.363267370744495L67.13881019830029,5.304462054905812L67.42209631728045,5L67.70538243626062,5.017909532641525L67.98866855524079,5.614846947378098L68.27195467422096,5.86402918499671L68.55524079320114,6.584641088919213L68.83852691218131,7.81518110332776L69.12181303116148,8.770732230720895L69.40509915014164,10.376385291006926L69.68838526912181,11.839044130044925L69.97167138810198,12.963678167967018L70.25495750708215,13.5284630359141L70.53824362606233,14.20408957831971L70.8215297450425,14.837833197933747L71.10481586402267,15.243265531353941L71.38810198300284,15.199126289489413L71.671388101983,15.843305384815835L71.95467422096317,16.673348763776275L72.23796033994334,18.47431444381428L72.52124645892351,19.564116556047765L72.80453257790369,20.87870445592361L73.08781869688386,22.06651542788822L73.37110481586403,23.236557887153396L73.65439093484419,24.78608501049986L73.93767705382436,25.66097273103513L74.22096317280453,25.864887567252723L74.5042492917847,26.95215132052914L74.78753541076487,27.787694477229877L75.07082152974505,28.992004782415435L75.35410764872522,30.517276475727712L75.63739376770539,31.522043562899498L75.92067988668555,33.08172412207422L76.20396600566572,34.84616563711891L76.48725212464589,36.39879519919067L76.77053824362606,37.60479774368093L77.05382436260624,38.93955149527123L77.33711048158641,40.61331718757185L77.62039660056658,41.88320176581493L77.90368271954674,43.13010009350236L78.18696883852691,44.78595625316145L78.47025495750708,46.277101120495416L78.75354107648725,47.73242692254633L79.03682719546742,49.16392035438925L79.3201133144476,50.00411716917795L79.60339943342777,50.810469197872436L79.88668555240794,51.52995294225847L80.1699716713881,51.97642207881789L80.45325779036827,51.96471742362697L80.73654390934844,51.705240730238046L81.01983002832861,51.372433666978345L81.30311614730878,51.32603810604087L81.58640226628896,51.46846824752066L81.86968838526913,51.17401860850105L82.15297450424929,51.355793313815354L82.43626062322946,51.26102791275157L82.71954674220963,51.29444963901961L83.0028328611898,51.57254096476034L83.28611898016997,51.8975919312068L83.56940509915015,52.28666595134812L83.85269121813032,53.08653106270789L84.13597733711049,53.731556277686664L84.41926345609065,55.89691748800564L84.70254957507082,57.1534051717531L84.98583569405099,57.952142123576394L85.26912181303116,58.28057756863226L85.55240793201133,58.13913456674689L85.8356940509915,57.92083569643925L86.11898016997168,57.341384754518L86.40226628895184,55.436064317356184L86.68555240793201,54.19339658793053L86.96883852691218,53.381262741611614L87.25212464589235,53.53455141862997L87.53541076487252,53.92940725639572L87.8186968838527,54.62181517190638L88.10198300283287,55.10114195496559L88.38526912181304,55.84671438863257L88.6685552407932,56.81368813133248L88.95184135977337,57.909695121016576L89.23512747875354,59.170131363141685L89.51841359773371,60.0849277272797L89.80169971671388,60.74349085669615L90.08498583569406,61.56126550069744L90.36827195467423,62.37791198516226L90.6515580736544,63.01969374147366L90.93484419263456,63.657667959349475L91.21813031161473,64.22597832584805L91.5014164305949,65.24089884884809L91.78470254957507,66.17811738377351L92.06798866855524,66.98996919020831L92.35127478753542,67.82339704777817L92.63456090651559,68.45826882692867L92.91784702549575,69.26180045678198L93.20113314447592,70.32100124158862L93.48441926345609,71.23875902450987L93.76770538243626,71.92326982326523L94.05099150141643,72.43517221294012L94.3342776203966,72.82072073452996L94.61756373937678,73.1745397691565L94.90084985835695,73.51750026824445L95.1841359773371,73.4185042689189L95.46742209631728,73.39354373917442L95.75070821529745,73.79954015236285L96.03399433427762,74.91246953509403L96.3172804532578,75.52111160502153L96.60056657223797,78.27889759193121L96.88385269121814,76.4412667269578L97.1671388101983,76.84881435950888L97.45042492917847,77.27638682383237L97.73371104815864,77.72680451876946L98.01699716713881,77.8050705866123L98.30028328611898,78.30103772283451L98.58356940509915,75.99183617161515L98.86685552407933,78.65612593693956L99.1501416430595,78.86427137141894L99.43342776203966,79.13164518156317L99.71671388101983,79.25249927190791"/>
	</g>

	
</svg>