<?xml version="1.0" encoding="UTF-8"?>
<svg xmlns="http://www.w3.org/2000/svg" viewBox="0 0 100 100" preserveAspectRatio="none">
	<style>
		* { vector-effect: non-scaling-stroke }
		.rolling-line { fill: none; stroke-width: 1.5; stroke-linecap: round; stroke-linejoin: round;}

		.cases rect { fill: #ffdad8; }
		.cases.faded .rolling-line { stroke: #fca9a9; }
		.cases.normal .rolling-line { stroke: #cf1111; }
		.cases.normal .rolling-area { fill: rgba(207, 17, 17, 0.2); }

		.deaths rect { fill: rgba(85, 85, 85, 0.1); }
		.deaths.faded .rolling-line { stroke: #bbb; }
		.deaths.normal .rolling-line { stroke: #555; }
		.deaths.normal .rolling-area { fill: rgba(85, 85, 85, 0.3); }
	</style>

	<g class="cases normal">
		<g>
			
				<rect
					x="0"
					y="97"
					width="0.18328611898016997"
					height="0"
				/>
			
				<rect
					x="0.28328611898017"
					y="97"
					width="0.18328611898016997"
					height="0"
				/>
			
				<rect
					x="0.56657223796034"
					y="97"
					width="0.18328611898016997"
					height="0"
				/>
			
				<rect
					x="0.8498583569405099"
					y="97"
					width="0.18328611898016997"
					height="0"
				/>
			
				<rect
					x="1.13314447592068"
					y="96.99097609505927"
					width="0.18328611898016997"
					height="0.009023904940733019"
				/>
			
				<rect
					x="1.41643059490085"
					y="97"
					width="0.18328611898016997"
					height="0"
				/>
			
				<rect
					x="1.6997167138810199"
					y="96.99097609505927"
					width="0.18328611898016997"
					height="0.009023904940733019"
				/>
			
				<rect
					x="1.9830028328611897"
					y="97"
					width="0.18328611898016997"
					height="0"
				/>
			
				<rect
					x="2.26628895184136"
					y="97"
					width="0.18328611898016997"
					height="0"
				/>
			
				<rect
					x="2.54957507082153"
					y="96.98195219011855"
					width="0.18328611898016997"
					height="0.018047809881451826"
				/>
			
				<rect
					x="2.8328611898017"
					y="97"
					width="0.18328611898016997"
					height="0"
				/>
			
				<rect
					x="3.1161473087818696"
					y="97"
					width="0.18328611898016997"
					height="0"
				/>
			
				<rect
					x="3.3994334277620397"
					y="97"
					width="0.18328611898016997"
					height="0"
				/>
			
				<rect
					x="3.68271954674221"
					y="97"
					width="0.18328611898016997"
					height="0"
				/>
			
				<rect
					x="3.9660056657223794"
					y="96.99097609505927"
					width="0.18328611898016997"
					height="0.009023904940733019"
				/>
			
				<rect
					x="4.2492917847025495"
					y="97"
					width="0.18328611898016997"
					height="0"
				/>
			
				<rect
					x="4.53257790368272"
					y="96.98195219011855"
					width="0.18328611898016997"
					height="0.018047809881451826"
				/>
			
				<rect
					x="4.81586402266289"
					y="97"
					width="0.18328611898016997"
					height="0"
				/>
			
				<rect
					x="5.09915014164306"
					y="97"
					width="0.18328611898016997"
					height="0"
				/>
			
				<rect
					x="5.38243626062323"
					y="97"
					width="0.18328611898016997"
					height="0"
				/>
			
				<rect
					x="5.6657223796034"
					y="97"
					width="0.18328611898016997"
					height="0"
				/>
			
				<rect
					x="5.949008498583569"
					y="97"
					width="0.18328611898016997"
					height="0"
				/>
			
				<rect
					x="6.232294617563739"
					y="97"
					width="0.18328611898016997"
					height="0"
				/>
			
				<rect
					x="6.515580736543909"
					y="97"
					width="0.18328611898016997"
					height="0"
				/>
			
				<rect
					x="6.798866855524079"
					y="97"
					width="0.18328611898016997"
					height="0"
				/>
			
				<rect
					x="7.0821529745042495"
					y="96.99097609505927"
					width="0.18328611898016997"
					height="0.009023904940733019"
				/>
			
				<rect
					x="7.36543909348442"
					y="97"
					width="0.18328611898016997"
					height="0"
				/>
			
				<rect
					x="7.64872521246459"
					y="97"
					width="0.18328611898016997"
					height="0"
				/>
			
				<rect
					x="7.932011331444759"
					y="97"
					width="0.18328611898016997"
					height="0"
				/>
			
				<rect
					x="8.215297450424929"
					y="97"
					width="0.18328611898016997"
					height="0"
				/>
			
				<rect
					x="8.498583569405099"
					y="96.99097609505927"
					width="0.18328611898016997"
					height="0.009023904940733019"
				/>
			
				<rect
					x="8.78186968838527"
					y="97"
					width="0.18328611898016997"
					height="0"
				/>
			
				<rect
					x="9.06515580736544"
					y="97"
					width="0.18328611898016997"
					height="0"
				/>
			
				<rect
					x="9.34844192634561"
					y="96.99097609505927"
					width="0.18328611898016997"
					height="0.009023904940733019"
				/>
			
				<rect
					x="9.63172804532578"
					y="96.99097609505927"
					width="0.18328611898016997"
					height="0.009023904940733019"
				/>
			
				<rect
					x="9.91501416430595"
					y="96.99097609505927"
					width="0.18328611898016997"
					height="0.009023904940733019"
				/>
			
				<rect
					x="10.19830028328612"
					y="96.99097609505927"
					width="0.18328611898016997"
					height="0.009023904940733019"
				/>
			
				<rect
					x="10.48158640226629"
					y="96.99097609505927"
					width="0.18328611898016997"
					height="0.009023904940733019"
				/>
			
				<rect
					x="10.76487252124646"
					y="96.99097609505927"
					width="0.18328611898016997"
					height="0.009023904940733019"
				/>
			
				<rect
					x="11.04815864022663"
					y="96.91878485553345"
					width="0.18328611898016997"
					height="0.08121514446655453"
				/>
			
				<rect
					x="11.3314447592068"
					y="96.97292828517782"
					width="0.18328611898016997"
					height="0.027071714822184845"
				/>
			
				<rect
					x="11.614730878186968"
					y="96.94585657035563"
					width="0.18328611898016997"
					height="0.05414342964436969"
				/>
			
				<rect
					x="11.898016997167138"
					y="97"
					width="0.18328611898016997"
					height="0"
				/>
			
				<rect
					x="12.181303116147308"
					y="96.89171314071126"
					width="0.18328611898016997"
					height="0.10828685928873938"
				/>
			
				<rect
					x="12.464589235127479"
					y="96.94585657035563"
					width="0.18328611898016997"
					height="0.05414342964436969"
				/>
			
				<rect
					x="12.747875354107649"
					y="96.94585657035563"
					width="0.18328611898016997"
					height="0.05414342964436969"
				/>
			
				<rect
					x="13.031161473087819"
					y="96.95488047529636"
					width="0.18328611898016997"
					height="0.04511952470363667"
				/>
			
				<rect
					x="13.314447592067989"
					y="96.86464142588908"
					width="0.18328611898016997"
					height="0.13535857411092422"
				/>
			
				<rect
					x="13.597733711048159"
					y="97"
					width="0.18328611898016997"
					height="0"
				/>
			
				<rect
					x="13.881019830028329"
					y="96.76537847154107"
					width="0.18328611898016997"
					height="0.23462152845893058"
				/>
			
				<rect
					x="14.164305949008499"
					y="96.68416332707451"
					width="0.18328611898016997"
					height="0.3158366729254851"
				/>
			
				<rect
					x="14.44759206798867"
					y="96.65709161225233"
					width="0.18328611898016997"
					height="0.34290838774766996"
				/>
			
				<rect
					x="14.73087818696884"
					y="96.84659361600762"
					width="0.18328611898016997"
					height="0.15340638399237605"
				/>
			
				<rect
					x="15.01416430594901"
					y="96.49466132331922"
					width="0.18328611898016997"
					height="0.505338676680779"
				/>
			
				<rect
					x="15.29745042492918"
					y="96.3232071294454"
					width="0.18328611898016997"
					height="0.6767928705546069"
				/>
			
				<rect
					x="15.58073654390935"
					y="96.0976095059272"
					width="0.18328611898016997"
					height="0.9023904940728045"
				/>
			
				<rect
					x="15.864022662889518"
					y="95.69153378359442"
					width="0.18328611898016997"
					height="1.3084662164055771"
				/>
			
				<rect
					x="16.14730878186969"
					y="94.50037833141832"
					width="0.18328611898016997"
					height="2.499621668581682"
				/>
			
				<rect
					x="16.430594900849858"
					y="95.87201188240898"
					width="0.18328611898016997"
					height="1.1279881175910162"
				/>
			
				<rect
					x="16.71388101983003"
					y="94.013087464619"
					width="0.18328611898016997"
					height="2.986912535380995"
				/>
			
				<rect
					x="16.997167138810198"
					y="95.8449401675868"
					width="0.18328611898016997"
					height="1.155059832413201"
				/>
			
				<rect
					x="17.28045325779037"
					y="95.05083653280273"
					width="0.18328611898016997"
					height="1.9491634671972662"
				/>
			
				<rect
					x="17.56373937677054"
					y="94.17551775355211"
					width="0.18328611898016997"
					height="2.824482246447886"
				/>
			
				<rect
					x="17.84702549575071"
					y="84.13191155452176"
					width="0.18328611898016997"
					height="12.868088445478236"
				/>
			
				<rect
					x="18.13031161473088"
					y="91.28786817251913"
					width="0.18328611898016997"
					height="5.712131827480874"
				/>
			
				<rect
					x="18.413597733711047"
					y="91.07129445394165"
					width="0.18328611898016997"
					height="5.928705546058353"
				/>
			
				<rect
					x="18.69688385269122"
					y="90.58400358714233"
					width="0.18328611898016997"
					height="6.415996412857666"
				/>
			
				<rect
					x="18.980169971671387"
					y="89.1582266065073"
					width="0.18328611898016997"
					height="7.841773393492701"
				/>
			
				<rect
					x="19.26345609065156"
					y="86.45105512428887"
					width="0.18328611898016997"
					height="10.548944875711129"
				/>
			
				<rect
					x="19.546742209631727"
					y="86.96541770591038"
					width="0.18328611898016997"
					height="10.034582294089617"
				/>
			
				<rect
					x="19.8300283286119"
					y="87.44368466776896"
					width="0.18328611898016997"
					height="9.556315332231037"
				/>
			
				<rect
					x="20.113314447592067"
					y="81.90300703416193"
					width="0.18328611898016997"
					height="15.09699296583807"
				/>
			
				<rect
					x="20.39660056657224"
					y="85.71109491914918"
					width="0.18328611898016997"
					height="11.288905080850824"
				/>
			
				<rect
					x="20.679886685552407"
					y="84.70041756578763"
					width="0.18328611898016997"
					height="12.299582434212368"
				/>
			
				<rect
					x="20.96317280453258"
					y="82.43541742566488"
					width="0.18328611898016997"
					height="14.56458257433512"
				/>
			
				<rect
					x="21.246458923512748"
					y="86.55934198357761"
					width="0.18328611898016997"
					height="10.44065801642239"
				/>
			
				<rect
					x="21.52974504249292"
					y="85.90059692290447"
					width="0.18328611898016997"
					height="11.09940307709553"
				/>
			
				<rect
					x="21.813031161473088"
					y="84.44774822744725"
					width="0.18328611898016997"
					height="12.55225177255275"
				/>
			
				<rect
					x="22.09631728045326"
					y="83.6987641173668"
					width="0.18328611898016997"
					height="13.301235882633193"
				/>
			
				<rect
					x="22.379603399433428"
					y="84.50189165709162"
					width="0.18328611898016997"
					height="12.498108342908381"
				/>
			
				<rect
					x="22.6628895184136"
					y="86.4600790292296"
					width="0.18328611898016997"
					height="10.539920970770396"
				/>
			
				<rect
					x="22.946175637393768"
					y="87.39856514306533"
					width="0.18328611898016997"
					height="9.601434856934674"
				/>
			
				<rect
					x="23.229461756373937"
					y="85.28697138693495"
					width="0.18328611898016997"
					height="11.713028613065049"
				/>
			
				<rect
					x="23.51274787535411"
					y="84.51993946697307"
					width="0.18328611898016997"
					height="12.48006053302693"
				/>
			
				<rect
					x="23.796033994334277"
					y="85.10649328812039"
					width="0.18328611898016997"
					height="11.89350671187961"
				/>
			
				<rect
					x="24.07932011331445"
					y="81.50595521676989"
					width="0.18328611898016997"
					height="15.494044783230109"
				/>
			
				<rect
					x="24.362606232294617"
					y="80.83818625115602"
					width="0.18328611898016997"
					height="16.161813748843983"
				/>
			
				<rect
					x="24.64589235127479"
					y="83.74388364207046"
					width="0.18328611898016997"
					height="13.256116357929542"
				/>
			
				<rect
					x="24.929178470254957"
					y="84.04167250511448"
					width="0.18328611898016997"
					height="12.958327494885523"
				/>
			
				<rect
					x="25.21246458923513"
					y="78.53709049127035"
					width="0.18328611898016997"
					height="18.462909508729652"
				/>
			
				<rect
					x="25.495750708215297"
					y="82.65199114424236"
					width="0.18328611898016997"
					height="14.34800885575764"
				/>
			
				<rect
					x="25.77903682719547"
					y="81.06378387467421"
					width="0.18328611898016997"
					height="15.936216125325785"
				/>
			
				<rect
					x="26.062322946175637"
					y="79.57483955945408"
					width="0.18328611898016997"
					height="17.425160440545923"
				/>
			
				<rect
					x="26.34560906515581"
					y="81.05475996973348"
					width="0.18328611898016997"
					height="15.945240030266518"
				/>
			
				<rect
					x="26.628895184135978"
					y="83.67169240254464"
					width="0.18328611898016997"
					height="13.328307597455364"
				/>
			
				<rect
					x="26.91218130311615"
					y="83.19342544068604"
					width="0.18328611898016997"
					height="13.806574559313958"
				/>
			
				<rect
					x="27.195467422096318"
					y="82.51663257013143"
					width="0.18328611898016997"
					height="14.483367429868565"
				/>
			
				<rect
					x="27.478753541076486"
					y="83.13025810610094"
					width="0.18328611898016997"
					height="13.86974189389906"
				/>
			
				<rect
					x="27.762039660056658"
					y="82.82344533811619"
					width="0.18328611898016997"
					height="14.176554661883813"
				/>
			
				<rect
					x="28.045325779036826"
					y="82.20981980214668"
					width="0.18328611898016997"
					height="14.790180197853317"
				/>
			
				<rect
					x="28.328611898016998"
					y="80.53137348317125"
					width="0.18328611898016997"
					height="16.46862651682875"
				/>
			
				<rect
					x="28.611898016997166"
					y="82.08348513297649"
					width="0.18328611898016997"
					height="14.916514867023508"
				/>
			
				<rect
					x="28.89518413597734"
					y="72.09402236359051"
					width="0.18328611898016997"
					height="24.90597763640949"
				/>
			
				<rect
					x="29.178470254957507"
					y="85.28697138693495"
					width="0.18328611898016997"
					height="11.713028613065049"
				/>
			
				<rect
					x="29.46175637393768"
					y="85.50354510551243"
					width="0.18328611898016997"
					height="11.49645489448757"
				/>
			
				<rect
					x="29.745042492917847"
					y="83.91533783594429"
					width="0.18328611898016997"
					height="13.084662164055715"
				/>
			
				<rect
					x="30.02832861189802"
					y="84.13191155452176"
					width="0.18328611898016997"
					height="12.868088445478236"
				/>
			
				<rect
					x="30.311614730878187"
					y="83.35585572961915"
					width="0.18328611898016997"
					height="13.644144270380849"
				/>
			
				<rect
					x="30.59490084985836"
					y="85.5576885351568"
					width="0.18328611898016997"
					height="11.4423114648432"
				/>
			
				<rect
					x="30.878186968838527"
					y="86.65860493792562"
					width="0.18328611898016997"
					height="10.341395062074383"
				/>
			
				<rect
					x="31.1614730878187"
					y="86.77591570215509"
					width="0.18328611898016997"
					height="10.224084297844911"
				/>
			
				<rect
					x="31.444759206798867"
					y="86.38788778970378"
					width="0.18328611898016997"
					height="10.612112210296218"
				/>
			
				<rect
					x="31.728045325779036"
					y="86.88420256144383"
					width="0.18328611898016997"
					height="10.115797438556172"
				/>
			
				<rect
					x="32.01133144475921"
					y="86.86615475156236"
					width="0.18328611898016997"
					height="10.133845248437638"
				/>
			
				<rect
					x="32.29461756373938"
					y="86.06302721183756"
					width="0.18328611898016997"
					height="10.936972788162436"
				/>
			
				<rect
					x="32.577903682719544"
					y="85.71109491914918"
					width="0.18328611898016997"
					height="11.288905080850824"
				/>
			
				<rect
					x="32.861189801699716"
					y="86.73079617745145"
					width="0.18328611898016997"
					height="10.269203822548548"
				/>
			
				<rect
					x="33.14447592067989"
					y="87.34442171342096"
					width="0.18328611898016997"
					height="9.655578286579043"
				/>
			
				<rect
					x="33.42776203966006"
					y="87.6151388616428"
					width="0.18328611898016997"
					height="9.384861138357195"
				/>
			
				<rect
					x="33.711048158640224"
					y="88.0663341086792"
					width="0.18328611898016997"
					height="8.9336658913208"
				/>
			
				<rect
					x="33.994334277620396"
					y="85.97278816243029"
					width="0.18328611898016997"
					height="11.027211837569709"
				/>
			
				<rect
					x="34.27762039660057"
					y="86.56836588851834"
					width="0.18328611898016997"
					height="10.431634111481657"
				/>
			
				<rect
					x="34.56090651558074"
					y="86.70372446262927"
					width="0.18328611898016997"
					height="10.296275537370732"
				/>
			
				<rect
					x="34.844192634560905"
					y="87.27223047389514"
					width="0.18328611898016997"
					height="9.727769526104865"
				/>
			
				<rect
					x="35.12747875354108"
					y="87.86780819998319"
					width="0.18328611898016997"
					height="9.132191800016813"
				/>
			
				<rect
					x="35.41076487252125"
					y="88.55362497547851"
					width="0.18328611898016997"
					height="8.446375024521487"
				/>
			
				<rect
					x="35.69405099150142"
					y="89.13115489168511"
					width="0.18328611898016997"
					height="7.868845108314886"
				/>
			
				<rect
					x="35.977337110481585"
					y="88.03926239385702"
					width="0.18328611898016997"
					height="8.960737606142985"
				/>
			
				<rect
					x="36.26062322946176"
					y="88.82434212370036"
					width="0.18328611898016997"
					height="8.175657876299638"
				/>
			
				<rect
					x="36.54390934844193"
					y="90.03354538575792"
					width="0.18328611898016997"
					height="6.966454614242082"
				/>
			
				<rect
					x="36.827195467422094"
					y="90.16890395986884"
					width="0.18328611898016997"
					height="6.831096040131158"
				/>
			
				<rect
					x="37.110481586402265"
					y="90.15988005492812"
					width="0.18328611898016997"
					height="6.840119945071876"
				/>
			
				<rect
					x="37.39376770538244"
					y="90.6381470167867"
					width="0.18328611898016997"
					height="6.361852983213296"
				/>
			
				<rect
					x="37.67705382436261"
					y="90.90886416500855"
					width="0.18328611898016997"
					height="6.091135834991448"
				/>
			
				<rect
					x="37.960339943342774"
					y="91.2156769329933"
					width="0.18328611898016997"
					height="5.784323067006696"
				/>
			
				<rect
					x="38.243626062322946"
					y="91.5044418910966"
					width="0.18328611898016997"
					height="5.495558108903396"
				/>
			
				<rect
					x="38.52691218130312"
					y="97"
					width="0.18328611898016997"
					height="0"
				/>
			
				<rect
					x="38.81019830028329"
					y="84.6913936608469"
					width="0.18328611898016997"
					height="12.308606339153101"
				/>
			
				<rect
					x="39.093484419263454"
					y="92.0819718073032"
					width="0.18328611898016997"
					height="4.918028192696795"
				/>
			
				<rect
					x="39.376770538243626"
					y="93.30922287924221"
					width="0.18328611898016997"
					height="3.6907771207577866"
				/>
			
				<rect
					x="39.6600566572238"
					y="92.74071686797635"
					width="0.18328611898016997"
					height="4.259283132023654"
				/>
			
				<rect
					x="39.94334277620397"
					y="93.34531849900513"
					width="0.18328611898016997"
					height="3.6546815009948688"
				/>
			
				<rect
					x="40.226628895184135"
					y="93.27312725947931"
					width="0.18328611898016997"
					height="3.7268727405206903"
				/>
			
				<rect
					x="40.50991501416431"
					y="92.78583639267998"
					width="0.18328611898016997"
					height="4.2141636073200175"
				/>
			
				<rect
					x="40.79320113314448"
					y="93.59798783734551"
					width="0.18328611898016997"
					height="3.4020121626544864"
				/>
			
				<rect
					x="41.07648725212464"
					y="93.75139422133789"
					width="0.18328611898016997"
					height="3.2486057786621103"
				/>
			
				<rect
					x="41.359773371104815"
					y="94.11235041896701"
					width="0.18328611898016997"
					height="2.8876495810329885"
				/>
			
				<rect
					x="41.64305949008499"
					y="93.51677269287896"
					width="0.18328611898016997"
					height="3.483227307121041"
				/>
			
				<rect
					x="41.92634560906516"
					y="93.6882268867528"
					width="0.18328611898016997"
					height="3.311773113247199"
				/>
			
				<rect
					x="42.20963172804532"
					y="93.30922287924221"
					width="0.18328611898016997"
					height="3.6907771207577866"
				/>
			
				<rect
					x="42.492917847025495"
					y="93.48067707311606"
					width="0.18328611898016997"
					height="3.5193229268839445"
				/>
			
				<rect
					x="42.77620396600567"
					y="94.13039822884848"
					width="0.18328611898016997"
					height="2.8696017711515225"
				/>
			
				<rect
					x="43.05949008498584"
					y="94.29282851778157"
					width="0.18328611898016997"
					height="2.7071714822184276"
				/>
			
				<rect
					x="43.342776203966004"
					y="94.05820698932264"
					width="0.18328611898016997"
					height="2.941793010677358"
				/>
			
				<rect
					x="43.626062322946176"
					y="94.48233052153687"
					width="0.18328611898016997"
					height="2.5176694784631337"
				/>
			
				<rect
					x="43.90934844192635"
					y="93.57091612252333"
					width="0.18328611898016997"
					height="3.429083877476671"
				/>
			
				<rect
					x="44.19263456090652"
					y="95.44788835019477"
					width="0.18328611898016997"
					height="1.5521116498052265"
				/>
			
				<rect
					x="44.475920679886684"
					y="94.85231062410672"
					width="0.18328611898016997"
					height="2.147689375893279"
				/>
			
				<rect
					x="44.759206798866856"
					y="95.03278872292128"
					width="0.18328611898016997"
					height="1.967211277078718"
				/>
			
				<rect
					x="45.04249291784703"
					y="90.97203149959364"
					width="0.18328611898016997"
					height="6.0279685004063595"
				/>
			
				<rect
					x="45.3257790368272"
					y="94.41916318695176"
					width="0.18328611898016997"
					height="2.5808368130482364"
				/>
			
				<rect
					x="45.609065155807365"
					y="97"
					width="0.18328611898016997"
					height="0"
				/>
			
				<rect
					x="45.892351274787536"
					y="91.87442199366646"
					width="0.18328611898016997"
					height="5.125578006333541"
				/>
			
				<rect
					x="46.17563739376771"
					y="94.12137432390774"
					width="0.18328611898016997"
					height="2.8786256760922555"
				/>
			
				<rect
					x="46.45892351274787"
					y="94.96059748339546"
					width="0.18328611898016997"
					height="2.0394025166045395"
				/>
			
				<rect
					x="46.742209631728045"
					y="95.02376481798055"
					width="0.18328611898016997"
					height="1.976235182019451"
				/>
			
				<rect
					x="47.02549575070822"
					y="93.3994619286495"
					width="0.18328611898016997"
					height="3.600538071350499"
				/>
			
				<rect
					x="47.30878186968839"
					y="94.90645405375109"
					width="0.18328611898016997"
					height="2.093545946248909"
				/>
			
				<rect
					x="47.59206798866855"
					y="94.5906173808256"
					width="0.18328611898016997"
					height="2.4093826191743943"
				/>
			
				<rect
					x="47.875354107648725"
					y="93.65213126698988"
					width="0.18328611898016997"
					height="3.3478687330101167"
				/>
			
				<rect
					x="48.1586402266289"
					y="94.10332651402629"
					width="0.18328611898016997"
					height="2.8966734859737073"
				/>
			
				<rect
					x="48.44192634560907"
					y="95.0057170080991"
					width="0.18328611898016997"
					height="1.9942829919009029"
				/>
			
				<rect
					x="48.725212464589234"
					y="94.80719109940307"
					width="0.18328611898016997"
					height="2.19280890059693"
				/>
			
				<rect
					x="49.008498583569406"
					y="91.90149370848863"
					width="0.18328611898016997"
					height="5.09850629151137"
				/>
			
				<rect
					x="49.29178470254958"
					y="94.013087464619"
					width="0.18328611898016997"
					height="2.986912535380995"
				/>
			
				<rect
					x="49.57507082152975"
					y="93.90480060533027"
					width="0.18328611898016997"
					height="3.0951993946697343"
				/>
			
				<rect
					x="49.858356940509914"
					y="93.07460135078328"
					width="0.18328611898016997"
					height="3.925398649216717"
				/>
			
				<rect
					x="50.141643059490086"
					y="93.34531849900513"
					width="0.18328611898016997"
					height="3.6546815009948688"
				/>
			
				<rect
					x="50.42492917847026"
					y="94.02211136955974"
					width="0.18328611898016997"
					height="2.977888630440262"
				/>
			
				<rect
					x="50.70821529745042"
					y="93.94089622509318"
					width="0.18328611898016997"
					height="3.0591037749068164"
				/>
			
				<rect
					x="50.991501416430594"
					y="89.90721071658773"
					width="0.18328611898016997"
					height="7.092789283412273"
				/>
			
				<rect
					x="51.274787535410766"
					y="91.82930246896281"
					width="0.18328611898016997"
					height="5.170697531037192"
				/>
			
				<rect
					x="51.55807365439094"
					y="92.10001961718466"
					width="0.18328611898016997"
					height="4.899980382815343"
				/>
			
				<rect
					x="51.8413597733711"
					y="93.10167306560547"
					width="0.18328611898016997"
					height="3.8983269343945324"
				/>
			
				<rect
					x="52.124645892351275"
					y="92.18123476165121"
					width="0.18328611898016997"
					height="4.818765238348789"
				/>
			
				<rect
					x="52.40793201133145"
					y="93.84163327074518"
					width="0.18328611898016997"
					height="3.1583667292548228"
				/>
			
				<rect
					x="52.69121813031162"
					y="93.79651374604153"
					width="0.18328611898016997"
					height="3.2034862539584736"
				/>
			
				<rect
					x="52.97450424929178"
					y="90.80960121066053"
					width="0.18328611898016997"
					height="6.1903987893394685"
				/>
			
				<rect
					x="53.257790368271955"
					y="93.41750973853095"
					width="0.18328611898016997"
					height="3.5824902614690473"
				/>
			
				<rect
					x="53.54107648725213"
					y="92.70462124821344"
					width="0.18328611898016997"
					height="4.295378751786558"
				/>
			
				<rect
					x="53.8243626062323"
					y="94.03113527450046"
					width="0.18328611898016997"
					height="2.968864725499543"
				/>
			
				<rect
					x="54.107648725212464"
					y="92.37073676540649"
					width="0.18328611898016997"
					height="4.629263234593509"
				/>
			
				<rect
					x="54.390934844192635"
					y="94.41013928201104"
					width="0.18328611898016997"
					height="2.5898607179889552"
				/>
			
				<rect
					x="54.67422096317281"
					y="94.4281870918925"
					width="0.18328611898016997"
					height="2.5718129081075034"
				/>
			
				<rect
					x="54.95750708215297"
					y="95.67348597371297"
					width="0.18328611898016997"
					height="1.326514026287029"
				/>
			
				<rect
					x="55.240793201133144"
					y="90.13280834010594"
					width="0.18328611898016997"
					height="6.867191659894061"
				/>
			
				<rect
					x="55.524079320113316"
					y="93.4355575484124"
					width="0.18328611898016997"
					height="3.5644424515875954"
				/>
			
				<rect
					x="55.80736543909349"
					y="93.6250595521677"
					width="0.18328611898016997"
					height="3.3749404478323015"
				/>
			
				<rect
					x="56.09065155807365"
					y="93.17386430513129"
					width="0.18328611898016997"
					height="3.826135694868711"
				/>
			
				<rect
					x="56.373937677053824"
					y="94.87035843398817"
					width="0.18328611898016997"
					height="2.129641566011827"
				/>
			
				<rect
					x="56.657223796033996"
					y="94.92450186363254"
					width="0.18328611898016997"
					height="2.0754981363674574"
				/>
			
				<rect
					x="56.94050991501417"
					y="90.85472073536418"
					width="0.18328611898016997"
					height="6.145279264635818"
				/>
			
				<rect
					x="57.22379603399433"
					y="94.39209147212958"
					width="0.18328611898016997"
					height="2.6079085278704213"
				/>
			
				<rect
					x="57.507082152974505"
					y="93.18288821007202"
					width="0.18328611898016997"
					height="3.817111789927978"
				/>
			
				<rect
					x="57.79036827195468"
					y="93.48067707311606"
					width="0.18328611898016997"
					height="3.5193229268839445"
				/>
			
				<rect
					x="58.07365439093485"
					y="93.22800773477566"
					width="0.18328611898016997"
					height="3.771992265224341"
				/>
			
				<rect
					x="58.35694050991501"
					y="94.86133452904744"
					width="0.18328611898016997"
					height="2.13866547095256"
				/>
			
				<rect
					x="58.640226628895185"
					y="95.21326682173584"
					width="0.18328611898016997"
					height="1.7867331782641571"
				/>
			
				<rect
					x="58.92351274787536"
					y="89.91623462152846"
					width="0.18328611898016997"
					height="7.08376537847154"
				/>
			
				<rect
					x="59.20679886685552"
					y="94.45525880671468"
					width="0.18328611898016997"
					height="2.5447411932853186"
				/>
			
				<rect
					x="59.49008498583569"
					y="93.96796793991537"
					width="0.18328611898016997"
					height="3.0320320600846316"
				/>
			
				<rect
					x="59.773371104815865"
					y="93.54384440770114"
					width="0.18328611898016997"
					height="3.456155592298856"
				/>
			
				<rect
					x="60.05665722379604"
					y="92.4970714345767"
					width="0.18328611898016997"
					height="4.5029285654233036"
				/>
			
				<rect
					x="60.3399433427762"
					y="94.68085643023288"
					width="0.18328611898016997"
					height="2.319143569767121"
				/>
			
				<rect
					x="60.623229461756374"
					y="94.5906173808256"
					width="0.18328611898016997"
					height="2.4093826191743943"
				/>
			
				<rect
					x="60.906515580736546"
					y="90.22304738951321"
					width="0.18328611898016997"
					height="6.776952610486788"
				/>
			
				<rect
					x="61.18980169971672"
					y="94.09430260908556"
					width="0.18328611898016997"
					height="2.9056973909144403"
				/>
			
				<rect
					x="61.47308781869688"
					y="92.95729058655382"
					width="0.18328611898016997"
					height="4.042709413446175"
				/>
			
				<rect
					x="61.756373937677054"
					y="93.1106969705462"
					width="0.18328611898016997"
					height="3.8893030294537994"
				/>
			
				<rect
					x="62.039660056657226"
					y="92.39780848022868"
					width="0.18328611898016997"
					height="4.602191519771324"
				/>
			
				<rect
					x="62.3229461756374"
					y="94.15746994367066"
					width="0.18328611898016997"
					height="2.8425300563293376"
				/>
			
				<rect
					x="62.60623229461756"
					y="94.5906173808256"
					width="0.18328611898016997"
					height="2.4093826191743943"
				/>
			
				<rect
					x="62.889518413597735"
					y="87.90390381974609"
					width="0.18328611898016997"
					height="9.096096180253909"
				/>
			
				<rect
					x="63.172804532577906"
					y="92.69559734327271"
					width="0.18328611898016997"
					height="4.304402656727291"
				/>
			
				<rect
					x="63.45609065155807"
					y="92.50609533951742"
					width="0.18328611898016997"
					height="4.493904660482585"
				/>
			
				<rect
					x="63.73937677053824"
					y="91.856374183785"
					width="0.18328611898016997"
					height="5.143625816215007"
				/>
			
				<rect
					x="64.02266288951841"
					y="91.30591598240058"
					width="0.18328611898016997"
					height="5.6940840175994225"
				/>
			
				<rect
					x="64.30594900849859"
					y="93.65213126698988"
					width="0.18328611898016997"
					height="3.3478687330101167"
				/>
			
				<rect
					x="64.58923512747876"
					y="93.39043802370877"
					width="0.18328611898016997"
					height="3.609561976291232"
				/>
			
				<rect
					x="64.87252124645893"
					y="94.77109547964017"
					width="0.18328611898016997"
					height="2.2289045203598334"
				/>
			
				<rect
					x="65.15580736543909"
					y="82.5076086651907"
					width="0.18328611898016997"
					height="14.492391334809298"
				/>
			
				<rect
					x="65.43909348441926"
					y="92.07294790236247"
					width="0.18328611898016997"
					height="4.927052097637528"
				/>
			
				<rect
					x="65.72237960339943"
					y="91.31493988734131"
					width="0.18328611898016997"
					height="5.6850601126586895"
				/>
			
				<rect
					x="66.0056657223796"
					y="90.66521873160889"
					width="0.18328611898016997"
					height="6.3347812683911116"
				/>
			
				<rect
					x="66.28895184135978"
					y="92.35268895552504"
					width="0.18328611898016997"
					height="4.647311044474961"
				/>
			
				<rect
					x="66.57223796033995"
					y="92.32561724070285"
					width="0.18328611898016997"
					height="4.674382759297146"
				/>
			
				<rect
					x="66.85552407932012"
					y="84.80870442507637"
					width="0.18328611898016997"
					height="12.191295574923629"
				/>
			
				<rect
					x="67.13881019830029"
					y="89.84404338200264"
					width="0.18328611898016997"
					height="7.1559566179973615"
				/>
			
				<rect
					x="67.42209631728045"
					y="88.48143373595269"
					width="0.18328611898016997"
					height="8.518566264047308"
				/>
			
				<rect
					x="67.70538243626062"
					y="86.89322646638455"
					width="0.18328611898016997"
					height="10.106773533615453"
				/>
			
				<rect
					x="67.98866855524079"
					y="87.57904324187989"
					width="0.18328611898016997"
					height="9.420956758120113"
				/>
			
				<rect
					x="68.27195467422096"
					y="89.21237003615167"
					width="0.18328611898016997"
					height="7.787629963848332"
				/>
			
				<rect
					x="68.55524079320114"
					y="89.10408317686293"
					width="0.18328611898016997"
					height="7.895916823137071"
				/>
			
				<rect
					x="68.83852691218131"
					y="81.06378387467421"
					width="0.18328611898016997"
					height="15.936216125325785"
				/>
			
				<rect
					x="69.12181303116148"
					y="85.73816663397136"
					width="0.18328611898016997"
					height="11.26183336602864"
				/>
			
				<rect
					x="69.40509915014164"
					y="87.1639436146064"
					width="0.18328611898016997"
					height="9.836056385393604"
				/>
			
				<rect
					x="69.68838526912181"
					y="84.89894347448364"
					width="0.18328611898016997"
					height="12.101056525516356"
				/>
			
				<rect
					x="69.97167138810198"
					y="84.70944147072836"
					width="0.18328611898016997"
					height="12.290558529271635"
				/>
			
				<rect
					x="70.25495750708215"
					y="86.03595549701538"
					width="0.18328611898016997"
					height="10.96404450298462"
				/>
			
				<rect
					x="70.53824362606233"
					y="83.87924221618138"
					width="0.18328611898016997"
					height="13.120757783818618"
				/>
			
				<rect
					x="70.8215297450425"
					y="77.3639828489757"
					width="0.18328611898016997"
					height="19.636017151024305"
				/>
			
				<rect
					x="71.10481586402267"
					y="82.02031779839139"
					width="0.18328611898016997"
					height="14.979682201608611"
				/>
			
				<rect
					x="71.38810198300284"
					y="80.78404282151165"
					width="0.18328611898016997"
					height="16.215957178488352"
				/>
			
				<rect
					x="71.671388101983"
					y="80.96452092032621"
					width="0.18328611898016997"
					height="16.03547907967379"
				/>
			
				<rect
					x="71.95467422096317"
					y="77.83322590589356"
					width="0.18328611898016997"
					height="19.166774094106444"
				/>
			
				<rect
					x="72.23796033994334"
					y="80.64868424740072"
					width="0.18328611898016997"
					height="16.351315752599277"
				/>
			
				<rect
					x="72.52124645892351"
					y="81.79472017487319"
					width="0.18328611898016997"
					height="15.205279825126809"
				/>
			
				<rect
					x="72.80453257790369"
					y="71.69697054619847"
					width="0.18328611898016997"
					height="25.30302945380153"
				/>
			
				<rect
					x="73.08781869688386"
					y="75.67651262505956"
					width="0.18328611898016997"
					height="21.32348737494044"
				/>
			
				<rect
					x="73.37110481586403"
					y="80.75697110668946"
					width="0.18328611898016997"
					height="16.243028893310537"
				/>
			
				<rect
					x="73.65439093484419"
					y="75.0177675643864"
					width="0.18328611898016997"
					height="21.982232435613597"
				/>
			
				<rect
					x="73.93767705382436"
					y="73.91685116161757"
					width="0.18328611898016997"
					height="23.083148838382428"
				/>
			
				<rect
					x="74.22096317280453"
					y="78.3927080122187"
					width="0.18328611898016997"
					height="18.607291987781295"
				/>
			
				<rect
					x="74.5042492917847"
					y="81.79472017487319"
					width="0.18328611898016997"
					height="15.205279825126809"
				/>
			
				<rect
					x="74.78753541076487"
					y="88.20169268279012"
					width="0.18328611898016997"
					height="8.798307317209876"
				/>
			
				<rect
					x="75.07082152974505"
					y="60.525376229577105"
					width="0.18328611898016997"
					height="36.474623770422895"
				/>
			
				<rect
					x="75.35410764872522"
					y="74.38609421853543"
					width="0.18328611898016997"
					height="22.613905781464567"
				/>
			
				<rect
					x="75.63739376770539"
					y="75.83894291399265"
					width="0.18328611898016997"
					height="21.161057086007347"
				/>
			
				<rect
					x="75.92067988668555"
					y="75.57724967071154"
					width="0.18328611898016997"
					height="21.422750329288462"
				/>
			
				<rect
					x="76.20396600566572"
					y="77.0120505562873"
					width="0.18328611898016997"
					height="19.987949443712694"
				/>
			
				<rect
					x="76.48725212464589"
					y="80.5133256732898"
					width="0.18328611898016997"
					height="16.4866743267102"
				/>
			
				<rect
					x="76.77053824362606"
					y="67.32037664994536"
					width="0.18328611898016997"
					height="29.67962335005464"
				/>
			
				<rect
					x="77.05382436260624"
					y="76.68718997842109"
					width="0.18328611898016997"
					height="20.312810021578912"
				/>
			
				<rect
					x="77.33711048158641"
					y="72.88812599837458"
					width="0.18328611898016997"
					height="24.111874001625424"
				/>
			
				<rect
					x="77.62039660056658"
					y="71.84135302525011"
					width="0.18328611898016997"
					height="25.158646974749885"
				/>
			
				<rect
					x="77.90368271954674"
					y="73.68222963315864"
					width="0.18328611898016997"
					height="23.31777036684136"
				/>
			
				<rect
					x="78.18696883852691"
					y="76.90376369699857"
					width="0.18328611898016997"
					height="20.096236303001433"
				/>
			
				<rect
					x="78.47025495750708"
					y="77.64372390213828"
					width="0.18328611898016997"
					height="19.356276097861723"
				/>
			
				<rect
					x="78.75354107648725"
					y="59.92077459854833"
					width="0.18328611898016997"
					height="37.07922540145167"
				/>
			
				<rect
					x="79.03682719546742"
					y="72.87007818849312"
					width="0.18328611898016997"
					height="24.129921811506875"
				/>
			
				<rect
					x="79.3201133144476"
					y="72.64448056497491"
					width="0.18328611898016997"
					height="24.355519435025087"
				/>
			
				<rect
					x="79.60339943342777"
					y="70.3253369952078"
					width="0.18328611898016997"
					height="26.674663004792194"
				/>
			
				<rect
					x="79.88668555240794"
					y="65.80436061990304"
					width="0.18328611898016997"
					height="31.195639380096964"
				/>
			
				<rect
					x="80.1699716713881"
					y="74.33195078889106"
					width="0.18328611898016997"
					height="22.668049211108936"
				/>
			
				<rect
					x="80.45325779036827"
					y="75.97430148810358"
					width="0.18328611898016997"
					height="21.025698511896422"
				/>
			
				<rect
					x="80.73654390934844"
					y="66.12019729282852"
					width="0.18328611898016997"
					height="30.87980270717148"
				/>
			
				<rect
					x="81.01983002832861"
					y="54.840316116918416"
					width="0.18328611898016997"
					height="42.159683883081584"
				/>
			
				<rect
					x="81.30311614730878"
					y="72.02183112406468"
					width="0.18328611898016997"
					height="24.978168875935324"
				/>
			
				<rect
					x="81.58640226628896"
					y="64.19810554045344"
					width="0.18328611898016997"
					height="32.80189445954656"
				/>
			
				<rect
					x="81.86968838526913"
					y="56.654121010004765"
					width="0.18328611898016997"
					height="40.345878989995235"
				/>
			
				<rect
					x="82.15297450424929"
					y="58.68449962166858"
					width="0.18328611898016997"
					height="38.31550037833142"
				/>
			
				<rect
					x="82.43626062322946"
					y="60.38099375052546"
					width="0.18328611898016997"
					height="36.61900624947454"
				/>
			
				<rect
					x="82.71954674220963"
					y="55.291511363954825"
					width="0.18328611898016997"
					height="41.708488636045175"
				/>
			
				<rect
					x="83.0028328611898"
					y="58.17916094498781"
					width="0.18328611898016997"
					height="38.82083905501219"
				/>
			
				<rect
					x="83.28611898016997"
					y="60.687806518510214"
					width="0.18328611898016997"
					height="36.312193481489786"
				/>
			
				<rect
					x="83.56940509915015"
					y="47.22414034694392"
					width="0.18328611898016997"
					height="49.77585965305608"
				/>
			
				<rect
					x="83.85269121813032"
					y="54.21766667600818"
					width="0.18328611898016997"
					height="42.78233332399182"
				/>
			
				<rect
					x="84.13597733711049"
					y="55.37272650842137"
					width="0.18328611898016997"
					height="41.62727349157863"
				/>
			
				<rect
					x="84.41926345609065"
					y="59.58689011574139"
					width="0.18328611898016997"
					height="37.41310988425861"
				/>
			
				<rect
					x="84.70254957507082"
					y="41.818821287447804"
					width="0.18328611898016997"
					height="55.181178712552196"
				/>
			
				<rect
					x="84.98583569405099"
					y="58.41378247344674"
					width="0.18328611898016997"
					height="38.58621752655326"
				/>
			
				<rect
					x="85.26912181303116"
					y="55.12005717008099"
					width="0.18328611898016997"
					height="41.87994282991901"
				/>
			
				<rect
					x="85.55240793201133"
					y="55.111033265140264"
					width="0.18328611898016997"
					height="41.888966734859736"
				/>
			
				<rect
					x="85.8356940509915"
					y="52.169240254462906"
					width="0.18328611898016997"
					height="44.830759745537094"
				/>
			
				<rect
					x="86.11898016997168"
					y="51.952666535885434"
					width="0.18328611898016997"
					height="45.047333464114566"
				/>
			
				<rect
					x="86.40226628895184"
					y="53.75744752403105"
					width="0.18328611898016997"
					height="43.24255247596895"
				/>
			
				<rect
					x="86.68555240793201"
					y="33.36342235798559"
					width="0.18328611898016997"
					height="63.63657764201441"
				/>
			
				<rect
					x="86.96883852691218"
					y="52.882128744780424"
					width="0.18328611898016997"
					height="44.117871255219576"
				/>
			
				<rect
					x="87.25212464589235"
					y="51.68194938766359"
					width="0.18328611898016997"
					height="45.31805061233641"
				/>
			
				<rect
					x="87.53541076487252"
					y="46.18639127876019"
					width="0.18328611898016997"
					height="50.81360872123981"
				/>
			
				<rect
					x="87.8186968838527"
					y="43.15435921867556"
					width="0.18328611898016997"
					height="53.84564078132444"
				/>
			
				<rect
					x="88.10198300283287"
					y="45.14864221057646"
					width="0.18328611898016997"
					height="51.85135778942354"
				/>
			
				<rect
					x="88.38526912181304"
					y="47.65728778409887"
					width="0.18328611898016997"
					height="49.34271221590113"
				/>
			
				<rect
					x="88.6685552407932"
					y="26.06308326093658"
					width="0.18328611898016997"
					height="70.93691673906342"
				/>
			
				<rect
					x="88.95184135977337"
					y="48.91161057086007"
					width="0.18328611898016997"
					height="48.08838942913993"
				/>
			
				<rect
					x="89.23512747875354"
					y="40.08623153882801"
					width="0.18328611898016997"
					height="56.91376846117199"
				/>
			
				<rect
					x="89.51841359773371"
					y="38.38973740997113"
					width="0.18328611898016997"
					height="58.61026259002887"
				/>
			
				<rect
					x="89.80169971671388"
					y="40.15842277835384"
					width="0.18328611898016997"
					height="56.84157722164616"
				/>
			
				<rect
					x="90.08498583569406"
					y="39.68015581649525"
					width="0.18328611898016997"
					height="57.31984418350475"
				/>
			
				<rect
					x="90.36827195467423"
					y="40.5013311661015"
					width="0.18328611898016997"
					height="56.4986688338985"
				/>
			
				<rect
					x="90.6515580736544"
					y="25.963820306588573"
					width="0.18328611898016997"
					height="71.03617969341143"
				/>
			
				<rect
					x="90.93484419263456"
					y="43.02802454950537"
					width="0.18328611898016997"
					height="53.97197545049463"
				/>
			
				<rect
					x="91.21813031161473"
					y="40.19451839811675"
					width="0.18328611898016997"
					height="56.80548160188325"
				/>
			
				<rect
					x="91.5014164305949"
					y="36.187904604433484"
					width="0.18328611898016997"
					height="60.812095395566516"
				/>
			
				<rect
					x="91.78470254957507"
					y="35.89011574138946"
					width="0.18328611898016997"
					height="61.10988425861054"
				/>
			
				<rect
					x="92.06798866855524"
					y="42.757307401283526"
					width="0.18328611898016997"
					height="54.242692598716474"
				/>
			
				<rect
					x="92.35127478753542"
					y="43.84017599417089"
					width="0.18328611898016997"
					height="53.15982400582911"
				/>
			
				<rect
					x="92.63456090651559"
					y="23.73491578622874"
					width="0.18328611898016997"
					height="73.26508421377126"
				/>
			
				<rect
					x="92.91784702549575"
					y="39.68015581649525"
					width="0.18328611898016997"
					height="57.31984418350475"
				/>
			
				<rect
					x="93.20113314447592"
					y="39.10262590028865"
					width="0.18328611898016997"
					height="57.89737409971135"
				/>
			
				<rect
					x="93.48441926345609"
					y="33.76047417537763"
					width="0.18328611898016997"
					height="63.23952582462237"
				/>
			
				<rect
					x="93.76770538243626"
					y="36.46764565759605"
					width="0.18328611898016997"
					height="60.53235434240395"
				/>
			
				<rect
					x="94.05099150141643"
					y="40.618641930330966"
					width="0.18328611898016997"
					height="56.381358069669034"
				/>
			
				<rect
					x="94.3342776203966"
					y="41.04276546254519"
					width="0.18328611898016997"
					height="55.95723453745481"
				/>
			
				<rect
					x="94.61756373937678"
					y="29.14925875066558"
					width="0.18328611898016997"
					height="67.85074124933442"
				/>
			
				<rect
					x="94.90084985835695"
					y="41.09690889218955"
					width="0.18328611898016997"
					height="55.90309110781045"
				/>
			
				<rect
					x="95.1841359773371"
					y="35.2313706807163"
					width="0.18328611898016997"
					height="61.7686293192837"
				/>
			
				<rect
					x="95.46742209631728"
					y="97"
					width="0.18328611898016997"
					height="0"
				/>
			
				<rect
					x="95.75070821529745"
					y="97"
					width="0.18328611898016997"
					height="0"
				/>
			
				<rect
					x="96.03399433427762"
					y="97"
					width="0.18328611898016997"
					height="0"
				/>
			
				<rect
					x="96.3172804532578"
					y="-116.55973432727069"
					width="0.18328611898016997"
					height="213.5597343272707"
				/>
			
				<rect
					x="96.60056657223797"
					y="68.24081495389962"
					width="0.18328611898016997"
					height="28.759185046100384"
				/>
			
				<rect
					x="96.88385269121814"
					y="4.062803015441531"
					width="0.18328611898016997"
					height="92.93719698455847"
				/>
			
				<rect
					x="97.1671388101983"
					y="29.537286663116888"
					width="0.18328611898016997"
					height="67.46271333688311"
				/>
			
				<rect
					x="97.45042492917847"
					y="97"
					width="0.18328611898016997"
					height="0"
				/>
			
				<rect
					x="97.73371104815864"
					y="97"
					width="0.18328611898016997"
					height="0"
				/>
			
				<rect
					x="98.01699716713881"
					y="97"
					width="0.18328611898016997"
					height="0"
				/>
			
				<rect
					x="98.30028328611898"
					y="-161.81461760502202"
					width="0.18328611898016997"
					height="258.814617605022"
				/>
			
				<rect
					x="98.58356940509915"
					y="8.917663873553224"
					width="0.18328611898016997"
					height="88.08233612644678"
				/>
			
				<rect
					x="98.86685552407933"
					y="31.829358518061824"
					width="0.18328611898016997"
					height="65.17064148193818"
				/>
			
				<rect
					x="99.1501416430595"
					y="23.428103018243974"
					width="0.18328611898016997"
					height="73.57189698175603"
				/>
			
				<rect
					x="99.43342776203966"
					y="21.785752319031474"
					width="0.18328611898016997"
					height="75.21424768096853"
				/>
			
				<rect
					x="99.71671388101983"
					y="13.853739876131485"
					width="0.18328611898016997"
					height="83.14626012386852"
				/>
			
		</g>

		<path class="rolling-area" d="M0,97L0,97L0.28328611898017,97L0.56657223796034,97L0.8498583569405099,97L1.13314447592068,96.99871087072275L1.41643059490085,96.99871087072275L1.6997167138810199,96.9974217414455L1.9830028328611897,96.9974217414455L2.26628895184136,96.9974217414455L2.54957507082153,96.99484348289101L2.8328611898017,96.99484348289101L3.1161473087818696,96.99613261216825L3.3994334277620397,96.99613261216825L3.68271954674221,96.9974217414455L3.9660056657223794,96.99613261216825L4.2492917847025495,96.99613261216825L4.53257790368272,96.99613261216825L4.81586402266289,96.99613261216825L5.09915014164306,96.99613261216825L5.38243626062323,96.99613261216825L5.6657223796034,96.99613261216825L5.949008498583569,96.9974217414455L6.232294617563739,96.9974217414455L6.515580736543909,97L6.798866855524079,97L7.0821529745042495,96.99871087072275L7.36543909348442,96.99871087072275L7.64872521246459,96.99871087072275L7.932011331444759,96.99871087072275L8.215297450424929,96.99871087072275L8.498583569405099,96.9974217414455L8.78186968838527,96.9974217414455L9.06515580736544,96.99871087072275L9.34844192634561,96.9974217414455L9.63172804532578,96.99613261216825L9.91501416430595,96.99484348289101L10.19830028328612,96.99355435361376L10.48158640226629,96.99355435361376L10.76487252124646,96.99226522433652L11.04815864022663,96.9806630608413L11.3314447592068,96.9780848022868L11.614730878186968,96.97163915590058L11.898016997167138,96.97292828517782L12.181303116147308,96.9587478631281L12.464589235127479,96.95230221674187L12.747875354107649,96.94585657035563L13.031161473087819,96.95101308746462L13.314447592067989,96.93554353613766L13.597733711048159,96.94327831180114L13.881019830028329,96.90976095059271L14.164305949008499,96.88011097721603L14.44759206798867,96.83885884034414L14.73087818696884,96.82467841829443L15.01416430594901,96.75893282515483L15.29745042492918,96.68158506852002L15.58073654390935,96.55267214079534L15.864022662889518,96.39926575680296L16.14730878186969,96.08729647170922L16.430594900849858,95.97514222458874L16.71388101983003,95.57035563153322L16.997167138810198,95.47753832357145L17.28045325779037,95.29577109547964L17.56373937677054,95.02118655942606L17.84702549575071,93.36981195527282L18.13031161473088,92.91088193257293L18.413597733711047,92.2250651570776L18.69688385269122,91.73519603172379L18.980169971671387,90.77995123728385L19.26345609065156,89.55141103606759L19.546742209631727,88.52139674354734L19.8300283286119,88.99450718829695L20.113314447592067,87.6538127399602L20.39660056657224,86.88806994927556L20.679886685552407,86.0475576605106L20.96317280453258,85.08715634896168L21.246458923512748,85.10262590028866L21.52974504249292,84.95050864557352L21.813031161473088,84.52251772552756L22.09631728045326,84.7790544516997L22.379603399433428,84.60631112854861L22.6628895184136,84.85769133761175L22.946175637393768,85.56671244009752L23.229461756373937,85.38494521200572L23.51274787535411,85.18770843258694L23.796033994334277,85.28181486982596L24.07932011331445,84.96855645545497L24.362606232294617,84.44516996889276L24.64589235127479,84.05714205644145L24.929178470254957,83.57758596530562L25.21246458923513,82.61331726592495L25.495750708215297,82.34646750553485L25.77903682719547,81.76893758932825L26.062322946175637,81.49306392399743L26.34560906515581,81.52400302665134L26.628895184135978,81.51368999243337L26.91218130311615,81.39251184037217L27.195467422096318,81.96101785163803L27.478753541076486,82.02934170333212L27.762039660056658,82.28072191239525L28.045325779036826,82.65714766135135L28.328611898016998,82.58237816327102L28.611898016997166,82.35549141047558L28.89518413597734,80.76986239946193L29.178470254957507,81.16562508757671L29.46175637393768,81.50466608749264L29.745042492917847,81.66065073003952L30.02832861189802,81.9352352660931L30.311614730878187,82.33873272987137L30.59490084985836,82.83504750161141L30.878186968838527,84.91570215508786L31.1614730878187,85.12840848583359L31.444759206798867,85.25474315500378L31.728045325779036,85.678866687218L32.01133144475921,86.0694728582238L32.29461756373938,86.45621164139786L32.577903682719544,86.47812683911106L32.861189801699716,86.48843987332904L33.14447592067989,86.56965501779558L33.42776203966006,86.74497659950116L33.711048158640224,86.9138525348205L33.994334277620396,86.78622873637306L34.27762039660057,86.85841997589888L34.56090651558074,87.00022419639605L34.844192634560905,87.07757195303085L35.12747875354108,87.15234145111117L35.41076487252125,87.28641089594485L35.69405099150142,87.43852815065998L35.977337110481585,87.73373875514952L36.26062322946176,88.05602107446123L36.54390934844193,88.53170977776531L36.827195467422094,88.94552027576157L37.110481586402265,89.27295911218226L37.39376770538244,89.5707479752263L37.67705382436261,89.82470644284393L37.960339943342774,90.27847994843484L38.243626062322946,90.66135134377714L38.52691218130312,91.65655914581173L38.81019830028329,90.87405767452289L39.093484419263454,91.14864221057647L39.376770538243626,91.53022447664154L39.6600566572238,91.79191771992265L39.94334277620397,92.09615222935291L40.226628895184135,92.34882156769329L40.50991501416431,91.74679819521901L40.79320113314448,93.01916879186167L41.07648725212464,93.25765770815234L41.359773371104815,93.37239021382732L41.64305949008499,93.48325533167055L41.92634560906516,93.53224224420592L42.20963172804532,93.53739876131492L42.492917847025495,93.63666171566292L42.77620396600567,93.7127203430205L43.05949008498584,93.7900680996553L43.342776203966004,93.78233332399182L43.626062322946176,93.92027015665724L43.90934844192635,93.90351147605303L44.19263456090652,94.20903511476052L44.475920679886684,94.40498276490206L44.759206798866856,94.53389569262674L45.04249291784703,94.0594961185999L45.3257790368272,94.11106128968977L45.609065155807365,94.47072835804164L45.892351274787536,94.22837205391923L46.17563739376771,94.03887005016395L46.45892351274787,94.05433960149091L46.742209631728045,94.05305047221366L47.02549575070822,94.39982624779307L47.30878186968839,94.4694392287644L47.59206798866855,94.12524171173948L47.875354107648725,94.37920017935711L48.1586402266289,94.37662192080262L48.44192634560907,94.38306756718886L48.725212464589234,94.35212846453493L49.008498583569406,94.13813300451196L49.29178470254958,94.01050920606451L49.57507082152975,93.91253538099375L49.858356940509914,93.83003110724995L50.141643059490086,93.72174424796121L50.42492917847026,93.5812291567413L50.70821529745042,93.4574727461256L50.991501416430594,93.17257517585405L51.274787535410766,92.86060589076031L51.55807365439094,92.60278003531093L51.8413597733711,92.60664742314268L52.124645892351275,92.44034974637782L52.40793201133145,92.41456716083289L52.69121813031162,92.39394109239694L52.97450424929178,92.52285402012163L53.257790368271955,92.74974077291708L53.54107648725213,92.83611243449262L53.8243626062323,92.96889275004904L54.107648725212464,92.99596446487122L54.390934844192635,93.07717960933778L54.67422096317281,93.16741865874506L54.95750708215297,93.86225933918112L55.240793201133144,93.39301628226326L55.524079320113316,93.49743575372025L55.80736543909349,93.43942493624415L56.09065155807365,93.55415744191912L56.373937677053824,93.61990303505871L56.657223796033996,93.6908051453073L56.94050991501417,93.00241011125746L57.22379603399433,93.61087913011798L57.507082152974505,93.57478351035508L57.79036827195468,93.55415744191912L58.07365439093485,93.5618922175826L58.35694050991501,93.56060308830536L58.640226628895185,93.60185522517726L58.92351274787536,93.46778578034358L59.20679886685552,93.47680968528431L59.49008498583569,93.58896393240478L59.773371104815865,93.59798783734551L60.05665722379604,93.49356836588852L60.3399433427762,93.46778578034358L60.623229461756374,93.37883586021354L60.906515580736546,93.42266625563994L61.18980169971672,93.37110108455006L61.47308781869688,93.22671860549842L61.756373937677054,93.16484040019057L62.039660056657226,93.15065997814085L62.3229461756374,93.07589048006054L62.60623229461756,93.07589048006054L62.889518413597735,92.74458425580809L63.172804532577906,92.54476921783483L63.45609065155807,92.48031275397248L63.73937677053824,92.30112378443516L64.02266288951841,92.1451391418883L64.30594900849859,92.07294790236247L64.58923512747876,91.90149370848863L64.87252124645893,92.88252108847351L65.15580736543909,91.42709413446178L65.43909348441926,91.36521592915393L65.72237960339943,91.28786817251913L66.0056657223796,91.1963399938346L66.28895184135978,91.01070537791105L66.57223796033995,90.85858812319591L66.85552407932012,89.43538940111537L67.13881019830029,90.48345150351707L67.42209631728045,89.97037805117283L67.70538243626062,89.33870470532186L67.98866855524079,88.89782249250344L68.27195467422096,88.44920550402152L68.55524079320114,87.98898635204439L68.83852691218131,87.45399770198694L69.12181303116148,86.86744388083962L69.40509915014164,86.67923100636158L69.68838526912181,86.39433343609002L69.97167138810198,85.98439032592552L70.25495750708215,85.53061682033461L70.53824362606233,84.78421096880868L70.8215297450425,84.25566796513746L71.10481586402267,83.72454670291175L71.38810198300284,82.81313230389821L71.671388101983,82.25107193901859L71.95467422096317,81.26875542975647L72.23796033994334,80.49914525124008L72.52124645892351,80.20135638819606L72.80453257790369,79.39178320208502L73.08781869688386,78.48552532018047L73.37110481586403,78.48165793234874L73.65439093484419,77.63212173864305L73.93767705382436,77.0726396323179L74.22096317280453,76.75035731300619L74.5042492917847,76.75035731300619L74.78753541076487,79.10817476109071L75.07082152974505,76.94372670459322L75.35410764872522,76.03360143485693L75.63739376770539,76.1509121990864L75.92067988668555,76.38811198609983L76.20396600566572,76.19087520668106L76.48725212464589,76.007818849312L76.77053824362606,73.02477370176274L77.05382436260624,75.33360423731189L77.33711048158641,75.1196087772889L77.62039660056658,74.54852450746854L77.90368271954674,74.27780735924671L78.18696883852691,74.26233780791974L78.47025495750708,73.85239469775523L78.75354107648725,72.79530869041281L79.03682719546742,72.25000700613737L79.3201133144476,72.21520051565172L79.60339943342777,71.99862679707424L79.88668555240794,70.87321693803773L80.1699716713881,70.50581509402237L80.45325779036827,70.26732617773169L80.73654390934844,71.1529579912003L81.01983002832861,68.57727769526105L81.30311614730878,68.48832777513101L81.58640226628896,67.61300899588039L81.86968838526913,66.30583190875207L82.15297450424929,64.070481742006L82.43626062322946,61.84286635092341L82.71954674220963,60.29591121822717L83.0028328611898,60.77288905080851L83.28611898016997,59.15374267858644L83.56940509915015,56.72889050808509L83.85269121813032,56.38082560322842L84.13597733711049,55.90771515847883L84.41926345609065,55.7942717820811L84.70254957507082,53.86960177115153L84.98583569405099,53.90311913235995L85.26912181303116,53.10772636829863L85.55240793201133,54.23442535661239L85.8356940509915,53.94179301067735L86.11898016997168,53.45321301460079L86.40226628895184,52.620435501499315L86.68555240793201,51.41252136871899L86.96883852691218,50.622285121766666L87.25212464589235,50.131126867135606L87.53541076487252,48.85617801193846L87.8186968838527,47.568337863968836L88.10198300283287,46.596334388924696L88.38526912181304,45.724882997505816L88.6685552407932,44.6819774122131L88.95184135977337,44.11476053022448L89.23512747875354,42.458229408962254L89.51841359773371,41.34442171342096L89.80169971671388,40.91643079337499L90.08498583569406,40.13521845136339L90.36827195467423,39.11293893450662L90.6515580736544,39.09875851245691L90.93484419263456,38.258246223691955L91.21813031161473,38.273715775018914L91.5014164305949,37.95916823137068L91.78470254957507,37.349410083232904L92.06798866855524,37.789003166774094L92.35127478753542,38.265980999355435L92.63456090651559,37.94756606787546L92.91784702549575,37.46929910601687L93.20113314447592,37.31331446346999L93.48441926345609,36.96653868789059L93.76770538243626,37.04904296163439L94.05099150141643,36.74351932292688L94.3342776203966,36.34388924698035L94.61756373937678,37.11736681332847L94.90084985835695,37.31976010985623L95.1841359773371,36.766723649917324L95.46742209631728,45.800941624863384L95.75070821529745,54.44842081663537L96.03399433427762,62.5029005408738L96.3172804532578,39.98825771375725L96.60056657223797,45.572765742790686L96.88385269121814,40.28217918896953L97.1671388101983,39.46873861502676L97.45042492917847,39.46873861502676L97.73371104815864,39.46873861502676L98.01699716713881,39.46873861502676L98.30028328611898,33.003755289633716L98.58356940509915,24.529019421012805L98.86685552407933,28.495670207101412L99.1501416430595,27.622929686405286L99.43342776203966,16.878037160552637L99.71671388101983,5L100,97Z"/>
		<path class="rolling-line" d="M0,97L0.28328611898017,97L0.56657223796034,97L0.8498583569405099,97L1.13314447592068,96.99871087072275L1.41643059490085,96.99871087072275L1.6997167138810199,96.9974217414455L1.9830028328611897,96.9974217414455L2.26628895184136,96.9974217414455L2.54957507082153,96.99484348289101L2.8328611898017,96.99484348289101L3.1161473087818696,96.99613261216825L3.3994334277620397,96.99613261216825L3.68271954674221,96.9974217414455L3.9660056657223794,96.99613261216825L4.2492917847025495,96.99613261216825L4.53257790368272,96.99613261216825L4.81586402266289,96.99613261216825L5.09915014164306,96.99613261216825L5.38243626062323,96.99613261216825L5.6657223796034,96.99613261216825L5.949008498583569,96.9974217414455L6.232294617563739,96.9974217414455L6.515580736543909,97L6.798866855524079,97L7.0821529745042495,96.99871087072275L7.36543909348442,96.99871087072275L7.64872521246459,96.99871087072275L7.932011331444759,96.99871087072275L8.215297450424929,96.99871087072275L8.498583569405099,96.9974217414455L8.78186968838527,96.9974217414455L9.06515580736544,96.99871087072275L9.34844192634561,96.9974217414455L9.63172804532578,96.99613261216825L9.91501416430595,96.99484348289101L10.19830028328612,96.99355435361376L10.48158640226629,96.99355435361376L10.76487252124646,96.99226522433652L11.04815864022663,96.9806630608413L11.3314447592068,96.9780848022868L11.614730878186968,96.97163915590058L11.898016997167138,96.97292828517782L12.181303116147308,96.9587478631281L12.464589235127479,96.95230221674187L12.747875354107649,96.94585657035563L13.031161473087819,96.95101308746462L13.314447592067989,96.93554353613766L13.597733711048159,96.94327831180114L13.881019830028329,96.90976095059271L14.164305949008499,96.88011097721603L14.44759206798867,96.83885884034414L14.73087818696884,96.82467841829443L15.01416430594901,96.75893282515483L15.29745042492918,96.68158506852002L15.58073654390935,96.55267214079534L15.864022662889518,96.39926575680296L16.14730878186969,96.08729647170922L16.430594900849858,95.97514222458874L16.71388101983003,95.57035563153322L16.997167138810198,95.47753832357145L17.28045325779037,95.29577109547964L17.56373937677054,95.02118655942606L17.84702549575071,93.36981195527282L18.13031161473088,92.91088193257293L18.413597733711047,92.2250651570776L18.69688385269122,91.73519603172379L18.980169971671387,90.77995123728385L19.26345609065156,89.55141103606759L19.546742209631727,88.52139674354734L19.8300283286119,88.99450718829695L20.113314447592067,87.6538127399602L20.39660056657224,86.88806994927556L20.679886685552407,86.0475576605106L20.96317280453258,85.08715634896168L21.246458923512748,85.10262590028866L21.52974504249292,84.95050864557352L21.813031161473088,84.52251772552756L22.09631728045326,84.7790544516997L22.379603399433428,84.60631112854861L22.6628895184136,84.85769133761175L22.946175637393768,85.56671244009752L23.229461756373937,85.38494521200572L23.51274787535411,85.18770843258694L23.796033994334277,85.28181486982596L24.07932011331445,84.96855645545497L24.362606232294617,84.44516996889276L24.64589235127479,84.05714205644145L24.929178470254957,83.57758596530562L25.21246458923513,82.61331726592495L25.495750708215297,82.34646750553485L25.77903682719547,81.76893758932825L26.062322946175637,81.49306392399743L26.34560906515581,81.52400302665134L26.628895184135978,81.51368999243337L26.91218130311615,81.39251184037217L27.195467422096318,81.96101785163803L27.478753541076486,82.02934170333212L27.762039660056658,82.28072191239525L28.045325779036826,82.65714766135135L28.328611898016998,82.58237816327102L28.611898016997166,82.35549141047558L28.89518413597734,80.76986239946193L29.178470254957507,81.16562508757671L29.46175637393768,81.50466608749264L29.745042492917847,81.66065073003952L30.02832861189802,81.9352352660931L30.311614730878187,82.33873272987137L30.59490084985836,82.83504750161141L30.878186968838527,84.91570215508786L31.1614730878187,85.12840848583359L31.444759206798867,85.25474315500378L31.728045325779036,85.678866687218L32.01133144475921,86.0694728582238L32.29461756373938,86.45621164139786L32.577903682719544,86.47812683911106L32.861189801699716,86.48843987332904L33.14447592067989,86.56965501779558L33.42776203966006,86.74497659950116L33.711048158640224,86.9138525348205L33.994334277620396,86.78622873637306L34.27762039660057,86.85841997589888L34.56090651558074,87.00022419639605L34.844192634560905,87.07757195303085L35.12747875354108,87.15234145111117L35.41076487252125,87.28641089594485L35.69405099150142,87.43852815065998L35.977337110481585,87.73373875514952L36.26062322946176,88.05602107446123L36.54390934844193,88.53170977776531L36.827195467422094,88.94552027576157L37.110481586402265,89.27295911218226L37.39376770538244,89.5707479752263L37.67705382436261,89.82470644284393L37.960339943342774,90.27847994843484L38.243626062322946,90.66135134377714L38.52691218130312,91.65655914581173L38.81019830028329,90.87405767452289L39.093484419263454,91.14864221057647L39.376770538243626,91.53022447664154L39.6600566572238,91.79191771992265L39.94334277620397,92.09615222935291L40.226628895184135,92.34882156769329L40.50991501416431,91.74679819521901L40.79320113314448,93.01916879186167L41.07648725212464,93.25765770815234L41.359773371104815,93.37239021382732L41.64305949008499,93.48325533167055L41.92634560906516,93.53224224420592L42.20963172804532,93.53739876131492L42.492917847025495,93.63666171566292L42.77620396600567,93.7127203430205L43.05949008498584,93.7900680996553L43.342776203966004,93.78233332399182L43.626062322946176,93.92027015665724L43.90934844192635,93.90351147605303L44.19263456090652,94.20903511476052L44.475920679886684,94.40498276490206L44.759206798866856,94.53389569262674L45.04249291784703,94.0594961185999L45.3257790368272,94.11106128968977L45.609065155807365,94.47072835804164L45.892351274787536,94.22837205391923L46.17563739376771,94.03887005016395L46.45892351274787,94.05433960149091L46.742209631728045,94.05305047221366L47.02549575070822,94.39982624779307L47.30878186968839,94.4694392287644L47.59206798866855,94.12524171173948L47.875354107648725,94.37920017935711L48.1586402266289,94.37662192080262L48.44192634560907,94.38306756718886L48.725212464589234,94.35212846453493L49.008498583569406,94.13813300451196L49.29178470254958,94.01050920606451L49.57507082152975,93.91253538099375L49.858356940509914,93.83003110724995L50.141643059490086,93.72174424796121L50.42492917847026,93.5812291567413L50.70821529745042,93.4574727461256L50.991501416430594,93.17257517585405L51.274787535410766,92.86060589076031L51.55807365439094,92.60278003531093L51.8413597733711,92.60664742314268L52.124645892351275,92.44034974637782L52.40793201133145,92.41456716083289L52.69121813031162,92.39394109239694L52.97450424929178,92.52285402012163L53.257790368271955,92.74974077291708L53.54107648725213,92.83611243449262L53.8243626062323,92.96889275004904L54.107648725212464,92.99596446487122L54.390934844192635,93.07717960933778L54.67422096317281,93.16741865874506L54.95750708215297,93.86225933918112L55.240793201133144,93.39301628226326L55.524079320113316,93.49743575372025L55.80736543909349,93.43942493624415L56.09065155807365,93.55415744191912L56.373937677053824,93.61990303505871L56.657223796033996,93.6908051453073L56.94050991501417,93.00241011125746L57.22379603399433,93.61087913011798L57.507082152974505,93.57478351035508L57.79036827195468,93.55415744191912L58.07365439093485,93.5618922175826L58.35694050991501,93.56060308830536L58.640226628895185,93.60185522517726L58.92351274787536,93.46778578034358L59.20679886685552,93.47680968528431L59.49008498583569,93.58896393240478L59.773371104815865,93.59798783734551L60.05665722379604,93.49356836588852L60.3399433427762,93.46778578034358L60.623229461756374,93.37883586021354L60.906515580736546,93.42266625563994L61.18980169971672,93.37110108455006L61.47308781869688,93.22671860549842L61.756373937677054,93.16484040019057L62.039660056657226,93.15065997814085L62.3229461756374,93.07589048006054L62.60623229461756,93.07589048006054L62.889518413597735,92.74458425580809L63.172804532577906,92.54476921783483L63.45609065155807,92.48031275397248L63.73937677053824,92.30112378443516L64.02266288951841,92.1451391418883L64.30594900849859,92.07294790236247L64.58923512747876,91.90149370848863L64.87252124645893,92.88252108847351L65.15580736543909,91.42709413446178L65.43909348441926,91.36521592915393L65.72237960339943,91.28786817251913L66.0056657223796,91.1963399938346L66.28895184135978,91.01070537791105L66.57223796033995,90.85858812319591L66.85552407932012,89.43538940111537L67.13881019830029,90.48345150351707L67.42209631728045,89.97037805117283L67.70538243626062,89.33870470532186L67.98866855524079,88.89782249250344L68.27195467422096,88.44920550402152L68.55524079320114,87.98898635204439L68.83852691218131,87.45399770198694L69.12181303116148,86.86744388083962L69.40509915014164,86.67923100636158L69.68838526912181,86.39433343609002L69.97167138810198,85.98439032592552L70.25495750708215,85.53061682033461L70.53824362606233,84.78421096880868L70.8215297450425,84.25566796513746L71.10481586402267,83.72454670291175L71.38810198300284,82.81313230389821L71.671388101983,82.25107193901859L71.95467422096317,81.26875542975647L72.23796033994334,80.49914525124008L72.52124645892351,80.20135638819606L72.80453257790369,79.39178320208502L73.08781869688386,78.48552532018047L73.37110481586403,78.48165793234874L73.65439093484419,77.63212173864305L73.93767705382436,77.0726396323179L74.22096317280453,76.75035731300619L74.5042492917847,76.75035731300619L74.78753541076487,79.10817476109071L75.07082152974505,76.94372670459322L75.35410764872522,76.03360143485693L75.63739376770539,76.1509121990864L75.92067988668555,76.38811198609983L76.20396600566572,76.19087520668106L76.48725212464589,76.007818849312L76.77053824362606,73.02477370176274L77.05382436260624,75.33360423731189L77.33711048158641,75.1196087772889L77.62039660056658,74.54852450746854L77.90368271954674,74.27780735924671L78.18696883852691,74.26233780791974L78.47025495750708,73.85239469775523L78.75354107648725,72.79530869041281L79.03682719546742,72.25000700613737L79.3201133144476,72.21520051565172L79.60339943342777,71.99862679707424L79.88668555240794,70.87321693803773L80.1699716713881,70.50581509402237L80.45325779036827,70.26732617773169L80.73654390934844,71.1529579912003L81.01983002832861,68.57727769526105L81.30311614730878,68.48832777513101L81.58640226628896,67.61300899588039L81.86968838526913,66.30583190875207L82.15297450424929,64.070481742006L82.43626062322946,61.84286635092341L82.71954674220963,60.29591121822717L83.0028328611898,60.77288905080851L83.28611898016997,59.15374267858644L83.56940509915015,56.72889050808509L83.85269121813032,56.38082560322842L84.13597733711049,55.90771515847883L84.41926345609065,55.7942717820811L84.70254957507082,53.86960177115153L84.98583569405099,53.90311913235995L85.26912181303116,53.10772636829863L85.55240793201133,54.23442535661239L85.8356940509915,53.94179301067735L86.11898016997168,53.45321301460079L86.40226628895184,52.620435501499315L86.68555240793201,51.41252136871899L86.96883852691218,50.622285121766666L87.25212464589235,50.131126867135606L87.53541076487252,48.85617801193846L87.8186968838527,47.568337863968836L88.10198300283287,46.596334388924696L88.38526912181304,45.724882997505816L88.6685552407932,44.6819774122131L88.95184135977337,44.11476053022448L89.23512747875354,42.458229408962254L89.51841359773371,41.34442171342096L89.80169971671388,40.91643079337499L90.08498583569406,40.13521845136339L90.36827195467423,39.11293893450662L90.6515580736544,39.09875851245691L90.93484419263456,38.258246223691955L91.21813031161473,38.273715775018914L91.5014164305949,37.95916823137068L91.78470254957507,37.349410083232904L92.06798866855524,37.789003166774094L92.35127478753542,38.265980999355435L92.63456090651559,37.94756606787546L92.91784702549575,37.46929910601687L93.20113314447592,37.31331446346999L93.48441926345609,36.96653868789059L93.76770538243626,37.04904296163439L94.05099150141643,36.74351932292688L94.3342776203966,36.34388924698035L94.61756373937678,37.11736681332847L94.90084985835695,37.31976010985623L95.1841359773371,36.766723649917324L95.46742209631728,45.800941624863384L95.75070821529745,54.44842081663537L96.03399433427762,62.5029005408738L96.3172804532578,39.98825771375725L96.60056657223797,45.572765742790686L96.88385269121814,40.28217918896953L97.1671388101983,39.46873861502676L97.45042492917847,39.46873861502676L97.73371104815864,39.46873861502676L98.01699716713881,39.46873861502676L98.30028328611898,33.003755289633716L98.58356940509915,24.529019421012805L98.86685552407933,28.495670207101412L99.1501416430595,27.622929686405286L99.43342776203966,16.878037160552637L99.71671388101983,5"/>
	</g>

	
</svg>